M48
INCH
T01C.019685
T02C.027559
T03C.0315
T04C.03937
T05C.04724
T06C.133858
;LEADER: 12 
;HEADER: 
;CODE  : ASCII 
;FILE  : CMS-1-2.drl for  ... layers TOP and BOTTOM
;DESIGN: CMS.brd
;T01 Holesize 1. = 19.685000 Tolerance = +0.000000/-0.000000 PLATED MILS Quantity = 322
;T02 Holesize 2. = 27.559000 Tolerance = +0.000000/-0.000000 PLATED MILS Quantity = 27
;T03 Holesize 3. = 31.500000 Tolerance = +0.000000/-0.000000 PLATED MILS Quantity = 12
;T04 Holesize 4. = 39.370000 Tolerance = +0.000000/-0.000000 PLATED MILS Quantity = 14
;T05 Holesize 5. = 47.240000 Tolerance = +0.000000/-0.000000 PLATED MILS Quantity = 29
;T06 Holesize 6. = 133.858000 Tolerance = +0.000000/-0.000000 PLATED MILS Quantity = 4
%
G90
T01
X0065435Y0264744
X0206535Y0133244
X0224535Y0111244
X0230248Y0130957
X0214035Y0131244
X0366535Y0264744
X0096935Y0264444
X0212677Y0163386
X0179535Y0153244
X0221535Y0144244
X0189535Y0153244
X0316535Y0051244
X0314035Y0047244
X0319535Y0055244
X0229035Y0139744
X0186535Y0149744
X0322535Y0059244
X0186535Y0264744
R02X-0030000
X0246535Y0264744
X0216535Y0264744
X0276535Y0264744
X0256752Y0118028
X0239535Y0165244
X0129035Y0094744
X0266752Y0084461
X0194535Y0091244
X0085236Y0153945
X0037835Y0153945
X0476535Y0179744
X0359646Y0207354
X0330118Y0207244
X0300591Y0207244
X0271063Y0207244
X0241535Y0207244
X0212008Y0207244
X0182480Y0207299
X0154921Y0207244
X0123425Y0207354
X0093898Y0207244
X0064370Y0207409
X0230709Y0197071
X0321457Y0182165
X0262063Y0142716
X0264035Y0154744
X0246535Y0163244
X0091535Y0137244
X0406386Y0102094
X0388386Y0102094
X0044102Y0136811
X0306535Y0264744
X0194535Y0122244
X0235535Y0161244
X0377520Y0121260
X0300535Y0161244
X0459241Y0218064
R02Y0003937
X0463178Y0218064
X0467115Y0218064
X0463178Y0222001
X0467115Y0222001
X0463178Y0225938
X0467115Y0225938
X0419115Y0125064
R02Y0003937
X0411241Y0125064
R02Y0003937
X0415178Y0125064
R02Y0003937
X0362535Y0029244
X0389178Y0061001
X0389178Y0064938
X0385241Y0061001
X0385241Y0064938
X0359535Y0156244
X0347535Y0156244
X0413535Y0186244
X0423535Y0196244
X0389535Y0185244
X0389535Y0175244
X0339535Y0178244
X0345535Y0178244
X0345535Y0183244
X0339535Y0183244
X0320535Y0142244
R02X-0005000
X0237535Y0088244
X0120535Y0030244
X0110535Y0030244
X0078535Y0030244
X0070535Y0030244
X0206535Y0093244
X0202535Y0093244
X0162535Y0118244
X0154535Y0118244
X0092535Y0201244
X0087535Y0201244
X0081535Y0201244
X0075535Y0201244
X0058535Y0204244
X0030535Y0184244
X0121052Y0042001
X0121052Y0045938
X0109241Y0042001
X0109241Y0045938
X0113178Y0042001
X0117115Y0042001
X0113178Y0045938
X0117115Y0045938
X0453115Y0031158
X0449178Y0031158
X0445241Y0031158
X0453115Y0027221
X0449178Y0027221
X0445241Y0027221
X0453115Y0023284
X0449178Y0023284
X0445241Y0023284
X0453115Y0019347
X0449178Y0019347
X0445241Y0019347
X0441304Y0031158
R02Y-0003937
X0441304Y0019347
X0182052Y0162749
X0182052Y0166686
X0178115Y0162749
X0178115Y0166686
X0184052Y0184749
X0180115Y0184749
X0184052Y0188686
X0180115Y0188686
X0176178Y0184749
X0176178Y0188686
X0243052Y0172749
X0239115Y0172749
X0243052Y0176686
X0239115Y0176686
X0250394Y0166244
X0377535Y0229244
X0345535Y0229244
X0315535Y0229244
R05X-0030000
X0136535Y0229244
X0106535Y0229244
X0077535Y0229244
X0110178Y0175686
X0114115Y0175686
X0118052Y0175686
X0110178Y0167812
X0114115Y0167812
X0118052Y0167812
X0110178Y0171749
X0114115Y0171749
X0118052Y0171749
X0029052Y0222749
X0029052Y0226686
X0009367Y0222749
R03X0003937
X0025115Y0222749
X0009367Y0226686
R03X0003937
X0025115Y0226686
X0028052Y0162686
X0024115Y0162686
X0020178Y0162686
R03X-0003937
X0028052Y0158749
X0024115Y0158749
X0020178Y0158749
R03X-0003937
X0076115Y0121686
X0080052Y0121686
X0076115Y0117749
X0080052Y0117749
X0048115Y0106749
X0044178Y0106749
X0052052Y0102812
X0048115Y0102812
X0044178Y0102812
X0052052Y0110686
X0048115Y0110686
X0044178Y0110686
X0052052Y0106749
X0037178Y0062686
X0041115Y0062686
X0045052Y0062686
X0037178Y0054812
X0041115Y0054812
X0045052Y0054812
X0037178Y0058749
X0041115Y0058749
X0045052Y0058749
X0005367Y0066127
R03X0003937
X0021115Y0066127
X0025052Y0066127
X0005367Y0070064
R03X0003937
X0021115Y0070064
X0025052Y0070064
X0005367Y0074001
R03X0003937
X0021115Y0074001
X0025052Y0074001
X0005367Y0077938
R03X0003937
X0021115Y0077938
X0025052Y0077938
X0005367Y0081875
R03X0003937
X0021115Y0081875
X0025052Y0081875
X0005367Y0085812
R03X0003937
X0021115Y0085812
X0025052Y0085812
X0005367Y0089749
R03X0003937
X0021115Y0089749
X0025052Y0089749
X0005367Y0093686
R03X0003937
X0021115Y0093686
X0025052Y0093686
X0389173Y0203882
X0272535Y0097244
X0138535Y0212244
X0109535Y0212244
X0227535Y0212244
X0337535Y0121244
R02X0005000
X0369488Y0189961
X0053535Y0148244
X0146535Y0160244
X0399992Y0218701
X0347535Y0212402
R02X-0030000
X0258693Y0212402
X0198693Y0212402
X0169693Y0212402
X0080693Y0212402
X0471323Y0171457
X0408035Y0164744
X0471126Y0147835
X0443535Y0134244
X0275543Y0160236
X0321457Y0146323
X0262291Y0125000
X0135236Y0122945
X0175535Y0122244
X0069370Y0144409
X0377535Y0176378
X0412732Y0097047
X0347835Y0172945
X0245882Y0090591
X0237307Y0095472
X0200197Y0104244
X0120571Y0105209
X0182480Y0036299
X0050693Y0212402
X0021785Y0144494
X0400535Y0063244
X0377362Y0225071
X0471134Y0184842
X0457323Y0121457
X0336535Y0264744
X0213535Y0150244
X0193535Y0150244
X0213535Y0145244
X0193535Y0145244
X0141535Y0047244
X0206535Y0104244
X0230216Y0104563
X0078150Y0164370
X0221850Y0152559
X0358535Y0201244
X0271063Y0048228
X0375394Y0067913
X0444291Y0010827
X0460039Y0199803
X0444291Y0172244
X0393110Y0158465
X0422638Y0148622
X0471850Y0119094
T02
X0064370Y0071850
X0064370Y0081850
X0064370Y0061850
X0135236Y0167244
X0135236Y0177244
X0164764Y0167244
X0164764Y0177244
X0093898Y0071850
X0093898Y0081850
X0093898Y0061850
X0123425Y0071850
X0123425Y0081850
X0123425Y0061850
X0152953Y0066850
X0152953Y0076850
X0182480Y0066850
X0182480Y0076850
X0212008Y0066850
X0212008Y0076850
X0241535Y0066850
X0241535Y0076850
X0194291Y0167244
X0194291Y0177244
X0271063Y0066850
X0271063Y0076850
X0300591Y0066850
X0300591Y0076850
T03
X0017126Y0175197
X0017126Y0185039
X0017126Y0194882
X0017126Y0204724
X0040748Y0175197
X0040748Y0185039
X0040748Y0194882
X0040748Y0204724
X0150984Y0107283
X0166732Y0107283
X0460039Y0306299
X0460039Y0286220
T04
X0052559Y0037638
X0052559Y0007638
X0397795Y0037638
R03X0010000
X0397795Y0007638
R03X0010000
X0438780Y0259449
X0410433Y0259449
X0438780Y0195276
X0410433Y0195276
T05
X0076181Y0018701
X0095866Y0018701
X0115551Y0018701
X0135236Y0018701
X0154921Y0018701
R02X0019685
X0213976Y0018701
X0233661Y0018701
X0253346Y0018701
R02X0019685
X0312402Y0018701
X0332087Y0018701
X0351772Y0018701
X0371457Y0018701
X0421535Y0328740
R12X-0030000
T06
X0013780Y0013780
X0013780Y0330709
X0469291Y0330709
X0469291Y0013780
M30
