G04 ================== begin FILE IDENTIFICATION RECORD ==================*
G04 Layout Name:  D:/Projects/KMS/2018/cmSystem/hardware/allegro/CMS.brd*
G04 Film Name:    BOTTOM*
G04 File Format:  Gerber RS274X*
G04 File Origin:  Cadence Allegro 17.2-S037*
G04 Origin Date:  Thu Aug 23 10:48:06 2018*
G04 *
G04 Layer:  BOARD GEOMETRY/OUTLINE*
G04 Layer:  ETCH/BOTTOM*
G04 Layer:  PIN/BOTTOM*
G04 Layer:  VIA CLASS/BOTTOM*
G04 *
G04 Offset:    (0.000 0.000)*
G04 Mirror:    No*
G04 Mode:      Positive*
G04 Rotation:  0*
G04 FullContactRelief:  No*
G04 UndefLineWidth:     4.000*
G04 ================== end FILE IDENTIFICATION RECORD ====================*
%FSLAX25Y25*MOIN*%
%IR0*IPPOS*OFA0.00000B0.00000*MIA0B0*SFA1.00000B1.00000*%
%ADD19C,.11811*%
%ADD10C,.23622*%
%ADD20R,.11811X.11811*%
%AMMACRO17*
4,1,44,-.045273,.02559,
.045273,.02559,
.045957,.025531,
.046621,.025353,
.047244,.025063,
.047806,.024669,
.048292,.024183,
.048686,.02362,
.048977,.022998,
.049155,.022334,
.049214,.02165,
.049214,.021649,
.049214,-.021649,
.049155,-.022333,
.048977,-.022997,
.048687,-.02362,
.048293,-.024182,
.047807,-.024668,
.047244,-.025062,
.046622,-.025353,
.045958,-.025531,
.045274,-.02559,
.045273,-.02559,
-.045273,-.02559,
-.045957,-.025531,
-.046621,-.025353,
-.047244,-.025063,
-.047806,-.024669,
-.048292,-.024183,
-.048686,-.02362,
-.048977,-.022998,
-.049155,-.022334,
-.049214,-.02165,
-.049214,-.021649,
-.049214,.021649,
-.049155,.022333,
-.048977,.022997,
-.048687,.02362,
-.048293,.024182,
-.047807,.024668,
-.047244,.025062,
-.046622,.025353,
-.045958,.025531,
-.045274,.02559,
-.045273,.02559,
0.0*
%
%ADD17MACRO17*%
%ADD21C,.035433*%
%ADD15C,.055118*%
%ADD11C,.031496*%
%ADD14C,.07874*%
%ADD16R,.055118X.055118*%
%ADD12C,.062988*%
%AMMACRO18*
4,1,44,.045273,-.02559,
-.045273,-.02559,
-.045957,-.025531,
-.046621,-.025353,
-.047244,-.025063,
-.047806,-.024669,
-.048292,-.024183,
-.048686,-.02362,
-.048977,-.022998,
-.049155,-.022334,
-.049214,-.02165,
-.049214,-.021649,
-.049214,.021649,
-.049155,.022333,
-.048977,.022997,
-.048687,.02362,
-.048293,.024182,
-.047807,.024668,
-.047244,.025062,
-.046622,.025353,
-.045958,.025531,
-.045274,.02559,
-.045273,.02559,
.045273,.02559,
.045957,.025531,
.046621,.025353,
.047244,.025063,
.047806,.024669,
.048292,.024183,
.048686,.02362,
.048977,.022998,
.049155,.022334,
.049214,.02165,
.049214,.021649,
.049214,-.021649,
.049155,-.022333,
.048977,-.022997,
.048687,-.02362,
.048293,-.024182,
.047807,-.024668,
.047244,-.025062,
.046622,-.025353,
.045958,-.025531,
.045274,-.02559,
.045273,-.02559,
0.0*
%
%ADD18MACRO18*%
%ADD13R,.062988X.062988*%
%ADD22C,.01*%
%ADD23C,.02*%
%ADD24C,.004*%
%ADD28C,.128755*%
%ADD27C,.085449*%
%ADD25C,.095448*%
%ADD26C,.095449*%
G75*
%LPD*%
G75*
G36*
G01X30920Y2244D02*
G02X27320Y7777I0J3937D01*
G03X7584Y27234I-13541J6003D01*
G02X2000Y30809I-1647J3576D01*
G01Y233244D01*
X481071D01*
Y212165D01*
G02X474350Y209381I-3937J0D01*
G01X470701Y213030D01*
X360370D01*
X358678Y211338D01*
X358265Y211189D01*
G03X357911Y211043I1378J-3836D01*
G01X357513Y210855D01*
X355121D01*
X355011Y210745D01*
X332251D01*
X331853Y210932D01*
G03X328384I-1735J-3688D01*
G01X327985Y210745D01*
X302723D01*
X302325Y210932D01*
G03X298856I-1735J-3688D01*
G01X298458Y210745D01*
X273196D01*
X272798Y210932D01*
G03X269328I-1735J-3688D01*
G01X268930Y210745D01*
X243668D01*
X243270Y210932D01*
G03X239801I-1735J-3688D01*
G01X239403Y210745D01*
X214141D01*
X213743Y210932D01*
G03X210354Y210969I-1735J-3688D01*
G01X209973Y210800D01*
X184613D01*
X184215Y210987D01*
G03X180746I-1735J-3688D01*
G01X180348Y210800D01*
X177956D01*
X177900Y210745D01*
X157054D01*
X156656Y210932D01*
G03X153354Y211006I-1734J-3688D01*
G01X152991Y210855D01*
X125558D01*
X125160Y211043D01*
G03X121691I-1735J-3688D01*
G01X121292Y210855D01*
X118900D01*
X118790Y210745D01*
X96030D01*
X95632Y210932D01*
G03X92423Y211044I-1735J-3688D01*
G01X92080Y210910D01*
X66503D01*
X66105Y211098D01*
G03X60682Y205675I-1735J-3688D01*
G01X60869Y205277D01*
Y180529D01*
X59085Y178745D01*
X47467D01*
X46636Y179599D01*
X46511Y179821D01*
G03X46124Y180358I-2614J-1474D01*
G02X45818Y182546I1461J1320D01*
G03X45296Y188392I-5071J2493D01*
G02X45393Y190851I1584J1168D01*
G03X45640Y198610I-4645J4031D01*
G02Y200996I1566J1193D01*
G03X35856I-4892J3728D01*
G02Y198610I-1566J-1193D01*
G03X36103Y190851I4892J-3728D01*
G02X36200Y188392I-1487J-1290D01*
G03X35678Y182546I4548J-3353D01*
G02X35372Y180358I-1767J-869D01*
G03X34598Y178346I2227J-2012D01*
G01Y172047D01*
G03X37598Y169046I3001J0D01*
G01X43898D01*
G03X46511Y170572I0J3001D01*
G01X46636Y170795D01*
X47559Y171743D01*
X61985D01*
X67871Y177629D01*
Y203909D01*
X89208D01*
X89373Y203743D01*
X91765D01*
X92163Y203556D01*
G03X95632I1735J3688D01*
G01X96030Y203743D01*
X121495D01*
X121858Y203592D01*
G03X125160Y203666I1567J3762D01*
G01X125558Y203854D01*
X132235D01*
Y182384D01*
X131229Y181377D01*
X131220Y181368D01*
G03X130339Y174218I4017J-4124D01*
G02X130176Y171922I-1675J-1035D01*
G03X129480Y170000I2304J-1922D01*
G01Y164488D01*
G03X132480Y161487I3001J0D01*
G01X137992D01*
G03X140993Y164488I0J3001D01*
G01Y170000D01*
G03X140990Y170133I-3001J5D01*
G02X144923Y174243I3933J174D01*
G01X155077D01*
G02X159010Y170133I0J-3937D01*
G03X159007Y170000I2998J-127D01*
G01Y164488D01*
G03X162008Y161487I3001J0D01*
G01X167520D01*
G03X170520Y164488I0J3001D01*
G01Y170000D01*
G03X170518Y170133I-3001J3D01*
G02X174451Y174243I3933J174D01*
G01X184604D01*
G02X188537Y170133I0J-3937D01*
G03X188535Y170000I2998J-130D01*
G01Y164488D01*
G03X188537Y164356I3001J-3D01*
G02X184604Y160245I-3933J-174D01*
G01X182292D01*
X179411Y157364D01*
X178807Y157254D01*
G03X180506Y149286I728J-4010D01*
G02X182786Y148146I469J-1912D01*
G03X183185Y147424I3749J1598D01*
G01X183535Y146918D01*
Y141001D01*
X187792Y136743D01*
X191535D01*
Y125070D01*
X191185Y124564D01*
G03X197886I3351J-2320D01*
G01X197536Y125070D01*
Y131501D01*
X200657Y134622D01*
X202442Y132837D01*
X202572Y132296D01*
G03X203185Y130924I3964J948D01*
G01X203535Y130418D01*
Y127001D01*
X206293Y124243D01*
X220292D01*
X221535Y123001D01*
Y114070D01*
X221185Y113564D01*
G03X220460Y111213I3351J-2320D01*
G02X216523Y107245I-3937J-31D01*
G01X209361D01*
X208856Y107595D01*
G03X202513Y104898I-2320J-3351D01*
G01X202244Y103245D01*
X176819D01*
G02X172882Y107222I0J3937D01*
G03X160953Y109387I-6150J62D01*
G01X160482Y108092D01*
X157135D01*
Y110433D01*
G03X154134Y113434I-3001J0D01*
G01X147835D01*
G03X144834Y110433I0J-3001D01*
G01Y103245D01*
X97985D01*
X95036Y106194D01*
Y135111D01*
X95224Y135509D01*
G03X89801Y140932I-3688J1735D01*
G01X89403Y140745D01*
X87011D01*
X86578Y140312D01*
X46235D01*
X45837Y140499D01*
G03X44698Y140843I-1734J-3688D01*
G02X41335Y144738I575J3895D01*
G01Y150444D01*
X83104D01*
X83502Y150257D01*
G03X85874Y157970I1734J3688D01*
G02X82719Y162994I615J3889D01*
G03X73666Y162733I-4570J1376D01*
G02X69968Y157446I-3698J-1350D01*
G01X39967D01*
X39569Y157633D01*
G03X34146Y152210I-1735J-3688D01*
G01X34334Y151812D01*
Y75495D01*
X41479Y68350D01*
X57865D01*
X60311Y66261D01*
X59445Y64831D01*
G03X69295I4925J-2981D01*
G01X68429Y66261D01*
X70875Y68350D01*
X87392D01*
X89839Y66261D01*
X88972Y64831D01*
G03X98823I4925J-2981D01*
G01X97957Y66261D01*
X100403Y68350D01*
X116920D01*
X119366Y66261D01*
X118500Y64831D01*
G03X128350I4925J-2981D01*
G01X127484Y66261D01*
X129930Y68350D01*
X147196D01*
Y64095D01*
G03X150197Y61094I3001J0D01*
G01X155709D01*
G03X158709Y64095I0J3001D01*
G01Y69606D01*
G03X158511Y70678I-3001J0D01*
G01X158382Y71018D01*
Y73350D01*
X177051D01*
Y71018D01*
X176922Y70678D01*
G03X176724Y69606I2803J-1072D01*
G01Y64095D01*
G03X179724Y61094I3001J0D01*
G01X185236D01*
G03X188237Y64095I0J3001D01*
G01Y69606D01*
G03X188039Y70678I-3001J0D01*
G01X187909Y71018D01*
Y73350D01*
X206579D01*
Y71018D01*
X206449Y70678D01*
G03X206251Y69606I2803J-1072D01*
G01Y64095D01*
G03X209252Y61094I3001J0D01*
G01X214764D01*
G03X217765Y64095I0J3001D01*
G01Y69606D01*
G03X217566Y70678I-3001J-1D01*
G01X217437Y71018D01*
Y73350D01*
X236106D01*
Y71018D01*
X235977Y70678D01*
G03X235779Y69606I2803J-1072D01*
G01Y64095D01*
G03X238780Y61094I3001J0D01*
G01X244291D01*
G03X247292Y64095I0J3001D01*
G01Y69606D01*
G03X247094Y70678I-3001J0D01*
G01X246965Y71018D01*
Y73350D01*
X265634D01*
Y71018D01*
X265504Y70678D01*
G03X265306Y69606I2803J-1072D01*
G01Y64095D01*
G03X268307Y61094I3001J0D01*
G01X273819D01*
G03X276820Y64095I0J3001D01*
G01Y69606D01*
G03X276622Y70678I-3001J0D01*
G01X276492Y71018D01*
Y73350D01*
X295161D01*
Y71018D01*
X295032Y70678D01*
G03X294834Y69606I2803J-1072D01*
G01Y64095D01*
G03X297835Y61094I3001J0D01*
G01X303346D01*
G03X306347Y64095I0J3001D01*
G01Y69606D01*
G03X305651Y71529I-3001J0D01*
G02X305488Y73824I1512J1261D01*
G03X296020Y80351I-4897J3026D01*
G01X275633D01*
G03X272354Y82461I-4570J-3501D01*
G02X270827Y84406I442J1918D01*
G03X262677Y84373I-4075J55D01*
G02X258741Y80351I-3936J-85D01*
G01X246106D01*
G03X236965I-4570J-3501D01*
G01X216578D01*
G03X207438I-4570J-3501D01*
G01X198036D01*
Y89111D01*
X198224Y89509D01*
G03X198575Y91784I-3688J1735D01*
G02X202477Y96243I3902J522D01*
G01X235194D01*
X237544Y98594D01*
X386253D01*
X386651Y98406D01*
G03X390120I1735J3688D01*
G01X390518Y98594D01*
X404253D01*
X404651Y98406D01*
G03Y105783I1735J3688D01*
G01X404253Y105595D01*
X390518D01*
X390120Y105783D01*
G03X386651I-1735J-3688D01*
G01X386253Y105595D01*
X234321D01*
X233754Y106587D01*
G03X231370Y108472I-3538J-2023D01*
G02X228579Y111755I1114J3776D01*
G03X227886Y113564I-4043J-510D01*
G01X227536Y114070D01*
Y123038D01*
G02X230871Y126929I3937J0D01*
G03X231443Y127060I-622J4028D01*
G02X236535Y123296I1154J-3764D01*
G01Y120001D01*
X241509Y115027D01*
X253926D01*
X254432Y114677D01*
G03Y121378I2320J3351D01*
G01X253926Y121028D01*
X243995D01*
X242536Y122487D01*
Y155232D01*
G02X246504Y159168I3937J0D01*
G03X248855Y159893I31J4076D01*
G01X249361Y160243D01*
X261035D01*
Y157570D01*
X260685Y157064D01*
G03X265086Y150806I3351J-2320D01*
G01X265335Y150873D01*
X267562D01*
Y147222D01*
X266558Y146217D01*
X264196D01*
X263798Y146405D01*
G03Y139028I-1735J-3688D01*
G01X264196Y139216D01*
X269458D01*
X274564Y144322D01*
Y203743D01*
X298458D01*
X298856Y203556D01*
G03X302325I1735J3688D01*
G01X302723Y203743D01*
X318456D01*
Y184991D01*
X318106Y184485D01*
G03X324808I3351J-2320D01*
G01X324458Y184991D01*
Y203743D01*
X327985D01*
X328384Y203556D01*
G03X331853I1735J3688D01*
G01X332251Y203743D01*
X349946D01*
G02X353828Y200456I0J-3937D01*
G03X362260Y204228I4707J788D01*
G03X363063Y205133I-2614J3127D01*
G01X363644Y206028D01*
X401959D01*
G02X405027Y199624I0J-3937D01*
G03X415839I5406J-4348D01*
G02X418907Y206028I3068J2467D01*
G01X451636D01*
G02X455435Y201057I0J-3937D01*
G03X463740Y202816I4605J-1254D01*
G01X463298Y203359D01*
Y206028D01*
X467801D01*
X473035Y200794D01*
Y181877D01*
X472847Y181479D01*
G03X476840Y175680I3688J-1735D01*
G02X481071Y171754I294J-3926D01*
G01Y30809D01*
G02X475487Y27234I-3937J0D01*
G03X455750Y7777I-6195J-13454D01*
G02X452151Y2244I-3599J-1596D01*
G01X438067D01*
G02X434169Y6734I0J3937D01*
G03X423966Y12813I-6374J904D01*
G02X421624I-1171J1582D01*
G03X413966I-3829J-5175D01*
G02X411624I-1171J1582D01*
G03X403966I-3829J-5175D01*
G02X401624I-1171J1582D01*
G03X391421Y6734I-3829J-5175D01*
G02X387523Y2244I-3898J-553D01*
G01X63336D01*
G02X59434Y6708I0J3937D01*
G03X45684I-6875J929D01*
G02X41782Y2244I-3902J-527D01*
G01X30920D01*
G37*
G36*
G01X57865Y75351D02*
X44379D01*
X41335Y78395D01*
Y128884D01*
G02X44698Y132779I3937J0D01*
G03X45837Y133123I-595J4032D01*
G01X46235Y133310D01*
X88035D01*
Y103294D01*
X95085Y96243D01*
X124831D01*
X124972Y94428D01*
G03X125347Y93009I4063J316D01*
G01X125535Y92611D01*
Y91370D01*
G02X122340Y87504I-3937J0D01*
G03X118500Y78870I1085J-5654D01*
G01X119366Y77439D01*
X116920Y75351D01*
X100403D01*
X97957Y77439D01*
X98823Y78870D01*
G03X88972I-4925J2981D01*
G01X89839Y77439D01*
X87392Y75351D01*
X70875D01*
X68429Y77439D01*
X69295Y78870D01*
G03X59445I-4925J2981D01*
G01X60311Y77439D01*
X57865Y75351D01*
G37*
G36*
G01X59015Y71313D02*
X61614Y69094D01*
X64620Y71850D01*
X61614Y74606D01*
X59015Y72388D01*
G03Y71313I843J-537D01*
G37*
G36*
G01X46287Y175655D02*
X43897Y178111D01*
X40498Y175197D01*
X43897Y172282D01*
X46287Y174739D01*
G03Y175655I-889J458D01*
G37*
G36*
G01X69725Y72388D02*
X67126Y74606D01*
X64120Y71850D01*
X67126Y69094D01*
X69725Y71313D01*
G03Y72388I-843J537D01*
G37*
G36*
G01X88543Y71313D02*
X91142Y69094D01*
X94148Y71850D01*
X91142Y74606D01*
X88543Y72388D01*
G03Y71313I843J-537D01*
G37*
G36*
G01X63861Y265819D02*
Y264744D01*
X65524Y264656D01*
X65435Y266319D01*
X64361D01*
G03X63861Y265819I0J-500D01*
G37*
G36*
G01X118070Y71313D02*
X120669Y69094D01*
X123675Y71850D01*
X120669Y74606D01*
X118070Y72388D01*
G03Y71313I843J-537D01*
G37*
G36*
G01X99252Y72388D02*
X96654Y74606D01*
X93648Y71850D01*
X96654Y69094D01*
X99252Y71313D01*
G03Y72388I-843J537D01*
G37*
G36*
G01X95361Y265519D02*
Y264444D01*
X97024Y264356D01*
X96935Y266019D01*
X95861D01*
G03X95361Y265519I0J-500D01*
G37*
G36*
G01X128780Y72388D02*
X126181Y74606D01*
X123175Y71850D01*
X126181Y69094D01*
X128780Y71313D01*
G03Y72388I-843J537D01*
G37*
G36*
G01X225511Y145139D02*
G03X224887Y146563I-3976J-895D01*
G02X225146Y149108I1619J1120D01*
G03X217663Y154848I-3296J3452D01*
G02X215154Y153985I-1728J944D01*
G03X213852Y154308I-1619J-3740D01*
G02X212036Y156270I153J1963D01*
G01Y159064D01*
X213572Y159410D01*
G03X208667Y164115I-895J3976D01*
G01X208558Y163510D01*
X205292Y160245D01*
X203978D01*
G02X200045Y164356I0J3937D01*
G03X200048Y164488I-2998J127D01*
G01Y170000D01*
G03X199352Y171922I-3001J0D01*
G02X199189Y174218I1512J1261D01*
G03X190167Y181261I-4897J3026D01*
G01X190158Y181251D01*
X189152Y180245D01*
X169904D01*
X168897Y181251D01*
X168888Y181261D01*
G03X160640I-4124J-4017D01*
G01X160631Y181251D01*
X159624Y180245D01*
X140376D01*
X139369Y181251D01*
X139360Y181261D01*
G03X139253Y181368I-4126J-4015D01*
G01X139243Y181377D01*
X138237Y182384D01*
Y203854D01*
X150286D01*
X150396Y203743D01*
X152789D01*
X153187Y203556D01*
G03X156656I1735J3688D01*
G01X157054Y203743D01*
X180446D01*
X180827Y203574D01*
G03X184215Y203611I1654J3725D01*
G01X184613Y203798D01*
X207428D01*
X207483Y203743D01*
X209875D01*
X210273Y203556D01*
G03X213743I1735J3688D01*
G01X214141Y203743D01*
X227208D01*
Y199204D01*
X227020Y198806D01*
G03X234397I3688J-1735D01*
G01X234209Y199204D01*
Y203743D01*
X239403D01*
X239801Y203556D01*
G03X243270I1735J3688D01*
G01X243668Y203743D01*
X267562D01*
Y166398D01*
X265132Y165391D01*
X264278Y166245D01*
X249361D01*
X248855Y166595D01*
G03X245069Y167047I-2320J-3351D01*
G02X242789Y167698I-708J1837D01*
G03X235461Y165319I-3254J-2454D01*
G03X231526Y161973I75J-4075D01*
G01X231416Y161368D01*
X230714Y160666D01*
Y145781D01*
G02X228840Y143815I-1969J0D01*
G03X227954Y143674I196J-4071D01*
G02X225511Y145139I-522J1898D01*
G37*
G36*
G01X134883Y180788D02*
X133288Y179192D01*
X135236Y177119D01*
X137184Y179192D01*
X135590Y180788D01*
G03X134883I-354J-354D01*
G37*
G36*
G01X138780Y177598D02*
X137185Y179192D01*
X135111Y177244D01*
X137185Y175296D01*
X138780Y176891D01*
G03Y177598I-354J354D01*
G37*
G36*
G01X124961Y265819D02*
Y264744D01*
X126624Y264656D01*
X126535Y266319D01*
X125461D01*
G03X124961Y265819I0J-500D01*
G37*
G36*
G01X156143Y77558D02*
X154902Y78799D01*
X152703Y76850D01*
X154902Y74902D01*
X156143Y76143D01*
G03Y77558I-707J707D01*
G37*
G36*
G01X149763Y76143D02*
X151004Y74902D01*
X153203Y76850D01*
X151004Y78799D01*
X149763Y77558D01*
G03Y76143I707J-707D01*
G37*
G36*
G01X168308Y177598D02*
X166712Y179192D01*
X164639Y177244D01*
X166712Y175296D01*
X168308Y176891D01*
G03Y177598I-354J354D01*
G37*
G36*
G01X161220Y176891D02*
X162815Y175296D01*
X164889Y177244D01*
X162815Y179192D01*
X161220Y177598D01*
G03Y176891I354J-354D01*
G37*
G36*
G01X154961Y265819D02*
Y264744D01*
X156624Y264656D01*
X156535Y266319D01*
X155461D01*
G03X154961Y265819I0J-500D01*
G37*
G36*
G01X185670Y77558D02*
X184429Y78799D01*
X182230Y76850D01*
X184429Y74902D01*
X185670Y76143D01*
G03Y77558I-707J707D01*
G37*
G36*
G01X179290Y76143D02*
X180532Y74902D01*
X182730Y76850D01*
X180532Y78799D01*
X179290Y77558D01*
G03Y76143I707J-707D01*
G37*
G36*
G01X194182Y124118D02*
X193422Y123357D01*
X194535Y122119D01*
X195649Y123357D01*
X194889Y124118D01*
G03X194182I-354J-354D01*
G37*
G36*
G01X195409Y145598D02*
X194648Y146358D01*
X193410Y145244D01*
X194648Y144131D01*
X195409Y144891D01*
G03Y145598I-354J354D01*
G37*
G36*
G01Y150598D02*
X194648Y151358D01*
X193410Y150244D01*
X194648Y149131D01*
X195409Y149891D01*
G03Y150598I-354J354D01*
G37*
G36*
G01X186889Y147870D02*
X187649Y148631D01*
X186535Y149869D01*
X185422Y148631D01*
X186182Y147870D01*
G03X186889I354J354D01*
G37*
G36*
G01X189889Y151370D02*
X190649Y152131D01*
X189535Y153369D01*
X188422Y152131D01*
X189182Y151370D01*
G03X189889I354J354D01*
G37*
G36*
G01X180610Y154819D02*
X179535D01*
X179447Y153156D01*
X181110Y153244D01*
Y154319D01*
G03X180610Y154819I-500J0D01*
G37*
G36*
G01X190748Y176891D02*
X192343Y175296D01*
X194416Y177244D01*
X192343Y179192D01*
X190748Y177598D01*
G03Y176891I354J-354D01*
G37*
G36*
G01X184961Y265819D02*
Y264744D01*
X186624Y264656D01*
X186535Y266319D01*
X185461D01*
G03X184961Y265819I0J-500D01*
G37*
G36*
G01X215198Y77558D02*
X213957Y78799D01*
X211758Y76850D01*
X213957Y74902D01*
X215198Y76143D01*
G03Y77558I-707J707D01*
G37*
G36*
G01X208818Y76143D02*
X210059Y74902D01*
X212258Y76850D01*
X210059Y78799D01*
X208818Y77558D01*
G03Y76143I707J-707D01*
G37*
G36*
G01X208409Y104598D02*
X207648Y105358D01*
X206410Y104244D01*
X207648Y103131D01*
X208409Y103891D01*
G03Y104598I-354J354D01*
G37*
G36*
G01X228343Y104209D02*
X229104Y103450D01*
X230342Y104563D01*
X229104Y105676D01*
X228343Y104916D01*
G03Y104209I354J-354D01*
G37*
G36*
G01X227162Y139391D02*
X227922Y138631D01*
X229161Y139744D01*
X227922Y140858D01*
X227162Y140098D01*
G03Y139391I354J-354D01*
G37*
G36*
G01X228374Y130603D02*
X229135Y129843D01*
X230373Y130957D01*
X229135Y132070D01*
X228374Y131310D01*
G03Y130603I354J-354D01*
G37*
G36*
G01X215909Y131598D02*
X215148Y132358D01*
X213910Y131244D01*
X215148Y130131D01*
X215909Y130891D01*
G03Y131598I-354J354D01*
G37*
G36*
G01X206889Y131370D02*
X207649Y132131D01*
X206535Y133369D01*
X205422Y132131D01*
X206182Y131370D01*
G03X206889I354J354D01*
G37*
G36*
G01X224182Y113118D02*
X223422Y112357D01*
X224535Y111119D01*
X225649Y112357D01*
X224889Y113118D01*
G03X224182I-354J-354D01*
G37*
G36*
G01X211662Y144891D02*
X212422Y144131D01*
X213661Y145244D01*
X212422Y146358D01*
X211662Y145598D01*
G03Y144891I354J-354D01*
G37*
G36*
G01Y149891D02*
X212422Y149131D01*
X213661Y150244D01*
X212422Y151358D01*
X211662Y150598D01*
G03Y149891I354J-354D01*
G37*
G36*
G01X220461Y142669D02*
X221535D01*
X221624Y144333D01*
X219961Y144244D01*
Y143169D01*
G03X220461Y142669I500J0D01*
G37*
G36*
G01X211602Y161811D02*
X212677D01*
X212766Y163474D01*
X211102Y163386D01*
Y162311D01*
G03X211602Y161811I500J0D01*
G37*
G36*
G01X214961Y265819D02*
Y264744D01*
X216624Y264656D01*
X216535Y266319D01*
X215461D01*
G03X214961Y265819I0J-500D01*
G37*
G36*
G01X244726Y77558D02*
X243484Y78799D01*
X241285Y76850D01*
X243484Y74902D01*
X244726Y76143D01*
G03Y77558I-707J707D01*
G37*
G36*
G01X238345Y76143D02*
X239587Y74902D01*
X241785Y76850D01*
X239587Y78799D01*
X238345Y77558D01*
G03Y76143I707J-707D01*
G37*
G36*
G01X254878Y117674D02*
X255639Y116914D01*
X256877Y118028D01*
X255639Y119141D01*
X254878Y118381D01*
G03Y117674I354J-354D01*
G37*
G36*
G01X234461Y159669D02*
X235535D01*
X235624Y161333D01*
X233961Y161244D01*
Y160169D01*
G03X234461Y159669I500J0D01*
G37*
G36*
G01X248409Y163598D02*
X247648Y164358D01*
X246410Y163244D01*
X247648Y162131D01*
X248409Y162891D01*
G03Y163598I-354J354D01*
G37*
G36*
G01X239889Y163370D02*
X240649Y164131D01*
X239535Y165369D01*
X238422Y164131D01*
X239182Y163370D01*
G03X239889I354J354D01*
G37*
G36*
G01X244961Y265819D02*
Y264744D01*
X246624Y264656D01*
X246535Y266319D01*
X245461D01*
G03X244961Y265819I0J-500D01*
G37*
G36*
G01X274253Y77558D02*
X273012Y78799D01*
X270813Y76850D01*
X273012Y74902D01*
X274253Y76143D01*
G03Y77558I-707J707D01*
G37*
G36*
G01X268307Y78606D02*
Y76850D01*
X271240Y76674D01*
X271063Y79606D01*
X269307D01*
G03X268307Y78606I0J-1000D01*
G37*
G36*
G01X267873Y76143D02*
X269114Y74902D01*
X271313Y76850D01*
X269114Y78799D01*
X267873Y77558D01*
G03Y76143I707J-707D01*
G37*
G36*
G01X263682Y156618D02*
X262922Y155857D01*
X264035Y154619D01*
X265149Y155857D01*
X264389Y156618D01*
G03X263682I-354J-354D01*
G37*
G36*
G01X274961Y265819D02*
Y264744D01*
X276624Y264656D01*
X276535Y266319D01*
X275461D01*
G03X274961Y265819I0J-500D01*
G37*
G36*
G01X297400Y76143D02*
X298642Y74902D01*
X300841Y76850D01*
X298642Y78799D01*
X297400Y77558D01*
G03Y76143I707J-707D01*
G37*
G36*
G01X304961Y265819D02*
Y264744D01*
X306624Y264656D01*
X306535Y266319D01*
X305461D01*
G03X304961Y265819I0J-500D01*
G37*
G36*
G01X321103Y184039D02*
X320343Y183278D01*
X321457Y182040D01*
X322570Y183278D01*
X321810Y184039D01*
G03X321103I-354J-354D01*
G37*
G36*
G01X334961Y265819D02*
Y264744D01*
X336624Y264656D01*
X336535Y266319D01*
X335461D01*
G03X334961Y265819I0J-500D01*
G37*
G36*
G01X364961D02*
Y264744D01*
X366624Y264656D01*
X366535Y266319D01*
X365461D01*
G03X364961Y265819I0J-500D01*
G37*
G36*
G01X410080Y264663D02*
X407650Y262232D01*
X410433Y259324D01*
X413216Y262232D01*
X410787Y264663D01*
G03X410080I-354J-354D01*
G37*
%LPC*%
G75*
G36*
G01X11750Y180358D02*
G03X12056Y182546I-1461J1320D01*
G02X12578Y188392I5071J2493D01*
G03X12481Y190851I-1584J1168D01*
G02X12234Y198610I4645J4031D01*
G03Y200996I-1566J1193D01*
G02X22018I4892J3728D01*
G03Y198610I1566J-1193D01*
G02X21771Y190851I-4892J-3728D01*
G03X21674Y188392I1487J-1290D01*
G02X22196Y182546I-4548J-3353D01*
G03X22502Y180358I1766J-869D01*
G02X23276Y178346I-2227J-2012D01*
G01Y172047D01*
G02X20276Y169046I-3001J0D01*
G01X13976D01*
G02X10976Y172047I0J3001D01*
G01Y178346D01*
G02X11750Y180358I3001J0D01*
G37*
G36*
G01X130479Y41139D02*
X137552Y48211D01*
X137701Y48625D01*
G02X142916Y43410I3834J-1381D01*
G01X142503Y43261D01*
X133379Y34137D01*
X58869D01*
X57528Y32796D01*
X57520Y32788D01*
G02Y42487I-4961J4850D01*
G01X57528Y42480D01*
X58869Y41139D01*
X130479D01*
G37*
G36*
G01X401690Y31896D02*
G02X390858Y37745I-3895J5741D01*
G03X386922Y41743I-3937J61D01*
G01X315292D01*
X313911Y43124D01*
X313307Y43234D01*
G02X312467Y51006I729J4010D01*
G02X315460Y55175I4069J238D01*
G02X318460Y59175I4075J69D01*
G02X326545Y59973I4075J69D01*
G01X326655Y59368D01*
X330778Y55245D01*
X425278D01*
X430796Y49727D01*
Y44448D01*
X432637Y42607D01*
X432645Y42599D01*
G02X423900Y31896I-4849J-4961D01*
G03X421690I-1105J-1629D01*
G02X413900I-3895J5741D01*
G03X411690I-1105J-1629D01*
G02X403900I-3895J5741D01*
G03X401690I-1105J-1629D01*
G37*
G36*
G01X102913Y13255D02*
G02X88241Y14098I-7047J5446D01*
G01X87667Y15050D01*
X84587D01*
Y12795D01*
G02X82087Y10294I-2501J0D01*
G01X70276D01*
G02X67775Y12795I0J2501D01*
G01Y24606D01*
G02X70276Y27107I2501J0D01*
G01X82087D01*
G02X84587Y24606I0J-2501D01*
G01Y22352D01*
X87667D01*
X88241Y23303D01*
G02X102913Y24147I7625J-4602D01*
G03X109066Y24049I3115J2407D01*
G02X122037I6485J-5348D01*
G03X128189Y24147I3037J2505D01*
G02X142061Y24422I7047J-5446D01*
G03X148096I3017J2529D01*
G02X161746I6825J-5722D01*
G03X167781I3017J2529D01*
G02X170997Y26843I6825J-5722D01*
G01X171332Y26991D01*
X175085Y30745D01*
X212985D01*
X216466Y27264D01*
X216894Y27116D01*
G02X220802Y24422I-2917J-8415D01*
G03X226836I3017J2529D01*
G02X240487I6825J-5722D01*
G03X246521I3017J2529D01*
G02X249277Y26623I6825J-5722D01*
G01X250346Y27172D01*
Y44298D01*
X257277Y51229D01*
X267315D01*
X267639Y51553D01*
G02Y44904I3424J-3325D01*
G01X267315Y45228D01*
X259763D01*
X256347Y41812D01*
Y27172D01*
X257416Y26623D01*
G02X260172Y24422I-4070J-7922D01*
G03X266206I3017J2529D01*
G02X279857I6825J-5722D01*
G03X285891I3017J2529D01*
G02X299764Y24147I6825J-5722D01*
G03X305916Y24049I3115J2407D01*
G02X318887I6485J-5348D01*
G03X325039Y24147I3037J2505D01*
G02X339134I7047J-5446D01*
G03X345286Y24049I3115J2407D01*
G02X358257I6485J-5348D01*
G03X364409Y24147I3037J2505D01*
G02Y13255I7047J-5446D01*
G03X358257Y13352I-3115J-2407D01*
G02X345286I-6485J5348D01*
G03X339134Y13255I-3037J-2505D01*
G02X325039I-7047J5446D01*
G03X318887Y13352I-3115J-2407D01*
G02X305916I-6485J5348D01*
G03X299764Y13255I-3037J-2505D01*
G02X285891Y12979I-7047J5446D01*
G03X279857I-3017J-2529D01*
G02X266206I-6825J5722D01*
G03X260172I-3017J-2529D01*
G02X246521I-6825J5722D01*
G03X240487I-3017J-2529D01*
G02X226836I-6825J5722D01*
G03X220802I-3017J-2529D01*
G02X207151I-6825J5722D01*
G03X201116I-3017J-2529D01*
G02X187466I-6825J5722D01*
G03X181432I-3017J-2529D01*
G02X167781I-6825J5722D01*
G03X161746I-3017J-2529D01*
G02X148096I-6825J5722D01*
G03X142061I-3017J-2529D01*
G02X128189Y13255I-6825J5722D01*
G03X122037Y13352I-3115J-2407D01*
G02X109066I-6485J5348D01*
G03X102913Y13255I-3037J-2505D01*
G37*
G54D28*
X438780Y195276D03*
G54D27*
X444291Y10827D03*
G54D25*
X375394Y67913D03*
X422638Y148622D03*
X471850Y119094D03*
G54D26*
X393110Y158465D03*
X444291Y172244D03*
%LPD*%
G75*
G36*
G01X57420Y38345D02*
X55342Y40421D01*
X52309Y37638D01*
X55342Y34854D01*
X57420Y36931D01*
G03Y38345I-707J707D01*
G37*
G36*
G01X268911Y47875D02*
X269811Y46976D01*
X271188Y48228D01*
X269811Y49481D01*
X268911Y48582D01*
G03Y47875I354J-354D01*
G37*
G36*
G01X315610Y46169D02*
Y47244D01*
X313947Y47333D01*
X314035Y45669D01*
X315110D01*
G03X315610Y46169I0J500D01*
G37*
G36*
G01X321110Y54169D02*
Y55244D01*
X319447Y55333D01*
X319535Y53669D01*
X320610D01*
G03X321110Y54169I0J500D01*
G37*
G36*
G01X318110Y50169D02*
Y51244D01*
X316447Y51333D01*
X316535Y49669D01*
X317610D01*
G03X318110Y50169I0J500D01*
G37*
G36*
G01X324110Y58169D02*
Y59244D01*
X322447Y59333D01*
X322535Y57669D01*
X323610D01*
G03X324110Y58169I0J500D01*
G37*
G36*
G01X397442Y42852D02*
X395012Y40421D01*
X397795Y37513D01*
X400579Y40421D01*
X398149Y42852D01*
G03X397442I-354J-354D01*
G37*
G36*
G01X427442D02*
X425012Y40421D01*
X427795Y37513D01*
X430579Y40421D01*
X428149Y42852D01*
G03X427442I-354J-354D01*
G37*
G36*
G01X417442D02*
X415012Y40421D01*
X417795Y37513D01*
X420579Y40421D01*
X418149Y42852D01*
G03X417442I-354J-354D01*
G37*
G36*
G01X407442D02*
X405012Y40421D01*
X407795Y37513D01*
X410579Y40421D01*
X408149Y42852D01*
G03X407442I-354J-354D01*
G37*
G54D10*
X13780Y13780D03*
Y330709D03*
X469291Y13780D03*
Y330709D03*
G54D11*
X5367Y81875D03*
Y77938D03*
Y74001D03*
Y70064D03*
Y66127D03*
Y93686D03*
Y89749D03*
Y85812D03*
X25052Y81875D03*
X21115D03*
X17178D03*
X13241D03*
X9304D03*
X25052Y77938D03*
X21115D03*
X17178D03*
X13241D03*
X9304D03*
X25052Y74001D03*
X21115D03*
X17178D03*
X13241D03*
X9304D03*
X25052Y70064D03*
X21115D03*
X17178D03*
X13241D03*
X9304D03*
X25052Y66127D03*
X21115D03*
X17178D03*
X13241D03*
X9304D03*
X25052Y93686D03*
X21115D03*
X17178D03*
X13241D03*
X9304D03*
X25052Y89749D03*
X21115D03*
X17178D03*
X13241D03*
X9304D03*
X25052Y85812D03*
X21115D03*
X17178D03*
X13241D03*
X9304D03*
X21785Y144494D03*
X8367Y158749D03*
X12304D03*
X16241D03*
X20178D03*
X24115D03*
X28052D03*
X8367Y162686D03*
X12304D03*
X16241D03*
X20178D03*
X24115D03*
X28052D03*
X30535Y184244D03*
X25115Y222749D03*
X21178D03*
X17241D03*
X13304D03*
X9367D03*
X29052D03*
X25115Y226686D03*
X21178D03*
X17241D03*
X13304D03*
X9367D03*
X29052D03*
X45052Y54812D03*
X41115D03*
X37178D03*
X45052Y58749D03*
X41115D03*
X37178D03*
X45052Y62686D03*
X41115D03*
X37178D03*
X52052Y106749D03*
X44178Y110686D03*
X48115D03*
X52052D03*
X44178Y102812D03*
X48115D03*
X52052D03*
X44178Y106749D03*
X48115D03*
X44102Y136811D03*
X53535Y148244D03*
X37835Y153945D03*
X50693Y212402D03*
X58535Y204244D03*
X64370Y207409D03*
X70535Y30244D03*
X78535D03*
X80052Y117749D03*
X76115D03*
X80052Y121686D03*
X76115D03*
X91535Y137244D03*
X69370Y144409D03*
X85236Y153945D03*
X80693Y212402D03*
X75535Y201244D03*
X81535D03*
X87535D03*
X92535D03*
X77535Y229244D03*
X65435Y264744D03*
X117115Y45938D03*
X113178D03*
X109241D03*
X110535Y30244D03*
X120535D03*
X120571Y105209D03*
X118052Y167812D03*
X114115D03*
X110178D03*
X118052Y171749D03*
X114115D03*
X110178D03*
X118052Y175686D03*
X114115D03*
X110178D03*
X109535Y212244D03*
X93898Y207244D03*
X106535Y229244D03*
X96935Y264444D03*
X141535Y47244D03*
X121052Y45938D03*
X129035Y94744D03*
X135236Y122945D03*
X146535Y160244D03*
X138535Y212244D03*
X123425Y207354D03*
X136535Y229244D03*
X126535Y264744D03*
X175535Y122244D03*
X154535Y118244D03*
X162535D03*
X176178Y188686D03*
Y184749D03*
X169693Y212402D03*
X154921Y207244D03*
X165535Y229244D03*
X156535Y264744D03*
X182480Y36299D03*
X200197Y104244D03*
X202535Y93244D03*
X194535Y91244D03*
Y122244D03*
X193535Y145244D03*
Y150244D03*
X178115Y166686D03*
Y162749D03*
X182052Y166686D03*
Y162749D03*
X186535Y149744D03*
X189535Y153244D03*
X179535D03*
X180115Y188686D03*
X184052D03*
X180115Y184749D03*
X184052D03*
X198693Y212402D03*
X182480Y207299D03*
X195535Y229244D03*
X186535Y264744D03*
X230216Y104563D03*
X206535Y104244D03*
Y93244D03*
X224535Y111244D03*
X229035Y139744D03*
X214035Y131244D03*
X230248Y130957D03*
X206535Y133244D03*
X213535Y145244D03*
Y150244D03*
X221535Y144244D03*
X212677Y163386D03*
X230709Y197071D03*
X227535Y212244D03*
X212008Y207244D03*
X225535Y229244D03*
X216535Y264744D03*
X237307Y95472D03*
X245882Y90591D03*
X237535Y88244D03*
X256752Y118028D03*
X250394Y166244D03*
X235535Y161244D03*
X246535Y163244D03*
X239535Y165244D03*
X239115Y176686D03*
X243052D03*
X239115Y172749D03*
X243052D03*
X258693Y212402D03*
X241535Y207244D03*
X255535Y229244D03*
X246535Y264744D03*
X266752Y84461D03*
X272535Y97244D03*
X262291Y125000D03*
X275543Y160236D03*
X264035Y154744D03*
X262063Y142716D03*
X287535Y212402D03*
X271063Y207244D03*
X285535Y229244D03*
X276535Y264744D03*
X314035Y47244D03*
X316535Y51244D03*
X310535Y142244D03*
X315535D03*
X300535Y161244D03*
X317535Y212402D03*
X300591Y207244D03*
X315535Y229244D03*
X306535Y264744D03*
X319535Y55244D03*
X322535Y59244D03*
X342535Y121244D03*
X337535D03*
X321457Y146323D03*
X320535Y142244D03*
X339535Y183244D03*
X345535D03*
Y178244D03*
X339535D03*
X321457Y182165D03*
X330118Y207244D03*
X345535Y229244D03*
X336535Y264744D03*
X362535Y29244D03*
X347535Y121244D03*
Y156244D03*
X359535D03*
X347835Y172945D03*
X369488Y189961D03*
X347535Y212402D03*
X359646Y207354D03*
X366535Y264744D03*
X400535Y63244D03*
X385241Y64938D03*
Y61001D03*
X389178Y64938D03*
Y61001D03*
X388386Y102094D03*
X377520Y121260D03*
X377535Y176378D03*
X389535Y175244D03*
Y185244D03*
X377362Y225071D03*
X399992Y218701D03*
X389173Y203882D03*
X377535Y229244D03*
X412732Y97047D03*
X406386Y102094D03*
X415178Y132938D03*
Y129001D03*
Y125064D03*
X411241Y132938D03*
Y129001D03*
Y125064D03*
X419115Y132938D03*
Y129001D03*
Y125064D03*
X408035Y164744D03*
X423535Y196244D03*
X413535Y186244D03*
X441304Y19347D03*
Y23284D03*
Y27221D03*
X445241Y19347D03*
X449178D03*
X453115D03*
X445241Y23284D03*
X449178D03*
X453115D03*
X445241Y27221D03*
X449178D03*
X453115D03*
X441304Y31158D03*
X445241D03*
X449178D03*
X453115D03*
X457323Y121457D03*
X443535Y134244D03*
X471126Y147835D03*
X471134Y184842D03*
X471323Y171457D03*
X476535Y179744D03*
X467115Y222001D03*
X463178D03*
X467115Y218064D03*
X463178D03*
X459241Y222001D03*
Y218064D03*
X467115Y225938D03*
X463178D03*
X459241D03*
G54D20*
X76181Y18701D03*
X421535Y328740D03*
G54D12*
X17126Y194882D03*
Y185039D03*
Y204724D03*
X40748Y194882D03*
Y185039D03*
Y204724D03*
X166732Y107284D03*
X460039Y306299D03*
Y286220D03*
G54D21*
X78150Y164370D03*
X221850Y152559D03*
X271063Y48228D03*
X358535Y201244D03*
X375394Y67913D03*
X393110Y158465D03*
X422638Y148622D03*
X444291Y10827D03*
Y172244D03*
X471850Y119094D03*
X460039Y199803D03*
G54D22*
G01X61535Y288976D02*
Y268644D01*
X65435Y264744D01*
G01X61535Y328740D02*
Y307480D01*
G01X96935Y264444D02*
X94015Y267365D01*
X93915D01*
X91535Y269744D01*
Y288976D01*
G01Y328740D02*
Y307480D01*
G01X135236Y177244D02*
X164764D01*
G01X136535Y207354D02*
X135236Y206055D01*
Y177244D01*
G01X121535Y288976D02*
Y269744D01*
X126535Y264744D01*
G01X121535Y328740D02*
Y307480D01*
G01X164764Y177244D02*
X194291D01*
G01X151535Y288976D02*
Y269744D01*
X156535Y264744D01*
G01X151535Y328740D02*
Y307480D01*
G01X235535Y161244D02*
X233715Y159423D01*
Y138423D01*
X230035Y134744D01*
X226535D01*
X224035Y137244D01*
X199035D01*
X194535Y132744D01*
Y122244D01*
G01X193535Y145244D02*
X213535D01*
G01X193535Y150244D02*
X213535D01*
G01X229035Y139744D02*
X189035D01*
X186535Y142244D01*
Y149744D01*
G01X221535Y144244D02*
X219535Y142244D01*
X191535D01*
X189535Y144244D01*
Y153244D01*
G01X212677Y163386D02*
X209035Y159744D01*
Y158244D01*
X208035Y157244D01*
X183535D01*
X179535Y153244D01*
G01X181535Y288976D02*
Y269744D01*
X186535Y264744D01*
G01X181535Y328740D02*
Y307480D01*
G01X230216Y104563D02*
X227642D01*
X227323Y104244D01*
X206535D01*
G01X214035Y131244D02*
X227386D01*
X227673Y130957D01*
X230248D01*
G01X206535Y133244D02*
Y128244D01*
X207535Y127244D01*
X221535D01*
X224535Y124244D01*
Y111244D01*
G01X211535Y288976D02*
Y269744D01*
X216535Y264744D01*
G01X211535Y328740D02*
Y307480D01*
G01X271063Y48228D02*
X258520D01*
X253346Y43055D01*
Y18701D01*
G01X256752Y118028D02*
X242752D01*
X239535Y121244D01*
Y165244D01*
G01X246535Y163244D02*
X263035D01*
X264035Y162244D01*
Y154744D01*
G01X241535Y288976D02*
Y269744D01*
X246535Y264744D01*
G01X241535Y328740D02*
Y307480D01*
G01X271535Y288976D02*
Y269744D01*
X276535Y264744D01*
G01X271535Y328740D02*
Y307480D01*
G01X397795Y37638D02*
Y42575D01*
X395626Y44744D01*
X316535D01*
X314035Y47244D01*
G01X301535Y288976D02*
Y269744D01*
X306535Y264744D01*
G01X301535Y328740D02*
Y307480D01*
G01X322535Y59244D02*
X329535Y52244D01*
X424035D01*
X427795Y48484D01*
Y37638D01*
G01X319535Y55244D02*
X325035Y49744D01*
X414035D01*
X417795Y45984D01*
Y37638D01*
G01X316535Y51244D02*
X320535Y47244D01*
X404035D01*
X407795Y43484D01*
Y37638D01*
G01X321457Y182165D02*
Y207165D01*
X321535Y207244D01*
G01X331535Y288976D02*
Y269744D01*
X336535Y264744D01*
G01X331535Y328740D02*
Y307480D01*
G01X361535Y288976D02*
Y269744D01*
X366535Y264744D01*
G01X361535Y328740D02*
Y307480D01*
G01X391142Y273228D02*
X403740D01*
G01Y291732D02*
X391142D01*
G01D02*
Y321441D01*
X391535Y321835D01*
Y328740D01*
G01X410433Y259449D02*
Y268898D01*
X406103Y273228D01*
X403740D01*
G54D13*
X17126Y175197D03*
X40748D03*
X150984Y107284D03*
G54D23*
G01X33392Y177684D02*
X40748Y185039D01*
G01X33392Y192395D02*
X40748Y185039D01*
G01X9770Y177684D02*
X17126Y185039D01*
G01Y185039D02*
X24482Y192395D01*
G01X9770D02*
X17126Y185039D01*
G01Y185039D02*
X24482Y177684D01*
G01X52559Y37638D02*
X131929D01*
X141535Y47244D01*
G01X64370Y71850D02*
X42929D01*
X37835Y76945D01*
Y153945D01*
G01X44102Y136811D02*
X88028D01*
X88461Y137244D01*
X91535D01*
G01X85236Y153945D02*
X37835D01*
G01X40748Y185039D02*
X48104Y192395D01*
G01X40748Y175197D02*
X45398Y175197D01*
X45445Y175244D01*
X60535D01*
X64370Y179079D01*
Y207409D01*
G01X65806Y8326D02*
X76181Y18701D01*
G01D02*
X86556Y29076D01*
G01X65806D02*
X76181Y18701D01*
G01D02*
X86556Y8326D01*
G01X64370Y71850D02*
X93898D01*
G01X64370Y207409D02*
X90658D01*
X90823Y207244D01*
X93898D01*
G01X106246Y9396D02*
X115551Y18701D01*
G01D02*
X124856Y28006D01*
G01X106246D02*
X115551Y18701D01*
G01D02*
X124856Y9396D01*
G01X93898Y71850D02*
X123425D01*
G01X388386Y102094D02*
X236094D01*
X233744Y99744D01*
X96535D01*
X91535Y104744D01*
Y137244D01*
G01X93898Y207244D02*
X120240D01*
X120350Y207354D01*
X123425D01*
G01X152953Y76850D02*
X148142D01*
X143142Y71850D01*
X123425D01*
G01X129035Y94744D02*
Y77461D01*
X123425Y71850D01*
G01Y207354D02*
X136535D01*
G01D02*
X151736D01*
X151846Y207244D01*
X154921D01*
G01X174606Y18701D02*
Y25315D01*
X176535Y27244D01*
X211535D01*
X213976Y24803D01*
Y18701D01*
G01X182480Y76850D02*
X152953D01*
G01X154921Y207244D02*
X179350D01*
X179406Y207299D01*
X182480D01*
G01X212008Y76850D02*
X194035D01*
G01X194535Y91244D02*
Y77350D01*
X194035Y76850D01*
G01D02*
X182480D01*
G01Y207299D02*
X208878D01*
X208933Y207244D01*
X212008D01*
G01X241535Y76850D02*
X212008D01*
G01X241535Y207244D02*
X231535D01*
G01X230709Y197071D02*
Y206417D01*
X231535Y207244D01*
G01D02*
X212008D01*
G01X271063Y76850D02*
X241535D01*
G01Y207244D02*
X271063D01*
G01X300591Y76850D02*
X271063D01*
G01X266752Y84461D02*
Y81161D01*
X271063Y76850D01*
G01Y207244D02*
Y145772D01*
X268008Y142716D01*
X262063D01*
G01X271063Y207244D02*
X300591D01*
G01X316453Y7244D02*
X312402Y11295D01*
Y18701D01*
G01X303097Y9396D02*
X312402Y18701D01*
G01D02*
X321706Y28006D01*
G01X303097D02*
X312402Y18701D01*
G01D02*
X321706Y9396D01*
G01X321535Y207244D02*
X300591D01*
G01X347720Y7244D02*
X316453D01*
G01X342467Y9396D02*
X351772Y18701D01*
G01X342467Y28006D02*
X351772Y18701D01*
G01X330118Y207244D02*
X356461D01*
X356571Y207354D01*
X359646D01*
G01X330118Y207244D02*
X321535D01*
G01X351772Y18701D02*
Y11295D01*
X347720Y7244D01*
G01X351772Y18701D02*
X361076Y28006D01*
G01X351772Y18701D02*
X361076Y9396D01*
G01X359646Y207354D02*
X361820Y209529D01*
X469251D01*
X476535Y202244D01*
Y179744D01*
G01X399883Y15550D02*
X407795Y7638D01*
G01X397795D02*
X405708Y15550D01*
G01X389883D02*
X397795Y7638D01*
G01X388386Y102094D02*
X406386D01*
G01X407795Y7638D02*
X415708Y15550D01*
G01X417795Y7638D02*
X425708Y15550D01*
G01X409883D02*
X417795Y7638D01*
G01X427795D02*
X435708Y15550D01*
G01X419883D02*
X427795Y7638D01*
G01X437910Y4445D02*
X444291Y10827D01*
G01D02*
X450673Y17208D01*
G01X437910D02*
X444291Y10827D01*
G01D02*
X450673Y4445D01*
G01X430867Y187363D02*
X438780Y195276D01*
G01D02*
X446692Y203188D01*
G01X430867D02*
X438780Y195276D01*
G01D02*
X446692Y187363D01*
G54D14*
X52559Y7638D03*
Y37638D03*
X397795Y7638D03*
Y37638D03*
X427795Y7638D03*
X417795D03*
X407795D03*
X427795Y37638D03*
X417795D03*
X407795D03*
X410433Y195276D03*
Y259449D03*
X438780Y195276D03*
Y259449D03*
G54D24*
G01X7874Y0D02*
X475197D01*
G03X483071Y7874I0J7874D01*
G01Y336614D01*
G03X475197Y344488I-7874J0D01*
G01X7874D01*
G03X0Y336614I0J-7874D01*
G01Y7874D01*
G03X7874Y0I7874J0D01*
G54D15*
X64370Y81850D03*
Y61850D03*
X93898Y81850D03*
Y61850D03*
X123425Y81850D03*
Y61850D03*
X135236Y177244D03*
X152953Y76850D03*
X164764Y177244D03*
X182480Y76850D03*
X194291Y177244D03*
X212008Y76850D03*
X241535D03*
X271063D03*
X300591D03*
G54D16*
X64370Y71850D03*
X93898D03*
X123425D03*
X135236Y167244D03*
X152953Y66850D03*
X164764Y167244D03*
X182480Y66850D03*
X194291Y167244D03*
X212008Y66850D03*
X241535D03*
X271063D03*
X300591D03*
G54D17*
X61535Y307480D03*
X91535D03*
X121535D03*
X151535D03*
X181535D03*
X211535D03*
X241535D03*
X271535D03*
X301535D03*
X331535D03*
X361535D03*
X403740Y291732D03*
X391142D03*
G54D18*
X61535Y288976D03*
X91535D03*
X121535D03*
X151535D03*
X181535D03*
X211535D03*
X241535D03*
X271535D03*
X301535D03*
X331535D03*
X361535D03*
X403740Y273228D03*
X391142D03*
G54D19*
X61535Y328740D03*
X95866Y18701D03*
X91535Y328740D03*
X115551Y18701D03*
X121535Y328740D03*
X135236Y18701D03*
X151535Y328740D03*
X174606Y18701D03*
X154921D03*
X194291D03*
X181535Y328740D03*
X233661Y18701D03*
X213976D03*
X211535Y328740D03*
X253346Y18701D03*
X241535Y328740D03*
X292716Y18701D03*
X273032D03*
X271535Y328740D03*
X312402Y18701D03*
X301535Y328740D03*
X332087Y18701D03*
X331535Y328740D03*
X371457Y18701D03*
X351772D03*
X361535Y328740D03*
X391535D03*
M02*
