G04 ================== begin FILE IDENTIFICATION RECORD ==================*
G04 Layout Name:  D:/Project/2018/CentralizedMonitoringSystem/hardware/allegro/CMS.brd*
G04 Film Name:    DIMENSION*
G04 File Format:  Gerber RS274X*
G04 File Origin:  Cadence Allegro 17.2-S045*
G04 Origin Date:  Fri Nov 02 14:48:18 2018*
G04 *
G04 Layer:  VIA CLASS/TOP*
G04 Layer:  VIA CLASS/SOLDERMASK_TOP*
G04 Layer:  VIA CLASS/SOLDERMASK_BOTTOM*
G04 Layer:  VIA CLASS/PASTEMASK_TOP*
G04 Layer:  VIA CLASS/PASTEMASK_BOTTOM*
G04 Layer:  VIA CLASS/BOTTOM*
G04 Layer:  BOARD GEOMETRY/OUTLINE*
G04 Layer:  BOARD GEOMETRY/NCROUTE_PATH*
G04 Layer:  BOARD GEOMETRY/DIMENSION*
G04 Layer:  BOARD GEOMETRY/CUTOUT*
G04 *
G04 Offset:    (0.000 0.000)*
G04 Mirror:    No*
G04 Mode:      Positive*
G04 Rotation:  0*
G04 FullContactRelief:  No*
G04 UndefLineWidth:     4.000*
G04 ================== end FILE IDENTIFICATION RECORD ====================*
%FSLAX25Y25*MOIN*%
%IR0*IPPOS*OFA0.00000B0.00000*MIA0B0*SFA1.00000B1.00000*%
%ADD10C,.031496*%
%ADD11C,.003937*%
%ADD12C,.004*%
G75*
%LPD*%
G75*
G54D10*
X5367Y81875D03*
D03*
Y77938D03*
D03*
Y74001D03*
D03*
Y70064D03*
D03*
Y66127D03*
D03*
Y93686D03*
D03*
Y89749D03*
D03*
Y85812D03*
D03*
X25052Y81875D03*
D03*
X21115D03*
D03*
X17178D03*
D03*
X13241D03*
D03*
X9304D03*
D03*
X25052Y77938D03*
D03*
X21115D03*
D03*
X17178D03*
D03*
X13241D03*
D03*
X9304D03*
D03*
X25052Y74001D03*
D03*
X21115D03*
D03*
X17178D03*
D03*
X13241D03*
D03*
X9304D03*
D03*
X25052Y70064D03*
D03*
X21115D03*
D03*
X17178D03*
D03*
X13241D03*
D03*
X9304D03*
D03*
X25052Y66127D03*
D03*
X21115D03*
D03*
X17178D03*
D03*
X13241D03*
D03*
X9304D03*
D03*
X25052Y93686D03*
D03*
X21115D03*
D03*
X17178D03*
D03*
X13241D03*
D03*
X9304D03*
D03*
X25052Y89749D03*
D03*
X21115D03*
D03*
X17178D03*
D03*
X13241D03*
D03*
X9304D03*
D03*
X25052Y85812D03*
D03*
X21115D03*
D03*
X17178D03*
D03*
X13241D03*
D03*
X9304D03*
D03*
X21785Y144494D03*
D03*
X8367Y158749D03*
D03*
X12304D03*
D03*
X16241D03*
D03*
X20178D03*
D03*
X24115D03*
D03*
X28052D03*
D03*
X8367Y162686D03*
D03*
X12304D03*
D03*
X16241D03*
D03*
X20178D03*
D03*
X24115D03*
D03*
X28052D03*
D03*
X30535Y184244D03*
D03*
X25115Y222749D03*
D03*
X21178D03*
D03*
X17241D03*
D03*
X13304D03*
D03*
X9367D03*
D03*
X29052D03*
D03*
X25115Y226686D03*
D03*
X21178D03*
D03*
X17241D03*
D03*
X13304D03*
D03*
X9367D03*
D03*
X29052D03*
D03*
X45052Y54812D03*
D03*
X41115D03*
D03*
X37178D03*
D03*
X45052Y58749D03*
D03*
X41115D03*
D03*
X37178D03*
D03*
X45052Y62686D03*
D03*
X41115D03*
D03*
X37178D03*
D03*
X52052Y106749D03*
D03*
X44178Y110686D03*
D03*
X48115D03*
D03*
X52052D03*
D03*
X44178Y102812D03*
D03*
X48115D03*
D03*
X52052D03*
D03*
X44178Y106749D03*
D03*
X48115D03*
D03*
X44102Y136811D03*
D03*
X53535Y148244D03*
D03*
X37835Y153945D03*
D03*
X50693Y212402D03*
D03*
X58535Y204244D03*
D03*
X64370Y207409D03*
D03*
X70535Y30244D03*
D03*
X78535D03*
D03*
X80052Y117749D03*
D03*
X76115D03*
D03*
X80052Y121686D03*
D03*
X76115D03*
D03*
X91535Y137244D03*
D03*
X69370Y144409D03*
D03*
X85236Y153945D03*
D03*
X80693Y212402D03*
D03*
X75535Y201244D03*
D03*
X81535D03*
D03*
X87535D03*
D03*
X92535D03*
D03*
X77535Y229244D03*
D03*
X65435Y264744D03*
D03*
X117115Y45938D03*
D03*
X113178D03*
D03*
X109241D03*
D03*
X110535Y30244D03*
D03*
X120535D03*
D03*
X120571Y105209D03*
D03*
X118052Y167812D03*
D03*
X114115D03*
D03*
X110178D03*
D03*
X118052Y171749D03*
D03*
X114115D03*
D03*
X110178D03*
D03*
X118052Y175686D03*
D03*
X114115D03*
D03*
X110178D03*
D03*
X109535Y212244D03*
D03*
X93898Y207244D03*
D03*
X106535Y229244D03*
D03*
X96935Y264444D03*
D03*
X141732Y52165D03*
D03*
X121052Y45938D03*
D03*
X129035Y94744D03*
D03*
X135236Y122945D03*
D03*
X146535Y160244D03*
D03*
X138535Y212244D03*
D03*
X123425Y207354D03*
D03*
X136535Y229244D03*
D03*
X126535Y264744D03*
D03*
X176181Y41339D03*
D03*
X175535Y122244D03*
D03*
X154535Y118244D03*
D03*
X162535D03*
D03*
X176178Y188686D03*
D03*
Y184749D03*
D03*
X169693Y212402D03*
D03*
X154921Y207244D03*
D03*
X165535Y229244D03*
D03*
X156535Y264744D03*
D03*
X193898Y40354D03*
D03*
X190945Y62008D03*
D03*
X200197Y104244D03*
D03*
X202535Y93244D03*
D03*
X194535Y91244D03*
D03*
Y122244D03*
D03*
X193535Y145244D03*
D03*
Y150244D03*
D03*
X178115Y166686D03*
D03*
Y162749D03*
D03*
X182052Y166686D03*
D03*
Y162749D03*
D03*
X184000Y147000D03*
D03*
X189535Y153244D03*
D03*
X179535D03*
D03*
X180115Y188686D03*
D03*
X184052D03*
D03*
X180115Y184749D03*
D03*
X184052D03*
D03*
X198693Y212402D03*
D03*
X182480Y207299D03*
D03*
X195535Y229244D03*
D03*
X186535Y264744D03*
D03*
X230216Y104563D03*
D03*
X206535Y104244D03*
D03*
Y93244D03*
D03*
X224535Y111244D03*
D03*
X229035Y139744D03*
D03*
X214035Y131244D03*
D03*
X230248Y130957D03*
D03*
X206535Y133244D03*
D03*
X213535Y145244D03*
D03*
Y150244D03*
D03*
X212000Y164000D03*
D03*
X220000Y144000D03*
D03*
X230709Y197071D03*
D03*
X227535Y212244D03*
D03*
X212008Y207244D03*
D03*
X225535Y229244D03*
D03*
X216535Y264744D03*
D03*
X237307Y95472D03*
D03*
X245882Y90591D03*
D03*
X237535Y88244D03*
D03*
X256752Y118028D03*
D03*
X250394Y166244D03*
D03*
X235535Y161244D03*
D03*
X246535Y163244D03*
D03*
X239535Y165244D03*
D03*
X239115Y176686D03*
D03*
X243052D03*
D03*
X239115Y172749D03*
D03*
X243052D03*
D03*
X255906Y212598D03*
D03*
Y216535D03*
D03*
X241535Y207244D03*
D03*
X246535Y264744D03*
D03*
X266752Y84461D03*
D03*
X272535Y97244D03*
D03*
X262291Y125000D03*
D03*
X264035Y154744D03*
D03*
X262063Y142716D03*
D03*
X287535Y212402D03*
D03*
X271063Y207244D03*
D03*
X285535Y229244D03*
D03*
X276535Y264744D03*
D03*
X314035Y47244D03*
D03*
X316535Y51244D03*
D03*
X310535Y142244D03*
D03*
X315535D03*
D03*
X300535Y161244D03*
D03*
X317535Y212402D03*
D03*
X300591Y207244D03*
D03*
X315535Y229244D03*
D03*
X306535Y264744D03*
D03*
X319535Y55244D03*
D03*
X322535Y59244D03*
D03*
X342535Y121244D03*
D03*
X337535D03*
D03*
X321457Y146323D03*
D03*
X320535Y142244D03*
D03*
X339535Y183244D03*
D03*
X345535D03*
D03*
Y178244D03*
D03*
X339535D03*
D03*
X321457Y182165D03*
D03*
X330118Y207244D03*
D03*
X345535Y229244D03*
D03*
X336535Y264744D03*
D03*
X362535Y29244D03*
D03*
X347535Y121244D03*
D03*
Y156244D03*
D03*
X359535D03*
D03*
X347835Y172945D03*
D03*
X369488Y189961D03*
D03*
X347535Y212402D03*
D03*
X359646Y207354D03*
D03*
X366535Y264744D03*
D03*
X400535Y63244D03*
D03*
X385241Y64938D03*
D03*
Y61001D03*
D03*
X389178Y64938D03*
D03*
Y61001D03*
D03*
X388386Y102094D03*
D03*
X377520Y121260D03*
D03*
X377535Y176378D03*
D03*
X377362Y225071D03*
D03*
X399992Y218701D03*
D03*
X389173Y203882D03*
D03*
X377535Y229244D03*
D03*
X412732Y97047D03*
D03*
X406386Y102094D03*
D03*
X415178Y132938D03*
D03*
Y129001D03*
D03*
Y125064D03*
D03*
X411241Y132938D03*
D03*
Y129001D03*
D03*
Y125064D03*
D03*
X419115Y132938D03*
D03*
Y129001D03*
D03*
Y125064D03*
D03*
X408035Y164744D03*
D03*
X423535Y196244D03*
D03*
X417323Y187008D03*
D03*
X441304Y19347D03*
D03*
Y23284D03*
D03*
Y27221D03*
D03*
X445241Y19347D03*
D03*
X449178D03*
D03*
X453115D03*
D03*
X445241Y23284D03*
D03*
X449178D03*
D03*
X453115D03*
D03*
X445241Y27221D03*
D03*
X449178D03*
D03*
X453115D03*
D03*
X441304Y31158D03*
D03*
X445241D03*
D03*
X449178D03*
D03*
X453115D03*
D03*
X457323Y121457D03*
D03*
X443898Y133858D03*
D03*
X453000Y198000D03*
D03*
X471126Y147835D03*
D03*
X471323Y171457D03*
D03*
X472441Y185039D03*
D03*
X476535Y179744D03*
D03*
X467115Y222001D03*
D03*
X463178D03*
D03*
X467115Y218064D03*
D03*
X463178D03*
D03*
X459241Y222001D03*
D03*
Y218064D03*
D03*
X467115Y225938D03*
D03*
X463178D03*
D03*
X459241D03*
D03*
G54D11*
G01X248032Y248032D02*
G02X251968Y244094I0J-3937D01*
G02X248032Y240157I-3937J0D01*
G01X43307D01*
G02X39370Y244094I0J3937D01*
G02X43307Y248032I3937J0D01*
G01X248032D01*
G01X267716D02*
G03X263780Y244094I0J-3937D01*
G03X267716Y240157I3937J0D01*
G01X448819D01*
G03X452756Y244094I0J3937D01*
G03X448819Y248032I-3937J0D01*
G01X267716D01*
G01X399606Y332677D02*
Y312992D01*
G03X413386I6890J0D01*
G01Y332677D01*
G03X399606I-6890J0D01*
G54D12*
G01X-52065Y165010D02*
X-50980Y165218D01*
X-49740Y165843D01*
X-48965Y166884D01*
X-48655Y168343D01*
X-48965Y169801D01*
X-49895Y171051D01*
X-51290Y171677D01*
X-52840D01*
X-53770Y172093D01*
X-54545Y173135D01*
X-54855Y174593D01*
X-54390Y176051D01*
X-53305Y177093D01*
X-52065Y177510D01*
X-50825Y177093D01*
X-49740Y176051D01*
X-49274Y174593D01*
X-49585Y173135D01*
X-50360Y172093D01*
X-51290Y171677D01*
X-52840D01*
X-54235Y171051D01*
X-55165Y169801D01*
X-55475Y168343D01*
X-55165Y166884D01*
X-54390Y165843D01*
X-53150Y165218D01*
X-52065Y165010D01*
G01X-39975D02*
X-39665Y167718D01*
X-39200Y170010D01*
X-38580Y172093D01*
X-37805Y174385D01*
X-36565Y177510D01*
X-42765D01*
G01X-27265Y164593D02*
X-27575Y164802D01*
Y165218D01*
X-27265Y165426D01*
X-26955Y165218D01*
Y164802D01*
X-27265Y164593D01*
G01X-18275Y166884D02*
X-17345Y165843D01*
X-16260Y165218D01*
X-14865Y165010D01*
X-13470Y165426D01*
X-12385Y166260D01*
X-11610Y167718D01*
X-11455Y169385D01*
X-11765Y171051D01*
X-12540Y172093D01*
X-13625Y172926D01*
X-14710Y173135D01*
X-15794Y172926D01*
X-17190Y172093D01*
X-16725Y177510D01*
X-12540D01*
G01X-9842Y0D02*
X-43307D01*
G01X-33465Y155635D02*
Y0D01*
G01X-35925Y15748D02*
X-33465Y0D01*
X-31004Y15748D01*
X-35925D01*
G01X-33465Y186885D02*
Y344488D01*
G01X-31004Y328740D02*
X-33465Y344488D01*
X-35925Y328740D01*
X-31004D01*
G01X-9842Y344488D02*
X-43307D01*
G01X0Y-9842D02*
Y-47244D01*
G01X189522Y-37402D02*
X0D01*
G01X15748Y-34941D02*
X0Y-37402D01*
X15748Y-39862D01*
Y-34941D01*
G01X7874Y0D02*
X475197D01*
G03X483071Y7874I0J7874D01*
G01Y336614D01*
G03X475197Y344488I-7874J0D01*
G01X7874D01*
G03X0Y336614I0J-7874D01*
G01Y7874D01*
G03X7874Y0I7874J0D01*
G01X43307Y248032D02*
G03X39370Y244094I0J-3937D01*
G03X43307Y240157I3937J0D01*
G01X248032D01*
G03X251968Y244094I0J3937D01*
G03X248032Y248032I-3937J0D01*
G01X43307D01*
G01X203546Y-43652D02*
Y-31152D01*
X201686Y-33651D01*
G01Y-43652D02*
X205406D01*
G01X213001Y-33235D02*
X213932Y-31985D01*
X215017Y-31360D01*
X216257Y-31152D01*
X217806Y-31568D01*
X218892Y-32610D01*
X219202Y-33860D01*
X219046Y-35110D01*
X218426Y-36152D01*
X215326Y-38235D01*
X213932Y-39693D01*
X213001Y-41777D01*
X212692Y-43652D01*
X219202D01*
G01X225401Y-33235D02*
X226332Y-31985D01*
X227417Y-31360D01*
X228657Y-31152D01*
X230207Y-31568D01*
X231292Y-32610D01*
X231601Y-33860D01*
X231447Y-35110D01*
X230826Y-36152D01*
X227726Y-38235D01*
X226332Y-39693D01*
X225401Y-41777D01*
X225092Y-43652D01*
X231601D01*
G01X240746Y-44068D02*
X240436Y-43860D01*
Y-43443D01*
X240746Y-43235D01*
X241057Y-43443D01*
Y-43860D01*
X240746Y-44068D01*
G01X252836Y-43652D02*
X253146Y-40944D01*
X253611Y-38652D01*
X254231Y-36568D01*
X255006Y-34277D01*
X256246Y-31152D01*
X250047D01*
G01X267171Y-37402D02*
X483071D01*
G01X267716Y248032D02*
G03X263780Y244094I0J-3937D01*
G03X267716Y240157I3937J0D01*
G01X448819D01*
G03X452756Y244094I0J3937D01*
G03X448819Y248032I-3937J0D01*
G01X267716D01*
G01X399606Y332677D02*
Y312992D01*
G03X406496Y306102I6890J0D01*
G03X413386Y312992I0J6890D01*
G01Y332677D01*
G03X406496Y339567I-6890J0D01*
G03X399606Y332677I0J-6890D01*
G01X483071Y-9842D02*
Y-47244D01*
G01X467323Y-39862D02*
X483071Y-37402D01*
X467323Y-34941D01*
Y-39862D01*
M02*
