G04 ================== begin FILE IDENTIFICATION RECORD ==================*
G04 Layout Name:  E:/cmSystem/allegro/CMS.brd*
G04 Film Name:    DRILL_CHART*
G04 File Format:  Gerber RS274X*
G04 File Origin:  Cadence Allegro 17.2-S037*
G04 Origin Date:  Thu Aug 23 10:24:26 2018*
G04 *
G04 Layer:  BOARD GEOMETRY/CUTOUT*
G04 Layer:  BOARD GEOMETRY/OUTLINE*
G04 Layer:  MANUFACTURING/NCLEGEND-1-2*
G04 Layer:  MANUFACTURING/NCDRILL_LEGEND*
G04 Layer:  MANUFACTURING/NCDRILL_FIGURE*
G04 *
G04 Offset:    (0.0000 0.0000)*
G04 Mirror:    No*
G04 Mode:      Positive*
G04 Rotation:  0*
G04 FullContactRelief:  No*
G04 UndefLineWidth:     0.1016*
G04 ================== end FILE IDENTIFICATION RECORD ====================*
%FSLAX25Y25*MOIN*%
%IR0*IPPOS*OFA0.00000B0.00000*MIA0B0*SFA1.00000B1.00000*%
%AMMACRO11*
1,1,.004,.009843,0.0*
20,1,.004,.009843,0.0,-.009843,0.0,0.0*
1,1,.004,-.009843,0.0*
1,1,.004,0.0,.009843*
20,1,.004,0.0,.009843,0.0,-.009843,0.0*
1,1,.004,0.0,-.009843*
%
%ADD11MACRO11*%
%AMMACRO10*
1,1,.004,.066929,0.0*
20,1,.004,.066929,0.0,0.0,-.066929,0.0*
1,1,.004,0.0,-.066929*
20,1,.004,0.0,-.066929,-.066929,0.0,0.0*
1,1,.004,-.066929,0.0*
20,1,.004,-.066929,0.0,0.0,.066929,0.0*
1,1,.004,0.0,.066929*
20,1,.004,0.0,.066929,.066929,0.0,0.0*
1,1,.004,.066929,0.0*
%
%ADD10MACRO10*%
%AMMACRO14*
1,1,.004,.01378,.01378*
20,1,.004,.01378,.01378,.01378,-.01378,0.0*
1,1,.004,.01378,-.01378*
20,1,.004,.01378,-.01378,-.01378,-.01378,0.0*
1,1,.004,-.01378,-.01378*
20,1,.004,-.01378,-.01378,-.01378,.01378,0.0*
1,1,.004,-.01378,.01378*
20,1,.004,-.01378,.01378,.01378,.01378,0.0*
1,1,.004,.01378,.01378*
%
%ADD14MACRO14*%
%AMMACRO13*
1,1,.004,0.0,.019685*
20,1,.004,0.0,.019685,-.017048,.009843,0.0*
1,1,.004,-.017048,.009843*
20,1,.004,-.017048,.009843,-.017048,-.009843,0.0*
1,1,.004,-.017048,-.009843*
20,1,.004,-.017048,-.009843,0.0,-.019685,0.0*
1,1,.004,0.0,-.019685*
20,1,.004,0.0,-.019685,.017048,-.009843,0.0*
1,1,.004,.017048,-.009843*
20,1,.004,.017048,-.009843,.017048,.009843,0.0*
1,1,.004,.017048,.009843*
20,1,.004,.017048,.009843,0.0,.019685,0.0*
1,1,.004,0.0,.019685*
%
%ADD13MACRO13*%
%AMMACRO15*
1,1,.004,.009784,-.02362*
20,1,.004,.009784,-.02362,-.009784,-.02362,0.0*
1,1,.004,-.009784,-.02362*
20,1,.004,-.009784,-.02362,-.02362,-.009784,0.0*
1,1,.004,-.02362,-.009784*
20,1,.004,-.02362,-.009784,-.02362,.009784,0.0*
1,1,.004,-.02362,.009784*
20,1,.004,-.02362,.009784,-.009784,.02362,0.0*
1,1,.004,-.009784,.02362*
20,1,.004,-.009784,.02362,.009784,.02362,0.0*
1,1,.004,.009784,.02362*
20,1,.004,.009784,.02362,.02362,.009784,0.0*
1,1,.004,.02362,.009784*
20,1,.004,.02362,.009784,.02362,-.009784,0.0*
1,1,.004,.02362,-.009784*
20,1,.004,.02362,-.009784,.009784,-.02362,0.0*
1,1,.004,.009784,-.02362*
%
%ADD15MACRO15*%
%AMMACRO12*
1,1,.004,.01575,0.0*
20,1,.004,.01575,0.0,.007875,.01364,0.0*
1,1,.004,.007875,.01364*
20,1,.004,.007875,.01364,-.007875,.01364,0.0*
1,1,.004,-.007875,.01364*
20,1,.004,-.007875,.01364,-.01575,0.0,0.0*
1,1,.004,-.01575,0.0*
20,1,.004,-.01575,0.0,-.007875,-.01364,0.0*
1,1,.004,-.007875,-.01364*
20,1,.004,-.007875,-.01364,.007875,-.01364,0.0*
1,1,.004,.007875,-.01364*
20,1,.004,.007875,-.01364,.01575,0.0,0.0*
1,1,.004,.01575,0.0*
%
%ADD12MACRO12*%
%ADD16C,.004*%
G75*
%LPD*%
G75*
G54D10*
X13780Y13780D03*
Y330709D03*
X469291Y13780D03*
Y330709D03*
X618950Y29909D03*
G54D11*
X5367Y81875D03*
Y77938D03*
Y74001D03*
Y70064D03*
Y66127D03*
Y93686D03*
Y89749D03*
Y85812D03*
X25052Y81875D03*
X21115D03*
X17178D03*
X13241D03*
X9304D03*
X25052Y77938D03*
X21115D03*
X17178D03*
X13241D03*
X9304D03*
X25052Y74001D03*
X21115D03*
X17178D03*
X13241D03*
X9304D03*
X25052Y70064D03*
X21115D03*
X17178D03*
X13241D03*
X9304D03*
X25052Y66127D03*
X21115D03*
X17178D03*
X13241D03*
X9304D03*
X25052Y93686D03*
X21115D03*
X17178D03*
X13241D03*
X9304D03*
X25052Y89749D03*
X21115D03*
X17178D03*
X13241D03*
X9304D03*
X25052Y85812D03*
X21115D03*
X17178D03*
X13241D03*
X9304D03*
X21785Y144494D03*
X8367Y158749D03*
X12304D03*
X16241D03*
X20178D03*
X24115D03*
X28052D03*
X8367Y162686D03*
X12304D03*
X16241D03*
X20178D03*
X24115D03*
X28052D03*
X30535Y184244D03*
X25115Y222749D03*
X21178D03*
X17241D03*
X13304D03*
X9367D03*
X29052D03*
X25115Y226686D03*
X21178D03*
X17241D03*
X13304D03*
X9367D03*
X29052D03*
X45052Y54812D03*
X41115D03*
X37178D03*
X45052Y58749D03*
X41115D03*
X37178D03*
X45052Y62686D03*
X41115D03*
X37178D03*
X52052Y106749D03*
X44178Y110686D03*
X48115D03*
X52052D03*
X44178Y102812D03*
X48115D03*
X52052D03*
X44178Y106749D03*
X48115D03*
X44102Y136811D03*
X53535Y148244D03*
X37835Y153945D03*
X50693Y212402D03*
X58535Y204244D03*
X64370Y207409D03*
X70535Y30244D03*
X78535D03*
X80052Y117749D03*
X76115D03*
X80052Y121686D03*
X76115D03*
X91535Y137244D03*
X78150Y164370D03*
X69370Y144409D03*
X85236Y153945D03*
X80693Y212402D03*
X75535Y201244D03*
X81535D03*
X87535D03*
X92535D03*
X77535Y229244D03*
X65435Y264744D03*
X117115Y45938D03*
X113178D03*
X117115Y42001D03*
X113178D03*
X109241Y45938D03*
Y42001D03*
X110535Y30244D03*
X120535D03*
X120571Y105209D03*
X118052Y167812D03*
X114115D03*
X110178D03*
X118052Y171749D03*
X114115D03*
X110178D03*
X118052Y175686D03*
X114115D03*
X110178D03*
X109535Y212244D03*
X93898Y207244D03*
X106535Y229244D03*
X96935Y264444D03*
X141535Y47244D03*
X121052Y45938D03*
Y42001D03*
X129035Y94744D03*
X135236Y122945D03*
X146535Y160244D03*
X138535Y212244D03*
X123425Y207354D03*
X136535Y229244D03*
X126535Y264744D03*
X175535Y122244D03*
X154535Y118244D03*
X162535D03*
X176178Y188686D03*
Y184749D03*
X169693Y212402D03*
X154921Y207244D03*
X165535Y229244D03*
X156535Y264744D03*
X182480Y36299D03*
X200197Y104244D03*
X202535Y93244D03*
X194535Y91244D03*
Y122244D03*
X193535Y145244D03*
Y150244D03*
X178115Y166686D03*
Y162749D03*
X182052Y166686D03*
Y162749D03*
X186535Y149744D03*
X189535Y153244D03*
X179535D03*
X180115Y188686D03*
X184052D03*
X180115Y184749D03*
X184052D03*
X198693Y212402D03*
X182480Y207299D03*
X195535Y229244D03*
X186535Y264744D03*
X230217Y104563D03*
X206535Y104244D03*
Y93244D03*
X224535Y111244D03*
X229035Y139744D03*
X214035Y131244D03*
X230248Y130957D03*
X206535Y133244D03*
X221850Y152559D03*
X213535Y145244D03*
Y150244D03*
X221535Y144244D03*
X212677Y163386D03*
X230709Y197071D03*
X227535Y212244D03*
X212008Y207244D03*
X225535Y229244D03*
X216535Y264744D03*
X237307Y95472D03*
X245882Y90591D03*
X237535Y88244D03*
X256752Y118028D03*
X250394Y166244D03*
X235535Y161244D03*
X246535Y163244D03*
X239535Y165244D03*
X239115Y176686D03*
X243052D03*
X239115Y172749D03*
X243052D03*
X258693Y212402D03*
X241535Y207244D03*
X255535Y229244D03*
X246535Y264744D03*
X271063Y48228D03*
X266752Y84461D03*
X272535Y97244D03*
X262291Y125000D03*
X275543Y160236D03*
X264035Y154744D03*
X262063Y142717D03*
X287535Y212402D03*
X271063Y207244D03*
X285535Y229244D03*
X276535Y264744D03*
X314035Y47244D03*
X316535Y51244D03*
X310535Y142244D03*
X315535D03*
X300535Y161244D03*
X317535Y212402D03*
X300591Y207244D03*
X315535Y229244D03*
X306535Y264744D03*
X319535Y55244D03*
X322535Y59244D03*
X342535Y121244D03*
X337535D03*
X321457Y146323D03*
X320535Y142244D03*
X339535Y183244D03*
X345535D03*
Y178244D03*
X339535D03*
X321457Y182165D03*
X330118Y207244D03*
X345535Y229244D03*
X336535Y264744D03*
X362535Y29244D03*
X347535Y121244D03*
Y156244D03*
X359535D03*
X347835Y172945D03*
X369488Y189961D03*
X358535Y201244D03*
X347535Y212402D03*
X359646Y207354D03*
X366535Y264744D03*
X375394Y67913D03*
X400535Y63244D03*
X385241Y64938D03*
Y61001D03*
X389178Y64938D03*
Y61001D03*
X388386Y102094D03*
X377520Y121260D03*
X393110Y158465D03*
X377535Y176378D03*
X389535Y175244D03*
Y185244D03*
X377362Y225071D03*
X399992Y218701D03*
X389173Y203882D03*
X377535Y229244D03*
X412732Y97047D03*
X406386Y102094D03*
X415178Y132938D03*
Y129001D03*
Y125064D03*
X411241Y132938D03*
Y129001D03*
Y125064D03*
X419115Y132938D03*
Y129001D03*
Y125064D03*
X422638Y148622D03*
X408035Y164744D03*
X423535Y196244D03*
X413535Y186244D03*
X444291Y10827D03*
X441304Y19347D03*
Y23284D03*
Y27221D03*
X445241Y19347D03*
X449178D03*
X453115D03*
X445241Y23284D03*
X449178D03*
X453115D03*
X445241Y27221D03*
X449178D03*
X453115D03*
X441304Y31158D03*
X445241D03*
X449178D03*
X453115D03*
X457323Y121457D03*
X443535Y134244D03*
X444291Y172244D03*
X471850Y119094D03*
X471126Y147835D03*
X471134Y184843D03*
X471323Y171457D03*
X476535Y179744D03*
X460039Y199803D03*
X467115Y222001D03*
X463178D03*
X467115Y218064D03*
X463178D03*
X459241Y222001D03*
Y218064D03*
X467115Y225938D03*
X463178D03*
X459241D03*
X618950Y154909D03*
G54D12*
X17126Y194882D03*
Y175197D03*
Y185039D03*
Y204724D03*
X40748Y194882D03*
Y175197D03*
Y185039D03*
Y204724D03*
X166732Y107283D03*
X150984D03*
X460039Y306299D03*
Y286220D03*
X618950Y104909D03*
G54D13*
X52559Y7638D03*
Y37638D03*
X397795Y7638D03*
Y37638D03*
X427795Y7638D03*
X417795D03*
X407795D03*
X427795Y37638D03*
X417795D03*
X407795D03*
X410433Y195276D03*
Y259449D03*
X438780Y195276D03*
Y259449D03*
X618950Y79909D03*
G54D14*
X64370Y81850D03*
Y61850D03*
Y71850D03*
X93898Y81850D03*
Y61850D03*
Y71850D03*
X123425Y81850D03*
Y61850D03*
Y71850D03*
X135236Y167244D03*
Y177244D03*
X152953Y76850D03*
Y66850D03*
X164764Y167244D03*
Y177244D03*
X182480Y76850D03*
Y66850D03*
X194291Y167244D03*
Y177244D03*
X212008Y76850D03*
Y66850D03*
X241535Y76850D03*
Y66850D03*
X271063Y76850D03*
Y66850D03*
X300591Y76850D03*
Y66850D03*
X618950Y129909D03*
G54D15*
X61535Y328740D03*
X76181Y18701D03*
X95866D03*
X91535Y328740D03*
X115551Y18701D03*
X121535Y328740D03*
X135236Y18701D03*
X151535Y328740D03*
X174606Y18701D03*
X154921D03*
X194291D03*
X181535Y328740D03*
X233661Y18701D03*
X213976D03*
X211535Y328740D03*
X253346Y18701D03*
X241535Y328740D03*
X292717Y18701D03*
X273031D03*
X271535Y328740D03*
X312402Y18701D03*
X301535Y328740D03*
X332087Y18701D03*
X331535Y328740D03*
X371457Y18701D03*
X351772D03*
X361535Y328740D03*
X391535D03*
X421535D03*
X618950Y54909D03*
G54D16*
G01X7874Y0D02*
X475197D01*
G03X483071Y7874I0J7874D01*
G01Y336614D01*
G03X475197Y344488I-7874J0D01*
G01X7874D01*
G03X0Y336614I0J-7874D01*
G01Y7874D01*
G03X7874Y0I7874J0D01*
G01X448818Y250000D02*
G02X455818Y243000I0J-7000D01*
G02X448818Y236000I-7000J0D01*
G01X41339Y236220D01*
G02X34342Y243224I4J7000D01*
G02X41346Y250220I7000J-4D01*
G01X448818Y250000D01*
G01X399606Y332677D02*
Y312992D01*
G03X406496Y306102I6890J0D01*
G03X413386Y312992I0J6890D01*
G01Y332677D01*
G03X406496Y339567I-6890J0D01*
G03X399606Y332677I0J-6890D01*
G01X574000Y17409D02*
Y243000D01*
X1070000D01*
Y17409D01*
X574000D01*
G01Y42409D02*
X1070000D01*
G01X574000Y67409D02*
X1070000D01*
G01X574000Y92409D02*
X1070000D01*
G01X574000Y117409D02*
X1070000D01*
G01X574000Y142409D02*
X1070000D01*
G01X585005Y173659D02*
Y186159D01*
X590895D01*
G01X588725Y180118D02*
X585005D01*
G01X598490Y186159D02*
X602210D01*
G01X600350D02*
Y173659D01*
G01X598490D02*
X602210D01*
G01X613680Y179909D02*
X616780D01*
Y176159D01*
X615850Y174909D01*
X614765Y174076D01*
X613215Y173659D01*
X611665Y174076D01*
X610580Y174909D01*
X609650Y176159D01*
X609030Y177618D01*
X608720Y179284D01*
Y180743D01*
X609030Y181993D01*
X609650Y183451D01*
X610580Y184701D01*
X611510Y185534D01*
X612750Y186159D01*
X613835D01*
X615075Y185743D01*
X616005Y184909D01*
G01X621740Y186159D02*
Y177201D01*
X622360Y175326D01*
X623600Y174076D01*
X625150Y173659D01*
X626700Y174076D01*
X627940Y175326D01*
X628560Y177201D01*
Y186159D01*
G01X634450Y173659D02*
Y186159D01*
X638325D01*
X639565Y185534D01*
X640340Y184701D01*
X640650Y183034D01*
X640340Y181368D01*
X639410Y180326D01*
X638325Y179701D01*
X634450D01*
G01X638325D02*
X640650Y173659D01*
G01X653050D02*
X646850D01*
Y186159D01*
X653050D01*
G01X650570Y180118D02*
X646850D01*
G01X574000Y192409D02*
X1070000D01*
G01X574000Y167409D02*
X1070000D01*
G01X574000Y217409D02*
X1070000D01*
G01X650725Y198659D02*
X654600Y211159D01*
X658475Y198659D01*
G01X657080Y203034D02*
X652120D01*
G01X663900Y211159D02*
Y198659D01*
X670100D01*
G01X676300Y211159D02*
Y198659D01*
X682500D01*
G01X700790Y211159D02*
Y202201D01*
X701410Y200326D01*
X702650Y199076D01*
X704200Y198659D01*
X705750Y199076D01*
X706990Y200326D01*
X707610Y202201D01*
Y211159D01*
G01X713035Y198659D02*
Y211159D01*
X720165Y198659D01*
Y211159D01*
G01X727140D02*
X730860D01*
G01X729000D02*
Y198659D01*
G01X727140D02*
X730860D01*
G01X741400Y211159D02*
Y198659D01*
G01X737835Y211159D02*
X744965D01*
G01X750545Y200326D02*
X751785Y199284D01*
X753180Y198659D01*
X754420D01*
X755660Y199284D01*
X756590Y200326D01*
X757055Y201785D01*
X756745Y203243D01*
X755970Y204493D01*
X754575Y205326D01*
X752715Y205743D01*
X751630Y206576D01*
X751165Y208034D01*
X751475Y209493D01*
X752250Y210534D01*
X753335Y211159D01*
X754420D01*
X755505Y210743D01*
X756435Y209701D01*
G01X774725Y198659D02*
X778600Y211159D01*
X782475Y198659D01*
G01X781080Y203034D02*
X776120D01*
G01X787900Y198659D02*
Y211159D01*
X791775D01*
X793015Y210534D01*
X793790Y209701D01*
X794100Y208034D01*
X793790Y206368D01*
X792860Y205326D01*
X791775Y204701D01*
X787900D01*
G01X791775D02*
X794100Y198659D01*
G01X806500D02*
X800300D01*
Y211159D01*
X806500D01*
G01X804020Y205118D02*
X800300D01*
G01X826340Y211159D02*
X830060D01*
G01X828200D02*
Y198659D01*
G01X826340D02*
X830060D01*
G01X837035D02*
Y211159D01*
X844165Y198659D01*
Y211159D01*
G01X861370Y198659D02*
Y211159D01*
X865400Y200743D01*
X869430Y211159D01*
Y198659D01*
G01X875940Y211159D02*
X879660D01*
G01X877800D02*
Y198659D01*
G01X875940D02*
X879660D01*
G01X887100Y211159D02*
Y198659D01*
X893300D01*
G01X899500Y211159D02*
Y198659D01*
X905700D01*
G01X913140Y211159D02*
X916860D01*
G01X915000D02*
Y198659D01*
G01X913140D02*
X916860D01*
G01X923370D02*
Y211159D01*
X927400Y200743D01*
X931430Y211159D01*
Y198659D01*
G01X942900D02*
X936700D01*
Y211159D01*
X942900D01*
G01X940420Y205118D02*
X936700D01*
G01X952200Y211159D02*
Y198659D01*
G01X948635Y211159D02*
X955765D01*
G01X967700Y198659D02*
X961500D01*
Y211159D01*
X967700D01*
G01X965220Y205118D02*
X961500D01*
G01X973900Y198659D02*
Y211159D01*
X977775D01*
X979015Y210534D01*
X979790Y209701D01*
X980100Y208034D01*
X979790Y206368D01*
X978860Y205326D01*
X977775Y204701D01*
X973900D01*
G01X977775D02*
X980100Y198659D01*
G01X986145Y200326D02*
X987385Y199284D01*
X988780Y198659D01*
X990020D01*
X991260Y199284D01*
X992190Y200326D01*
X992655Y201785D01*
X992345Y203243D01*
X991570Y204493D01*
X990175Y205326D01*
X988315Y205743D01*
X987230Y206576D01*
X986765Y208034D01*
X987075Y209493D01*
X987850Y210534D01*
X988935Y211159D01*
X990020D01*
X991105Y210743D01*
X992035Y209701D01*
G01X663900Y192409D02*
Y17409D01*
G01X663590Y224250D02*
Y236750D01*
X666690D01*
X667930Y236125D01*
X668860Y235292D01*
X669635Y234042D01*
X670255Y232583D01*
X670410Y230500D01*
X670255Y228417D01*
X669635Y226958D01*
X668860Y225708D01*
X667930Y224875D01*
X666690Y224250D01*
X663590D01*
G01X676300D02*
Y236750D01*
X680175D01*
X681415Y236125D01*
X682190Y235292D01*
X682500Y233625D01*
X682190Y231958D01*
X681260Y230917D01*
X680175Y230291D01*
X676300D01*
G01X680175D02*
X682500Y224250D01*
G01X689940Y236750D02*
X693660D01*
G01X691800D02*
Y224250D01*
G01X689940D02*
X693660D01*
G01X701100Y236750D02*
Y224250D01*
X707300D01*
G01X713500Y236750D02*
Y224250D01*
X719700D01*
G01X744810Y235708D02*
X743880Y236333D01*
X742795Y236750D01*
X741555D01*
X740160Y236125D01*
X739075Y235083D01*
X738300Y233833D01*
X737680Y231750D01*
X737525Y229875D01*
X737835Y228000D01*
X738300Y226750D01*
X739230Y225500D01*
X740315Y224667D01*
X741400Y224250D01*
X742485D01*
X743570Y224667D01*
X744500Y225291D01*
X745275Y226124D01*
G01X750545Y224250D02*
Y236750D01*
G01X757055D02*
Y224250D01*
G01Y230500D02*
X750545D01*
G01X762325Y224250D02*
X766200Y236750D01*
X770075Y224250D01*
G01X768680Y228625D02*
X763720D01*
G01X775500Y224250D02*
Y236750D01*
X779375D01*
X780615Y236125D01*
X781390Y235292D01*
X781700Y233625D01*
X781390Y231958D01*
X780460Y230917D01*
X779375Y230291D01*
X775500D01*
G01X779375D02*
X781700Y224250D01*
G01X791000Y236750D02*
Y224250D01*
G01X787435Y236750D02*
X794565D01*
G01X803400Y223833D02*
X803090Y224042D01*
Y224458D01*
X803400Y224667D01*
X803710Y224458D01*
Y224042D01*
X803400Y223833D01*
G01Y229458D02*
X803090Y229667D01*
Y230083D01*
X803400Y230291D01*
X803710Y230083D01*
Y229667D01*
X803400Y229458D01*
G01X828200Y236750D02*
Y224250D01*
G01X824635Y236750D02*
X831765D01*
G01X840600Y224250D02*
X839360Y224458D01*
X838275Y225291D01*
X837345Y226542D01*
X836725Y228000D01*
X836415Y229667D01*
Y231333D01*
X836725Y233000D01*
X837345Y234458D01*
X838275Y235708D01*
X839360Y236542D01*
X840600Y236750D01*
X841840Y236542D01*
X842925Y235708D01*
X843855Y234458D01*
X844475Y233000D01*
X844785Y231333D01*
Y229667D01*
X844475Y228000D01*
X843855Y226542D01*
X842925Y225291D01*
X841840Y224458D01*
X840600Y224250D01*
G01X849900D02*
Y236750D01*
X853620D01*
X854860Y236125D01*
X855790Y234667D01*
X856100Y233000D01*
X855790Y231333D01*
X855015Y230083D01*
X853620Y229458D01*
X849900D01*
G01X877800Y236750D02*
Y224250D01*
G01X875630Y232583D02*
X879970D01*
G01X890200Y224250D02*
X889270Y224458D01*
X888340Y225291D01*
X887720Y226750D01*
X887410Y228417D01*
X887720Y230083D01*
X888340Y231542D01*
X889270Y232375D01*
X890200Y232583D01*
X891130Y232375D01*
X892060Y231542D01*
X892680Y230083D01*
X892835Y228417D01*
X892680Y226750D01*
X892060Y225291D01*
X891130Y224458D01*
X890200Y224250D01*
G01X916240Y230917D02*
X916860Y231542D01*
X917325Y232583D01*
X917635Y234042D01*
X917325Y235292D01*
X916705Y236125D01*
X915620Y236750D01*
X911435D01*
Y224250D01*
X916550D01*
X917635Y225083D01*
X918255Y226333D01*
X918565Y227792D01*
X918255Y229250D01*
X917325Y230500D01*
X916240Y230917D01*
X911435D01*
G01X927400Y224250D02*
X926160Y224458D01*
X925075Y225291D01*
X924145Y226542D01*
X923525Y228000D01*
X923215Y229667D01*
Y231333D01*
X923525Y233000D01*
X924145Y234458D01*
X925075Y235708D01*
X926160Y236542D01*
X927400Y236750D01*
X928640Y236542D01*
X929725Y235708D01*
X930655Y234458D01*
X931275Y233000D01*
X931585Y231333D01*
Y229667D01*
X931275Y228000D01*
X930655Y226542D01*
X929725Y225291D01*
X928640Y224458D01*
X927400Y224250D01*
G01X939800Y236750D02*
Y224250D01*
G01X936235Y236750D02*
X943365D01*
G01X952200D02*
Y224250D01*
G01X948635Y236750D02*
X955765D01*
G01X964600Y224250D02*
X963360Y224458D01*
X962275Y225291D01*
X961345Y226542D01*
X960725Y228000D01*
X960415Y229667D01*
Y231333D01*
X960725Y233000D01*
X961345Y234458D01*
X962275Y235708D01*
X963360Y236542D01*
X964600Y236750D01*
X965840Y236542D01*
X966925Y235708D01*
X967855Y234458D01*
X968475Y233000D01*
X968785Y231333D01*
Y229667D01*
X968475Y228000D01*
X967855Y226542D01*
X966925Y225291D01*
X965840Y224458D01*
X964600Y224250D01*
G01X972970D02*
Y236750D01*
X977000Y226333D01*
X981030Y236750D01*
Y224250D01*
G01X687305Y173659D02*
Y186159D01*
X693195D01*
G01X691025Y180118D02*
X687305D01*
G01X700790Y186159D02*
X704510D01*
G01X702650D02*
Y173659D01*
G01X700790D02*
X704510D01*
G01X711485D02*
Y186159D01*
X718615Y173659D01*
Y186159D01*
G01X725590D02*
X729310D01*
G01X727450D02*
Y173659D01*
G01X725590D02*
X729310D01*
G01X736595Y175326D02*
X737835Y174284D01*
X739230Y173659D01*
X740470D01*
X741710Y174284D01*
X742640Y175326D01*
X743105Y176785D01*
X742795Y178243D01*
X742020Y179493D01*
X740625Y180326D01*
X738765Y180743D01*
X737680Y181576D01*
X737215Y183034D01*
X737525Y184493D01*
X738300Y185534D01*
X739385Y186159D01*
X740470D01*
X741555Y185743D01*
X742485Y184701D01*
G01X748995Y173659D02*
Y186159D01*
G01X755505D02*
Y173659D01*
G01Y179909D02*
X748995D01*
G01X767750Y173659D02*
X761550D01*
Y186159D01*
X767750D01*
G01X765270Y180118D02*
X761550D01*
G01X773640Y173659D02*
Y186159D01*
X776740D01*
X777980Y185534D01*
X778910Y184701D01*
X779685Y183451D01*
X780305Y181993D01*
X780460Y179909D01*
X780305Y177826D01*
X779685Y176368D01*
X778910Y175117D01*
X777980Y174284D01*
X776740Y173659D01*
X773640D01*
G01X784800Y169493D02*
X794100D01*
G01X798595Y175326D02*
X799835Y174284D01*
X801230Y173659D01*
X802470D01*
X803710Y174284D01*
X804640Y175326D01*
X805105Y176785D01*
X804795Y178243D01*
X804020Y179493D01*
X802625Y180326D01*
X800765Y180743D01*
X799680Y181576D01*
X799215Y183034D01*
X799525Y184493D01*
X800300Y185534D01*
X801385Y186159D01*
X802470D01*
X803555Y185743D01*
X804485Y184701D01*
G01X812390Y186159D02*
X816110D01*
G01X814250D02*
Y173659D01*
G01X812390D02*
X816110D01*
G01X823705Y186159D02*
X829595D01*
X823705Y173659D01*
X829595D01*
G01X842150D02*
X835950D01*
Y186159D01*
X842150D01*
G01X839670Y180118D02*
X835950D01*
G01X733650Y48659D02*
Y61159D01*
X731790Y58659D01*
G01Y48659D02*
X735510D01*
G01X746050Y48243D02*
X745740Y48451D01*
Y48868D01*
X746050Y49076D01*
X746360Y48868D01*
Y48451D01*
X746050Y48243D01*
G01X758450Y48659D02*
Y61159D01*
X756590Y58659D01*
G01Y48659D02*
X760310D01*
G01X768215Y50117D02*
X769300Y49076D01*
X770540Y48659D01*
X771780Y49076D01*
X772865Y50326D01*
X773640Y52201D01*
X773950Y54076D01*
Y56368D01*
X773640Y58243D01*
X772865Y59909D01*
X771935Y60743D01*
X770850Y61159D01*
X769610Y60743D01*
X768680Y59909D01*
X768060Y58659D01*
X767750Y56993D01*
X768060Y55535D01*
X768835Y54076D01*
X769765Y53243D01*
X770850Y53034D01*
X772090Y53451D01*
X773020Y54493D01*
X773950Y56368D01*
G01X780615Y50117D02*
X781700Y49076D01*
X782940Y48659D01*
X784180Y49076D01*
X785265Y50326D01*
X786040Y52201D01*
X786350Y54076D01*
Y56368D01*
X786040Y58243D01*
X785265Y59909D01*
X784335Y60743D01*
X783250Y61159D01*
X782010Y60743D01*
X781080Y59909D01*
X780460Y58659D01*
X780150Y56993D01*
X780460Y55535D01*
X781235Y54076D01*
X782165Y53243D01*
X783250Y53034D01*
X784490Y53451D01*
X785420Y54493D01*
X786350Y56368D01*
G01X793015Y50117D02*
X794100Y49076D01*
X795340Y48659D01*
X796580Y49076D01*
X797665Y50326D01*
X798440Y52201D01*
X798750Y54076D01*
Y56368D01*
X798440Y58243D01*
X797665Y59909D01*
X796735Y60743D01*
X795650Y61159D01*
X794410Y60743D01*
X793480Y59909D01*
X792860Y58659D01*
X792550Y56993D01*
X792860Y55535D01*
X793635Y54076D01*
X794565Y53243D01*
X795650Y53034D01*
X796890Y53451D01*
X797820Y54493D01*
X798750Y56368D01*
G01X733650Y111159D02*
X732410Y110743D01*
X731480Y109701D01*
X730860Y108451D01*
X730395Y106784D01*
X730240Y104909D01*
X730395Y103034D01*
X730860Y101368D01*
X731480Y100117D01*
X732410Y99076D01*
X733650Y98659D01*
X734890Y99076D01*
X735820Y100117D01*
X736440Y101368D01*
X736905Y103034D01*
X737060Y104909D01*
X736905Y106784D01*
X736440Y108451D01*
X735820Y109701D01*
X734890Y110743D01*
X733650Y111159D01*
G01X746050Y98243D02*
X745740Y98451D01*
Y98868D01*
X746050Y99076D01*
X746360Y98868D01*
Y98451D01*
X746050Y98243D01*
G01X758450Y98659D02*
X759535Y98868D01*
X760775Y99493D01*
X761550Y100534D01*
X761860Y101993D01*
X761550Y103451D01*
X760620Y104701D01*
X759225Y105326D01*
X757675D01*
X756745Y105743D01*
X755970Y106784D01*
X755660Y108243D01*
X756125Y109701D01*
X757210Y110743D01*
X758450Y111159D01*
X759690Y110743D01*
X760775Y109701D01*
X761240Y108243D01*
X760930Y106784D01*
X760155Y105743D01*
X759225Y105326D01*
X757675D01*
X756280Y104701D01*
X755350Y103451D01*
X755040Y101993D01*
X755350Y100534D01*
X756125Y99493D01*
X757365Y98868D01*
X758450Y98659D01*
G01X770850Y111159D02*
X769610Y110743D01*
X768680Y109701D01*
X768060Y108451D01*
X767595Y106784D01*
X767440Y104909D01*
X767595Y103034D01*
X768060Y101368D01*
X768680Y100117D01*
X769610Y99076D01*
X770850Y98659D01*
X772090Y99076D01*
X773020Y100117D01*
X773640Y101368D01*
X774105Y103034D01*
X774260Y104909D01*
X774105Y106784D01*
X773640Y108451D01*
X773020Y109701D01*
X772090Y110743D01*
X770850Y111159D01*
G01X783250D02*
X782010Y110743D01*
X781080Y109701D01*
X780460Y108451D01*
X779995Y106784D01*
X779840Y104909D01*
X779995Y103034D01*
X780460Y101368D01*
X781080Y100117D01*
X782010Y99076D01*
X783250Y98659D01*
X784490Y99076D01*
X785420Y100117D01*
X786040Y101368D01*
X786505Y103034D01*
X786660Y104909D01*
X786505Y106784D01*
X786040Y108451D01*
X785420Y109701D01*
X784490Y110743D01*
X783250Y111159D01*
G01X795650Y98659D02*
Y111159D01*
X793790Y108659D01*
G01Y98659D02*
X797510D01*
G01X748840Y26159D02*
X749770Y24701D01*
X751010Y23868D01*
X752405Y23659D01*
X753645Y23868D01*
X754885Y24909D01*
X755660Y26159D01*
X755815Y27409D01*
X755505Y28867D01*
X754420Y29909D01*
X753335Y30326D01*
X751940D01*
G01X753335D02*
X754265Y30951D01*
X755040Y31993D01*
X755350Y33243D01*
X755040Y34493D01*
X754265Y35534D01*
X752870Y36159D01*
X751475Y35951D01*
X750080Y35118D01*
G01X764650Y23243D02*
X764340Y23451D01*
Y23868D01*
X764650Y24076D01*
X764960Y23868D01*
Y23451D01*
X764650Y23243D01*
G01X778910Y23659D02*
Y36159D01*
X773175Y27201D01*
X780925D01*
G01X752250Y73659D02*
Y86159D01*
X750390Y83659D01*
G01Y73659D02*
X754110D01*
G01X764650Y73243D02*
X764340Y73451D01*
Y73868D01*
X764650Y74076D01*
X764960Y73868D01*
Y73451D01*
X764650Y73243D01*
G01X777050Y86159D02*
X775810Y85743D01*
X774880Y84701D01*
X774260Y83451D01*
X773795Y81784D01*
X773640Y79909D01*
X773795Y78034D01*
X774260Y76368D01*
X774880Y75117D01*
X775810Y74076D01*
X777050Y73659D01*
X778290Y74076D01*
X779220Y75117D01*
X779840Y76368D01*
X780305Y78034D01*
X780460Y79909D01*
X780305Y81784D01*
X779840Y83451D01*
X779220Y84701D01*
X778290Y85743D01*
X777050Y86159D01*
G01X752250Y136159D02*
X751010Y135743D01*
X750080Y134701D01*
X749460Y133451D01*
X748995Y131784D01*
X748840Y129909D01*
X748995Y128034D01*
X749460Y126368D01*
X750080Y125117D01*
X751010Y124076D01*
X752250Y123659D01*
X753490Y124076D01*
X754420Y125117D01*
X755040Y126368D01*
X755505Y128034D01*
X755660Y129909D01*
X755505Y131784D01*
X755040Y133451D01*
X754420Y134701D01*
X753490Y135743D01*
X752250Y136159D01*
G01X764650Y123243D02*
X764340Y123451D01*
Y123868D01*
X764650Y124076D01*
X764960Y123868D01*
Y123451D01*
X764650Y123243D01*
G01X776740Y123659D02*
X777050Y126368D01*
X777515Y128659D01*
X778135Y130743D01*
X778910Y133034D01*
X780150Y136159D01*
X773950D01*
G01X752250Y161159D02*
X751010Y160743D01*
X750080Y159701D01*
X749460Y158451D01*
X748995Y156784D01*
X748840Y154909D01*
X748995Y153034D01*
X749460Y151368D01*
X750080Y150117D01*
X751010Y149076D01*
X752250Y148659D01*
X753490Y149076D01*
X754420Y150117D01*
X755040Y151368D01*
X755505Y153034D01*
X755660Y154909D01*
X755505Y156784D01*
X755040Y158451D01*
X754420Y159701D01*
X753490Y160743D01*
X752250Y161159D01*
G01X764650Y148243D02*
X764340Y148451D01*
Y148868D01*
X764650Y149076D01*
X764960Y148868D01*
Y148451D01*
X764650Y148243D01*
G01X773640Y150534D02*
X774570Y149493D01*
X775655Y148868D01*
X777050Y148659D01*
X778445Y149076D01*
X779530Y149909D01*
X780305Y151368D01*
X780460Y153034D01*
X780150Y154701D01*
X779375Y155743D01*
X778290Y156576D01*
X777205Y156784D01*
X776120Y156576D01*
X774725Y155743D01*
X775190Y161159D01*
X779375D01*
G01X865400Y192409D02*
Y17409D01*
G01X894850Y23659D02*
Y36159D01*
X898570D01*
X899810Y35534D01*
X900740Y34076D01*
X901050Y32409D01*
X900740Y30743D01*
X899965Y29493D01*
X898570Y28867D01*
X894850D01*
G01X907250Y36159D02*
Y23659D01*
X913450D01*
G01X918875D02*
X922750Y36159D01*
X926625Y23659D01*
G01X925230Y28034D02*
X920270D01*
G01X935150Y36159D02*
Y23659D01*
G01X931585Y36159D02*
X938715D01*
G01X950650Y23659D02*
X944450D01*
Y36159D01*
X950650D01*
G01X948170Y30118D02*
X944450D01*
G01X956540Y23659D02*
Y36159D01*
X959640D01*
X960880Y35534D01*
X961810Y34701D01*
X962585Y33451D01*
X963205Y31993D01*
X963360Y29909D01*
X963205Y27826D01*
X962585Y26368D01*
X961810Y25117D01*
X960880Y24284D01*
X959640Y23659D01*
X956540D01*
G01X894850Y48659D02*
Y61159D01*
X898570D01*
X899810Y60534D01*
X900740Y59076D01*
X901050Y57409D01*
X900740Y55743D01*
X899965Y54493D01*
X898570Y53867D01*
X894850D01*
G01X907250Y61159D02*
Y48659D01*
X913450D01*
G01X918875D02*
X922750Y61159D01*
X926625Y48659D01*
G01X925230Y53034D02*
X920270D01*
G01X935150Y61159D02*
Y48659D01*
G01X931585Y61159D02*
X938715D01*
G01X950650Y48659D02*
X944450D01*
Y61159D01*
X950650D01*
G01X948170Y55118D02*
X944450D01*
G01X956540Y48659D02*
Y61159D01*
X959640D01*
X960880Y60534D01*
X961810Y59701D01*
X962585Y58451D01*
X963205Y56993D01*
X963360Y54909D01*
X963205Y52826D01*
X962585Y51368D01*
X961810Y50117D01*
X960880Y49284D01*
X959640Y48659D01*
X956540D01*
G01X894850Y73659D02*
Y86159D01*
X898570D01*
X899810Y85534D01*
X900740Y84076D01*
X901050Y82409D01*
X900740Y80743D01*
X899965Y79493D01*
X898570Y78867D01*
X894850D01*
G01X907250Y86159D02*
Y73659D01*
X913450D01*
G01X918875D02*
X922750Y86159D01*
X926625Y73659D01*
G01X925230Y78034D02*
X920270D01*
G01X935150Y86159D02*
Y73659D01*
G01X931585Y86159D02*
X938715D01*
G01X950650Y73659D02*
X944450D01*
Y86159D01*
X950650D01*
G01X948170Y80118D02*
X944450D01*
G01X956540Y73659D02*
Y86159D01*
X959640D01*
X960880Y85534D01*
X961810Y84701D01*
X962585Y83451D01*
X963205Y81993D01*
X963360Y79909D01*
X963205Y77826D01*
X962585Y76368D01*
X961810Y75117D01*
X960880Y74284D01*
X959640Y73659D01*
X956540D01*
G01X894850Y98659D02*
Y111159D01*
X898570D01*
X899810Y110534D01*
X900740Y109076D01*
X901050Y107409D01*
X900740Y105743D01*
X899965Y104493D01*
X898570Y103867D01*
X894850D01*
G01X907250Y111159D02*
Y98659D01*
X913450D01*
G01X918875D02*
X922750Y111159D01*
X926625Y98659D01*
G01X925230Y103034D02*
X920270D01*
G01X935150Y111159D02*
Y98659D01*
G01X931585Y111159D02*
X938715D01*
G01X950650Y98659D02*
X944450D01*
Y111159D01*
X950650D01*
G01X948170Y105118D02*
X944450D01*
G01X956540Y98659D02*
Y111159D01*
X959640D01*
X960880Y110534D01*
X961810Y109701D01*
X962585Y108451D01*
X963205Y106993D01*
X963360Y104909D01*
X963205Y102826D01*
X962585Y101368D01*
X961810Y100117D01*
X960880Y99284D01*
X959640Y98659D01*
X956540D01*
G01X894850Y123659D02*
Y136159D01*
X898570D01*
X899810Y135534D01*
X900740Y134076D01*
X901050Y132409D01*
X900740Y130743D01*
X899965Y129493D01*
X898570Y128867D01*
X894850D01*
G01X907250Y136159D02*
Y123659D01*
X913450D01*
G01X918875D02*
X922750Y136159D01*
X926625Y123659D01*
G01X925230Y128034D02*
X920270D01*
G01X935150Y136159D02*
Y123659D01*
G01X931585Y136159D02*
X938715D01*
G01X950650Y123659D02*
X944450D01*
Y136159D01*
X950650D01*
G01X948170Y130118D02*
X944450D01*
G01X956540Y123659D02*
Y136159D01*
X959640D01*
X960880Y135534D01*
X961810Y134701D01*
X962585Y133451D01*
X963205Y131993D01*
X963360Y129909D01*
X963205Y127826D01*
X962585Y126368D01*
X961810Y125117D01*
X960880Y124284D01*
X959640Y123659D01*
X956540D01*
G01X894850Y148659D02*
Y161159D01*
X898570D01*
X899810Y160534D01*
X900740Y159076D01*
X901050Y157409D01*
X900740Y155743D01*
X899965Y154493D01*
X898570Y153867D01*
X894850D01*
G01X907250Y161159D02*
Y148659D01*
X913450D01*
G01X918875D02*
X922750Y161159D01*
X926625Y148659D01*
G01X925230Y153034D02*
X920270D01*
G01X935150Y161159D02*
Y148659D01*
G01X931585Y161159D02*
X938715D01*
G01X950650Y148659D02*
X944450D01*
Y161159D01*
X950650D01*
G01X948170Y155118D02*
X944450D01*
G01X956540Y148659D02*
Y161159D01*
X959640D01*
X960880Y160534D01*
X961810Y159701D01*
X962585Y158451D01*
X963205Y156993D01*
X963360Y154909D01*
X963205Y152826D01*
X962585Y151368D01*
X961810Y150117D01*
X960880Y149284D01*
X959640Y148659D01*
X956540D01*
G01X894850Y173659D02*
Y186159D01*
X898570D01*
X899810Y185534D01*
X900740Y184076D01*
X901050Y182409D01*
X900740Y180743D01*
X899965Y179493D01*
X898570Y178867D01*
X894850D01*
G01X907250Y186159D02*
Y173659D01*
X913450D01*
G01X918875D02*
X922750Y186159D01*
X926625Y173659D01*
G01X925230Y178034D02*
X920270D01*
G01X935150Y186159D02*
Y173659D01*
G01X931585Y186159D02*
X938715D01*
G01X950650Y173659D02*
X944450D01*
Y186159D01*
X950650D01*
G01X948170Y180118D02*
X944450D01*
G01X956540Y173659D02*
Y186159D01*
X959640D01*
X960880Y185534D01*
X961810Y184701D01*
X962585Y183451D01*
X963205Y181993D01*
X963360Y179909D01*
X963205Y177826D01*
X962585Y176368D01*
X961810Y175117D01*
X960880Y174284D01*
X959640Y173659D01*
X956540D01*
G01X992500Y192409D02*
Y17409D01*
G01X1015440Y151159D02*
X1016370Y149701D01*
X1017610Y148868D01*
X1019005Y148659D01*
X1020245Y148868D01*
X1021485Y149909D01*
X1022260Y151159D01*
X1022415Y152409D01*
X1022105Y153867D01*
X1021020Y154909D01*
X1019935Y155326D01*
X1018540D01*
G01X1019935D02*
X1020865Y155951D01*
X1021640Y156993D01*
X1021950Y158243D01*
X1021640Y159493D01*
X1020865Y160534D01*
X1019470Y161159D01*
X1018075Y160951D01*
X1016680Y160118D01*
G01X1028305Y159076D02*
X1029235Y160326D01*
X1030320Y160951D01*
X1031560Y161159D01*
X1033110Y160743D01*
X1034195Y159701D01*
X1034505Y158451D01*
X1034350Y157201D01*
X1033730Y156159D01*
X1030630Y154076D01*
X1029235Y152618D01*
X1028305Y150534D01*
X1027995Y148659D01*
X1034505D01*
G01X1040705Y159076D02*
X1041635Y160326D01*
X1042720Y160951D01*
X1043960Y161159D01*
X1045510Y160743D01*
X1046595Y159701D01*
X1046905Y158451D01*
X1046750Y157201D01*
X1046130Y156159D01*
X1043030Y154076D01*
X1041635Y152618D01*
X1040705Y150534D01*
X1040395Y148659D01*
X1046905D01*
G01X1018850Y173659D02*
X1017610Y173868D01*
X1016525Y174701D01*
X1015595Y175951D01*
X1014975Y177409D01*
X1014665Y179076D01*
Y180743D01*
X1014975Y182409D01*
X1015595Y183868D01*
X1016525Y185118D01*
X1017610Y185951D01*
X1018850Y186159D01*
X1020090Y185951D01*
X1021175Y185118D01*
X1022105Y183868D01*
X1022725Y182409D01*
X1023035Y180743D01*
Y179076D01*
X1022725Y177409D01*
X1022105Y175951D01*
X1021175Y174701D01*
X1020090Y173868D01*
X1018850Y173659D01*
G01X1020090Y176993D02*
X1021950Y173659D01*
G01X1031250Y186159D02*
Y173659D01*
G01X1027685Y186159D02*
X1034815D01*
G01X1043650Y173659D02*
Y179284D01*
X1040550Y186159D01*
G01X1046750D02*
X1043650Y179284D01*
G01X1033110Y23659D02*
Y36159D01*
X1027375Y27201D01*
X1035125D01*
G01X1022105Y59076D02*
X1023035Y60326D01*
X1024120Y60951D01*
X1025360Y61159D01*
X1026910Y60743D01*
X1027995Y59701D01*
X1028305Y58451D01*
X1028150Y57201D01*
X1027530Y56159D01*
X1024430Y54076D01*
X1023035Y52618D01*
X1022105Y50534D01*
X1021795Y48659D01*
X1028305D01*
G01X1034815Y50117D02*
X1035900Y49076D01*
X1037140Y48659D01*
X1038380Y49076D01*
X1039465Y50326D01*
X1040240Y52201D01*
X1040550Y54076D01*
Y56368D01*
X1040240Y58243D01*
X1039465Y59909D01*
X1038535Y60743D01*
X1037450Y61159D01*
X1036210Y60743D01*
X1035280Y59909D01*
X1034660Y58659D01*
X1034350Y56993D01*
X1034660Y55535D01*
X1035435Y54076D01*
X1036365Y53243D01*
X1037450Y53034D01*
X1038690Y53451D01*
X1039620Y54493D01*
X1040550Y56368D01*
G01X1025050Y73659D02*
Y86159D01*
X1023190Y83659D01*
G01Y73659D02*
X1026910D01*
G01X1039310D02*
Y86159D01*
X1033575Y77201D01*
X1041325D01*
G01X1025050Y98659D02*
Y111159D01*
X1023190Y108659D01*
G01Y98659D02*
X1026910D01*
G01X1034505Y109076D02*
X1035435Y110326D01*
X1036520Y110951D01*
X1037760Y111159D01*
X1039310Y110743D01*
X1040395Y109701D01*
X1040705Y108451D01*
X1040550Y107201D01*
X1039930Y106159D01*
X1036830Y104076D01*
X1035435Y102618D01*
X1034505Y100534D01*
X1034195Y98659D01*
X1040705D01*
G01X1022105Y134076D02*
X1023035Y135326D01*
X1024120Y135951D01*
X1025360Y136159D01*
X1026910Y135743D01*
X1027995Y134701D01*
X1028305Y133451D01*
X1028150Y132201D01*
X1027530Y131159D01*
X1024430Y129076D01*
X1023035Y127618D01*
X1022105Y125534D01*
X1021795Y123659D01*
X1028305D01*
G01X1037140D02*
X1037450Y126368D01*
X1037915Y128659D01*
X1038535Y130743D01*
X1039310Y133034D01*
X1040550Y136159D01*
X1034350D01*
M02*
