G04 ================== begin FILE IDENTIFICATION RECORD ==================*
G04 Layout Name:  D:/Project/2018/CentralizedMonitoringSystem/hardware/allegro/CMS.brd*
G04 Film Name:    DRILL_CHART*
G04 File Format:  Gerber RS274X*
G04 File Origin:  Cadence Allegro 17.2-S045*
G04 Origin Date:  Thu Oct 18 23:26:27 2018*
G04 *
G04 Layer:  BOARD GEOMETRY/CUTOUT*
G04 Layer:  BOARD GEOMETRY/OUTLINE*
G04 Layer:  MANUFACTURING/NCLEGEND-1-2*
G04 Layer:  MANUFACTURING/NCDRILL_LEGEND*
G04 Layer:  MANUFACTURING/NCDRILL_FIGURE*
G04 *
G04 Offset:    (0.000 0.000)*
G04 Mirror:    No*
G04 Mode:      Positive*
G04 Rotation:  0*
G04 FullContactRelief:  No*
G04 UndefLineWidth:     4.000*
G04 ================== end FILE IDENTIFICATION RECORD ====================*
%FSLAX25Y25*MOIN*%
%IR0*IPPOS*OFA0.00000B0.00000*MIA0B0*SFA1.00000B1.00000*%
%AMMACRO15*
1,1,.004,.009784,-.02362*
20,1,.004,.009784,-.02362,-.009784,-.02362,0.0*
1,1,.004,-.009784,-.02362*
20,1,.004,-.009784,-.02362,-.02362,-.009784,0.0*
1,1,.004,-.02362,-.009784*
20,1,.004,-.02362,-.009784,-.02362,.009784,0.0*
1,1,.004,-.02362,.009784*
20,1,.004,-.02362,.009784,-.009784,.02362,0.0*
1,1,.004,-.009784,.02362*
20,1,.004,-.009784,.02362,.009784,.02362,0.0*
1,1,.004,.009784,.02362*
20,1,.004,.009784,.02362,.02362,.009784,0.0*
1,1,.004,.02362,.009784*
20,1,.004,.02362,.009784,.02362,-.009784,0.0*
1,1,.004,.02362,-.009784*
20,1,.004,.02362,-.009784,.009784,-.02362,0.0*
1,1,.004,.009784,-.02362*
%
%ADD15MACRO15*%
%AMMACRO10*
1,1,.004,.066929,0.0*
20,1,.004,.066929,0.0,0.0,-.066929,0.0*
1,1,.004,0.0,-.066929*
20,1,.004,0.0,-.066929,-.066929,0.0,0.0*
1,1,.004,-.066929,0.0*
20,1,.004,-.066929,0.0,0.0,.066929,0.0*
1,1,.004,0.0,.066929*
20,1,.004,0.0,.066929,.066929,0.0,0.0*
1,1,.004,.066929,0.0*
%
%ADD10MACRO10*%
%AMMACRO14*
1,1,.004,.01378,.01378*
20,1,.004,.01378,.01378,.01378,-.01378,0.0*
1,1,.004,.01378,-.01378*
20,1,.004,.01378,-.01378,-.01378,-.01378,0.0*
1,1,.004,-.01378,-.01378*
20,1,.004,-.01378,-.01378,-.01378,.01378,0.0*
1,1,.004,-.01378,.01378*
20,1,.004,-.01378,.01378,.01378,.01378,0.0*
1,1,.004,.01378,.01378*
%
%ADD14MACRO14*%
%AMMACRO11*
1,1,.004,.009842,0.0*
20,1,.004,.009842,0.0,-.009842,0.0,0.0*
1,1,.004,-.009842,0.0*
1,1,.004,0.0,.009842*
20,1,.004,0.0,.009842,0.0,-.009842,0.0*
1,1,.004,0.0,-.009842*
%
%ADD11MACRO11*%
%AMMACRO12*
1,1,.004,.01575,0.0*
20,1,.004,.01575,0.0,.007875,.01364,0.0*
1,1,.004,.007875,.01364*
20,1,.004,.007875,.01364,-.007875,.01364,0.0*
1,1,.004,-.007875,.01364*
20,1,.004,-.007875,.01364,-.01575,0.0,0.0*
1,1,.004,-.01575,0.0*
20,1,.004,-.01575,0.0,-.007875,-.01364,0.0*
1,1,.004,-.007875,-.01364*
20,1,.004,-.007875,-.01364,.007875,-.01364,0.0*
1,1,.004,.007875,-.01364*
20,1,.004,.007875,-.01364,.01575,0.0,0.0*
1,1,.004,.01575,0.0*
%
%ADD12MACRO12*%
%AMMACRO13*
1,1,.004,0.0,.019685*
20,1,.004,0.0,.019685,-.017048,.009843,0.0*
1,1,.004,-.017048,.009843*
20,1,.004,-.017048,.009843,-.017048,-.009842,0.0*
1,1,.004,-.017048,-.009842*
20,1,.004,-.017048,-.009842,0.0,-.019685,0.0*
1,1,.004,0.0,-.019685*
20,1,.004,0.0,-.019685,.017048,-.009843,0.0*
1,1,.004,.017048,-.009843*
20,1,.004,.017048,-.009843,.017048,.009842,0.0*
1,1,.004,.017048,.009842*
20,1,.004,.017048,.009842,0.0,.019685,0.0*
1,1,.004,0.0,.019685*
%
%ADD13MACRO13*%
%ADD16C,.004*%
G75*
%LPD*%
G75*
G54D10*
X13780Y13780D03*
Y330709D03*
X469291Y13780D03*
Y330709D03*
X598100Y74311D03*
G54D11*
X5367Y81875D03*
Y77938D03*
Y74001D03*
Y70064D03*
Y66127D03*
Y93686D03*
Y89749D03*
Y85812D03*
X25052Y81875D03*
X21115D03*
X17178D03*
X13241D03*
X9304D03*
X25052Y77938D03*
X21115D03*
X17178D03*
X13241D03*
X9304D03*
X25052Y74001D03*
X21115D03*
X17178D03*
X13241D03*
X9304D03*
X25052Y70064D03*
X21115D03*
X17178D03*
X13241D03*
X9304D03*
X25052Y66127D03*
X21115D03*
X17178D03*
X13241D03*
X9304D03*
X25052Y93686D03*
X21115D03*
X17178D03*
X13241D03*
X9304D03*
X25052Y89749D03*
X21115D03*
X17178D03*
X13241D03*
X9304D03*
X25052Y85812D03*
X21115D03*
X17178D03*
X13241D03*
X9304D03*
X21785Y144494D03*
X8367Y158749D03*
X12304D03*
X16241D03*
X20178D03*
X24115D03*
X28052D03*
X8367Y162686D03*
X12304D03*
X16241D03*
X20178D03*
X24115D03*
X28052D03*
X30535Y184244D03*
X25115Y222749D03*
X21178D03*
X17241D03*
X13304D03*
X9367D03*
X29052D03*
X25115Y226686D03*
X21178D03*
X17241D03*
X13304D03*
X9367D03*
X29052D03*
X45052Y54812D03*
X41115D03*
X37178D03*
X45052Y58749D03*
X41115D03*
X37178D03*
X45052Y62686D03*
X41115D03*
X37178D03*
X52052Y106749D03*
X44178Y110686D03*
X48115D03*
X52052D03*
X44178Y102812D03*
X48115D03*
X52052D03*
X44178Y106749D03*
X48115D03*
X44102Y136811D03*
X53535Y148244D03*
X37835Y153945D03*
X50693Y212402D03*
X58535Y204244D03*
X64370Y207409D03*
X70535Y30244D03*
X78535D03*
X80052Y117749D03*
X76115D03*
X80052Y121686D03*
X76115D03*
X91535Y137244D03*
X78150Y164370D03*
X69370Y144409D03*
X85236Y153945D03*
X80693Y212402D03*
X75535Y201244D03*
X81535D03*
X87535D03*
X92535D03*
X77535Y229244D03*
X65435Y264744D03*
X117115Y45938D03*
X113178D03*
X109241D03*
X110535Y30244D03*
X120535D03*
X120571Y105209D03*
X118052Y167812D03*
X114115D03*
X110178D03*
X118052Y171749D03*
X114115D03*
X110178D03*
X118052Y175686D03*
X114115D03*
X110178D03*
X109535Y212244D03*
X93898Y207244D03*
X106535Y229244D03*
X96935Y264444D03*
X141535Y47244D03*
X121052Y45938D03*
X129035Y94744D03*
X135236Y122945D03*
X146535Y160244D03*
X138535Y212244D03*
X123425Y207354D03*
X136535Y229244D03*
X126535Y264744D03*
X175535Y122244D03*
X154535Y118244D03*
X162535D03*
X176178Y188686D03*
Y184749D03*
X169693Y212402D03*
X154921Y207244D03*
X165535Y229244D03*
X156535Y264744D03*
X182480Y36299D03*
X200197Y104244D03*
X202535Y93244D03*
X194535Y91244D03*
Y122244D03*
X193535Y145244D03*
Y150244D03*
X178115Y166686D03*
Y162749D03*
X182052Y166686D03*
Y162749D03*
X184000Y147000D03*
X189535Y153244D03*
X179535D03*
X180115Y188686D03*
X184052D03*
X180115Y184749D03*
X184052D03*
X198693Y212402D03*
X182480Y207299D03*
X195535Y229244D03*
X186535Y264744D03*
X230216Y104563D03*
X206535Y104244D03*
Y93244D03*
X224535Y111244D03*
X229035Y139744D03*
X214035Y131244D03*
X230248Y130957D03*
X206535Y133244D03*
X221850Y152559D03*
X213535Y145244D03*
Y150244D03*
X212000Y164000D03*
X220000Y144000D03*
X230709Y197071D03*
X227535Y212244D03*
X212008Y207244D03*
X225535Y229244D03*
X216535Y264744D03*
X255906Y39370D03*
X237307Y95472D03*
X245882Y90591D03*
X237535Y88244D03*
X256752Y118028D03*
X250394Y166244D03*
X235535Y161244D03*
X246535Y163244D03*
X239535Y165244D03*
X239115Y176686D03*
X243052D03*
X239115Y172749D03*
X243052D03*
X258693Y212402D03*
X241535Y207244D03*
X255535Y229244D03*
X246535Y264744D03*
X266752Y84461D03*
X272535Y97244D03*
X262291Y125000D03*
X264035Y154744D03*
X262063Y142716D03*
X287535Y212402D03*
X271063Y207244D03*
X285535Y229244D03*
X276535Y264744D03*
X314035Y47244D03*
X316535Y51244D03*
X310535Y142244D03*
X315535D03*
X300535Y161244D03*
X317535Y212402D03*
X300591Y207244D03*
X315535Y229244D03*
X306535Y264744D03*
X319535Y55244D03*
X322535Y59244D03*
X342535Y121244D03*
X337535D03*
X321457Y146323D03*
X320535Y142244D03*
X339535Y183244D03*
X345535D03*
Y178244D03*
X339535D03*
X321457Y182165D03*
X330118Y207244D03*
X345535Y229244D03*
X336535Y264744D03*
X362535Y29244D03*
X347535Y121244D03*
Y156244D03*
X359535D03*
X347835Y172945D03*
X369488Y189961D03*
X358535Y201244D03*
X347535Y212402D03*
X359646Y207354D03*
X366535Y264744D03*
X375394Y67913D03*
X400535Y63244D03*
X385241Y64938D03*
Y61001D03*
X389178Y64938D03*
Y61001D03*
X388386Y102094D03*
X377520Y121260D03*
X393110Y158465D03*
X377535Y176378D03*
X389535Y175244D03*
Y185244D03*
X377362Y225071D03*
X399992Y218701D03*
X389173Y203882D03*
X377535Y229244D03*
X412732Y97047D03*
X406386Y102094D03*
X415178Y132938D03*
Y129001D03*
Y125064D03*
X411241Y132938D03*
Y129001D03*
Y125064D03*
X419115Y132938D03*
Y129001D03*
Y125064D03*
X422638Y148622D03*
X408035Y164744D03*
X408465Y186024D03*
X423535Y196244D03*
X417323Y187008D03*
X444291Y10827D03*
X441304Y19347D03*
Y23284D03*
Y27221D03*
X445241Y19347D03*
X449178D03*
X453115D03*
X445241Y23284D03*
X449178D03*
X453115D03*
X445241Y27221D03*
X449178D03*
X453115D03*
X441304Y31158D03*
X445241D03*
X449178D03*
X453115D03*
X457323Y121457D03*
X443535Y134244D03*
X444291Y172244D03*
X453000Y198000D03*
X471850Y119094D03*
X471126Y147835D03*
X471323Y171457D03*
X472441Y185039D03*
X476535Y179744D03*
X467115Y222001D03*
X463178D03*
X467115Y218064D03*
X463178D03*
X459241Y222001D03*
Y218064D03*
X467115Y225938D03*
X463178D03*
X459241D03*
X598100Y199311D03*
G54D12*
X17126Y194882D03*
Y175197D03*
Y185039D03*
Y204724D03*
X40748Y194882D03*
Y175197D03*
Y185039D03*
Y204724D03*
X166732Y107284D03*
X150984D03*
X460039Y306299D03*
Y286220D03*
X598100Y149311D03*
G54D13*
X52559Y7638D03*
Y37638D03*
X397795Y7638D03*
Y37638D03*
X427795Y7638D03*
X417795D03*
X407795D03*
X427795Y37638D03*
X417795D03*
X407795D03*
X410433Y195276D03*
Y259449D03*
X438780Y195276D03*
Y259449D03*
X598100Y124311D03*
G54D14*
X64370Y81850D03*
Y61850D03*
Y71850D03*
X93898Y81850D03*
Y61850D03*
Y71850D03*
X123425Y81850D03*
Y61850D03*
Y71850D03*
X135236Y167244D03*
Y177244D03*
X152953Y66850D03*
Y76850D03*
X164764Y167244D03*
Y177244D03*
X182480Y66850D03*
Y76850D03*
X194291Y167244D03*
Y177244D03*
X212008Y66850D03*
Y76850D03*
X241535Y66850D03*
Y76850D03*
X271063Y66850D03*
Y76850D03*
X300591Y66850D03*
Y76850D03*
X598100Y174311D03*
G54D15*
X61535Y324803D03*
X76181Y18701D03*
X95866D03*
X91535Y324803D03*
X115551Y18701D03*
X121535Y324803D03*
X135236Y18701D03*
X151535Y324803D03*
X174606Y18701D03*
X154921D03*
X194291D03*
X181535Y324803D03*
X233661Y18701D03*
X213976D03*
X211535Y324803D03*
X253346Y18701D03*
X241535Y324803D03*
X292716Y18701D03*
X273032D03*
X271535Y324803D03*
X312402Y18701D03*
X301535Y324803D03*
X332087Y18701D03*
X331535Y324803D03*
X371457Y18701D03*
X351772D03*
X361535Y324803D03*
X391535D03*
X421535D03*
X598100Y99311D03*
G54D16*
G01X7874Y0D02*
X475197D01*
G03X483071Y7874I0J7874D01*
G01Y336614D01*
G03X475197Y344488I-7874J0D01*
G01X7874D01*
G03X0Y336614I0J-7874D01*
G01Y7874D01*
G03X7874Y0I7874J0D01*
G01X43307Y248032D02*
G03X39370Y244094I0J-3937D01*
G03X43307Y240157I3937J0D01*
G01X450787D01*
G03X454724Y244094I0J3937D01*
G03X450787Y248032I-3937J0D01*
G01X43307D01*
G01X399606Y332677D02*
Y312992D01*
G03X406496Y306102I6890J0D01*
G03X413386Y312992I0J6890D01*
G01Y332677D01*
G03X406496Y339567I-6890J0D01*
G03X399606Y332677I0J-6890D01*
G01X553150Y61811D02*
Y287402D01*
X1049150D01*
Y61811D01*
X553150D01*
G01Y86811D02*
X1049150D01*
G01X553150Y136811D02*
X1049150D01*
G01X553150Y111811D02*
X1049150D01*
G01X553150Y161811D02*
X1049150D01*
G01X553150Y186811D02*
X1049150D01*
G01X564154Y218061D02*
Y230561D01*
X570045D01*
G01X567875Y224520D02*
X564154D01*
G01X577640Y230561D02*
X581359D01*
G01X579500D02*
Y218061D01*
G01X577640D02*
X581359D01*
G01X592830Y224311D02*
X595930D01*
Y220561D01*
X595000Y219311D01*
X593915Y218478D01*
X592365Y218061D01*
X590815Y218478D01*
X589730Y219311D01*
X588800Y220561D01*
X588179Y222019D01*
X587870Y223686D01*
Y225144D01*
X588179Y226394D01*
X588800Y227853D01*
X589730Y229103D01*
X590659Y229936D01*
X591900Y230561D01*
X592984D01*
X594224Y230144D01*
X595155Y229311D01*
G01X600890Y230561D02*
Y221603D01*
X601510Y219727D01*
X602750Y218478D01*
X604300Y218061D01*
X605850Y218478D01*
X607090Y219727D01*
X607710Y221603D01*
Y230561D01*
G01X613600Y218061D02*
Y230561D01*
X617475D01*
X618715Y229936D01*
X619490Y229103D01*
X619800Y227436D01*
X619490Y225769D01*
X618560Y224728D01*
X617475Y224102D01*
X613600D01*
G01X617475D02*
X619800Y218061D01*
G01X632200D02*
X626000D01*
Y230561D01*
X632200D01*
G01X629720Y224520D02*
X626000D01*
G01X553150Y211811D02*
X1049150D01*
G01X553150Y236811D02*
X1049150D01*
G01X553150Y261811D02*
X1049150D01*
G01X643050Y236811D02*
Y61811D01*
G01X629874Y243061D02*
X633750Y255561D01*
X637625Y243061D01*
G01X636230Y247436D02*
X631269D01*
G01X643050Y255561D02*
Y243061D01*
X649250D01*
G01X655450Y255561D02*
Y243061D01*
X661650D01*
G01X679940Y255561D02*
Y246603D01*
X680560Y244727D01*
X681800Y243478D01*
X683350Y243061D01*
X684900Y243478D01*
X686140Y244727D01*
X686760Y246603D01*
Y255561D01*
G01X692185Y243061D02*
Y255561D01*
X699314Y243061D01*
Y255561D01*
G01X706290D02*
X710009D01*
G01X708150D02*
Y243061D01*
G01X706290D02*
X710009D01*
G01X720550Y255561D02*
Y243061D01*
G01X716985Y255561D02*
X724114D01*
G01X729695Y244727D02*
X730935Y243686D01*
X732330Y243061D01*
X733570D01*
X734810Y243686D01*
X735740Y244727D01*
X736205Y246186D01*
X735895Y247644D01*
X735120Y248894D01*
X733725Y249728D01*
X731865Y250144D01*
X730780Y250978D01*
X730315Y252436D01*
X730625Y253894D01*
X731400Y254936D01*
X732485Y255561D01*
X733570D01*
X734655Y255144D01*
X735585Y254103D01*
G01X753874Y243061D02*
X757750Y255561D01*
X761625Y243061D01*
G01X760230Y247436D02*
X755269D01*
G01X767050Y243061D02*
Y255561D01*
X770925D01*
X772165Y254936D01*
X772940Y254103D01*
X773250Y252436D01*
X772940Y250769D01*
X772010Y249728D01*
X770925Y249102D01*
X767050D01*
G01X770925D02*
X773250Y243061D01*
G01X785650D02*
X779450D01*
Y255561D01*
X785650D01*
G01X783170Y249520D02*
X779450D01*
G01X805490Y255561D02*
X809209D01*
G01X807350D02*
Y243061D01*
G01X805490D02*
X809209D01*
G01X816185D02*
Y255561D01*
X823314Y243061D01*
Y255561D01*
G01X840519Y243061D02*
Y255561D01*
X844550Y245144D01*
X848580Y255561D01*
Y243061D01*
G01X855090Y255561D02*
X858809D01*
G01X856950D02*
Y243061D01*
G01X855090D02*
X858809D01*
G01X866250Y255561D02*
Y243061D01*
X872450D01*
G01X878650Y255561D02*
Y243061D01*
X884850D01*
G01X892290Y255561D02*
X896009D01*
G01X894150D02*
Y243061D01*
G01X892290D02*
X896009D01*
G01X902520D02*
Y255561D01*
X906550Y245144D01*
X910580Y255561D01*
Y243061D01*
G01X922050D02*
X915850D01*
Y255561D01*
X922050D01*
G01X919570Y249520D02*
X915850D01*
G01X931350Y255561D02*
Y243061D01*
G01X927785Y255561D02*
X934914D01*
G01X946850Y243061D02*
X940650D01*
Y255561D01*
X946850D01*
G01X944370Y249520D02*
X940650D01*
G01X953050Y243061D02*
Y255561D01*
X956925D01*
X958165Y254936D01*
X958940Y254103D01*
X959250Y252436D01*
X958940Y250769D01*
X958010Y249728D01*
X956925Y249102D01*
X953050D01*
G01X956925D02*
X959250Y243061D01*
G01X965295Y244727D02*
X966535Y243686D01*
X967930Y243061D01*
X969170D01*
X970410Y243686D01*
X971340Y244727D01*
X971805Y246186D01*
X971495Y247644D01*
X970720Y248894D01*
X969325Y249728D01*
X967465Y250144D01*
X966380Y250978D01*
X965914Y252436D01*
X966225Y253894D01*
X967000Y254936D01*
X968085Y255561D01*
X969170D01*
X970255Y255144D01*
X971185Y254103D01*
G01X642740Y268652D02*
Y281152D01*
X645840D01*
X647080Y280526D01*
X648010Y279693D01*
X648785Y278444D01*
X649405Y276985D01*
X649560Y274901D01*
X649405Y272818D01*
X648785Y271360D01*
X648010Y270110D01*
X647080Y269276D01*
X645840Y268652D01*
X642740D01*
G01X655450D02*
Y281152D01*
X659325D01*
X660565Y280526D01*
X661340Y279693D01*
X661650Y278026D01*
X661340Y276360D01*
X660410Y275318D01*
X659325Y274693D01*
X655450D01*
G01X659325D02*
X661650Y268652D01*
G01X669090Y281152D02*
X672809D01*
G01X670950D02*
Y268652D01*
G01X669090D02*
X672809D01*
G01X680250Y281152D02*
Y268652D01*
X686450D01*
G01X692650Y281152D02*
Y268652D01*
X698850D01*
G01X723960Y280110D02*
X723030Y280735D01*
X721945Y281152D01*
X720705D01*
X719309Y280526D01*
X718225Y279485D01*
X717450Y278235D01*
X716829Y276152D01*
X716674Y274276D01*
X716985Y272402D01*
X717450Y271151D01*
X718380Y269901D01*
X719465Y269068D01*
X720550Y268652D01*
X721634D01*
X722720Y269068D01*
X723650Y269693D01*
X724425Y270526D01*
G01X729695Y268652D02*
Y281152D01*
G01X736205D02*
Y268652D01*
G01Y274901D02*
X729695D01*
G01X741474Y268652D02*
X745350Y281152D01*
X749225Y268652D01*
G01X747830Y273026D02*
X742869D01*
G01X754650Y268652D02*
Y281152D01*
X758525D01*
X759765Y280526D01*
X760540Y279693D01*
X760850Y278026D01*
X760540Y276360D01*
X759610Y275318D01*
X758525Y274693D01*
X754650D01*
G01X758525D02*
X760850Y268652D01*
G01X770150Y281152D02*
Y268652D01*
G01X766585Y281152D02*
X773715D01*
G01X782550Y268235D02*
X782240Y268443D01*
Y268860D01*
X782550Y269068D01*
X782860Y268860D01*
Y268443D01*
X782550Y268235D01*
G01Y273860D02*
X782240Y274068D01*
Y274485D01*
X782550Y274693D01*
X782860Y274485D01*
Y274068D01*
X782550Y273860D01*
G01X807350Y281152D02*
Y268652D01*
G01X803785Y281152D02*
X810914D01*
G01X819750Y268652D02*
X818509Y268860D01*
X817425Y269693D01*
X816495Y270943D01*
X815874Y272402D01*
X815564Y274068D01*
Y275735D01*
X815874Y277402D01*
X816495Y278860D01*
X817425Y280110D01*
X818509Y280943D01*
X819750Y281152D01*
X820990Y280943D01*
X822075Y280110D01*
X823005Y278860D01*
X823625Y277402D01*
X823935Y275735D01*
Y274068D01*
X823625Y272402D01*
X823005Y270943D01*
X822075Y269693D01*
X820990Y268860D01*
X819750Y268652D01*
G01X829050D02*
Y281152D01*
X832770D01*
X834010Y280526D01*
X834940Y279068D01*
X835250Y277402D01*
X834940Y275735D01*
X834165Y274485D01*
X832770Y273860D01*
X829050D01*
G01X856950Y281152D02*
Y268652D01*
G01X854780Y276985D02*
X859120D01*
G01X869350Y268652D02*
X868420Y268860D01*
X867490Y269693D01*
X866869Y271151D01*
X866560Y272818D01*
X866869Y274485D01*
X867490Y275943D01*
X868420Y276776D01*
X869350Y276985D01*
X870280Y276776D01*
X871210Y275943D01*
X871830Y274485D01*
X871985Y272818D01*
X871830Y271151D01*
X871210Y269693D01*
X870280Y268860D01*
X869350Y268652D01*
G01X895390Y275318D02*
X896010Y275943D01*
X896475Y276985D01*
X896785Y278444D01*
X896475Y279693D01*
X895855Y280526D01*
X894770Y281152D01*
X890585D01*
Y268652D01*
X895700D01*
X896785Y269485D01*
X897405Y270735D01*
X897714Y272193D01*
X897405Y273651D01*
X896475Y274901D01*
X895390Y275318D01*
X890585D01*
G01X906550Y268652D02*
X905309Y268860D01*
X904225Y269693D01*
X903295Y270943D01*
X902674Y272402D01*
X902364Y274068D01*
Y275735D01*
X902674Y277402D01*
X903295Y278860D01*
X904225Y280110D01*
X905309Y280943D01*
X906550Y281152D01*
X907790Y280943D01*
X908875Y280110D01*
X909805Y278860D01*
X910425Y277402D01*
X910735Y275735D01*
Y274068D01*
X910425Y272402D01*
X909805Y270943D01*
X908875Y269693D01*
X907790Y268860D01*
X906550Y268652D01*
G01X918950Y281152D02*
Y268652D01*
G01X915385Y281152D02*
X922515D01*
G01X931350D02*
Y268652D01*
G01X927785Y281152D02*
X934914D01*
G01X943750Y268652D02*
X942509Y268860D01*
X941425Y269693D01*
X940495Y270943D01*
X939874Y272402D01*
X939564Y274068D01*
Y275735D01*
X939874Y277402D01*
X940495Y278860D01*
X941425Y280110D01*
X942509Y280943D01*
X943750Y281152D01*
X944990Y280943D01*
X946075Y280110D01*
X947005Y278860D01*
X947625Y277402D01*
X947935Y275735D01*
Y274068D01*
X947625Y272402D01*
X947005Y270943D01*
X946075Y269693D01*
X944990Y268860D01*
X943750Y268652D01*
G01X952120D02*
Y281152D01*
X956150Y270735D01*
X960180Y281152D01*
Y268652D01*
G01X666454Y218061D02*
Y230561D01*
X672345D01*
G01X670175Y224520D02*
X666454D01*
G01X679940Y230561D02*
X683659D01*
G01X681800D02*
Y218061D01*
G01X679940D02*
X683659D01*
G01X690635D02*
Y230561D01*
X697765Y218061D01*
Y230561D01*
G01X704740D02*
X708459D01*
G01X706600D02*
Y218061D01*
G01X704740D02*
X708459D01*
G01X715745Y219727D02*
X716985Y218686D01*
X718380Y218061D01*
X719620D01*
X720860Y218686D01*
X721790Y219727D01*
X722255Y221186D01*
X721945Y222644D01*
X721170Y223894D01*
X719775Y224728D01*
X717915Y225144D01*
X716830Y225978D01*
X716365Y227436D01*
X716675Y228894D01*
X717450Y229936D01*
X718535Y230561D01*
X719620D01*
X720705Y230144D01*
X721635Y229103D01*
G01X728145Y218061D02*
Y230561D01*
G01X734655D02*
Y218061D01*
G01Y224311D02*
X728145D01*
G01X746900Y218061D02*
X740700D01*
Y230561D01*
X746900D01*
G01X744420Y224520D02*
X740700D01*
G01X752790Y218061D02*
Y230561D01*
X755890D01*
X757130Y229936D01*
X758060Y229103D01*
X758835Y227853D01*
X759455Y226394D01*
X759610Y224311D01*
X759455Y222228D01*
X758835Y220769D01*
X758060Y219519D01*
X757130Y218686D01*
X755890Y218061D01*
X752790D01*
G01X763950Y213894D02*
X773250D01*
G01X777745Y219727D02*
X778985Y218686D01*
X780380Y218061D01*
X781620D01*
X782860Y218686D01*
X783790Y219727D01*
X784255Y221186D01*
X783945Y222644D01*
X783170Y223894D01*
X781775Y224728D01*
X779915Y225144D01*
X778830Y225978D01*
X778365Y227436D01*
X778675Y228894D01*
X779450Y229936D01*
X780535Y230561D01*
X781620D01*
X782705Y230144D01*
X783635Y229103D01*
G01X791540Y230561D02*
X795259D01*
G01X793400D02*
Y218061D01*
G01X791540D02*
X795259D01*
G01X802854Y230561D02*
X808745D01*
X802854Y218061D01*
X808745D01*
G01X821300D02*
X815100D01*
Y230561D01*
X821300D01*
G01X818820Y224520D02*
X815100D01*
G01X712800Y93061D02*
Y105561D01*
X710940Y103061D01*
G01Y93061D02*
X714659D01*
G01X725200Y92644D02*
X724890Y92853D01*
Y93269D01*
X725200Y93478D01*
X725510Y93269D01*
Y92853D01*
X725200Y92644D01*
G01X737600Y93061D02*
Y105561D01*
X735740Y103061D01*
G01Y93061D02*
X739459D01*
G01X747364Y94519D02*
X748450Y93478D01*
X749690Y93061D01*
X750930Y93478D01*
X752015Y94727D01*
X752790Y96603D01*
X753100Y98478D01*
Y100769D01*
X752790Y102644D01*
X752015Y104311D01*
X751085Y105144D01*
X750000Y105561D01*
X748759Y105144D01*
X747830Y104311D01*
X747210Y103061D01*
X746900Y101394D01*
X747210Y99936D01*
X747985Y98478D01*
X748915Y97644D01*
X750000Y97436D01*
X751240Y97852D01*
X752170Y98894D01*
X753100Y100769D01*
G01X759765Y94519D02*
X760850Y93478D01*
X762090Y93061D01*
X763330Y93478D01*
X764415Y94727D01*
X765190Y96603D01*
X765500Y98478D01*
Y100769D01*
X765190Y102644D01*
X764415Y104311D01*
X763484Y105144D01*
X762400Y105561D01*
X761159Y105144D01*
X760230Y104311D01*
X759610Y103061D01*
X759300Y101394D01*
X759610Y99936D01*
X760385Y98478D01*
X761315Y97644D01*
X762400Y97436D01*
X763640Y97852D01*
X764570Y98894D01*
X765500Y100769D01*
G01X772164Y94519D02*
X773250Y93478D01*
X774490Y93061D01*
X775730Y93478D01*
X776815Y94727D01*
X777590Y96603D01*
X777900Y98478D01*
Y100769D01*
X777590Y102644D01*
X776815Y104311D01*
X775884Y105144D01*
X774800Y105561D01*
X773559Y105144D01*
X772630Y104311D01*
X772010Y103061D01*
X771700Y101394D01*
X772010Y99936D01*
X772785Y98478D01*
X773715Y97644D01*
X774800Y97436D01*
X776040Y97852D01*
X776970Y98894D01*
X777900Y100769D01*
G01X712800Y155561D02*
X711559Y155144D01*
X710630Y154103D01*
X710010Y152853D01*
X709545Y151186D01*
X709390Y149311D01*
X709545Y147436D01*
X710010Y145769D01*
X710630Y144519D01*
X711559Y143478D01*
X712800Y143061D01*
X714040Y143478D01*
X714970Y144519D01*
X715590Y145769D01*
X716055Y147436D01*
X716210Y149311D01*
X716055Y151186D01*
X715590Y152853D01*
X714970Y154103D01*
X714040Y155144D01*
X712800Y155561D01*
G01X725200Y142644D02*
X724890Y142853D01*
Y143269D01*
X725200Y143478D01*
X725510Y143269D01*
Y142853D01*
X725200Y142644D01*
G01X737600Y143061D02*
X738684Y143269D01*
X739924Y143894D01*
X740700Y144936D01*
X741010Y146394D01*
X740700Y147852D01*
X739770Y149102D01*
X738375Y149728D01*
X736825D01*
X735894Y150144D01*
X735119Y151186D01*
X734810Y152644D01*
X735275Y154103D01*
X736359Y155144D01*
X737600Y155561D01*
X738840Y155144D01*
X739924Y154103D01*
X740390Y152644D01*
X740080Y151186D01*
X739305Y150144D01*
X738375Y149728D01*
X736825D01*
X735430Y149102D01*
X734500Y147852D01*
X734190Y146394D01*
X734500Y144936D01*
X735275Y143894D01*
X736515Y143269D01*
X737600Y143061D01*
G01X750000Y155561D02*
X748759Y155144D01*
X747830Y154103D01*
X747210Y152853D01*
X746745Y151186D01*
X746590Y149311D01*
X746745Y147436D01*
X747210Y145769D01*
X747830Y144519D01*
X748759Y143478D01*
X750000Y143061D01*
X751240Y143478D01*
X752170Y144519D01*
X752790Y145769D01*
X753255Y147436D01*
X753410Y149311D01*
X753255Y151186D01*
X752790Y152853D01*
X752170Y154103D01*
X751240Y155144D01*
X750000Y155561D01*
G01X762400D02*
X761159Y155144D01*
X760230Y154103D01*
X759610Y152853D01*
X759145Y151186D01*
X758990Y149311D01*
X759145Y147436D01*
X759610Y145769D01*
X760230Y144519D01*
X761159Y143478D01*
X762400Y143061D01*
X763640Y143478D01*
X764570Y144519D01*
X765190Y145769D01*
X765655Y147436D01*
X765810Y149311D01*
X765655Y151186D01*
X765190Y152853D01*
X764570Y154103D01*
X763640Y155144D01*
X762400Y155561D01*
G01X774800Y143061D02*
Y155561D01*
X772940Y153061D01*
G01Y143061D02*
X776659D01*
G01X727990Y70561D02*
X728919Y69102D01*
X730159Y68269D01*
X731555Y68061D01*
X732795Y68269D01*
X734035Y69311D01*
X734810Y70561D01*
X734965Y71811D01*
X734655Y73269D01*
X733570Y74311D01*
X732485Y74728D01*
X731090D01*
G01X732485D02*
X733415Y75353D01*
X734190Y76394D01*
X734500Y77644D01*
X734190Y78894D01*
X733415Y79936D01*
X732020Y80561D01*
X730625Y80353D01*
X729230Y79519D01*
G01X743800Y67644D02*
X743490Y67853D01*
Y68269D01*
X743800Y68478D01*
X744110Y68269D01*
Y67853D01*
X743800Y67644D01*
G01X758060Y68061D02*
Y80561D01*
X752324Y71603D01*
X760075D01*
G01X731400Y118061D02*
Y130561D01*
X729540Y128061D01*
G01Y118061D02*
X733259D01*
G01X743800Y117644D02*
X743490Y117853D01*
Y118269D01*
X743800Y118478D01*
X744110Y118269D01*
Y117853D01*
X743800Y117644D01*
G01X756200Y130561D02*
X754959Y130144D01*
X754030Y129103D01*
X753410Y127853D01*
X752945Y126186D01*
X752790Y124311D01*
X752945Y122436D01*
X753410Y120769D01*
X754030Y119519D01*
X754959Y118478D01*
X756200Y118061D01*
X757440Y118478D01*
X758370Y119519D01*
X758990Y120769D01*
X759455Y122436D01*
X759610Y124311D01*
X759455Y126186D01*
X758990Y127853D01*
X758370Y129103D01*
X757440Y130144D01*
X756200Y130561D01*
G01X731400Y180561D02*
X730159Y180144D01*
X729230Y179103D01*
X728610Y177853D01*
X728145Y176186D01*
X727990Y174311D01*
X728145Y172436D01*
X728610Y170769D01*
X729230Y169519D01*
X730159Y168478D01*
X731400Y168061D01*
X732640Y168478D01*
X733570Y169519D01*
X734190Y170769D01*
X734655Y172436D01*
X734810Y174311D01*
X734655Y176186D01*
X734190Y177853D01*
X733570Y179103D01*
X732640Y180144D01*
X731400Y180561D01*
G01X743800Y167644D02*
X743490Y167853D01*
Y168269D01*
X743800Y168478D01*
X744110Y168269D01*
Y167853D01*
X743800Y167644D01*
G01X755890Y168061D02*
X756200Y170769D01*
X756665Y173061D01*
X757284Y175144D01*
X758060Y177436D01*
X759300Y180561D01*
X753100D01*
G01X731400Y205561D02*
X730159Y205144D01*
X729230Y204103D01*
X728610Y202853D01*
X728145Y201186D01*
X727990Y199311D01*
X728145Y197436D01*
X728610Y195769D01*
X729230Y194519D01*
X730159Y193478D01*
X731400Y193061D01*
X732640Y193478D01*
X733570Y194519D01*
X734190Y195769D01*
X734655Y197436D01*
X734810Y199311D01*
X734655Y201186D01*
X734190Y202853D01*
X733570Y204103D01*
X732640Y205144D01*
X731400Y205561D01*
G01X743800Y192644D02*
X743490Y192853D01*
Y193269D01*
X743800Y193478D01*
X744110Y193269D01*
Y192853D01*
X743800Y192644D01*
G01X752790Y194936D02*
X753719Y193894D01*
X754804Y193269D01*
X756200Y193061D01*
X757595Y193478D01*
X758680Y194311D01*
X759455Y195769D01*
X759610Y197436D01*
X759300Y199102D01*
X758524Y200144D01*
X757440Y200978D01*
X756355Y201186D01*
X755270Y200978D01*
X753875Y200144D01*
X754340Y205561D01*
X758524D01*
G01X844550Y236811D02*
Y61811D01*
G01X874000Y68061D02*
Y80561D01*
X877720D01*
X878960Y79936D01*
X879890Y78478D01*
X880200Y76811D01*
X879890Y75144D01*
X879115Y73894D01*
X877720Y73269D01*
X874000D01*
G01X886400Y80561D02*
Y68061D01*
X892600D01*
G01X898024D02*
X901900Y80561D01*
X905775Y68061D01*
G01X904380Y72436D02*
X899419D01*
G01X914300Y80561D02*
Y68061D01*
G01X910735Y80561D02*
X917865D01*
G01X929800Y68061D02*
X923600D01*
Y80561D01*
X929800D01*
G01X927320Y74520D02*
X923600D01*
G01X935690Y68061D02*
Y80561D01*
X938790D01*
X940030Y79936D01*
X940960Y79103D01*
X941735Y77853D01*
X942355Y76394D01*
X942510Y74311D01*
X942355Y72228D01*
X941735Y70769D01*
X940960Y69519D01*
X940030Y68686D01*
X938790Y68061D01*
X935690D01*
G01X874000Y93061D02*
Y105561D01*
X877720D01*
X878960Y104936D01*
X879890Y103478D01*
X880200Y101811D01*
X879890Y100144D01*
X879115Y98894D01*
X877720Y98269D01*
X874000D01*
G01X886400Y105561D02*
Y93061D01*
X892600D01*
G01X898024D02*
X901900Y105561D01*
X905775Y93061D01*
G01X904380Y97436D02*
X899419D01*
G01X914300Y105561D02*
Y93061D01*
G01X910735Y105561D02*
X917865D01*
G01X929800Y93061D02*
X923600D01*
Y105561D01*
X929800D01*
G01X927320Y99520D02*
X923600D01*
G01X935690Y93061D02*
Y105561D01*
X938790D01*
X940030Y104936D01*
X940960Y104103D01*
X941735Y102853D01*
X942355Y101394D01*
X942510Y99311D01*
X942355Y97228D01*
X941735Y95769D01*
X940960Y94519D01*
X940030Y93686D01*
X938790Y93061D01*
X935690D01*
G01X874000Y118061D02*
Y130561D01*
X877720D01*
X878960Y129936D01*
X879890Y128478D01*
X880200Y126811D01*
X879890Y125144D01*
X879115Y123894D01*
X877720Y123269D01*
X874000D01*
G01X886400Y130561D02*
Y118061D01*
X892600D01*
G01X898024D02*
X901900Y130561D01*
X905775Y118061D01*
G01X904380Y122436D02*
X899419D01*
G01X914300Y130561D02*
Y118061D01*
G01X910735Y130561D02*
X917865D01*
G01X929800Y118061D02*
X923600D01*
Y130561D01*
X929800D01*
G01X927320Y124520D02*
X923600D01*
G01X935690Y118061D02*
Y130561D01*
X938790D01*
X940030Y129936D01*
X940960Y129103D01*
X941735Y127853D01*
X942355Y126394D01*
X942510Y124311D01*
X942355Y122228D01*
X941735Y120769D01*
X940960Y119519D01*
X940030Y118686D01*
X938790Y118061D01*
X935690D01*
G01X874000Y168061D02*
Y180561D01*
X877720D01*
X878960Y179936D01*
X879890Y178478D01*
X880200Y176811D01*
X879890Y175144D01*
X879115Y173894D01*
X877720Y173269D01*
X874000D01*
G01X886400Y180561D02*
Y168061D01*
X892600D01*
G01X898024D02*
X901900Y180561D01*
X905775Y168061D01*
G01X904380Y172436D02*
X899419D01*
G01X914300Y180561D02*
Y168061D01*
G01X910735Y180561D02*
X917865D01*
G01X929800Y168061D02*
X923600D01*
Y180561D01*
X929800D01*
G01X927320Y174520D02*
X923600D01*
G01X935690Y168061D02*
Y180561D01*
X938790D01*
X940030Y179936D01*
X940960Y179103D01*
X941735Y177853D01*
X942355Y176394D01*
X942510Y174311D01*
X942355Y172228D01*
X941735Y170769D01*
X940960Y169519D01*
X940030Y168686D01*
X938790Y168061D01*
X935690D01*
G01X874000Y143061D02*
Y155561D01*
X877720D01*
X878960Y154936D01*
X879890Y153478D01*
X880200Y151811D01*
X879890Y150144D01*
X879115Y148894D01*
X877720Y148269D01*
X874000D01*
G01X886400Y155561D02*
Y143061D01*
X892600D01*
G01X898024D02*
X901900Y155561D01*
X905775Y143061D01*
G01X904380Y147436D02*
X899419D01*
G01X914300Y155561D02*
Y143061D01*
G01X910735Y155561D02*
X917865D01*
G01X929800Y143061D02*
X923600D01*
Y155561D01*
X929800D01*
G01X927320Y149520D02*
X923600D01*
G01X935690Y143061D02*
Y155561D01*
X938790D01*
X940030Y154936D01*
X940960Y154103D01*
X941735Y152853D01*
X942355Y151394D01*
X942510Y149311D01*
X942355Y147228D01*
X941735Y145769D01*
X940960Y144519D01*
X940030Y143686D01*
X938790Y143061D01*
X935690D01*
G01X874000Y193061D02*
Y205561D01*
X877720D01*
X878960Y204936D01*
X879890Y203478D01*
X880200Y201811D01*
X879890Y200144D01*
X879115Y198894D01*
X877720Y198269D01*
X874000D01*
G01X886400Y205561D02*
Y193061D01*
X892600D01*
G01X898024D02*
X901900Y205561D01*
X905775Y193061D01*
G01X904380Y197436D02*
X899419D01*
G01X914300Y205561D02*
Y193061D01*
G01X910735Y205561D02*
X917865D01*
G01X929800Y193061D02*
X923600D01*
Y205561D01*
X929800D01*
G01X927320Y199520D02*
X923600D01*
G01X935690Y193061D02*
Y205561D01*
X938790D01*
X940030Y204936D01*
X940960Y204103D01*
X941735Y202853D01*
X942355Y201394D01*
X942510Y199311D01*
X942355Y197228D01*
X941735Y195769D01*
X940960Y194519D01*
X940030Y193686D01*
X938790Y193061D01*
X935690D01*
G01X874000Y218061D02*
Y230561D01*
X877720D01*
X878960Y229936D01*
X879890Y228478D01*
X880200Y226811D01*
X879890Y225144D01*
X879115Y223894D01*
X877720Y223269D01*
X874000D01*
G01X886400Y230561D02*
Y218061D01*
X892600D01*
G01X898024D02*
X901900Y230561D01*
X905775Y218061D01*
G01X904380Y222436D02*
X899419D01*
G01X914300Y230561D02*
Y218061D01*
G01X910735Y230561D02*
X917865D01*
G01X929800Y218061D02*
X923600D01*
Y230561D01*
X929800D01*
G01X927320Y224520D02*
X923600D01*
G01X935690Y218061D02*
Y230561D01*
X938790D01*
X940030Y229936D01*
X940960Y229103D01*
X941735Y227853D01*
X942355Y226394D01*
X942510Y224311D01*
X942355Y222228D01*
X941735Y220769D01*
X940960Y219519D01*
X940030Y218686D01*
X938790Y218061D01*
X935690D01*
G01X971650Y236811D02*
Y61811D01*
G01X1012260Y68061D02*
Y80561D01*
X1006524Y71603D01*
X1014275D01*
G01X1001255Y103478D02*
X1002185Y104728D01*
X1003270Y105353D01*
X1004510Y105561D01*
X1006060Y105144D01*
X1007145Y104103D01*
X1007455Y102853D01*
X1007300Y101602D01*
X1006680Y100561D01*
X1003580Y98478D01*
X1002185Y97019D01*
X1001255Y94936D01*
X1000945Y93061D01*
X1007455D01*
G01X1013964Y94519D02*
X1015050Y93478D01*
X1016290Y93061D01*
X1017530Y93478D01*
X1018615Y94727D01*
X1019390Y96603D01*
X1019700Y98478D01*
Y100769D01*
X1019390Y102644D01*
X1018615Y104311D01*
X1017684Y105144D01*
X1016600Y105561D01*
X1015359Y105144D01*
X1014430Y104311D01*
X1013810Y103061D01*
X1013500Y101394D01*
X1013810Y99936D01*
X1014585Y98478D01*
X1015515Y97644D01*
X1016600Y97436D01*
X1017840Y97852D01*
X1018770Y98894D01*
X1019700Y100769D01*
G01X1004200Y118061D02*
Y130561D01*
X1002340Y128061D01*
G01Y118061D02*
X1006059D01*
G01X1018460D02*
Y130561D01*
X1012724Y121603D01*
X1020475D01*
G01X1001255Y178478D02*
X1002185Y179728D01*
X1003270Y180353D01*
X1004510Y180561D01*
X1006060Y180144D01*
X1007145Y179103D01*
X1007455Y177853D01*
X1007300Y176602D01*
X1006680Y175561D01*
X1003580Y173478D01*
X1002185Y172019D01*
X1001255Y169936D01*
X1000945Y168061D01*
X1007455D01*
G01X1016290D02*
X1016600Y170769D01*
X1017065Y173061D01*
X1017684Y175144D01*
X1018460Y177436D01*
X1019700Y180561D01*
X1013500D01*
G01X1004200Y143061D02*
Y155561D01*
X1002340Y153061D01*
G01Y143061D02*
X1006059D01*
G01X1013654Y153478D02*
X1014585Y154728D01*
X1015670Y155353D01*
X1016910Y155561D01*
X1018460Y155144D01*
X1019545Y154103D01*
X1019855Y152853D01*
X1019700Y151602D01*
X1019080Y150561D01*
X1015980Y148478D01*
X1014585Y147019D01*
X1013654Y144936D01*
X1013345Y143061D01*
X1019855D01*
G01X994590Y195561D02*
X995519Y194102D01*
X996759Y193269D01*
X998155Y193061D01*
X999395Y193269D01*
X1000635Y194311D01*
X1001410Y195561D01*
X1001565Y196811D01*
X1001255Y198269D01*
X1000170Y199311D01*
X999084Y199728D01*
X997690D01*
G01X999084D02*
X1000015Y200353D01*
X1000790Y201394D01*
X1001100Y202644D01*
X1000790Y203894D01*
X1000015Y204936D01*
X998620Y205561D01*
X997225Y205353D01*
X995830Y204519D01*
G01X1010400Y193061D02*
Y205561D01*
X1008540Y203061D01*
G01Y193061D02*
X1012259D01*
G01X1022800D02*
X1023884Y193269D01*
X1025125Y193894D01*
X1025900Y194936D01*
X1026210Y196394D01*
X1025900Y197852D01*
X1024970Y199102D01*
X1023575Y199728D01*
X1022025D01*
X1021095Y200144D01*
X1020319Y201186D01*
X1020009Y202644D01*
X1020475Y204103D01*
X1021559Y205144D01*
X1022800Y205561D01*
X1024040Y205144D01*
X1025125Y204103D01*
X1025590Y202644D01*
X1025280Y201186D01*
X1024505Y200144D01*
X1023575Y199728D01*
X1022025D01*
X1020630Y199102D01*
X1019700Y197852D01*
X1019390Y196394D01*
X1019700Y194936D01*
X1020475Y193894D01*
X1021715Y193269D01*
X1022800Y193061D01*
G01X998000Y218061D02*
X996759Y218269D01*
X995675Y219102D01*
X994745Y220353D01*
X994124Y221811D01*
X993814Y223478D01*
Y225144D01*
X994124Y226811D01*
X994745Y228269D01*
X995675Y229519D01*
X996759Y230353D01*
X998000Y230561D01*
X999240Y230353D01*
X1000325Y229519D01*
X1001255Y228269D01*
X1001875Y226811D01*
X1002185Y225144D01*
Y223478D01*
X1001875Y221811D01*
X1001255Y220353D01*
X1000325Y219102D01*
X999240Y218269D01*
X998000Y218061D01*
G01X999240Y221394D02*
X1001100Y218061D01*
G01X1010400Y230561D02*
Y218061D01*
G01X1006835Y230561D02*
X1013964D01*
G01X1022800Y218061D02*
Y223686D01*
X1019700Y230561D01*
G01X1025900D02*
X1022800Y223686D01*
M02*
