G04 ================== begin FILE IDENTIFICATION RECORD ==================*
G04 Layout Name:  D:/Project/2018/CentralizedMonitoringSystem/hardware/allegro/CMS.brd*
G04 Film Name:    PASTEMASK_TOP*
G04 File Format:  Gerber RS274X*
G04 File Origin:  Cadence Allegro 17.2-S037*
G04 Origin Date:  Wed Aug 22 23:57:05 2018*
G04 *
G04 Layer:  VIA CLASS/PASTEMASK_TOP*
G04 Layer:  PIN/PASTEMASK_TOP*
G04 Layer:  BOARD GEOMETRY/OUTLINE*
G04 *
G04 Offset:    (0.000 0.000)*
G04 Mirror:    No*
G04 Mode:      Positive*
G04 Rotation:  0*
G04 FullContactRelief:  No*
G04 UndefLineWidth:     4.000*
G04 ================== end FILE IDENTIFICATION RECORD ====================*
%FSLAX25Y25*MOIN*%
%IR0*IPPOS*OFA0.00000B0.00000*MIA0B0*SFA1.00000B1.00000*%
%AMMACRO25*
4,1,44,.013779,-.015745,
.013779,.015745,
.01375,.016087,
.013661,.016418,
.013516,.01673,
.013319,.017011,
.013077,.017254,
.012795,.01745,
.012484,.017596,
.012153,.017684,
.011811,.017714,
.01181,.017714,
-.01181,.017714,
-.012152,.017685,
-.012483,.017596,
-.012795,.017451,
-.013076,.017254,
-.013319,.017012,
-.013515,.01673,
-.013661,.016419,
-.013749,.016088,
-.013779,.015746,
-.013779,.015745,
-.013779,-.015745,
-.01375,-.016087,
-.013661,-.016418,
-.013516,-.01673,
-.013319,-.017011,
-.013077,-.017254,
-.012795,-.01745,
-.012484,-.017596,
-.012153,-.017684,
-.011811,-.017714,
-.01181,-.017714,
.01181,-.017714,
.012152,-.017685,
.012483,-.017596,
.012795,-.017451,
.013076,-.017254,
.013319,-.017012,
.013515,-.01673,
.013661,-.016419,
.013749,-.016088,
.013779,-.015746,
.013779,-.015745,
0.0*
%
%ADD25MACRO25*%
%AMMACRO18*
4,1,40,-.01575,.015744,
-.01575,-.015744,
-.01569,-.016428,
-.015512,-.017092,
-.015222,-.017714,
-.014828,-.018277,
-.014342,-.018763,
-.01378,-.019157,
-.013157,-.019447,
-.012493,-.019625,
-.011809,-.019685,
.011809,-.019685,
.012493,-.019625,
.013157,-.019447,
.013779,-.019157,
.014342,-.018763,
.014828,-.018277,
.015222,-.017715,
.015512,-.017092,
.01569,-.016428,
.01575,-.015744,
.01575,.015744,
.01569,.016428,
.015512,.017092,
.015222,.017715,
.014828,.018277,
.014342,.018763,
.01378,.019157,
.013157,.019447,
.012493,.019625,
.011809,.019685,
-.011809,.019685,
-.012493,.019625,
-.013157,.019447,
-.01378,.019157,
-.014342,.018763,
-.014828,.018277,
-.015222,.017715,
-.015512,.017092,
-.01569,.016428,
-.01575,.015744,
0.0*
%
%ADD18MACRO18*%
%AMMACRO13*
4,1,40,.015744,.01575,
-.015744,.01575,
-.016428,.01569,
-.017092,.015512,
-.017715,.015222,
-.018277,.014828,
-.018763,.014342,
-.019157,.01378,
-.019447,.013157,
-.019625,.012493,
-.019685,.011809,
-.019685,-.011809,
-.019625,-.012493,
-.019447,-.013157,
-.019157,-.013779,
-.018763,-.014342,
-.018277,-.014828,
-.017715,-.015222,
-.017092,-.015512,
-.016428,-.01569,
-.015744,-.01575,
.015744,-.01575,
.016428,-.01569,
.017092,-.015512,
.017714,-.015222,
.018277,-.014828,
.018763,-.014342,
.019157,-.01378,
.019447,-.013157,
.019625,-.012493,
.019685,-.011809,
.019685,.011809,
.019625,.012493,
.019447,.013157,
.019157,.01378,
.018763,.014342,
.018277,.014828,
.017715,.015222,
.017092,.015512,
.016428,.01569,
.015744,.01575,
0.0*
%
%ADD13MACRO13*%
%AMMACRO22*
4,1,40,-.011809,.019679,
-.011809,-.019679,
-.011749,-.020363,
-.011571,-.021027,
-.011281,-.021649,
-.010887,-.022212,
-.010401,-.022698,
-.009839,-.023092,
-.009216,-.023382,
-.008552,-.02356,
-.007868,-.02362,
.007868,-.02362,
.008552,-.02356,
.009216,-.023382,
.009838,-.023092,
.010401,-.022698,
.010887,-.022212,
.011281,-.02165,
.011571,-.021027,
.011749,-.020363,
.011809,-.019679,
.011809,.019679,
.011749,.020363,
.011571,.021027,
.011281,.021649,
.010887,.022212,
.010401,.022698,
.009839,.023092,
.009216,.023382,
.008552,.02356,
.007868,.02362,
-.007868,.02362,
-.008552,.02356,
-.009216,.023382,
-.009839,.023092,
-.010401,.022698,
-.010887,.022212,
-.011281,.02165,
-.011571,.021027,
-.011749,.020363,
-.011809,.019679,
0.0*
%
%ADD22MACRO22*%
%AMMACRO29*
4,1,40,.019679,.011809,
-.019679,.011809,
-.020363,.011749,
-.021027,.011571,
-.021649,.011281,
-.022212,.010887,
-.022698,.010401,
-.023092,.009839,
-.023382,.009216,
-.02356,.008552,
-.02362,.007868,
-.02362,-.007868,
-.02356,-.008552,
-.023382,-.009216,
-.023092,-.009838,
-.022698,-.010401,
-.022212,-.010887,
-.02165,-.011281,
-.021027,-.011571,
-.020363,-.011749,
-.019679,-.011809,
.019679,-.011809,
.020363,-.011749,
.021027,-.011571,
.021649,-.011281,
.022212,-.010887,
.022698,-.010401,
.023092,-.009839,
.023382,-.009216,
.02356,-.008552,
.02362,-.007868,
.02362,.007868,
.02356,.008552,
.023382,.009216,
.023092,.009839,
.022698,.010401,
.022212,.010887,
.021649,.011281,
.021027,.011571,
.020363,.011749,
.019679,.011809,
0.0*
%
%ADD29MACRO29*%
%AMMACRO23*
4,1,44,-.005905,.025588,
-.005905,-.025588,
-.005846,-.026272,
-.005668,-.026936,
-.005378,-.027559,
-.004984,-.028121,
-.004498,-.028607,
-.003935,-.029001,
-.003313,-.029292,
-.002649,-.02947,
-.001965,-.029529,
-.001964,-.029529,
.001964,-.029529,
.002648,-.02947,
.003312,-.029292,
.003935,-.029002,
.004497,-.028608,
.004983,-.028122,
.005377,-.027559,
.005668,-.026937,
.005846,-.026273,
.005905,-.025589,
.005905,-.025588,
.005905,.025588,
.005846,.026272,
.005668,.026936,
.005378,.027559,
.004984,.028121,
.004498,.028607,
.003935,.029001,
.003313,.029292,
.002649,.02947,
.001965,.029529,
.001964,.029529,
-.001964,.029529,
-.002648,.02947,
-.003312,.029292,
-.003935,.029002,
-.004497,.028608,
-.004983,.028122,
-.005377,.027559,
-.005668,.026937,
-.005846,.026273,
-.005905,.025589,
-.005905,.025588,
0.0*
%
%ADD23MACRO23*%
%AMMACRO37*
4,1,44,-.02362,.020663,
-.02362,-.020663,
-.02356,-.021347,
-.023382,-.022011,
-.023092,-.022634,
-.022698,-.023196,
-.022213,-.023682,
-.02165,-.024076,
-.021027,-.024367,
-.020364,-.024545,
-.019679,-.024604,
-.019679,-.024604,
.019679,-.024604,
.020363,-.024545,
.021027,-.024367,
.021649,-.024077,
.022212,-.023682,
.022698,-.023197,
.023092,-.022634,
.023382,-.022011,
.02356,-.021348,
.02362,-.020664,
.02362,-.020663,
.02362,.020663,
.02356,.021347,
.023382,.022011,
.023092,.022634,
.022698,.023196,
.022213,.023682,
.02165,.024076,
.021027,.024367,
.020364,.024545,
.019679,.024604,
.019679,.024604,
-.019679,.024604,
-.020363,.024545,
-.021027,.024367,
-.021649,.024077,
-.022212,.023682,
-.022698,.023197,
-.023092,.022634,
-.023382,.022011,
-.02356,.021348,
-.02362,.020664,
-.02362,.020663,
0.0*
%
%ADD37MACRO37*%
%AMMACRO30*
4,1,44,.020663,.02362,
-.020663,.02362,
-.021347,.02356,
-.022011,.023382,
-.022634,.023092,
-.023196,.022698,
-.023682,.022213,
-.024076,.02165,
-.024367,.021027,
-.024545,.020364,
-.024604,.019679,
-.024604,.019679,
-.024604,-.019679,
-.024545,-.020363,
-.024367,-.021027,
-.024077,-.021649,
-.023682,-.022212,
-.023197,-.022698,
-.022634,-.023092,
-.022011,-.023382,
-.021348,-.02356,
-.020664,-.02362,
-.020663,-.02362,
.020663,-.02362,
.021347,-.02356,
.022011,-.023382,
.022634,-.023092,
.023196,-.022698,
.023682,-.022213,
.024076,-.02165,
.024367,-.021027,
.024545,-.020364,
.024604,-.019679,
.024604,-.019679,
.024604,.019679,
.024545,.020363,
.024367,.021027,
.024077,.021649,
.023682,.022212,
.023197,.022698,
.022634,.023092,
.022011,.023382,
.021348,.02356,
.020663,.02362,
.020663,.02362,
0.0*
%
%ADD30MACRO30*%
%AMMACRO38*
4,1,40,-.074799,-.03937,
.074799,-.03937,
.075483,-.03931,
.076147,-.039132,
.07677,-.038842,
.077332,-.038448,
.077818,-.037962,
.078212,-.0374,
.078502,-.036777,
.07868,-.036113,
.07874,-.035429,
.07874,.035429,
.07868,.036113,
.078502,.036777,
.078212,.0374,
.077818,.037962,
.077332,.038448,
.07677,.038842,
.076147,.039132,
.075483,.03931,
.074799,.03937,
-.074799,.03937,
-.075483,.03931,
-.076147,.039132,
-.07677,.038842,
-.077332,.038448,
-.077818,.037962,
-.078212,.0374,
-.078502,.036777,
-.07868,.036113,
-.07874,.035429,
-.07874,-.035429,
-.07868,-.036113,
-.078502,-.036777,
-.078212,-.0374,
-.077818,-.037962,
-.077332,-.038448,
-.07677,-.038842,
-.076147,-.039132,
-.075483,-.03931,
-.074799,-.03937,
0.0*
%
%ADD38MACRO38*%
%AMMACRO20*
4,1,44,-.02559,.045273,
-.02559,-.045273,
-.025531,-.045957,
-.025353,-.046621,
-.025063,-.047244,
-.024669,-.047806,
-.024183,-.048292,
-.02362,-.048686,
-.022998,-.048977,
-.022334,-.049155,
-.02165,-.049214,
-.021649,-.049214,
.021649,-.049214,
.022333,-.049155,
.022997,-.048977,
.02362,-.048687,
.024182,-.048293,
.024668,-.047807,
.025062,-.047244,
.025353,-.046622,
.025531,-.045958,
.02559,-.045274,
.02559,-.045273,
.02559,.045273,
.025531,.045957,
.025353,.046621,
.025063,.047244,
.024669,.047806,
.024183,.048292,
.02362,.048686,
.022998,.048977,
.022334,.049155,
.02165,.049214,
.021649,.049214,
-.021649,.049214,
-.022333,.049155,
-.022997,.048977,
-.02362,.048687,
-.024182,.048293,
-.024668,.047807,
-.025062,.047244,
-.025353,.046622,
-.025531,.045958,
-.02559,.045274,
-.02559,.045273,
0.0*
%
%ADD20MACRO20*%
%AMMACRO11*
4,1,44,-.011809,.025588,
-.011809,-.025588,
-.011749,-.026272,
-.011571,-.026936,
-.011281,-.027559,
-.010887,-.028121,
-.010402,-.028607,
-.009839,-.029001,
-.009216,-.029292,
-.008553,-.02947,
-.007868,-.029529,
-.007868,-.029529,
.007868,-.029529,
.008552,-.02947,
.009216,-.029292,
.009838,-.029002,
.010401,-.028607,
.010887,-.028122,
.011281,-.027559,
.011571,-.026936,
.011749,-.026273,
.011809,-.025589,
.011809,-.025588,
.011809,.025588,
.011749,.026272,
.011571,.026936,
.011281,.027559,
.010887,.028121,
.010402,.028607,
.009839,.029001,
.009216,.029292,
.008553,.02947,
.007868,.029529,
.007868,.029529,
-.007868,.029529,
-.008552,.02947,
-.009216,.029292,
-.009839,.029002,
-.010401,.028607,
-.010887,.028122,
-.011281,.027559,
-.011571,.026936,
-.011749,.026273,
-.011809,.025589,
-.011809,.025588,
0.0*
%
%ADD11MACRO11*%
%AMMACRO32*
4,1,44,.025588,.011809,
-.025588,.011809,
-.026272,.011749,
-.026936,.011571,
-.027559,.011281,
-.028121,.010887,
-.028607,.010402,
-.029001,.009839,
-.029292,.009216,
-.02947,.008553,
-.029529,.007868,
-.029529,.007868,
-.029529,-.007868,
-.02947,-.008552,
-.029292,-.009216,
-.029002,-.009838,
-.028607,-.010401,
-.028122,-.010887,
-.027559,-.011281,
-.026936,-.011571,
-.026273,-.011749,
-.025589,-.011809,
-.025588,-.011809,
.025588,-.011809,
.026272,-.011749,
.026936,-.011571,
.027559,-.011281,
.028121,-.010887,
.028607,-.010402,
.029001,-.009839,
.029292,-.009216,
.02947,-.008553,
.029529,-.007868,
.029529,-.007868,
.029529,.007868,
.02947,.008552,
.029292,.009216,
.029002,.009839,
.028607,.010401,
.028122,.010887,
.027559,.011281,
.026936,.011571,
.026273,.011749,
.025589,.011809,
.025588,.011809,
0.0*
%
%ADD32MACRO32*%
%AMMACRO17*
4,1,44,.045273,.02559,
-.045273,.02559,
-.045957,.025531,
-.046621,.025353,
-.047244,.025063,
-.047806,.024669,
-.048292,.024183,
-.048686,.02362,
-.048977,.022998,
-.049155,.022334,
-.049214,.02165,
-.049214,.021649,
-.049214,-.021649,
-.049155,-.022333,
-.048977,-.022997,
-.048687,-.02362,
-.048293,-.024182,
-.047807,-.024668,
-.047244,-.025062,
-.046622,-.025353,
-.045958,-.025531,
-.045274,-.02559,
-.045273,-.02559,
.045273,-.02559,
.045957,-.025531,
.046621,-.025353,
.047244,-.025063,
.047806,-.024669,
.048292,-.024183,
.048686,-.02362,
.048977,-.022998,
.049155,-.022334,
.049214,-.02165,
.049214,-.021649,
.049214,.021649,
.049155,.022333,
.048977,.022997,
.048687,.02362,
.048293,.024182,
.047807,.024668,
.047244,.025062,
.046622,.025353,
.045958,.025531,
.045274,.02559,
.045273,.02559,
0.0*
%
%ADD17MACRO17*%
%AMMACRO33*
4,1,40,.027553,.02362,
-.027553,.02362,
-.028237,.02356,
-.028901,.023382,
-.029524,.023092,
-.030086,.022698,
-.030572,.022212,
-.030966,.02165,
-.031256,.021027,
-.031434,.020363,
-.031494,.019679,
-.031494,-.019679,
-.031434,-.020363,
-.031256,-.021027,
-.030966,-.021649,
-.030572,-.022212,
-.030086,-.022698,
-.029524,-.023092,
-.028901,-.023382,
-.028237,-.02356,
-.027553,-.02362,
.027553,-.02362,
.028237,-.02356,
.028901,-.023382,
.029523,-.023092,
.030086,-.022698,
.030572,-.022212,
.030966,-.02165,
.031256,-.021027,
.031434,-.020363,
.031494,-.019679,
.031494,.019679,
.031434,.020363,
.031256,.021027,
.030966,.021649,
.030572,.022212,
.030086,.022698,
.029524,.023092,
.028901,.023382,
.028237,.02356,
.027553,.02362,
0.0*
%
%ADD33MACRO33*%
%AMMACRO35*
4,1,40,-.03937,.035429,
-.03937,-.035429,
-.03931,-.036113,
-.039132,-.036777,
-.038842,-.0374,
-.038448,-.037962,
-.037962,-.038448,
-.0374,-.038842,
-.036777,-.039132,
-.036113,-.03931,
-.035429,-.03937,
.035429,-.03937,
.036113,-.03931,
.036777,-.039132,
.0374,-.038842,
.037962,-.038448,
.038448,-.037962,
.038842,-.0374,
.039132,-.036777,
.03931,-.036113,
.03937,-.035429,
.03937,.035429,
.03931,.036113,
.039132,.036777,
.038842,.0374,
.038448,.037962,
.037962,.038448,
.0374,.038842,
.036777,.039132,
.036113,.03931,
.035429,.03937,
-.035429,.03937,
-.036113,.03931,
-.036777,.039132,
-.0374,.038842,
-.037962,.038448,
-.038448,.037962,
-.038842,.0374,
-.039132,.036777,
-.03931,.036113,
-.03937,.035429,
0.0*
%
%ADD35MACRO35*%
%AMMACRO19*
4,1,44,-.007874,.025588,
-.007874,-.025588,
-.007814,-.026272,
-.007636,-.026936,
-.007346,-.027559,
-.006952,-.028121,
-.006467,-.028607,
-.005904,-.029001,
-.005281,-.029292,
-.004618,-.02947,
-.003933,-.029529,
-.003933,-.029529,
.003933,-.029529,
.004617,-.02947,
.005281,-.029292,
.005903,-.029002,
.006466,-.028607,
.006952,-.028122,
.007346,-.027559,
.007636,-.026936,
.007814,-.026273,
.007874,-.025589,
.007874,-.025588,
.007874,.025588,
.007814,.026272,
.007636,.026936,
.007346,.027559,
.006952,.028121,
.006467,.028607,
.005904,.029001,
.005281,.029292,
.004618,.02947,
.003933,.029529,
.003933,.029529,
-.003933,.029529,
-.004617,.02947,
-.005281,.029292,
-.005903,.029002,
-.006466,.028607,
-.006952,.028122,
-.007346,.027559,
-.007636,.026936,
-.007814,.026273,
-.007874,.025589,
-.007874,.025588,
0.0*
%
%ADD19MACRO19*%
%AMMACRO10*
4,1,40,.035429,.03937,
-.035429,.03937,
-.036113,.03931,
-.036777,.039132,
-.0374,.038842,
-.037962,.038448,
-.038448,.037962,
-.038842,.0374,
-.039132,.036777,
-.03931,.036113,
-.03937,.035429,
-.03937,-.035429,
-.03931,-.036113,
-.039132,-.036777,
-.038842,-.0374,
-.038448,-.037962,
-.037962,-.038448,
-.0374,-.038842,
-.036777,-.039132,
-.036113,-.03931,
-.035429,-.03937,
.035429,-.03937,
.036113,-.03931,
.036777,-.039132,
.0374,-.038842,
.037962,-.038448,
.038448,-.037962,
.038842,-.0374,
.039132,-.036777,
.03931,-.036113,
.03937,-.035429,
.03937,.035429,
.03931,.036113,
.039132,.036777,
.038842,.0374,
.038448,.037962,
.037962,.038448,
.0374,.038842,
.036777,.039132,
.036113,.03931,
.035429,.03937,
0.0*
%
%ADD10MACRO10*%
%AMMACRO14*
4,1,40,.01575,-.015744,
.01575,.015744,
.01569,.016428,
.015512,.017092,
.015222,.017715,
.014828,.018277,
.014342,.018763,
.01378,.019157,
.013157,.019447,
.012493,.019625,
.011809,.019685,
-.011809,.019685,
-.012493,.019625,
-.013157,.019447,
-.01378,.019157,
-.014342,.018763,
-.014828,.018277,
-.015222,.017715,
-.015512,.017092,
-.01569,.016428,
-.01575,.015744,
-.01575,-.015744,
-.01569,-.016428,
-.015512,-.017092,
-.015222,-.017714,
-.014828,-.018277,
-.014342,-.018763,
-.01378,-.019157,
-.013157,-.019447,
-.012493,-.019625,
-.011809,-.019685,
.011809,-.019685,
.012493,-.019625,
.013157,-.019447,
.013779,-.019157,
.014342,-.018763,
.014828,-.018277,
.015222,-.017715,
.015512,-.017092,
.01569,-.016428,
.01575,-.015744,
0.0*
%
%ADD14MACRO14*%
%AMMACRO12*
4,1,40,-.015744,-.01575,
.015744,-.01575,
.016428,-.01569,
.017092,-.015512,
.017714,-.015222,
.018277,-.014828,
.018763,-.014342,
.019157,-.01378,
.019447,-.013157,
.019625,-.012493,
.019685,-.011809,
.019685,.011809,
.019625,.012493,
.019447,.013157,
.019157,.01378,
.018763,.014342,
.018277,.014828,
.017715,.015222,
.017092,.015512,
.016428,.01569,
.015744,.01575,
-.015744,.01575,
-.016428,.01569,
-.017092,.015512,
-.017715,.015222,
-.018277,.014828,
-.018763,.014342,
-.019157,.01378,
-.019447,.013157,
-.019625,.012493,
-.019685,.011809,
-.019685,-.011809,
-.019625,-.012493,
-.019447,-.013157,
-.019157,-.013779,
-.018763,-.014342,
-.018277,-.014828,
-.017715,-.015222,
-.017092,-.015512,
-.016428,-.01569,
-.015744,-.01575,
0.0*
%
%ADD12MACRO12*%
%AMMACRO36*
4,1,40,.011809,-.019679,
.011809,.019679,
.011749,.020363,
.011571,.021027,
.011281,.021649,
.010887,.022212,
.010401,.022698,
.009839,.023092,
.009216,.023382,
.008552,.02356,
.007868,.02362,
-.007868,.02362,
-.008552,.02356,
-.009216,.023382,
-.009839,.023092,
-.010401,.022698,
-.010887,.022212,
-.011281,.02165,
-.011571,.021027,
-.011749,.020363,
-.011809,.019679,
-.011809,-.019679,
-.011749,-.020363,
-.011571,-.021027,
-.011281,-.021649,
-.010887,-.022212,
-.010401,-.022698,
-.009839,-.023092,
-.009216,-.023382,
-.008552,-.02356,
-.007868,-.02362,
.007868,-.02362,
.008552,-.02356,
.009216,-.023382,
.009838,-.023092,
.010401,-.022698,
.010887,-.022212,
.011281,-.02165,
.011571,-.021027,
.011749,-.020363,
.011809,-.019679,
0.0*
%
%ADD36MACRO36*%
%AMMACRO28*
4,1,40,-.019679,-.011809,
.019679,-.011809,
.020363,-.011749,
.021027,-.011571,
.021649,-.011281,
.022212,-.010887,
.022698,-.010401,
.023092,-.009839,
.023382,-.009216,
.02356,-.008552,
.02362,-.007868,
.02362,.007868,
.02356,.008552,
.023382,.009216,
.023092,.009839,
.022698,.010401,
.022212,.010887,
.021649,.011281,
.021027,.011571,
.020363,.011749,
.019679,.011809,
-.019679,.011809,
-.020363,.011749,
-.021027,.011571,
-.021649,.011281,
-.022212,.010887,
-.022698,.010401,
-.023092,.009839,
-.023382,.009216,
-.02356,.008552,
-.02362,.007868,
-.02362,-.007868,
-.02356,-.008552,
-.023382,-.009216,
-.023092,-.009838,
-.022698,-.010401,
-.022212,-.010887,
-.02165,-.011281,
-.021027,-.011571,
-.020363,-.011749,
-.019679,-.011809,
0.0*
%
%ADD28MACRO28*%
%AMMACRO26*
4,1,40,.02362,-.031494,
.02362,.031494,
.02356,.032178,
.023382,.032842,
.023092,.033465,
.022698,.034027,
.022212,.034513,
.021649,.034907,
.021027,.035197,
.020363,.035375,
.019679,.035435,
-.019679,.035435,
-.020363,.035375,
-.021027,.035197,
-.021649,.034907,
-.022212,.034513,
-.022698,.034027,
-.023092,.033465,
-.023382,.032842,
-.02356,.032178,
-.02362,.031494,
-.02362,-.031494,
-.02356,-.032178,
-.023382,-.032842,
-.023092,-.033465,
-.022698,-.034027,
-.022212,-.034513,
-.02165,-.034907,
-.021027,-.035197,
-.020363,-.035375,
-.019679,-.035435,
.019679,-.035435,
.020363,-.035375,
.021027,-.035197,
.021649,-.034907,
.022212,-.034513,
.022698,-.034027,
.023092,-.033465,
.023382,-.032842,
.02356,-.032178,
.02362,-.031494,
0.0*
%
%ADD26MACRO26*%
%AMMACRO24*
4,1,44,-.025588,-.005905,
.025588,-.005905,
.026272,-.005846,
.026936,-.005668,
.027559,-.005378,
.028121,-.004984,
.028607,-.004498,
.029001,-.003935,
.029292,-.003313,
.02947,-.002649,
.029529,-.001965,
.029529,-.001964,
.029529,.001964,
.02947,.002648,
.029292,.003312,
.029002,.003935,
.028608,.004497,
.028122,.004983,
.027559,.005377,
.026937,.005668,
.026273,.005846,
.025589,.005905,
.025588,.005905,
-.025588,.005905,
-.026272,.005846,
-.026936,.005668,
-.027559,.005378,
-.028121,.004984,
-.028607,.004498,
-.029001,.003935,
-.029292,.003313,
-.02947,.002649,
-.029529,.001965,
-.029529,.001964,
-.029529,-.001964,
-.02947,-.002648,
-.029292,-.003312,
-.029002,-.003935,
-.028608,-.004497,
-.028122,-.004983,
-.027559,-.005377,
-.026937,-.005668,
-.026273,-.005846,
-.025589,-.005905,
-.025588,-.005905,
0.0*
%
%ADD24MACRO24*%
%AMMACRO21*
4,1,44,.02559,-.045273,
.02559,.045273,
.025531,.045957,
.025353,.046621,
.025063,.047244,
.024669,.047806,
.024183,.048292,
.02362,.048686,
.022998,.048977,
.022334,.049155,
.02165,.049214,
.021649,.049214,
-.021649,.049214,
-.022333,.049155,
-.022997,.048977,
-.02362,.048687,
-.024182,.048293,
-.024668,.047807,
-.025062,.047244,
-.025353,.046622,
-.025531,.045958,
-.02559,.045274,
-.02559,.045273,
-.02559,-.045273,
-.025531,-.045957,
-.025353,-.046621,
-.025063,-.047244,
-.024669,-.047806,
-.024183,-.048292,
-.02362,-.048686,
-.022998,-.048977,
-.022334,-.049155,
-.02165,-.049214,
-.021649,-.049214,
.021649,-.049214,
.022333,-.049155,
.022997,-.048977,
.02362,-.048687,
.024182,-.048293,
.024668,-.047807,
.025062,-.047244,
.025353,-.046622,
.025531,-.045958,
.02559,-.045274,
.02559,-.045273,
0.0*
%
%ADD21MACRO21*%
%AMMACRO16*
4,1,44,-.045273,-.02559,
.045273,-.02559,
.045957,-.025531,
.046621,-.025353,
.047244,-.025063,
.047806,-.024669,
.048292,-.024183,
.048686,-.02362,
.048977,-.022998,
.049155,-.022334,
.049214,-.02165,
.049214,-.021649,
.049214,.021649,
.049155,.022333,
.048977,.022997,
.048687,.02362,
.048293,.024182,
.047807,.024668,
.047244,.025062,
.046622,.025353,
.045958,.025531,
.045274,.02559,
.045273,.02559,
-.045273,.02559,
-.045957,.025531,
-.046621,.025353,
-.047244,.025063,
-.047806,.024669,
-.048292,.024183,
-.048686,.02362,
-.048977,.022998,
-.049155,.022334,
-.049214,.02165,
-.049214,.021649,
-.049214,-.021649,
-.049155,-.022333,
-.048977,-.022997,
-.048687,-.02362,
-.048293,-.024182,
-.047807,-.024668,
-.047244,-.025062,
-.046622,-.025353,
-.045958,-.025531,
-.045274,-.02559,
-.045273,-.02559,
0.0*
%
%ADD16MACRO16*%
%AMMACRO15*
4,1,44,.011809,-.025588,
.011809,.025588,
.011749,.026272,
.011571,.026936,
.011281,.027559,
.010887,.028121,
.010402,.028607,
.009839,.029001,
.009216,.029292,
.008553,.02947,
.007868,.029529,
.007868,.029529,
-.007868,.029529,
-.008552,.02947,
-.009216,.029292,
-.009839,.029002,
-.010401,.028607,
-.010887,.028122,
-.011281,.027559,
-.011571,.026936,
-.011749,.026273,
-.011809,.025589,
-.011809,.025588,
-.011809,-.025588,
-.011749,-.026272,
-.011571,-.026936,
-.011281,-.027559,
-.010887,-.028121,
-.010402,-.028607,
-.009839,-.029001,
-.009216,-.029292,
-.008553,-.02947,
-.007868,-.029529,
-.007868,-.029529,
.007868,-.029529,
.008552,-.02947,
.009216,-.029292,
.009838,-.029002,
.010401,-.028607,
.010887,-.028122,
.011281,-.027559,
.011571,-.026936,
.011749,-.026273,
.011809,-.025589,
.011809,-.025588,
0.0*
%
%ADD15MACRO15*%
%AMMACRO34*
4,1,40,-.027553,-.02362,
.027553,-.02362,
.028237,-.02356,
.028901,-.023382,
.029523,-.023092,
.030086,-.022698,
.030572,-.022212,
.030966,-.02165,
.031256,-.021027,
.031434,-.020363,
.031494,-.019679,
.031494,.019679,
.031434,.020363,
.031256,.021027,
.030966,.021649,
.030572,.022212,
.030086,.022698,
.029524,.023092,
.028901,.023382,
.028237,.02356,
.027553,.02362,
-.027553,.02362,
-.028237,.02356,
-.028901,.023382,
-.029524,.023092,
-.030086,.022698,
-.030572,.022212,
-.030966,.02165,
-.031256,.021027,
-.031434,.020363,
-.031494,.019679,
-.031494,-.019679,
-.031434,-.020363,
-.031256,-.021027,
-.030966,-.021649,
-.030572,-.022212,
-.030086,-.022698,
-.029524,-.023092,
-.028901,-.023382,
-.028237,-.02356,
-.027553,-.02362,
0.0*
%
%ADD34MACRO34*%
%AMMACRO31*
4,1,40,-.035429,-.03937,
.035429,-.03937,
.036113,-.03931,
.036777,-.039132,
.0374,-.038842,
.037962,-.038448,
.038448,-.037962,
.038842,-.0374,
.039132,-.036777,
.03931,-.036113,
.03937,-.035429,
.03937,.035429,
.03931,.036113,
.039132,.036777,
.038842,.0374,
.038448,.037962,
.037962,.038448,
.0374,.038842,
.036777,.039132,
.036113,.03931,
.035429,.03937,
-.035429,.03937,
-.036113,.03931,
-.036777,.039132,
-.0374,.038842,
-.037962,.038448,
-.038448,.037962,
-.038842,.0374,
-.039132,.036777,
-.03931,.036113,
-.03937,.035429,
-.03937,-.035429,
-.03931,-.036113,
-.039132,-.036777,
-.038842,-.0374,
-.038448,-.037962,
-.037962,-.038448,
-.0374,-.038842,
-.036777,-.039132,
-.036113,-.03931,
-.035429,-.03937,
0.0*
%
%ADD31MACRO31*%
%AMMACRO27*
4,1,40,.03937,-.035429,
.03937,.035429,
.03931,.036113,
.039132,.036777,
.038842,.0374,
.038448,.037962,
.037962,.038448,
.0374,.038842,
.036777,.039132,
.036113,.03931,
.035429,.03937,
-.035429,.03937,
-.036113,.03931,
-.036777,.039132,
-.0374,.038842,
-.037962,.038448,
-.038448,.037962,
-.038842,.0374,
-.039132,.036777,
-.03931,.036113,
-.03937,.035429,
-.03937,-.035429,
-.03931,-.036113,
-.039132,-.036777,
-.038842,-.0374,
-.038448,-.037962,
-.037962,-.038448,
-.0374,-.038842,
-.036777,-.039132,
-.036113,-.03931,
-.035429,-.03937,
.035429,-.03937,
.036113,-.03931,
.036777,-.039132,
.0374,-.038842,
.037962,-.038448,
.038448,-.037962,
.038842,-.0374,
.039132,-.036777,
.03931,-.036113,
.03937,-.035429,
0.0*
%
%ADD27MACRO27*%
%ADD39C,.004*%
G75*
%LPD*%
G75*
G54D10*
X13976Y107284D03*
X32087D03*
X61220D03*
X79331D03*
G54D11*
X22126Y123012D03*
X12126D03*
X22126Y150571D03*
X12126D03*
X59370Y123012D03*
Y150571D03*
X69370Y123012D03*
Y150571D03*
G54D20*
X149606Y48228D03*
X196850D03*
X226378D03*
X409449Y65945D03*
G54D21*
X168110Y48228D03*
X215354D03*
X244882D03*
X427953Y65945D03*
G54D12*
X31693Y136811D03*
X30512Y130906D03*
X31693Y142716D03*
X37992Y136811D03*
X39173Y130906D03*
X37992Y142716D03*
X78937Y136811D03*
X85236D03*
X86417Y130906D03*
X77756D03*
X78937Y142716D03*
X85236D03*
X132087Y160433D03*
X138386D03*
X161614D03*
X167913D03*
X191142D03*
X197441D03*
X250197Y130906D03*
X256496D03*
X250197Y136811D03*
X256496D03*
X250197Y142716D03*
X256496D03*
X279724Y136811D03*
X286024D03*
X279724Y130906D03*
X286024D03*
X279724Y125000D03*
X286024D03*
X279724Y152559D03*
X286024D03*
X279724Y142716D03*
X286024D03*
X315158Y176181D03*
X321457D03*
G54D30*
X403347Y54134D03*
X410433D03*
X421063D03*
X428150D03*
G54D31*
X427756Y79724D03*
X409646D03*
G54D22*
X178740Y53346D03*
X182480Y43110D03*
X186220Y53346D03*
X179921Y106496D03*
X183661Y96260D03*
X187402Y106496D03*
X434646Y96260D03*
Y106496D03*
X438386Y96260D03*
Y106496D03*
X442126Y96260D03*
Y106496D03*
G54D13*
X31693Y148622D03*
X37992D03*
X61220Y184055D03*
Y189961D03*
Y178150D03*
X85236Y148622D03*
X78937D03*
X67520Y184055D03*
Y189961D03*
Y178150D03*
X256496Y125000D03*
X250197D03*
X286024Y176181D03*
X279724D03*
X315158Y168307D03*
Y160433D03*
Y152559D03*
X321457Y168307D03*
Y160433D03*
Y152559D03*
X362795Y121063D03*
X356496D03*
X362795Y128937D03*
X356496D03*
X362795Y176181D03*
X356496D03*
X362795Y184055D03*
X356496D03*
G54D14*
X58465Y212402D03*
Y218701D03*
X82087Y68701D03*
Y75000D03*
X76181Y68701D03*
Y75000D03*
X87992Y212402D03*
Y218701D03*
X70276Y212402D03*
Y218701D03*
X111614Y68701D03*
Y75000D03*
X105709Y68701D03*
Y75000D03*
X117520Y212402D03*
Y218701D03*
X99803Y212402D03*
Y218701D03*
X141142Y68701D03*
Y75000D03*
X135236Y68701D03*
Y75000D03*
X147047Y212402D03*
Y218701D03*
X129331Y212402D03*
Y218701D03*
X164764Y68701D03*
Y75000D03*
X170669Y68701D03*
Y75000D03*
X162795Y212402D03*
Y218701D03*
X200197Y110039D03*
Y116339D03*
X182480Y115945D03*
Y122244D03*
X188386Y115945D03*
Y122244D03*
X176575Y212402D03*
Y218701D03*
X188386Y212402D03*
Y218701D03*
X223819Y68701D03*
Y75000D03*
X229724Y68701D03*
Y75000D03*
X206102Y110039D03*
Y116339D03*
Y212402D03*
Y218701D03*
X217913Y212402D03*
Y218701D03*
X235630Y212402D03*
Y218701D03*
X247441Y212402D03*
Y218701D03*
X282874Y68701D03*
Y75000D03*
X265158Y212402D03*
Y218701D03*
X276968Y212402D03*
Y218701D03*
X288780Y68701D03*
Y75000D03*
X294685Y212402D03*
Y218701D03*
X306496Y212402D03*
Y218701D03*
X324213Y212402D03*
Y218701D03*
X336024Y212402D03*
Y218701D03*
X371457Y106102D03*
Y112402D03*
Y161220D03*
Y167520D03*
X353740Y212402D03*
Y218701D03*
X365551Y212402D03*
Y218701D03*
X377362Y106102D03*
Y112402D03*
X383268Y161220D03*
Y167520D03*
X377362Y192716D03*
X395079D03*
X383268D03*
X377362Y199016D03*
X395079D03*
X383268D03*
X395079Y212402D03*
Y218701D03*
X442323Y121850D03*
Y128150D03*
X430512Y141535D03*
Y147835D03*
X454134Y165158D03*
Y141535D03*
Y147835D03*
Y171457D03*
X465945Y184842D03*
Y191142D03*
X460039Y184842D03*
Y191142D03*
G54D32*
X413819Y164744D03*
Y169744D03*
Y174744D03*
Y179744D03*
X435394Y164744D03*
Y179744D03*
Y174744D03*
Y169744D03*
G54D23*
X230709Y152559D03*
Y187992D03*
X252362Y152559D03*
X250394D03*
X248425D03*
X246457D03*
X244488D03*
X242520D03*
X240551D03*
X238583D03*
X236614D03*
X234646D03*
X232677D03*
Y187992D03*
X234646D03*
X236614D03*
X238583D03*
X240551D03*
X242520D03*
X244488D03*
X246457D03*
X248425D03*
X250394D03*
X252362D03*
G54D15*
X55433Y229350D03*
Y256909D03*
X86929Y229350D03*
X65433D03*
X86929Y256909D03*
X65433D03*
X116535Y229350D03*
X96929D03*
X116535Y256909D03*
X96929D03*
X146535Y229350D03*
X126535D03*
X146535Y256909D03*
X126535D03*
X156535Y229350D03*
Y256909D03*
X176535Y229350D03*
X186535D03*
X176535Y256909D03*
X186535D03*
X206535Y229350D03*
X216535D03*
X206535Y256909D03*
X216535D03*
X256752Y90591D03*
X251752D03*
Y112165D03*
X256752D03*
X236535Y229350D03*
X246535D03*
X236535Y256909D03*
X246535D03*
X266752Y90591D03*
X261752D03*
Y112165D03*
X266752D03*
X266535Y229350D03*
X276535D03*
X266535Y256909D03*
X276535D03*
X296535Y229350D03*
X306535D03*
X296535Y256909D03*
X306535D03*
X326535Y229350D03*
X336535D03*
X326535Y256909D03*
X336535D03*
X356535Y229350D03*
X366535D03*
X356535Y256909D03*
X366535D03*
G54D24*
X223819Y159449D03*
Y161417D03*
Y163386D03*
Y165354D03*
Y167323D03*
Y169291D03*
Y171260D03*
Y173228D03*
Y175197D03*
Y177165D03*
Y179134D03*
Y181102D03*
X259252Y167323D03*
Y165354D03*
Y163386D03*
Y161417D03*
Y159449D03*
Y181102D03*
Y179134D03*
Y177165D03*
Y175197D03*
Y173228D03*
Y171260D03*
Y169291D03*
G54D33*
X438386Y77756D03*
G54D34*
Y65945D03*
G54D16*
X61535Y273228D03*
X91535D03*
X121535D03*
X151535D03*
X181535D03*
X211535D03*
X241535D03*
X271535D03*
X301535D03*
X347835Y92126D03*
Y147244D03*
X331535Y273228D03*
X361535D03*
X426575D03*
X439173D03*
G54D25*
X286024Y160236D03*
Y168504D03*
X279724Y160236D03*
Y168504D03*
G54D26*
X300591Y147047D03*
Y173819D03*
G54D35*
X450197Y62795D03*
Y80906D03*
G54D17*
X61535Y291732D03*
X91535D03*
X121535D03*
X151535D03*
X181535D03*
X211535D03*
X241535D03*
X271535D03*
X301535D03*
X347835Y110630D03*
Y165748D03*
X331535Y291732D03*
X361535D03*
X426575D03*
X439173D03*
G54D27*
X359646Y110433D03*
Y92323D03*
Y165551D03*
Y147441D03*
X462008Y80906D03*
Y62795D03*
G54D36*
X446063Y139567D03*
X442323D03*
X438583D03*
X446063Y149803D03*
X438583D03*
G54D18*
X64370Y218701D03*
Y212402D03*
X93898Y218701D03*
Y212402D03*
X135236Y110039D03*
X129331D03*
X135236Y116339D03*
X129331D03*
X123425Y218701D03*
Y212402D03*
X154921Y218701D03*
Y212402D03*
X182480Y218701D03*
Y212402D03*
X212008Y218701D03*
Y212402D03*
X241535Y218701D03*
Y212402D03*
X282874Y98622D03*
Y92323D03*
X276968Y98622D03*
Y92323D03*
X271063Y218701D03*
Y212402D03*
X288780Y98622D03*
Y92323D03*
X300591Y218701D03*
Y212402D03*
X336024Y112402D03*
Y106102D03*
Y96654D03*
Y90354D03*
Y167520D03*
Y161220D03*
Y151772D03*
Y145472D03*
X330118Y218701D03*
Y212402D03*
X371457Y89173D03*
Y97835D03*
Y144291D03*
Y152953D03*
X359646Y218701D03*
Y212402D03*
X383268Y112402D03*
Y106102D03*
X377362Y167520D03*
Y161220D03*
X389173Y192716D03*
Y199016D03*
X377362Y218701D03*
Y212402D03*
X383268Y218701D03*
Y212402D03*
X389173Y218701D03*
Y212402D03*
X424606Y104528D03*
Y98228D03*
X418701Y97047D03*
Y105709D03*
X450197Y104528D03*
Y98228D03*
X436417Y128150D03*
Y121850D03*
X430512Y128150D03*
Y121850D03*
X454134Y191142D03*
Y184842D03*
X465945Y165158D03*
X460039Y147835D03*
Y141535D03*
X465945Y147835D03*
Y141535D03*
X460039Y165158D03*
X465945Y171457D03*
X460039D03*
G54D28*
X372244Y121260D03*
Y128740D03*
Y176378D03*
Y183858D03*
X382480Y125000D03*
Y180118D03*
G54D19*
X118012Y95472D03*
X115453D03*
X112894D03*
X110335D03*
X107776D03*
X105217D03*
X102658D03*
Y119094D03*
X105217D03*
X107776D03*
X110335D03*
X112894D03*
X115453D03*
X118012D03*
X120571Y95472D03*
Y119094D03*
X230216Y95472D03*
X227657D03*
X225098D03*
X222539D03*
X219980D03*
X217421D03*
X214862D03*
Y119094D03*
X217421D03*
X219980D03*
X222539D03*
X225098D03*
X227657D03*
X230216D03*
X232776Y95472D03*
Y119094D03*
G54D37*
X450197Y121457D03*
Y128543D03*
G54D38*
X465945Y109252D03*
Y93504D03*
G54D29*
X388386Y97244D03*
X378150Y93504D03*
X388386Y89764D03*
Y152362D03*
X378150Y148622D03*
X388386Y144882D03*
G54D39*
G01X7874Y0D02*
X475197D01*
G03X483071Y7874I0J7874D01*
G01Y336614D01*
G03X475197Y344488I-7874J0D01*
G01X7874D01*
G03X0Y336614I0J-7874D01*
G01Y7874D01*
G03X7874Y0I7874J0D01*
M02*
