G04 ================== begin FILE IDENTIFICATION RECORD ==================*
G04 Layout Name:  E:/cmSystem/allegro/CMS.brd*
G04 Film Name:    PASTEMASK_TOP*
G04 File Format:  Gerber RS274X*
G04 File Origin:  Cadence Allegro 17.2-S037*
G04 Origin Date:  Thu Aug 23 10:24:26 2018*
G04 *
G04 Layer:  VIA CLASS/PASTEMASK_TOP*
G04 Layer:  PIN/PASTEMASK_TOP*
G04 Layer:  BOARD GEOMETRY/OUTLINE*
G04 *
G04 Offset:    (0.0000 0.0000)*
G04 Mirror:    No*
G04 Mode:      Positive*
G04 Rotation:  0*
G04 FullContactRelief:  No*
G04 UndefLineWidth:     0.1016*
G04 ================== end FILE IDENTIFICATION RECORD ====================*
%FSLAX25Y25*MOIN*%
%IR0*IPPOS*OFA0.00000B0.00000*MIA0B0*SFA1.00000B1.00000*%
%AMMACRO15*
4,1,44,.011807,-.025587,
.011807,.025587,
.01175,.026271,
.011572,.026935,
.011282,.027557,
.010888,.02812,
.010403,.028606,
.00984,.029001,
.009218,.029291,
.008554,.029469,
.00787,.02953,
.007866,.029528,
-.007866,.029528,
-.008551,.02947,
-.009214,.029293,
-.009837,.029003,
-.0104,.028609,
-.010886,.028123,
-.01128,.027561,
-.011571,.026938,
-.011749,.026275,
-.011809,.025591,
-.011807,.025587,
-.011807,-.025587,
-.01175,-.026271,
-.011572,-.026935,
-.011282,-.027557,
-.010888,-.02812,
-.010403,-.028606,
-.00984,-.029001,
-.009218,-.029291,
-.008554,-.029469,
-.00787,-.02953,
-.007866,-.029528,
.007866,-.029528,
.008551,-.02947,
.009214,-.029293,
.009837,-.029003,
.0104,-.028609,
.010886,-.028123,
.01128,-.027561,
.011571,-.026938,
.011749,-.026275,
.011809,-.025591,
.011807,-.025587,
0.0*
%
%ADD15MACRO15*%
%AMMACRO25*
4,1,44,.01378,-.015744,
.01378,.015744,
.01375,.016086,
.013661,.016417,
.013517,.016729,
.01332,.01701,
.013078,.017253,
.012797,.01745,
.012486,.017595,
.012155,.017684,
.011813,.017715,
.011811,.017713,
-.011811,.017713,
-.012153,.017685,
-.012484,.017596,
-.012795,.017451,
-.013076,.017254,
-.013319,.017011,
-.013516,.01673,
-.013661,.016419,
-.01375,.016088,
-.01378,.015746,
-.01378,.015744,
-.01378,-.015744,
-.01375,-.016086,
-.013661,-.016417,
-.013517,-.016729,
-.01332,-.01701,
-.013078,-.017253,
-.012797,-.01745,
-.012486,-.017595,
-.012155,-.017684,
-.011813,-.017715,
-.011811,-.017713,
.011811,-.017713,
.012153,-.017685,
.012484,-.017596,
.012795,-.017451,
.013076,-.017254,
.013319,-.017011,
.013516,-.01673,
.013661,-.016419,
.01375,-.016088,
.01378,-.015746,
.01378,-.015744,
0.0*
%
%ADD25MACRO25*%
%AMMACRO31*
4,1,40,-.035429,-.03937,
.035429,-.03937,
.036113,-.03931,
.036777,-.039132,
.0374,-.038842,
.037962,-.038448,
.038448,-.037962,
.038842,-.0374,
.039132,-.036777,
.03931,-.036113,
.03937,-.035429,
.03937,.035429,
.03931,.036113,
.039132,.036777,
.038842,.0374,
.038448,.037962,
.037962,.038448,
.0374,.038842,
.036777,.039132,
.036113,.03931,
.035429,.03937,
-.035429,.03937,
-.036113,.03931,
-.036777,.039132,
-.0374,.038842,
-.037962,.038448,
-.038448,.037962,
-.038842,.0374,
-.039132,.036777,
-.03931,.036113,
-.03937,.035429,
-.03937,-.035429,
-.03931,-.036113,
-.039132,-.036777,
-.038842,-.0374,
-.038448,-.037962,
-.037962,-.038448,
-.0374,-.038842,
-.036777,-.039132,
-.036113,-.03931,
-.035429,-.03937,
0.0*
%
%ADD31MACRO31*%
%AMMACRO27*
4,1,40,.03937,-.035429,
.03937,.035429,
.03931,.036113,
.039132,.036777,
.038842,.0374,
.038448,.037962,
.037962,.038448,
.0374,.038842,
.036777,.039132,
.036113,.03931,
.035429,.03937,
-.035429,.03937,
-.036113,.03931,
-.036777,.039132,
-.0374,.038842,
-.037962,.038448,
-.038448,.037962,
-.038842,.0374,
-.039132,.036777,
-.03931,.036113,
-.03937,.035429,
-.03937,-.035429,
-.03931,-.036113,
-.039132,-.036777,
-.038842,-.0374,
-.038448,-.037962,
-.037962,-.038448,
-.0374,-.038842,
-.036777,-.039132,
-.036113,-.03931,
-.035429,-.03937,
.035429,-.03937,
.036113,-.03931,
.036777,-.039132,
.0374,-.038842,
.037962,-.038448,
.038448,-.037962,
.038842,-.0374,
.039132,-.036777,
.03931,-.036113,
.03937,-.035429,
0.0*
%
%ADD27MACRO27*%
%AMMACRO38*
4,1,40,-.074799,-.03937,
.074799,-.03937,
.075484,-.03931,
.076147,-.039132,
.07677,-.038842,
.077332,-.038448,
.077818,-.037962,
.078212,-.0374,
.078502,-.036777,
.07868,-.036113,
.07874,-.035429,
.07874,.035429,
.07868,.036113,
.078502,.036777,
.078212,.0374,
.077818,.037962,
.077332,.038448,
.07677,.038842,
.076147,.039132,
.075484,.03931,
.074799,.03937,
-.074799,.03937,
-.075484,.03931,
-.076147,.039132,
-.07677,.038842,
-.077332,.038448,
-.077818,.037962,
-.078212,.0374,
-.078502,.036777,
-.07868,.036113,
-.07874,.035429,
-.07874,-.035429,
-.07868,-.036113,
-.078502,-.036777,
-.078212,-.0374,
-.077818,-.037962,
-.077332,-.038448,
-.07677,-.038842,
-.076147,-.039132,
-.075484,-.03931,
-.074799,-.03937,
0.0*
%
%ADD38MACRO38*%
%AMMACRO37*
4,1,44,-.023618,.020661,
-.023618,-.020661,
-.023561,-.021346,
-.023383,-.022009,
-.023093,-.022632,
-.022699,-.023195,
-.022214,-.023681,
-.021651,-.024075,
-.021029,-.024366,
-.020365,-.024544,
-.019681,-.024604,
-.019677,-.024602,
.019677,-.024602,
.020362,-.024545,
.021025,-.024367,
.021648,-.024077,
.022211,-.023684,
.022697,-.023198,
.023091,-.022636,
.023382,-.022013,
.02356,-.02135,
.02362,-.020665,
.023618,-.020661,
.023618,.020661,
.023561,.021346,
.023383,.022009,
.023093,.022632,
.022699,.023195,
.022214,.023681,
.021651,.024075,
.021029,.024366,
.020365,.024544,
.019681,.024604,
.019677,.024602,
-.019677,.024602,
-.020362,.024545,
-.021025,.024367,
-.021648,.024077,
-.022211,.023684,
-.022697,.023198,
-.023091,.022636,
-.023382,.022013,
-.02356,.02135,
-.02362,.020665,
-.023618,.020661,
0.0*
%
%ADD37MACRO37*%
%AMMACRO30*
4,1,44,.020661,.023618,
-.020661,.023618,
-.021346,.023561,
-.022009,.023383,
-.022632,.023093,
-.023195,.022699,
-.023681,.022214,
-.024075,.021651,
-.024366,.021029,
-.024544,.020365,
-.024604,.019681,
-.024602,.019677,
-.024602,-.019677,
-.024545,-.020362,
-.024367,-.021025,
-.024077,-.021648,
-.023684,-.022211,
-.023198,-.022697,
-.022636,-.023091,
-.022013,-.023382,
-.02135,-.02356,
-.020665,-.02362,
-.020661,-.023618,
.020661,-.023618,
.021346,-.023561,
.022009,-.023383,
.022632,-.023093,
.023195,-.022699,
.023681,-.022214,
.024075,-.021651,
.024366,-.021029,
.024544,-.020365,
.024604,-.019681,
.024602,-.019677,
.024602,.019677,
.024545,.020362,
.024367,.021025,
.024077,.021648,
.023684,.022211,
.023198,.022697,
.022636,.023091,
.022013,.023382,
.02135,.02356,
.020665,.02362,
.020661,.023618,
0.0*
%
%ADD30MACRO30*%
%AMMACRO21*
4,1,44,.025591,-.045272,
.025591,.045272,
.025531,.045956,
.025354,.04662,
.025064,.047242,
.02467,.047805,
.024184,.048291,
.023622,.048686,
.022999,.048976,
.022336,.049154,
.021652,.049215,
.02165,.049213,
-.02165,.049213,
-.022334,.049155,
-.022997,.048977,
-.02362,.048687,
-.024183,.048293,
-.024669,.047807,
-.025063,.047244,
-.025353,.046622,
-.025531,.045958,
-.025591,.045274,
-.025591,.045272,
-.025591,-.045272,
-.025531,-.045956,
-.025354,-.04662,
-.025064,-.047242,
-.02467,-.047805,
-.024184,-.048291,
-.023622,-.048686,
-.022999,-.048976,
-.022336,-.049154,
-.021652,-.049215,
-.02165,-.049213,
.02165,-.049213,
.022334,-.049155,
.022997,-.048977,
.02362,-.048687,
.024183,-.048293,
.024669,-.047807,
.025063,-.047244,
.025353,-.046622,
.025531,-.045958,
.025591,-.045274,
.025591,-.045272,
0.0*
%
%ADD21MACRO21*%
%AMMACRO16*
4,1,44,-.045272,-.025591,
.045272,-.025591,
.045956,-.025531,
.04662,-.025354,
.047242,-.025064,
.047805,-.02467,
.048291,-.024184,
.048686,-.023622,
.048976,-.022999,
.049154,-.022336,
.049215,-.021652,
.049213,-.02165,
.049213,.02165,
.049155,.022334,
.048977,.022997,
.048687,.02362,
.048293,.024183,
.047807,.024669,
.047244,.025063,
.046622,.025353,
.045958,.025531,
.045274,.025591,
.045272,.025591,
-.045272,.025591,
-.045956,.025531,
-.04662,.025354,
-.047242,.025064,
-.047805,.02467,
-.048291,.024184,
-.048686,.023622,
-.048976,.022999,
-.049154,.022336,
-.049215,.021652,
-.049213,.02165,
-.049213,-.02165,
-.049155,-.022334,
-.048977,-.022997,
-.048687,-.02362,
-.048293,-.024183,
-.047807,-.024669,
-.047244,-.025063,
-.046622,-.025353,
-.045958,-.025531,
-.045274,-.025591,
-.045272,-.025591,
0.0*
%
%ADD16MACRO16*%
%AMMACRO36*
4,1,44,.011807,-.019677,
.011807,.019677,
.01175,.020362,
.011572,.021025,
.011282,.021648,
.010888,.022211,
.010403,.022697,
.00984,.023091,
.009218,.023382,
.008554,.02356,
.00787,.02362,
.007866,.023618,
-.007866,.023618,
-.008551,.023561,
-.009214,.023383,
-.009837,.023093,
-.0104,.022699,
-.010886,.022214,
-.01128,.021651,
-.011571,.021029,
-.011749,.020365,
-.011809,.019681,
-.011807,.019677,
-.011807,-.019677,
-.01175,-.020362,
-.011572,-.021025,
-.011282,-.021648,
-.010888,-.022211,
-.010403,-.022697,
-.00984,-.023091,
-.009218,-.023382,
-.008554,-.02356,
-.00787,-.02362,
-.007866,-.023618,
.007866,-.023618,
.008551,-.023561,
.009214,-.023383,
.009837,-.023093,
.0104,-.022699,
.010886,-.022214,
.01128,-.021651,
.011571,-.021029,
.011749,-.020365,
.011809,-.019681,
.011807,-.019677,
0.0*
%
%ADD36MACRO36*%
%AMMACRO28*
4,1,44,-.019677,-.011807,
.019677,-.011807,
.020362,-.01175,
.021025,-.011572,
.021648,-.011282,
.022211,-.010888,
.022697,-.010403,
.023091,-.00984,
.023382,-.009218,
.02356,-.008554,
.02362,-.00787,
.023618,-.007866,
.023618,.007866,
.023561,.008551,
.023383,.009214,
.023093,.009837,
.022699,.0104,
.022214,.010886,
.021651,.01128,
.021029,.011571,
.020365,.011749,
.019681,.011809,
.019677,.011807,
-.019677,.011807,
-.020362,.01175,
-.021025,.011572,
-.021648,.011282,
-.022211,.010888,
-.022697,.010403,
-.023091,.00984,
-.023382,.009218,
-.02356,.008554,
-.02362,.00787,
-.023618,.007866,
-.023618,-.007866,
-.023561,-.008551,
-.023383,-.009214,
-.023093,-.009837,
-.022699,-.0104,
-.022214,-.010886,
-.021651,-.01128,
-.021029,-.011571,
-.020365,-.011749,
-.019681,-.011809,
-.019677,-.011807,
0.0*
%
%ADD28MACRO28*%
%AMMACRO33*
4,1,44,.027551,.023618,
-.027551,.023618,
-.028236,.023561,
-.028899,.023383,
-.029522,.023093,
-.030085,.022699,
-.030571,.022214,
-.030965,.021651,
-.031256,.021029,
-.031434,.020365,
-.031494,.019681,
-.031492,.019677,
-.031492,-.019677,
-.031435,-.020362,
-.031257,-.021025,
-.030967,-.021648,
-.030573,-.022211,
-.030088,-.022697,
-.029525,-.023091,
-.028903,-.023382,
-.028239,-.02356,
-.027555,-.02362,
-.027551,-.023618,
.027551,-.023618,
.028236,-.023561,
.028899,-.023383,
.029522,-.023093,
.030085,-.022699,
.030571,-.022214,
.030965,-.021651,
.031256,-.021029,
.031434,-.020365,
.031494,-.019681,
.031492,-.019677,
.031492,.019677,
.031435,.020362,
.031257,.021025,
.030967,.021648,
.030573,.022211,
.030088,.022697,
.029525,.023091,
.028903,.023382,
.028239,.02356,
.027555,.02362,
.027551,.023618,
0.0*
%
%ADD33MACRO33*%
%AMMACRO23*
4,1,44,-.005906,.025587,
-.005906,-.025587,
-.005846,-.026271,
-.005669,-.026935,
-.005379,-.027557,
-.004985,-.02812,
-.004499,-.028606,
-.003937,-.029001,
-.003314,-.029291,
-.002651,-.029469,
-.001967,-.02953,
-.001965,-.029528,
.001965,-.029528,
.002649,-.02947,
.003312,-.029292,
.003935,-.029002,
.004498,-.028608,
.004984,-.028122,
.005378,-.027559,
.005668,-.026936,
.005846,-.026273,
.005906,-.025589,
.005906,-.025587,
.005906,.025587,
.005846,.026271,
.005669,.026935,
.005379,.027557,
.004985,.02812,
.004499,.028606,
.003937,.029001,
.003314,.029291,
.002651,.029469,
.001967,.02953,
.001965,.029528,
-.001965,.029528,
-.002649,.02947,
-.003312,.029292,
-.003935,.029002,
-.004498,.028608,
-.004984,.028122,
-.005378,.027559,
-.005668,.026936,
-.005846,.026273,
-.005906,.025589,
-.005906,.025587,
0.0*
%
%ADD23MACRO23*%
%AMMACRO18*
4,1,44,-.015748,.015744,
-.015748,-.015744,
-.01569,-.016428,
-.015512,-.017092,
-.015222,-.017715,
-.014828,-.018277,
-.014342,-.018763,
-.01378,-.019157,
-.013157,-.019447,
-.012493,-.019625,
-.011809,-.019685,
-.011807,-.019685,
.011807,-.019685,
.012491,-.019626,
.013155,-.019448,
.013778,-.019158,
.014341,-.018764,
.014827,-.018279,
.015221,-.017716,
.015512,-.017094,
.01569,-.01643,
.01575,-.015746,
.015748,-.015744,
.015748,.015744,
.01569,.016428,
.015512,.017092,
.015222,.017715,
.014828,.018277,
.014342,.018763,
.01378,.019157,
.013157,.019447,
.012493,.019625,
.011809,.019685,
.011807,.019685,
-.011807,.019685,
-.012491,.019626,
-.013155,.019448,
-.013778,.019158,
-.014341,.018764,
-.014827,.018279,
-.015221,.017716,
-.015512,.017094,
-.01569,.01643,
-.01575,.015746,
-.015748,.015744,
0.0*
%
%ADD18MACRO18*%
%AMMACRO19*
4,1,44,-.007874,.025587,
-.007874,-.025587,
-.007814,-.026271,
-.007637,-.026935,
-.007347,-.027557,
-.006953,-.02812,
-.006468,-.028606,
-.005905,-.029001,
-.005283,-.029291,
-.004619,-.029469,
-.003935,-.02953,
-.003933,-.029528,
.003933,-.029528,
.004617,-.02947,
.005281,-.029292,
.005904,-.029002,
.006466,-.028608,
.006952,-.028122,
.007346,-.027559,
.007636,-.026936,
.007814,-.026273,
.007874,-.025589,
.007874,-.025587,
.007874,.025587,
.007814,.026271,
.007637,.026935,
.007347,.027557,
.006953,.02812,
.006468,.028606,
.005905,.029001,
.005283,.029291,
.004619,.029469,
.003935,.02953,
.003933,.029528,
-.003933,.029528,
-.004617,.02947,
-.005281,.029292,
-.005904,.029002,
-.006466,.028608,
-.006952,.028122,
-.007346,.027559,
-.007636,.026936,
-.007814,.026273,
-.007874,.025589,
-.007874,.025587,
0.0*
%
%ADD19MACRO19*%
%AMMACRO13*
4,1,44,.015744,.015748,
-.015744,.015748,
-.016428,.01569,
-.017092,.015512,
-.017715,.015222,
-.018277,.014828,
-.018763,.014342,
-.019157,.01378,
-.019447,.013157,
-.019625,.012493,
-.019685,.011809,
-.019685,.011807,
-.019685,-.011807,
-.019626,-.012491,
-.019448,-.013155,
-.019158,-.013778,
-.018764,-.014341,
-.018279,-.014827,
-.017716,-.015221,
-.017094,-.015512,
-.01643,-.01569,
-.015746,-.01575,
-.015744,-.015748,
.015744,-.015748,
.016428,-.01569,
.017092,-.015512,
.017715,-.015222,
.018277,-.014828,
.018763,-.014342,
.019157,-.01378,
.019447,-.013157,
.019625,-.012493,
.019685,-.011809,
.019685,-.011807,
.019685,.011807,
.019626,.012491,
.019448,.013155,
.019158,.013778,
.018764,.014341,
.018279,.014827,
.017716,.015221,
.017094,.015512,
.01643,.01569,
.015746,.01575,
.015744,.015748,
0.0*
%
%ADD13MACRO13*%
%AMMACRO26*
4,1,44,.023618,-.031492,
.023618,.031492,
.023561,.032176,
.023383,.03284,
.023093,.033463,
.022699,.034026,
.022214,.034512,
.021651,.034906,
.021029,.035197,
.020365,.035375,
.019681,.035435,
.019677,.035433,
-.019677,.035433,
-.020362,.035376,
-.021025,.035198,
-.021648,.034908,
-.022211,.034514,
-.022697,.034029,
-.023091,.033466,
-.023382,.032844,
-.02356,.03218,
-.02362,.031496,
-.023618,.031492,
-.023618,-.031492,
-.023561,-.032176,
-.023383,-.03284,
-.023093,-.033463,
-.022699,-.034026,
-.022214,-.034512,
-.021651,-.034906,
-.021029,-.035197,
-.020365,-.035375,
-.019681,-.035435,
-.019677,-.035433,
.019677,-.035433,
.020362,-.035376,
.021025,-.035198,
.021648,-.034908,
.022211,-.034514,
.022697,-.034029,
.023091,-.033466,
.023382,-.032844,
.02356,-.03218,
.02362,-.031496,
.023618,-.031492,
0.0*
%
%ADD26MACRO26*%
%AMMACRO11*
4,1,44,-.011807,.025587,
-.011807,-.025587,
-.01175,-.026271,
-.011572,-.026935,
-.011282,-.027557,
-.010888,-.02812,
-.010403,-.028606,
-.00984,-.029001,
-.009218,-.029291,
-.008554,-.029469,
-.00787,-.02953,
-.007866,-.029528,
.007866,-.029528,
.008551,-.02947,
.009214,-.029293,
.009837,-.029003,
.0104,-.028609,
.010886,-.028123,
.01128,-.027561,
.011571,-.026938,
.011749,-.026275,
.011809,-.025591,
.011807,-.025587,
.011807,.025587,
.01175,.026271,
.011572,.026935,
.011282,.027557,
.010888,.02812,
.010403,.028606,
.00984,.029001,
.009218,.029291,
.008554,.029469,
.00787,.02953,
.007866,.029528,
-.007866,.029528,
-.008551,.02947,
-.009214,.029293,
-.009837,.029003,
-.0104,.028609,
-.010886,.028123,
-.01128,.027561,
-.011571,.026938,
-.011749,.026275,
-.011809,.025591,
-.011807,.025587,
0.0*
%
%ADD11MACRO11*%
%AMMACRO32*
4,1,44,.025587,.011807,
-.025587,.011807,
-.026271,.01175,
-.026935,.011572,
-.027557,.011282,
-.02812,.010888,
-.028606,.010403,
-.029001,.00984,
-.029291,.009218,
-.029469,.008554,
-.02953,.00787,
-.029528,.007866,
-.029528,-.007866,
-.02947,-.008551,
-.029293,-.009214,
-.029003,-.009837,
-.028609,-.0104,
-.028123,-.010886,
-.027561,-.01128,
-.026938,-.011571,
-.026275,-.011749,
-.025591,-.011809,
-.025587,-.011807,
.025587,-.011807,
.026271,-.01175,
.026935,-.011572,
.027557,-.011282,
.02812,-.010888,
.028606,-.010403,
.029001,-.00984,
.029291,-.009218,
.029469,-.008554,
.02953,-.00787,
.029528,-.007866,
.029528,.007866,
.02947,.008551,
.029293,.009214,
.029003,.009837,
.028609,.0104,
.028123,.010886,
.027561,.01128,
.026938,.011571,
.026275,.011749,
.025591,.011809,
.025587,.011807,
0.0*
%
%ADD32MACRO32*%
%AMMACRO35*
4,1,40,-.03937,.035429,
-.03937,-.035429,
-.03931,-.036113,
-.039132,-.036777,
-.038842,-.0374,
-.038448,-.037962,
-.037962,-.038448,
-.0374,-.038842,
-.036777,-.039132,
-.036113,-.03931,
-.035429,-.03937,
.035429,-.03937,
.036113,-.03931,
.036777,-.039132,
.0374,-.038842,
.037962,-.038448,
.038448,-.037962,
.038842,-.0374,
.039132,-.036777,
.03931,-.036113,
.03937,-.035429,
.03937,.035429,
.03931,.036113,
.039132,.036777,
.038842,.0374,
.038448,.037962,
.037962,.038448,
.0374,.038842,
.036777,.039132,
.036113,.03931,
.035429,.03937,
-.035429,.03937,
-.036113,.03931,
-.036777,.039132,
-.0374,.038842,
-.037962,.038448,
-.038448,.037962,
-.038842,.0374,
-.039132,.036777,
-.03931,.036113,
-.03937,.035429,
0.0*
%
%ADD35MACRO35*%
%AMMACRO10*
4,1,40,.035429,.03937,
-.035429,.03937,
-.036113,.03931,
-.036777,.039132,
-.0374,.038842,
-.037962,.038448,
-.038448,.037962,
-.038842,.0374,
-.039132,.036777,
-.03931,.036113,
-.03937,.035429,
-.03937,-.035429,
-.03931,-.036113,
-.039132,-.036777,
-.038842,-.0374,
-.038448,-.037962,
-.037962,-.038448,
-.0374,-.038842,
-.036777,-.039132,
-.036113,-.03931,
-.035429,-.03937,
.035429,-.03937,
.036113,-.03931,
.036777,-.039132,
.0374,-.038842,
.037962,-.038448,
.038448,-.037962,
.038842,-.0374,
.039132,-.036777,
.03931,-.036113,
.03937,-.035429,
.03937,.035429,
.03931,.036113,
.039132,.036777,
.038842,.0374,
.038448,.037962,
.037962,.038448,
.0374,.038842,
.036777,.039132,
.036113,.03931,
.035429,.03937,
0.0*
%
%ADD10MACRO10*%
%AMMACRO34*
4,1,44,-.027551,-.023618,
.027551,-.023618,
.028236,-.023561,
.028899,-.023383,
.029522,-.023093,
.030085,-.022699,
.030571,-.022214,
.030965,-.021651,
.031256,-.021029,
.031434,-.020365,
.031494,-.019681,
.031492,-.019677,
.031492,.019677,
.031435,.020362,
.031257,.021025,
.030967,.021648,
.030573,.022211,
.030088,.022697,
.029525,.023091,
.028903,.023382,
.028239,.02356,
.027555,.02362,
.027551,.023618,
-.027551,.023618,
-.028236,.023561,
-.028899,.023383,
-.029522,.023093,
-.030085,.022699,
-.030571,.022214,
-.030965,.021651,
-.031256,.021029,
-.031434,.020365,
-.031494,.019681,
-.031492,.019677,
-.031492,-.019677,
-.031435,-.020362,
-.031257,-.021025,
-.030967,-.021648,
-.030573,-.022211,
-.030088,-.022697,
-.029525,-.023091,
-.028903,-.023382,
-.028239,-.02356,
-.027555,-.02362,
-.027551,-.023618,
0.0*
%
%ADD34MACRO34*%
%AMMACRO24*
4,1,44,-.025587,-.005906,
.025587,-.005906,
.026271,-.005846,
.026935,-.005669,
.027557,-.005379,
.02812,-.004985,
.028606,-.004499,
.029001,-.003937,
.029291,-.003314,
.029469,-.002651,
.02953,-.001967,
.029528,-.001965,
.029528,.001965,
.02947,.002649,
.029292,.003312,
.029002,.003935,
.028608,.004498,
.028122,.004984,
.027559,.005378,
.026936,.005668,
.026273,.005846,
.025589,.005906,
.025587,.005906,
-.025587,.005906,
-.026271,.005846,
-.026935,.005669,
-.027557,.005379,
-.02812,.004985,
-.028606,.004499,
-.029001,.003937,
-.029291,.003314,
-.029469,.002651,
-.02953,.001967,
-.029528,.001965,
-.029528,-.001965,
-.02947,-.002649,
-.029292,-.003312,
-.029002,-.003935,
-.028608,-.004498,
-.028122,-.004984,
-.027559,-.005378,
-.026936,-.005668,
-.026273,-.005846,
-.025589,-.005906,
-.025587,-.005906,
0.0*
%
%ADD24MACRO24*%
%AMMACRO14*
4,1,44,.015748,-.015744,
.015748,.015744,
.01569,.016428,
.015512,.017092,
.015222,.017715,
.014828,.018277,
.014342,.018763,
.01378,.019157,
.013157,.019447,
.012493,.019625,
.011809,.019685,
.011807,.019685,
-.011807,.019685,
-.012491,.019626,
-.013155,.019448,
-.013778,.019158,
-.014341,.018764,
-.014827,.018279,
-.015221,.017716,
-.015512,.017094,
-.01569,.01643,
-.01575,.015746,
-.015748,.015744,
-.015748,-.015744,
-.01569,-.016428,
-.015512,-.017092,
-.015222,-.017715,
-.014828,-.018277,
-.014342,-.018763,
-.01378,-.019157,
-.013157,-.019447,
-.012493,-.019625,
-.011809,-.019685,
-.011807,-.019685,
.011807,-.019685,
.012491,-.019626,
.013155,-.019448,
.013778,-.019158,
.014341,-.018764,
.014827,-.018279,
.015221,-.017716,
.015512,-.017094,
.01569,-.01643,
.01575,-.015746,
.015748,-.015744,
0.0*
%
%ADD14MACRO14*%
%AMMACRO12*
4,1,44,-.015744,-.015748,
.015744,-.015748,
.016428,-.01569,
.017092,-.015512,
.017715,-.015222,
.018277,-.014828,
.018763,-.014342,
.019157,-.01378,
.019447,-.013157,
.019625,-.012493,
.019685,-.011809,
.019685,-.011807,
.019685,.011807,
.019626,.012491,
.019448,.013155,
.019158,.013778,
.018764,.014341,
.018279,.014827,
.017716,.015221,
.017094,.015512,
.01643,.01569,
.015746,.01575,
.015744,.015748,
-.015744,.015748,
-.016428,.01569,
-.017092,.015512,
-.017715,.015222,
-.018277,.014828,
-.018763,.014342,
-.019157,.01378,
-.019447,.013157,
-.019625,.012493,
-.019685,.011809,
-.019685,.011807,
-.019685,-.011807,
-.019626,-.012491,
-.019448,-.013155,
-.019158,-.013778,
-.018764,-.014341,
-.018279,-.014827,
-.017716,-.015221,
-.017094,-.015512,
-.01643,-.01569,
-.015746,-.01575,
-.015744,-.015748,
0.0*
%
%ADD12MACRO12*%
%AMMACRO20*
4,1,44,-.025591,.045272,
-.025591,-.045272,
-.025531,-.045956,
-.025354,-.04662,
-.025064,-.047242,
-.02467,-.047805,
-.024184,-.048291,
-.023622,-.048686,
-.022999,-.048976,
-.022336,-.049154,
-.021652,-.049215,
-.02165,-.049213,
.02165,-.049213,
.022334,-.049155,
.022997,-.048977,
.02362,-.048687,
.024183,-.048293,
.024669,-.047807,
.025063,-.047244,
.025353,-.046622,
.025531,-.045958,
.025591,-.045274,
.025591,-.045272,
.025591,.045272,
.025531,.045956,
.025354,.04662,
.025064,.047242,
.02467,.047805,
.024184,.048291,
.023622,.048686,
.022999,.048976,
.022336,.049154,
.021652,.049215,
.02165,.049213,
-.02165,.049213,
-.022334,.049155,
-.022997,.048977,
-.02362,.048687,
-.024183,.048293,
-.024669,.047807,
-.025063,.047244,
-.025353,.046622,
-.025531,.045958,
-.025591,.045274,
-.025591,.045272,
0.0*
%
%ADD20MACRO20*%
%AMMACRO22*
4,1,44,-.011807,.019677,
-.011807,-.019677,
-.01175,-.020362,
-.011572,-.021025,
-.011282,-.021648,
-.010888,-.022211,
-.010403,-.022697,
-.00984,-.023091,
-.009218,-.023382,
-.008554,-.02356,
-.00787,-.02362,
-.007866,-.023618,
.007866,-.023618,
.008551,-.023561,
.009214,-.023383,
.009837,-.023093,
.0104,-.022699,
.010886,-.022214,
.01128,-.021651,
.011571,-.021029,
.011749,-.020365,
.011809,-.019681,
.011807,-.019677,
.011807,.019677,
.01175,.020362,
.011572,.021025,
.011282,.021648,
.010888,.022211,
.010403,.022697,
.00984,.023091,
.009218,.023382,
.008554,.02356,
.00787,.02362,
.007866,.023618,
-.007866,.023618,
-.008551,.023561,
-.009214,.023383,
-.009837,.023093,
-.0104,.022699,
-.010886,.022214,
-.01128,.021651,
-.011571,.021029,
-.011749,.020365,
-.011809,.019681,
-.011807,.019677,
0.0*
%
%ADD22MACRO22*%
%AMMACRO17*
4,1,44,.045272,.025591,
-.045272,.025591,
-.045956,.025531,
-.04662,.025354,
-.047242,.025064,
-.047805,.02467,
-.048291,.024184,
-.048686,.023622,
-.048976,.022999,
-.049154,.022336,
-.049215,.021652,
-.049213,.02165,
-.049213,-.02165,
-.049155,-.022334,
-.048977,-.022997,
-.048687,-.02362,
-.048293,-.024183,
-.047807,-.024669,
-.047244,-.025063,
-.046622,-.025353,
-.045958,-.025531,
-.045274,-.025591,
-.045272,-.025591,
.045272,-.025591,
.045956,-.025531,
.04662,-.025354,
.047242,-.025064,
.047805,-.02467,
.048291,-.024184,
.048686,-.023622,
.048976,-.022999,
.049154,-.022336,
.049215,-.021652,
.049213,-.02165,
.049213,.02165,
.049155,.022334,
.048977,.022997,
.048687,.02362,
.048293,.024183,
.047807,.024669,
.047244,.025063,
.046622,.025353,
.045958,.025531,
.045274,.025591,
.045272,.025591,
0.0*
%
%ADD17MACRO17*%
%AMMACRO29*
4,1,44,.019677,.011807,
-.019677,.011807,
-.020362,.01175,
-.021025,.011572,
-.021648,.011282,
-.022211,.010888,
-.022697,.010403,
-.023091,.00984,
-.023382,.009218,
-.02356,.008554,
-.02362,.00787,
-.023618,.007866,
-.023618,-.007866,
-.023561,-.008551,
-.023383,-.009214,
-.023093,-.009837,
-.022699,-.0104,
-.022214,-.010886,
-.021651,-.01128,
-.021029,-.011571,
-.020365,-.011749,
-.019681,-.011809,
-.019677,-.011807,
.019677,-.011807,
.020362,-.01175,
.021025,-.011572,
.021648,-.011282,
.022211,-.010888,
.022697,-.010403,
.023091,-.00984,
.023382,-.009218,
.02356,-.008554,
.02362,-.00787,
.023618,-.007866,
.023618,.007866,
.023561,.008551,
.023383,.009214,
.023093,.009837,
.022699,.0104,
.022214,.010886,
.021651,.01128,
.021029,.011571,
.020365,.011749,
.019681,.011809,
.019677,.011807,
0.0*
%
%ADD29MACRO29*%
%ADD39C,.004*%
G75*
%LPD*%
G75*
G54D10*
X13976Y107283D03*
X32087D03*
X61220D03*
X79331D03*
G54D20*
X149606Y48228D03*
X196850D03*
X226378D03*
X409449Y65945D03*
G54D11*
X22126Y123012D03*
X12126D03*
X22126Y150571D03*
X12126D03*
X59370Y123012D03*
Y150571D03*
X69370Y123012D03*
Y150571D03*
G54D12*
X31693Y136811D03*
X30512Y130906D03*
X31693Y142717D03*
X37992Y136811D03*
X39173Y130906D03*
X37992Y142717D03*
X78937Y136811D03*
X85236D03*
X86417Y130906D03*
X77756D03*
X78937Y142717D03*
X85236D03*
X132087Y160433D03*
X138386D03*
X161614D03*
X167913D03*
X191142D03*
X197441D03*
X250197Y130906D03*
X256496D03*
X250197Y136811D03*
X256496D03*
X250197Y142717D03*
X256496D03*
X279724Y136811D03*
X286024D03*
X279724Y130906D03*
X286024D03*
X279724Y125000D03*
X286024D03*
X279724Y152559D03*
X286024D03*
X279724Y142717D03*
X286024D03*
X315157Y176181D03*
X321457D03*
G54D21*
X168110Y48228D03*
X215354D03*
X244882D03*
X427953Y65945D03*
G54D30*
X403346Y54134D03*
X410433D03*
X421063D03*
X428150D03*
G54D22*
X178740Y53346D03*
X182480Y43110D03*
X186220Y53346D03*
X179921Y106496D03*
X183661Y96260D03*
X187402Y106496D03*
X434646Y96260D03*
Y106496D03*
X438386Y96260D03*
Y106496D03*
X442126Y96260D03*
Y106496D03*
G54D13*
X31693Y148622D03*
X37992D03*
X61220Y184055D03*
Y189961D03*
Y178150D03*
X85236Y148622D03*
X78937D03*
X67520Y184055D03*
Y189961D03*
Y178150D03*
X256496Y125000D03*
X250197D03*
X286024Y176181D03*
X279724D03*
X315157Y168307D03*
Y160433D03*
Y152559D03*
X321457Y168307D03*
Y160433D03*
Y152559D03*
X362795Y121063D03*
X356496D03*
X362795Y128937D03*
X356496D03*
X362795Y176181D03*
X356496D03*
X362795Y184055D03*
X356496D03*
G54D31*
X427756Y79724D03*
X409646D03*
G54D14*
X58465Y212402D03*
Y218701D03*
X82087Y68701D03*
Y75000D03*
X76181Y68701D03*
Y75000D03*
X87992Y212402D03*
Y218701D03*
X70276Y212402D03*
Y218701D03*
X111614Y68701D03*
Y75000D03*
X105709Y68701D03*
Y75000D03*
X117520Y212402D03*
Y218701D03*
X99803Y212402D03*
Y218701D03*
X141142Y68701D03*
Y75000D03*
X135236Y68701D03*
Y75000D03*
X147047Y212402D03*
Y218701D03*
X129331Y212402D03*
Y218701D03*
X164764Y68701D03*
Y75000D03*
X170669Y68701D03*
Y75000D03*
X162795Y212402D03*
Y218701D03*
X200197Y110039D03*
Y116339D03*
X182480Y115945D03*
Y122244D03*
X188386Y115945D03*
Y122244D03*
X176575Y212402D03*
Y218701D03*
X188386Y212402D03*
Y218701D03*
X223819Y68701D03*
Y75000D03*
X229724Y68701D03*
Y75000D03*
X206102Y110039D03*
Y116339D03*
Y212402D03*
Y218701D03*
X217913Y212402D03*
Y218701D03*
X235630Y212402D03*
Y218701D03*
X247441Y212402D03*
Y218701D03*
X282874Y68701D03*
Y75000D03*
X265157Y212402D03*
Y218701D03*
X276969Y212402D03*
Y218701D03*
X288780Y68701D03*
Y75000D03*
X294685Y212402D03*
Y218701D03*
X306496Y212402D03*
Y218701D03*
X324213Y212402D03*
Y218701D03*
X336024Y212402D03*
Y218701D03*
X371457Y106102D03*
Y112402D03*
Y161220D03*
Y167520D03*
X353740Y212402D03*
Y218701D03*
X365551Y212402D03*
Y218701D03*
X377362Y106102D03*
Y112402D03*
X383268Y161220D03*
Y167520D03*
X377362Y192717D03*
X395079D03*
X383268D03*
X377362Y199016D03*
X395079D03*
X383268D03*
X395079Y212402D03*
Y218701D03*
X442323Y121850D03*
Y128150D03*
X430512Y141535D03*
Y147835D03*
X454134Y165157D03*
Y141535D03*
Y147835D03*
Y171457D03*
X465945Y184843D03*
Y191142D03*
X460039Y184843D03*
Y191142D03*
G54D32*
X413819Y164744D03*
Y169744D03*
Y174744D03*
Y179744D03*
X435394Y164744D03*
Y179744D03*
Y174744D03*
Y169744D03*
G54D23*
X230709Y152559D03*
Y187992D03*
X252362Y152559D03*
X250394D03*
X248425D03*
X246457D03*
X244488D03*
X242520D03*
X240551D03*
X238583D03*
X236614D03*
X234646D03*
X232677D03*
Y187992D03*
X234646D03*
X236614D03*
X238583D03*
X240551D03*
X242520D03*
X244488D03*
X246457D03*
X248425D03*
X250394D03*
X252362D03*
G54D24*
X223819Y159449D03*
Y161417D03*
Y163386D03*
Y165354D03*
Y167323D03*
Y169291D03*
Y171260D03*
Y173228D03*
Y175197D03*
Y177165D03*
Y179134D03*
Y181102D03*
X259252Y167323D03*
Y165354D03*
Y163386D03*
Y161417D03*
Y159449D03*
Y181102D03*
Y179134D03*
Y177165D03*
Y175197D03*
Y173228D03*
Y171260D03*
Y169291D03*
G54D33*
X438386Y77756D03*
G54D15*
X55433Y229350D03*
Y256909D03*
X86929Y229350D03*
X65433D03*
X86929Y256909D03*
X65433D03*
X116535Y229350D03*
X96929D03*
X116535Y256909D03*
X96929D03*
X146535Y229350D03*
X126535D03*
X146535Y256909D03*
X126535D03*
X156535Y229350D03*
Y256909D03*
X176535Y229350D03*
X186535D03*
X176535Y256909D03*
X186535D03*
X206535Y229350D03*
X216535D03*
X206535Y256909D03*
X216535D03*
X256752Y90591D03*
X251752D03*
Y112165D03*
X256752D03*
X236535Y229350D03*
X246535D03*
X236535Y256909D03*
X246535D03*
X266752Y90591D03*
X261752D03*
Y112165D03*
X266752D03*
X266535Y229350D03*
X276535D03*
X266535Y256909D03*
X276535D03*
X296535Y229350D03*
X306535D03*
X296535Y256909D03*
X306535D03*
X326535Y229350D03*
X336535D03*
X326535Y256909D03*
X336535D03*
X356535Y229350D03*
X366535D03*
X356535Y256909D03*
X366535D03*
G54D34*
X438386Y65945D03*
G54D16*
X61535Y273228D03*
X91535D03*
X121535D03*
X151535D03*
X181535D03*
X211535D03*
X241535D03*
X271535D03*
X301535D03*
X347835Y92126D03*
Y147244D03*
X331535Y273228D03*
X361535D03*
X426575D03*
X439173D03*
G54D25*
X286024Y160236D03*
Y168504D03*
X279724Y160236D03*
Y168504D03*
G54D17*
X61535Y291732D03*
X91535D03*
X121535D03*
X151535D03*
X181535D03*
X211535D03*
X241535D03*
X271535D03*
X301535D03*
X347835Y110630D03*
Y165748D03*
X331535Y291732D03*
X361535D03*
X426575D03*
X439173D03*
G54D35*
X450197Y62795D03*
Y80906D03*
G54D26*
X300591Y147047D03*
Y173819D03*
G54D18*
X64370Y218701D03*
Y212402D03*
X93898Y218701D03*
Y212402D03*
X135236Y110039D03*
X129331D03*
X135236Y116339D03*
X129331D03*
X123425Y218701D03*
Y212402D03*
X154921Y218701D03*
Y212402D03*
X182480Y218701D03*
Y212402D03*
X212008Y218701D03*
Y212402D03*
X241535Y218701D03*
Y212402D03*
X282874Y98622D03*
Y92323D03*
X276969Y98622D03*
Y92323D03*
X271063Y218701D03*
Y212402D03*
X288780Y98622D03*
Y92323D03*
X300591Y218701D03*
Y212402D03*
X336024Y112402D03*
Y106102D03*
Y96654D03*
Y90354D03*
Y167520D03*
Y161220D03*
Y151772D03*
Y145472D03*
X330118Y218701D03*
Y212402D03*
X371457Y89173D03*
Y97835D03*
Y144291D03*
Y152953D03*
X359646Y218701D03*
Y212402D03*
X383268Y112402D03*
Y106102D03*
X377362Y167520D03*
Y161220D03*
X389173Y192717D03*
Y199016D03*
X377362Y218701D03*
Y212402D03*
X383268Y218701D03*
Y212402D03*
X389173Y218701D03*
Y212402D03*
X424606Y104528D03*
Y98228D03*
X418701Y97047D03*
Y105709D03*
X450197Y104528D03*
Y98228D03*
X436417Y128150D03*
Y121850D03*
X430512Y128150D03*
Y121850D03*
X454134Y191142D03*
Y184843D03*
X465945Y165157D03*
X460039Y147835D03*
Y141535D03*
X465945Y147835D03*
Y141535D03*
X460039Y165157D03*
X465945Y171457D03*
X460039D03*
G54D36*
X446063Y139567D03*
X442323D03*
X438583D03*
X446063Y149803D03*
X438583D03*
G54D27*
X359646Y110433D03*
Y92323D03*
Y165551D03*
Y147441D03*
X462008Y80906D03*
Y62795D03*
G54D19*
X118012Y95472D03*
X115453D03*
X112894D03*
X110335D03*
X107776D03*
X105217D03*
X102657D03*
Y119094D03*
X105217D03*
X107776D03*
X110335D03*
X112894D03*
X115453D03*
X118012D03*
X120571Y95472D03*
Y119094D03*
X230217Y95472D03*
X227657D03*
X225098D03*
X222539D03*
X219980D03*
X217421D03*
X214862D03*
Y119094D03*
X217421D03*
X219980D03*
X222539D03*
X225098D03*
X227657D03*
X230217D03*
X232776Y95472D03*
Y119094D03*
G54D28*
X372244Y121260D03*
Y128740D03*
Y176378D03*
Y183858D03*
X382480Y125000D03*
Y180118D03*
G54D37*
X450197Y121457D03*
Y128543D03*
G54D29*
X388386Y97244D03*
X378150Y93504D03*
X388386Y89764D03*
Y152362D03*
X378150Y148622D03*
X388386Y144882D03*
G54D38*
X465945Y109252D03*
Y93504D03*
G54D39*
G01X7874Y0D02*
X475197D01*
G03X483071Y7874I0J7874D01*
G01Y336614D01*
G03X475197Y344488I-7874J0D01*
G01X7874D01*
G03X0Y336614I0J-7874D01*
G01Y7874D01*
G03X7874Y0I7874J0D01*
M02*
