G04 ================== begin FILE IDENTIFICATION RECORD ==================*
G04 Layout Name:  D:/Project/2018/CentralizedMonitoringSystem/hardware/allegro/CMS.brd*
G04 Film Name:    SILK_BOTTOM*
G04 File Format:  Gerber RS274X*
G04 File Origin:  Cadence Allegro 17.2-S045*
G04 Origin Date:  Thu Oct 18 23:26:27 2018*
G04 *
G04 Layer:  REF DES/SILKSCREEN_BOTTOM*
G04 Layer:  PACKAGE GEOMETRY/SILKSCREEN_BOTTOM*
G04 Layer:  BOARD GEOMETRY/SILKSCREEN_BOTTOM*
G04 Layer:  BOARD GEOMETRY/OUTLINE*
G04 *
G04 Offset:    (0.000 0.000)*
G04 Mirror:    No*
G04 Mode:      Positive*
G04 Rotation:  0*
G04 FullContactRelief:  No*
G04 UndefLineWidth:     4.000*
G04 ================== end FILE IDENTIFICATION RECORD ====================*
%FSLAX25Y25*MOIN*%
%IR0*IPPOS*OFA0.00000B0.00000*MIA0B0*SFA1.00000B1.00000*%
%ADD10C,.005*%
%ADD11C,.005906*%
%ADD12C,.004*%
G75*
%LPD*%
G75*
G54D10*
G01X65955Y313976D02*
Y317076D01*
X64997D01*
X64690Y316921D01*
X64499Y316715D01*
X64422Y316301D01*
X64499Y315888D01*
X64729Y315630D01*
X64997Y315475D01*
X65955D01*
G01X64997D02*
X64422Y313976D01*
G01X62089D02*
Y317076D01*
X62549Y316456D01*
G01Y313976D02*
X61629D01*
G01X58989D02*
Y317076D01*
X59449Y316456D01*
G01Y313976D02*
X58529D01*
G01X55889Y317076D02*
X56195Y316973D01*
X56425Y316715D01*
X56579Y316405D01*
X56694Y315991D01*
X56732Y315526D01*
X56694Y315061D01*
X56579Y314648D01*
X56425Y314338D01*
X56195Y314080D01*
X55889Y313976D01*
X55582Y314080D01*
X55352Y314338D01*
X55199Y314648D01*
X55084Y315061D01*
X55045Y315526D01*
X55084Y315991D01*
X55199Y316405D01*
X55352Y316715D01*
X55582Y316973D01*
X55889Y317076D01*
G01X95483Y313976D02*
Y317076D01*
X94524D01*
X94218Y316921D01*
X94026Y316715D01*
X93949Y316301D01*
X94026Y315888D01*
X94256Y315630D01*
X94524Y315475D01*
X95483D01*
G01X94524D02*
X93949Y313976D01*
G01X91616D02*
Y317076D01*
X92076Y316456D01*
G01Y313976D02*
X91156D01*
G01X88516Y317076D02*
X88823Y316973D01*
X89053Y316715D01*
X89206Y316405D01*
X89321Y315991D01*
X89359Y315526D01*
X89321Y315061D01*
X89206Y314648D01*
X89053Y314338D01*
X88823Y314080D01*
X88516Y313976D01*
X88210Y314080D01*
X87979Y314338D01*
X87826Y314648D01*
X87711Y315061D01*
X87673Y315526D01*
X87711Y315991D01*
X87826Y316405D01*
X87979Y316715D01*
X88210Y316973D01*
X88516Y317076D01*
G01X86068Y314338D02*
X85800Y314080D01*
X85493Y313976D01*
X85186Y314080D01*
X84918Y314390D01*
X84726Y314855D01*
X84649Y315320D01*
Y315888D01*
X84726Y316353D01*
X84918Y316766D01*
X85148Y316973D01*
X85416Y317076D01*
X85723Y316973D01*
X85953Y316766D01*
X86106Y316456D01*
X86183Y316043D01*
X86106Y315681D01*
X85914Y315320D01*
X85684Y315113D01*
X85416Y315061D01*
X85110Y315165D01*
X84879Y315423D01*
X84649Y315888D01*
G01X126979Y313976D02*
Y317076D01*
X126020D01*
X125714Y316921D01*
X125522Y316715D01*
X125445Y316301D01*
X125522Y315888D01*
X125752Y315630D01*
X126020Y315475D01*
X126979D01*
G01X126020D02*
X125445Y313976D01*
G01X123112D02*
Y317076D01*
X123572Y316456D01*
G01Y313976D02*
X122652D01*
G01X120012Y317076D02*
X120319Y316973D01*
X120549Y316715D01*
X120702Y316405D01*
X120817Y315991D01*
X120856Y315526D01*
X120817Y315061D01*
X120702Y314648D01*
X120549Y314338D01*
X120319Y314080D01*
X120012Y313976D01*
X119706Y314080D01*
X119476Y314338D01*
X119322Y314648D01*
X119207Y315061D01*
X119169Y315526D01*
X119207Y315991D01*
X119322Y316405D01*
X119476Y316715D01*
X119706Y316973D01*
X120012Y317076D01*
G01X116912Y313976D02*
X116644Y314028D01*
X116337Y314183D01*
X116145Y314441D01*
X116069Y314803D01*
X116145Y315165D01*
X116376Y315475D01*
X116720Y315630D01*
X117104D01*
X117334Y315733D01*
X117526Y315991D01*
X117602Y316353D01*
X117487Y316715D01*
X117219Y316973D01*
X116912Y317076D01*
X116606Y316973D01*
X116337Y316715D01*
X116222Y316353D01*
X116299Y315991D01*
X116491Y315733D01*
X116720Y315630D01*
X117104D01*
X117449Y315475D01*
X117679Y315165D01*
X117756Y314803D01*
X117679Y314441D01*
X117487Y314183D01*
X117180Y314028D01*
X116912Y313976D01*
G01X156507D02*
Y317076D01*
X155548D01*
X155242Y316921D01*
X155050Y316715D01*
X154973Y316301D01*
X155050Y315888D01*
X155280Y315630D01*
X155548Y315475D01*
X156507D01*
G01X155548D02*
X154973Y313976D01*
G01X152640D02*
Y317076D01*
X153100Y316456D01*
G01Y313976D02*
X152180D01*
G01X149540Y317076D02*
X149846Y316973D01*
X150076Y316715D01*
X150230Y316405D01*
X150345Y315991D01*
X150383Y315526D01*
X150345Y315061D01*
X150230Y314648D01*
X150076Y314338D01*
X149846Y314080D01*
X149540Y313976D01*
X149233Y314080D01*
X149003Y314338D01*
X148850Y314648D01*
X148735Y315061D01*
X148696Y315526D01*
X148735Y315991D01*
X148850Y316405D01*
X149003Y316715D01*
X149233Y316973D01*
X149540Y317076D01*
G01X146516Y313976D02*
X146440Y314648D01*
X146325Y315216D01*
X146172Y315733D01*
X145980Y316301D01*
X145673Y317076D01*
X147207D01*
G01X186034Y313976D02*
Y317076D01*
X185076D01*
X184769Y316921D01*
X184577Y316715D01*
X184501Y316301D01*
X184577Y315888D01*
X184807Y315630D01*
X185076Y315475D01*
X186034D01*
G01X185076D02*
X184501Y313976D01*
G01X182167D02*
Y317076D01*
X182627Y316456D01*
G01Y313976D02*
X181707D01*
G01X179067Y317076D02*
X179374Y316973D01*
X179604Y316715D01*
X179757Y316405D01*
X179872Y315991D01*
X179911Y315526D01*
X179872Y315061D01*
X179757Y314648D01*
X179604Y314338D01*
X179374Y314080D01*
X179067Y313976D01*
X178761Y314080D01*
X178531Y314338D01*
X178377Y314648D01*
X178262Y315061D01*
X178224Y315526D01*
X178262Y315991D01*
X178377Y316405D01*
X178531Y316715D01*
X178761Y316973D01*
X179067Y317076D01*
G01X176696Y315268D02*
X176427Y315630D01*
X176197Y315836D01*
X175891Y315940D01*
X175622Y315836D01*
X175431Y315630D01*
X175277Y315320D01*
X175239Y314958D01*
X175277Y314648D01*
X175431Y314338D01*
X175661Y314080D01*
X175929Y313976D01*
X176236Y314080D01*
X176504Y314390D01*
X176657Y314855D01*
X176696Y315371D01*
X176619Y316043D01*
X176504Y316405D01*
X176312Y316766D01*
X176044Y317025D01*
X175776Y317076D01*
X175507Y316973D01*
X175316Y316715D01*
G01X215562Y313976D02*
Y317076D01*
X214603D01*
X214297Y316921D01*
X214105Y316715D01*
X214028Y316301D01*
X214105Y315888D01*
X214335Y315630D01*
X214603Y315475D01*
X215562D01*
G01X214603D02*
X214028Y313976D01*
G01X211695D02*
Y317076D01*
X212155Y316456D01*
G01Y313976D02*
X211235D01*
G01X208595Y317076D02*
X208902Y316973D01*
X209132Y316715D01*
X209285Y316405D01*
X209400Y315991D01*
X209438Y315526D01*
X209400Y315061D01*
X209285Y314648D01*
X209132Y314338D01*
X208902Y314080D01*
X208595Y313976D01*
X208288Y314080D01*
X208058Y314338D01*
X207905Y314648D01*
X207790Y315061D01*
X207752Y315526D01*
X207790Y315991D01*
X207905Y316405D01*
X208058Y316715D01*
X208288Y316973D01*
X208595Y317076D01*
G01X206338Y314441D02*
X206108Y314183D01*
X205840Y314028D01*
X205495Y313976D01*
X205150Y314080D01*
X204882Y314286D01*
X204690Y314648D01*
X204652Y315061D01*
X204728Y315475D01*
X204920Y315733D01*
X205188Y315940D01*
X205457Y315991D01*
X205725Y315940D01*
X206070Y315733D01*
X205955Y317076D01*
X204920D01*
G01X247058Y313976D02*
Y317076D01*
X246099D01*
X245793Y316921D01*
X245601Y316715D01*
X245524Y316301D01*
X245601Y315888D01*
X245831Y315630D01*
X246099Y315475D01*
X247058D01*
G01X246099D02*
X245524Y313976D01*
G01X243191D02*
Y317076D01*
X243651Y316456D01*
G01Y313976D02*
X242731D01*
G01X240091Y317076D02*
X240398Y316973D01*
X240628Y316715D01*
X240781Y316405D01*
X240896Y315991D01*
X240934Y315526D01*
X240896Y315061D01*
X240781Y314648D01*
X240628Y314338D01*
X240398Y314080D01*
X240091Y313976D01*
X239784Y314080D01*
X239554Y314338D01*
X239401Y314648D01*
X239286Y315061D01*
X239248Y315526D01*
X239286Y315991D01*
X239401Y316405D01*
X239554Y316715D01*
X239784Y316973D01*
X240091Y317076D01*
G01X236531Y313976D02*
Y317076D01*
X237949Y314855D01*
X236032D01*
G01X276585Y313976D02*
Y317076D01*
X275627D01*
X275320Y316921D01*
X275128Y316715D01*
X275052Y316301D01*
X275128Y315888D01*
X275358Y315630D01*
X275627Y315475D01*
X276585D01*
G01X275627D02*
X275052Y313976D01*
G01X272718D02*
Y317076D01*
X273178Y316456D01*
G01Y313976D02*
X272259D01*
G01X269618Y317076D02*
X269925Y316973D01*
X270155Y316715D01*
X270308Y316405D01*
X270424Y315991D01*
X270462Y315526D01*
X270424Y315061D01*
X270308Y314648D01*
X270155Y314338D01*
X269925Y314080D01*
X269618Y313976D01*
X269312Y314080D01*
X269082Y314338D01*
X268928Y314648D01*
X268814Y315061D01*
X268775Y315526D01*
X268814Y315991D01*
X268928Y316405D01*
X269082Y316715D01*
X269312Y316973D01*
X269618Y317076D01*
G01X267362Y314596D02*
X267132Y314235D01*
X266825Y314028D01*
X266480Y313976D01*
X266174Y314028D01*
X265867Y314286D01*
X265675Y314596D01*
X265637Y314906D01*
X265714Y315268D01*
X265982Y315526D01*
X266250Y315630D01*
X266595D01*
G01X266250D02*
X266020Y315785D01*
X265828Y316043D01*
X265752Y316353D01*
X265828Y316663D01*
X266020Y316921D01*
X266365Y317076D01*
X266710Y317025D01*
X267055Y316818D01*
G01X306113Y313976D02*
Y317076D01*
X305154D01*
X304848Y316921D01*
X304656Y316715D01*
X304579Y316301D01*
X304656Y315888D01*
X304886Y315630D01*
X305154Y315475D01*
X306113D01*
G01X305154D02*
X304579Y313976D01*
G01X302246D02*
Y317076D01*
X302706Y316456D01*
G01Y313976D02*
X301786D01*
G01X299146Y317076D02*
X299453Y316973D01*
X299683Y316715D01*
X299836Y316405D01*
X299951Y315991D01*
X299989Y315526D01*
X299951Y315061D01*
X299836Y314648D01*
X299683Y314338D01*
X299453Y314080D01*
X299146Y313976D01*
X298840Y314080D01*
X298609Y314338D01*
X298456Y314648D01*
X298341Y315061D01*
X298303Y315526D01*
X298341Y315991D01*
X298456Y316405D01*
X298609Y316715D01*
X298840Y316973D01*
X299146Y317076D01*
G01X296774Y316560D02*
X296544Y316870D01*
X296276Y317025D01*
X295969Y317076D01*
X295586Y316973D01*
X295318Y316715D01*
X295241Y316405D01*
X295279Y316095D01*
X295433Y315836D01*
X296199Y315320D01*
X296544Y314958D01*
X296774Y314441D01*
X296851Y313976D01*
X295241D01*
G01X335640D02*
Y317076D01*
X334682D01*
X334375Y316921D01*
X334184Y316715D01*
X334107Y316301D01*
X334184Y315888D01*
X334414Y315630D01*
X334682Y315475D01*
X335640D01*
G01X334682D02*
X334107Y313976D01*
G01X331774D02*
Y317076D01*
X332234Y316456D01*
G01Y313976D02*
X331314D01*
G01X328674Y317076D02*
X328980Y316973D01*
X329210Y316715D01*
X329364Y316405D01*
X329479Y315991D01*
X329517Y315526D01*
X329479Y315061D01*
X329364Y314648D01*
X329210Y314338D01*
X328980Y314080D01*
X328674Y313976D01*
X328367Y314080D01*
X328137Y314338D01*
X327984Y314648D01*
X327869Y315061D01*
X327830Y315526D01*
X327869Y315991D01*
X327984Y316405D01*
X328137Y316715D01*
X328367Y316973D01*
X328674Y317076D01*
G01X325574Y313976D02*
Y317076D01*
X326034Y316456D01*
G01Y313976D02*
X325114D01*
G01X365168D02*
Y317076D01*
X364210D01*
X363903Y316921D01*
X363711Y316715D01*
X363634Y316301D01*
X363711Y315888D01*
X363941Y315630D01*
X364210Y315475D01*
X365168D01*
G01X364210D02*
X363634Y313976D01*
G01X361301D02*
Y317076D01*
X361761Y316456D01*
G01Y313976D02*
X360841D01*
G01X358201Y317076D02*
X358508Y316973D01*
X358738Y316715D01*
X358891Y316405D01*
X359006Y315991D01*
X359045Y315526D01*
X359006Y315061D01*
X358891Y314648D01*
X358738Y314338D01*
X358508Y314080D01*
X358201Y313976D01*
X357895Y314080D01*
X357664Y314338D01*
X357511Y314648D01*
X357396Y315061D01*
X357358Y315526D01*
X357396Y315991D01*
X357511Y316405D01*
X357664Y316715D01*
X357895Y316973D01*
X358201Y317076D01*
G01X355101D02*
X355408Y316973D01*
X355638Y316715D01*
X355791Y316405D01*
X355906Y315991D01*
X355944Y315526D01*
X355906Y315061D01*
X355791Y314648D01*
X355638Y314338D01*
X355408Y314080D01*
X355101Y313976D01*
X354795Y314080D01*
X354564Y314338D01*
X354411Y314648D01*
X354296Y315061D01*
X354258Y315526D01*
X354296Y315991D01*
X354411Y316405D01*
X354564Y316715D01*
X354795Y316973D01*
X355101Y317076D01*
G01X408475Y298228D02*
Y301328D01*
X407517D01*
X407210Y301173D01*
X407018Y300967D01*
X406942Y300553D01*
X407018Y300140D01*
X407248Y299882D01*
X407517Y299727D01*
X408475D01*
G01X407517D02*
X406942Y298228D01*
G01X404608D02*
Y301328D01*
X405068Y300708D01*
G01Y298228D02*
X404148D01*
G01X401508D02*
Y301328D01*
X401968Y300708D01*
G01Y298228D02*
X401048D01*
G01X398408D02*
Y301328D01*
X398868Y300708D01*
G01Y298228D02*
X397948D01*
G01X394695D02*
Y301328D01*
X393737D01*
X393430Y301173D01*
X393239Y300967D01*
X393162Y300553D01*
X393239Y300140D01*
X393469Y299882D01*
X393737Y299727D01*
X394695D01*
G01X393737D02*
X393162Y298228D01*
G01X390829D02*
Y301328D01*
X391289Y300708D01*
G01Y298228D02*
X390369D01*
G01X387729D02*
Y301328D01*
X388189Y300708D01*
G01Y298228D02*
X387269D01*
G01X385357Y300812D02*
X385127Y301122D01*
X384859Y301277D01*
X384552Y301328D01*
X384169Y301225D01*
X383900Y300967D01*
X383824Y300657D01*
X383862Y300347D01*
X384015Y300088D01*
X384782Y299572D01*
X385127Y299210D01*
X385357Y298693D01*
X385434Y298228D01*
X383824D01*
G54D11*
G01X55827Y289173D02*
Y302953D01*
G01Y307284D02*
Y301575D01*
G01Y289173D02*
Y285630D01*
X67244D01*
Y289173D01*
G01Y307284D02*
Y310827D01*
X55827D01*
Y307284D01*
G01X85827Y289173D02*
Y302953D01*
G01Y307284D02*
Y301575D01*
G01Y289173D02*
Y285630D01*
X97244D01*
Y289173D01*
G01Y307284D02*
Y310827D01*
X85827D01*
Y307284D01*
G01X67244Y301575D02*
Y307284D01*
G01Y302756D02*
Y289173D01*
G01X115827D02*
Y302953D01*
G01Y307284D02*
Y301575D01*
G01Y289173D02*
Y285630D01*
X127244D01*
Y289173D01*
G01Y307284D02*
Y310827D01*
X115827D01*
Y307284D01*
G01X97244Y301575D02*
Y307284D01*
G01Y302756D02*
Y289173D01*
G01X145827D02*
Y302953D01*
G01Y307284D02*
Y301575D01*
G01Y289173D02*
Y285630D01*
X157244D01*
Y289173D01*
G01Y307284D02*
Y310827D01*
X145827D01*
Y307284D01*
G01X127244Y301575D02*
Y307284D01*
G01Y302756D02*
Y289173D01*
G01X157244Y301575D02*
Y307284D01*
G01Y302756D02*
Y289173D01*
G01X175827D02*
Y302953D01*
G01Y307284D02*
Y301575D01*
G01Y289173D02*
Y285630D01*
X187244D01*
Y289173D01*
G01Y307284D02*
Y310827D01*
X175827D01*
Y307284D01*
G01X187244Y301575D02*
Y307284D01*
G01Y302756D02*
Y289173D01*
G01X205827D02*
Y302953D01*
G01Y307284D02*
Y301575D01*
G01Y289173D02*
Y285630D01*
X217244D01*
Y289173D01*
G01Y307284D02*
Y310827D01*
X205827D01*
Y307284D01*
G01X217244Y301575D02*
Y307284D01*
G01Y302756D02*
Y289173D01*
G01X235827D02*
Y302953D01*
G01Y307284D02*
Y301575D01*
G01Y289173D02*
Y285630D01*
X247244D01*
Y289173D01*
G01Y307284D02*
Y310827D01*
X235827D01*
Y307284D01*
G01X247244Y301575D02*
Y307284D01*
G01Y302756D02*
Y289173D01*
G01X265827D02*
Y302953D01*
G01Y307284D02*
Y301575D01*
G01Y289173D02*
Y285630D01*
X277244D01*
Y289173D01*
G01Y307284D02*
Y310827D01*
X265827D01*
Y307284D01*
G01X277244Y301575D02*
Y307284D01*
G01Y302756D02*
Y289173D01*
G01X295827D02*
Y302953D01*
G01Y307284D02*
Y301575D01*
G01Y289173D02*
Y285630D01*
X307244D01*
Y289173D01*
G01Y307284D02*
Y310827D01*
X295827D01*
Y307284D01*
G01X307244Y301575D02*
Y307284D01*
G01Y302756D02*
Y289173D01*
G01X325827D02*
Y302953D01*
G01Y307284D02*
Y301575D01*
G01Y289173D02*
Y285630D01*
X337244D01*
Y289173D01*
G01Y307284D02*
Y310827D01*
X325827D01*
Y307284D01*
G01X337244Y301575D02*
Y307284D01*
G01Y302756D02*
Y289173D01*
G01X355827D02*
Y302953D01*
G01Y307284D02*
Y301575D01*
G01Y289173D02*
Y285630D01*
X367244D01*
Y289173D01*
G01Y307284D02*
Y310827D01*
X355827D01*
Y307284D01*
G01X367244Y301575D02*
Y307284D01*
G01Y302756D02*
Y289173D01*
G01X398032Y273425D02*
Y287205D01*
G01Y273425D02*
Y269882D01*
X409449D01*
Y273425D01*
G01X385433D02*
Y287205D01*
G01Y273425D02*
Y269882D01*
X396850D01*
Y273425D01*
G01Y287008D02*
Y273425D01*
G01X398032Y291535D02*
Y285827D01*
G01X409449Y291535D02*
Y295079D01*
X398032D01*
Y291535D01*
G01X385433D02*
Y285827D01*
G01X396850Y291535D02*
Y295079D01*
X385433D01*
Y291535D01*
G01X396850Y285827D02*
Y291535D01*
G01X409449Y287008D02*
Y273425D01*
G01Y285827D02*
Y291535D01*
G54D12*
G01X7874Y0D02*
X475197D01*
G03X483071Y7874I0J7874D01*
G01Y336614D01*
G03X475197Y344488I-7874J0D01*
G01X7874D01*
G03X0Y336614I0J-7874D01*
G01Y7874D01*
G03X7874Y0I7874J0D01*
M02*
