G04 ================== begin FILE IDENTIFICATION RECORD ==================*
G04 Layout Name:  D:/Project/2018/CentralizedMonitoringSystem/hardware/allegro/CMS.brd*
G04 Film Name:    SOLDERMASK_TOP*
G04 File Format:  Gerber RS274X*
G04 File Origin:  Cadence Allegro 17.2-S037*
G04 Origin Date:  Wed Aug 22 23:57:05 2018*
G04 *
G04 Layer:  VIA CLASS/SOLDERMASK_TOP*
G04 Layer:  PIN/SOLDERMASK_TOP*
G04 Layer:  PACKAGE GEOMETRY/SOLDERMASK_TOP*
G04 Layer:  BOARD GEOMETRY/SOLDERMASK_TOP*
G04 Layer:  BOARD GEOMETRY/OUTLINE*
G04 *
G04 Offset:    (0.000 0.000)*
G04 Mirror:    No*
G04 Mode:      Positive*
G04 Rotation:  0*
G04 FullContactRelief:  No*
G04 UndefLineWidth:     4.000*
G04 ================== end FILE IDENTIFICATION RECORD ====================*
%FSLAX25Y25*MOIN*%
%IR0*IPPOS*OFA0.00000B0.00000*MIA0B0*SFA1.00000B1.00000*%
%AMMACRO33*
4,1,40,-.027553,-.007874,
.027553,-.007874,
.028237,-.007814,
.028901,-.007636,
.029523,-.007346,
.030086,-.006952,
.030572,-.006466,
.030966,-.005904,
.031256,-.005281,
.031434,-.004617,
.031494,-.003933,
.031494,.003933,
.031434,.004617,
.031256,.005281,
.030966,.005903,
.030572,.006466,
.030086,.006952,
.029524,.007346,
.028901,.007636,
.028237,.007814,
.027553,.007874,
-.027553,.007874,
-.028237,.007814,
-.028901,.007636,
-.029524,.007346,
-.030086,.006952,
-.030572,.006466,
-.030966,.005904,
-.031256,.005281,
-.031434,.004617,
-.031494,.003933,
-.031494,-.003933,
-.031434,-.004617,
-.031256,-.005281,
-.030966,-.005903,
-.030572,-.006466,
-.030086,-.006952,
-.029524,-.007346,
-.028901,-.007636,
-.028237,-.007814,
-.027553,-.007874,
0.0*
%
%ADD33MACRO33*%
%AMMACRO21*
4,1,44,.013779,-.027553,
.013779,.027553,
.01372,.028237,
.013542,.028901,
.013252,.029524,
.012857,.030086,
.012372,.030572,
.011809,.030966,
.011186,.031256,
.010523,.031434,
.009839,.031494,
.009838,.031494,
-.009838,.031494,
-.010522,.031434,
-.011186,.031256,
-.011809,.030966,
-.012371,.030572,
-.012857,.030087,
-.013251,.029524,
-.013542,.028901,
-.01372,.028238,
-.013779,.027553,
-.013779,.027553,
-.013779,-.027553,
-.01372,-.028237,
-.013542,-.028901,
-.013252,-.029523,
-.012857,-.030086,
-.012372,-.030572,
-.011809,-.030966,
-.011186,-.031256,
-.010523,-.031434,
-.009839,-.031494,
-.009838,-.031494,
.009838,-.031494,
.010522,-.031434,
.011186,-.031256,
.011809,-.030966,
.012371,-.030572,
.012857,-.030087,
.013251,-.029524,
.013542,-.028901,
.01372,-.028238,
.013779,-.027553,
.013779,-.027553,
0.0*
%
%ADD21MACRO21*%
%ADD24C,.122051*%
%ADD25R,.122051X.122051*%
%ADD10C,.240157*%
%AMMACRO46*
4,1,44,-.02559,.022634,
-.02559,-.022634,
-.025531,-.023318,
-.025353,-.023982,
-.025063,-.024604,
-.024668,-.025167,
-.024183,-.025653,
-.02362,-.026047,
-.022997,-.026337,
-.022334,-.026515,
-.02165,-.026575,
-.021649,-.026575,
.021649,-.026575,
.022333,-.026515,
.022997,-.026337,
.02362,-.026047,
.024182,-.025653,
.024668,-.025168,
.025062,-.024605,
.025353,-.023982,
.025531,-.023319,
.02559,-.022634,
.02559,-.022634,
.02559,.022634,
.025531,.023318,
.025353,.023982,
.025063,.024605,
.024668,.025167,
.024183,.025653,
.02362,.026047,
.022997,.026337,
.022334,.026515,
.021649,.026575,
.021649,.026575,
-.021649,.026575,
-.022333,.026515,
-.022997,.026337,
-.02362,.026047,
-.024182,.025653,
-.024668,.025168,
-.025062,.024605,
-.025353,.023982,
-.025531,.023319,
-.02559,.022634,
-.02559,.022634,
0.0*
%
%ADD46MACRO46*%
%AMMACRO39*
4,1,44,.022634,.02559,
-.022634,.02559,
-.023318,.025531,
-.023982,.025353,
-.024605,.025063,
-.025167,.024668,
-.025653,.024183,
-.026047,.02362,
-.026337,.022997,
-.026515,.022334,
-.026575,.02165,
-.026575,.021649,
-.026575,-.021649,
-.026515,-.022333,
-.026337,-.022997,
-.026047,-.02362,
-.025653,-.024182,
-.025168,-.024668,
-.024605,-.025062,
-.023982,-.025353,
-.023319,-.025531,
-.022634,-.02559,
-.022634,-.02559,
.022634,-.02559,
.023318,-.025531,
.023982,-.025353,
.024604,-.025063,
.025167,-.024668,
.025653,-.024183,
.026047,-.02362,
.026337,-.022997,
.026515,-.022334,
.026575,-.02165,
.026575,-.021649,
.026575,.021649,
.026515,.022333,
.026337,.022997,
.026047,.02362,
.025653,.024182,
.025168,.024668,
.024605,.025062,
.023982,.025353,
.023319,.025531,
.022634,.02559,
.022634,.02559,
0.0*
%
%ADD39MACRO39*%
%AMMACRO30*
4,1,40,.027559,-.047238,
.027559,.047238,
.027499,.047922,
.027321,.048586,
.027031,.049209,
.026637,.049771,
.026151,.050257,
.025589,.050651,
.024966,.050941,
.024302,.051119,
.023618,.051179,
-.023618,.051179,
-.024302,.051119,
-.024966,.050941,
-.025589,.050651,
-.026151,.050257,
-.026637,.049771,
-.027031,.049209,
-.027321,.048586,
-.027499,.047922,
-.027559,.047238,
-.027559,-.047238,
-.027499,-.047922,
-.027321,-.048586,
-.027031,-.049209,
-.026637,-.049771,
-.026151,-.050257,
-.025589,-.050651,
-.024966,-.050941,
-.024302,-.051119,
-.023618,-.051179,
.023618,-.051179,
.024302,-.051119,
.024966,-.050941,
.025588,-.050651,
.026151,-.050257,
.026637,-.049771,
.027031,-.049209,
.027321,-.048586,
.027499,-.047922,
.027559,-.047238,
0.0*
%
%ADD30MACRO30*%
%AMMACRO22*
4,1,40,-.047238,-.027559,
.047238,-.027559,
.047922,-.027499,
.048586,-.027321,
.049209,-.027031,
.049771,-.026637,
.050257,-.026151,
.050651,-.025589,
.050941,-.024966,
.051119,-.024302,
.051179,-.023618,
.051179,.023618,
.051119,.024302,
.050941,.024966,
.050651,.025589,
.050257,.026151,
.049771,.026637,
.049209,.027031,
.048586,.027321,
.047922,.027499,
.047238,.027559,
-.047238,.027559,
-.047922,.027499,
-.048586,.027321,
-.049209,.027031,
-.049771,.026637,
-.050257,.026151,
-.050651,.025589,
-.050941,.024966,
-.051119,.024302,
-.051179,.023618,
-.051179,-.023618,
-.051119,-.024302,
-.050941,-.024966,
-.050651,-.025588,
-.050257,-.026151,
-.049771,-.026637,
-.049209,-.027031,
-.048586,-.027321,
-.047922,-.027499,
-.047238,-.027559,
0.0*
%
%ADD22MACRO22*%
%AMMACRO47*
4,1,44,-.076769,-.04134,
.076769,-.04134,
.077453,-.041281,
.078117,-.041103,
.07874,-.040813,
.079302,-.040419,
.079788,-.039933,
.080182,-.03937,
.080473,-.038748,
.080651,-.038084,
.08071,-.0374,
.08071,-.037399,
.08071,.037399,
.080651,.038083,
.080473,.038747,
.080183,.03937,
.079789,.039932,
.079303,.040418,
.07874,.040812,
.078118,.041103,
.077454,.041281,
.07677,.04134,
.076769,.04134,
-.076769,.04134,
-.077453,.041281,
-.078117,.041103,
-.07874,.040813,
-.079302,.040419,
-.079788,.039933,
-.080182,.03937,
-.080473,.038748,
-.080651,.038084,
-.08071,.0374,
-.08071,.037399,
-.08071,-.037399,
-.080651,-.038083,
-.080473,-.038747,
-.080183,-.03937,
-.079789,-.039932,
-.079303,-.040418,
-.07874,-.040812,
-.078118,-.041103,
-.077454,-.041281,
-.07677,-.04134,
-.076769,-.04134,
0.0*
%
%ADD47MACRO47*%
%AMMACRO27*
4,1,44,-.017714,.017714,
-.017714,-.017714,
-.017655,-.018398,
-.017477,-.019062,
-.017187,-.019685,
-.016793,-.020247,
-.016307,-.020733,
-.015744,-.021127,
-.015122,-.021418,
-.014458,-.021596,
-.013774,-.021655,
-.013773,-.021655,
.013773,-.021655,
.014457,-.021596,
.015121,-.021418,
.015744,-.021128,
.016306,-.020734,
.016792,-.020248,
.017186,-.019685,
.017477,-.019063,
.017655,-.018399,
.017714,-.017715,
.017714,-.017714,
.017714,.017714,
.017655,.018398,
.017477,.019062,
.017187,.019685,
.016793,.020247,
.016307,.020733,
.015744,.021127,
.015122,.021418,
.014458,.021596,
.013774,.021655,
.013773,.021655,
-.013773,.021655,
-.014457,.021596,
-.015121,.021418,
-.015744,.021128,
-.016306,.020734,
-.016792,.020248,
-.017186,.019685,
-.017477,.019063,
-.017655,.018399,
-.017714,.017715,
-.017714,.017714,
0.0*
%
%ADD27MACRO27*%
%AMMACRO14*
4,1,44,.017714,.017714,
-.017714,.017714,
-.018398,.017655,
-.019062,.017477,
-.019685,.017187,
-.020247,.016793,
-.020733,.016307,
-.021127,.015744,
-.021418,.015122,
-.021596,.014458,
-.021655,.013774,
-.021655,.013773,
-.021655,-.013773,
-.021596,-.014457,
-.021418,-.015121,
-.021128,-.015744,
-.020734,-.016306,
-.020248,-.016792,
-.019685,-.017186,
-.019063,-.017477,
-.018399,-.017655,
-.017715,-.017714,
-.017714,-.017714,
.017714,-.017714,
.018398,-.017655,
.019062,-.017477,
.019685,-.017187,
.020247,-.016793,
.020733,-.016307,
.021127,-.015744,
.021418,-.015122,
.021596,-.014458,
.021655,-.013774,
.021655,-.013773,
.021655,.013773,
.021596,.014457,
.021418,.015121,
.021128,.015744,
.020734,.016306,
.020248,.016792,
.019685,.017186,
.019063,.017477,
.018399,.017655,
.017715,.017714,
.017714,.017714,
0.0*
%
%ADD14MACRO14*%
%AMMACRO31*
4,1,44,-.013779,.021649,
-.013779,-.021649,
-.01372,-.022333,
-.013542,-.022997,
-.013252,-.02362,
-.012858,-.024182,
-.012372,-.024668,
-.011809,-.025062,
-.011187,-.025353,
-.010523,-.025531,
-.009839,-.02559,
-.009838,-.02559,
.009838,-.02559,
.010522,-.025531,
.011186,-.025353,
.011809,-.025063,
.012371,-.024669,
.012857,-.024183,
.013251,-.02362,
.013542,-.022998,
.01372,-.022334,
.013779,-.02165,
.013779,-.021649,
.013779,.021649,
.01372,.022333,
.013542,.022997,
.013252,.02362,
.012858,.024182,
.012372,.024668,
.011809,.025062,
.011187,.025353,
.010523,.025531,
.009839,.02559,
.009838,.02559,
-.009838,.02559,
-.010522,.025531,
-.011186,.025353,
-.011809,.025063,
-.012371,.024669,
-.012857,.024183,
-.013251,.02362,
-.013542,.022998,
-.01372,.022334,
-.013779,.02165,
-.013779,.021649,
0.0*
%
%ADD31MACRO31*%
%AMMACRO38*
4,1,44,.021649,.013779,
-.021649,.013779,
-.022333,.01372,
-.022997,.013542,
-.02362,.013252,
-.024182,.012858,
-.024668,.012372,
-.025062,.011809,
-.025353,.011187,
-.025531,.010523,
-.02559,.009839,
-.02559,.009838,
-.02559,-.009838,
-.025531,-.010522,
-.025353,-.011186,
-.025063,-.011809,
-.024669,-.012371,
-.024183,-.012857,
-.02362,-.013251,
-.022998,-.013542,
-.022334,-.01372,
-.02165,-.013779,
-.021649,-.013779,
.021649,-.013779,
.022333,-.01372,
.022997,-.013542,
.02362,-.013252,
.024182,-.012858,
.024668,-.012372,
.025062,-.011809,
.025353,-.011187,
.025531,-.010523,
.02559,-.009839,
.02559,-.009838,
.02559,.009838,
.025531,.010522,
.025353,.011186,
.025063,.011809,
.024669,.012371,
.024183,.012857,
.02362,.013251,
.022998,.013542,
.022334,.01372,
.02165,.013779,
.021649,.013779,
0.0*
%
%ADD38MACRO38*%
%AMMACRO42*
4,1,44,.029523,.02559,
-.029523,.02559,
-.030207,.025531,
-.030871,.025353,
-.031494,.025063,
-.032056,.024669,
-.032542,.024183,
-.032936,.02362,
-.033227,.022998,
-.033405,.022334,
-.033464,.02165,
-.033464,.021649,
-.033464,-.021649,
-.033405,-.022333,
-.033227,-.022997,
-.032937,-.02362,
-.032543,-.024182,
-.032057,-.024668,
-.031494,-.025062,
-.030872,-.025353,
-.030208,-.025531,
-.029524,-.02559,
-.029523,-.02559,
.029523,-.02559,
.030207,-.025531,
.030871,-.025353,
.031494,-.025063,
.032056,-.024669,
.032542,-.024183,
.032936,-.02362,
.033227,-.022998,
.033405,-.022334,
.033464,-.02165,
.033464,-.021649,
.033464,.021649,
.033405,.022333,
.033227,.022997,
.032937,.02362,
.032543,.024182,
.032057,.024668,
.031494,.025062,
.030872,.025353,
.030208,.025531,
.029524,.02559,
.029523,.02559,
0.0*
%
%ADD42MACRO42*%
%AMMACRO44*
4,1,44,-.04134,.037399,
-.04134,-.037399,
-.041281,-.038083,
-.041103,-.038747,
-.040813,-.03937,
-.040419,-.039932,
-.039933,-.040418,
-.03937,-.040812,
-.038748,-.041103,
-.038084,-.041281,
-.0374,-.04134,
-.037399,-.04134,
.037399,-.04134,
.038083,-.041281,
.038747,-.041103,
.03937,-.040813,
.039932,-.040419,
.040418,-.039933,
.040812,-.03937,
.041103,-.038748,
.041281,-.038084,
.04134,-.0374,
.04134,-.037399,
.04134,.037399,
.041281,.038083,
.041103,.038747,
.040813,.03937,
.040419,.039932,
.039933,.040418,
.03937,.040812,
.038748,.041103,
.038084,.041281,
.0374,.04134,
.037399,.04134,
-.037399,.04134,
-.038083,.041281,
-.038747,.041103,
-.03937,.040813,
-.039932,.040419,
-.040418,.039933,
-.040812,.03937,
-.041103,.038748,
-.041281,.038084,
-.04134,.0374,
-.04134,.037399,
0.0*
%
%ADD44MACRO44*%
%AMMACRO11*
4,1,44,.037399,.04134,
-.037399,.04134,
-.038083,.041281,
-.038747,.041103,
-.03937,.040813,
-.039932,.040419,
-.040418,.039933,
-.040812,.03937,
-.041103,.038748,
-.041281,.038084,
-.04134,.0374,
-.04134,.037399,
-.04134,-.037399,
-.041281,-.038083,
-.041103,-.038747,
-.040813,-.03937,
-.040419,-.039932,
-.039933,-.040418,
-.03937,-.040812,
-.038748,-.041103,
-.038084,-.041281,
-.0374,-.04134,
-.037399,-.04134,
.037399,-.04134,
.038083,-.041281,
.038747,-.041103,
.03937,-.040813,
.039932,-.040419,
.040418,-.039933,
.040812,-.03937,
.041103,-.038748,
.041281,-.038084,
.04134,-.0374,
.04134,-.037399,
.04134,.037399,
.041281,.038083,
.041103,.038747,
.040813,.03937,
.040419,.039932,
.039933,.040418,
.03937,.040812,
.038748,.041103,
.038084,.041281,
.0374,.04134,
.037399,.04134,
0.0*
%
%ADD11MACRO11*%
%AMMACRO32*
4,1,40,-.007874,.027553,
-.007874,-.027553,
-.007814,-.028237,
-.007636,-.028901,
-.007346,-.029523,
-.006952,-.030086,
-.006466,-.030572,
-.005904,-.030966,
-.005281,-.031256,
-.004617,-.031434,
-.003933,-.031494,
.003933,-.031494,
.004617,-.031434,
.005281,-.031256,
.005903,-.030966,
.006466,-.030572,
.006952,-.030086,
.007346,-.029524,
.007636,-.028901,
.007814,-.028237,
.007874,-.027553,
.007874,.027553,
.007814,.028237,
.007636,.028901,
.007346,.029524,
.006952,.030086,
.006466,.030572,
.005904,.030966,
.005281,.031256,
.004617,.031434,
.003933,.031494,
-.003933,.031494,
-.004617,.031434,
-.005281,.031256,
-.005903,.030966,
-.006466,.030572,
-.006952,.030086,
-.007346,.029524,
-.007636,.028901,
-.007814,.028237,
-.007874,.027553,
0.0*
%
%ADD32MACRO32*%
%AMMACRO12*
4,1,44,-.013779,.027553,
-.013779,-.027553,
-.01372,-.028237,
-.013542,-.028901,
-.013252,-.029523,
-.012857,-.030086,
-.012372,-.030572,
-.011809,-.030966,
-.011186,-.031256,
-.010523,-.031434,
-.009839,-.031494,
-.009838,-.031494,
.009838,-.031494,
.010522,-.031434,
.011186,-.031256,
.011809,-.030966,
.012371,-.030572,
.012857,-.030087,
.013251,-.029524,
.013542,-.028901,
.01372,-.028238,
.013779,-.027553,
.013779,-.027553,
.013779,.027553,
.01372,.028237,
.013542,.028901,
.013252,.029524,
.012857,.030086,
.012372,.030572,
.011809,.030966,
.011186,.031256,
.010523,.031434,
.009839,.031494,
.009838,.031494,
-.009838,.031494,
-.010522,.031434,
-.011186,.031256,
-.011809,.030966,
-.012371,.030572,
-.012857,.030087,
-.013251,.029524,
-.013542,.028901,
-.01372,.028238,
-.013779,.027553,
-.013779,.027553,
0.0*
%
%ADD12MACRO12*%
%AMMACRO41*
4,1,44,.027553,.013779,
-.027553,.013779,
-.028237,.01372,
-.028901,.013542,
-.029524,.013252,
-.030086,.012857,
-.030572,.012372,
-.030966,.011809,
-.031256,.011186,
-.031434,.010523,
-.031494,.009839,
-.031494,.009838,
-.031494,-.009838,
-.031434,-.010522,
-.031256,-.011186,
-.030966,-.011809,
-.030572,-.012371,
-.030087,-.012857,
-.029524,-.013251,
-.028901,-.013542,
-.028238,-.01372,
-.027553,-.013779,
-.027553,-.013779,
.027553,-.013779,
.028237,-.01372,
.028901,-.013542,
.029523,-.013252,
.030086,-.012857,
.030572,-.012372,
.030966,-.011809,
.031256,-.011186,
.031434,-.010523,
.031494,-.009839,
.031494,-.009838,
.031494,.009838,
.031434,.010522,
.031256,.011186,
.030966,.011809,
.030572,.012371,
.030087,.012857,
.029524,.013251,
.028901,.013542,
.028238,.01372,
.027553,.013779,
.027553,.013779,
0.0*
%
%ADD41MACRO41*%
%AMMACRO28*
4,1,44,-.009844,.027553,
-.009844,-.027553,
-.009785,-.028237,
-.009607,-.028901,
-.009317,-.029523,
-.008922,-.030086,
-.008437,-.030572,
-.007874,-.030966,
-.007251,-.031256,
-.006588,-.031434,
-.005904,-.031494,
-.005903,-.031494,
.005903,-.031494,
.006587,-.031434,
.007251,-.031256,
.007874,-.030966,
.008436,-.030572,
.008922,-.030087,
.009316,-.029524,
.009607,-.028901,
.009785,-.028238,
.009844,-.027553,
.009844,-.027553,
.009844,.027553,
.009785,.028237,
.009607,.028901,
.009317,.029524,
.008922,.030086,
.008437,.030572,
.007874,.030966,
.007251,.031256,
.006588,.031434,
.005903,.031494,
.005903,.031494,
-.005903,.031494,
-.006587,.031434,
-.007251,.031256,
-.007874,.030966,
-.008436,.030572,
-.008922,.030087,
-.009316,.029524,
-.009607,.028901,
-.009785,.028238,
-.009844,.027553,
-.009844,.027553,
0.0*
%
%ADD28MACRO28*%
%ADD26C,.03937*%
%AMMACRO20*
4,1,44,.017714,-.017714,
.017714,.017714,
.017655,.018398,
.017477,.019062,
.017187,.019685,
.016793,.020247,
.016307,.020733,
.015744,.021127,
.015122,.021418,
.014458,.021596,
.013774,.021655,
.013773,.021655,
-.013773,.021655,
-.014457,.021596,
-.015121,.021418,
-.015744,.021128,
-.016306,.020734,
-.016792,.020248,
-.017186,.019685,
-.017477,.019063,
-.017655,.018399,
-.017714,.017715,
-.017714,.017714,
-.017714,-.017714,
-.017655,-.018398,
-.017477,-.019062,
-.017187,-.019685,
-.016793,-.020247,
-.016307,-.020733,
-.015744,-.021127,
-.015122,-.021418,
-.014458,-.021596,
-.013774,-.021655,
-.013773,-.021655,
.013773,-.021655,
.014457,-.021596,
.015121,-.021418,
.015744,-.021128,
.016306,-.020734,
.016792,-.020248,
.017186,-.019685,
.017477,-.019063,
.017655,-.018399,
.017714,-.017715,
.017714,-.017714,
0.0*
%
%ADD20MACRO20*%
%AMMACRO13*
4,1,44,-.017714,-.017714,
.017714,-.017714,
.018398,-.017655,
.019062,-.017477,
.019685,-.017187,
.020247,-.016793,
.020733,-.016307,
.021127,-.015744,
.021418,-.015122,
.021596,-.014458,
.021655,-.013774,
.021655,-.013773,
.021655,.013773,
.021596,.014457,
.021418,.015121,
.021128,.015744,
.020734,.016306,
.020248,.016792,
.019685,.017186,
.019063,.017477,
.018399,.017655,
.017715,.017714,
.017714,.017714,
-.017714,.017714,
-.018398,.017655,
-.019062,.017477,
-.019685,.017187,
-.020247,.016793,
-.020733,.016307,
-.021127,.015744,
-.021418,.015122,
-.021596,.014458,
-.021655,.013774,
-.021655,.013773,
-.021655,-.013773,
-.021596,-.014457,
-.021418,-.015121,
-.021128,-.015744,
-.020734,-.016306,
-.020248,-.016792,
-.019685,-.017186,
-.019063,-.017477,
-.018399,-.017655,
-.017715,-.017714,
-.017714,-.017714,
0.0*
%
%ADD13MACRO13*%
%ADD17C,.082681*%
%AMMACRO34*
4,1,40,.01575,-.017716,
.01575,.017716,
.01572,.018058,
.015631,.018389,
.015486,.018701,
.015289,.018982,
.015047,.019224,
.014766,.019421,
.014454,.019566,
.014123,.019655,
.013781,.019685,
-.013781,.019685,
-.014123,.019655,
-.014454,.019566,
-.014766,.019421,
-.015047,.019224,
-.015289,.018982,
-.015486,.018701,
-.015631,.018389,
-.01572,.018058,
-.01575,.017716,
-.01575,-.017716,
-.01572,-.018058,
-.015631,-.018389,
-.015486,-.018701,
-.015289,-.018982,
-.015047,-.019224,
-.014766,-.019421,
-.014454,-.019566,
-.014123,-.019655,
-.013781,-.019685,
.013781,-.019685,
.014123,-.019655,
.014454,-.019566,
.014766,-.019421,
.015047,-.019224,
.015289,-.018982,
.015486,-.018701,
.015631,-.018389,
.01572,-.018058,
.01575,-.017716,
0.0*
%
%ADD34MACRO34*%
%AMMACRO29*
4,1,40,-.027559,.047238,
-.027559,-.047238,
-.027499,-.047922,
-.027321,-.048586,
-.027031,-.049209,
-.026637,-.049771,
-.026151,-.050257,
-.025589,-.050651,
-.024966,-.050941,
-.024302,-.051119,
-.023618,-.051179,
.023618,-.051179,
.024302,-.051119,
.024966,-.050941,
.025588,-.050651,
.026151,-.050257,
.026637,-.049771,
.027031,-.049209,
.027321,-.048586,
.027499,-.047922,
.027559,-.047238,
.027559,.047238,
.027499,.047922,
.027321,.048586,
.027031,.049209,
.026637,.049771,
.026151,.050257,
.025589,.050651,
.024966,.050941,
.024302,.051119,
.023618,.051179,
-.023618,.051179,
-.024302,.051119,
-.024966,.050941,
-.025589,.050651,
-.026151,.050257,
-.026637,.049771,
-.027031,.049209,
-.027321,.048586,
-.027499,.047922,
-.027559,.047238,
0.0*
%
%ADD29MACRO29*%
%AMMACRO23*
4,1,40,.047238,.027559,
-.047238,.027559,
-.047922,.027499,
-.048586,.027321,
-.049209,.027031,
-.049771,.026637,
-.050257,.026151,
-.050651,.025589,
-.050941,.024966,
-.051119,.024302,
-.051179,.023618,
-.051179,-.023618,
-.051119,-.024302,
-.050941,-.024966,
-.050651,-.025588,
-.050257,-.026151,
-.049771,-.026637,
-.049209,-.027031,
-.048586,-.027321,
-.047922,-.027499,
-.047238,-.027559,
.047238,-.027559,
.047922,-.027499,
.048586,-.027321,
.049209,-.027031,
.049771,-.026637,
.050257,-.026151,
.050651,-.025589,
.050941,-.024966,
.051119,-.024302,
.051179,-.023618,
.051179,.023618,
.051119,.024302,
.050941,.024966,
.050651,.025589,
.050257,.026151,
.049771,.026637,
.049209,.027031,
.048586,.027321,
.047922,.027499,
.047238,.027559,
0.0*
%
%ADD23MACRO23*%
%ADD18C,.059059*%
%AMMACRO45*
4,1,44,.013779,-.021649,
.013779,.021649,
.01372,.022333,
.013542,.022997,
.013252,.02362,
.012858,.024182,
.012372,.024668,
.011809,.025062,
.011187,.025353,
.010523,.025531,
.009839,.02559,
.009838,.02559,
-.009838,.02559,
-.010522,.025531,
-.011186,.025353,
-.011809,.025063,
-.012371,.024669,
-.012857,.024183,
-.013251,.02362,
-.013542,.022998,
-.01372,.022334,
-.013779,.02165,
-.013779,.021649,
-.013779,-.021649,
-.01372,-.022333,
-.013542,-.022997,
-.013252,-.02362,
-.012858,-.024182,
-.012372,-.024668,
-.011809,-.025062,
-.011187,-.025353,
-.010523,-.025531,
-.009839,-.02559,
-.009838,-.02559,
.009838,-.02559,
.010522,-.025531,
.011186,-.025353,
.011809,-.025063,
.012371,-.024669,
.012857,-.024183,
.013251,-.02362,
.013542,-.022998,
.01372,-.022334,
.013779,-.02165,
.013779,-.021649,
0.0*
%
%ADD45MACRO45*%
%AMMACRO37*
4,1,44,-.021649,-.013779,
.021649,-.013779,
.022333,-.01372,
.022997,-.013542,
.02362,-.013252,
.024182,-.012858,
.024668,-.012372,
.025062,-.011809,
.025353,-.011187,
.025531,-.010523,
.02559,-.009839,
.02559,-.009838,
.02559,.009838,
.025531,.010522,
.025353,.011186,
.025063,.011809,
.024669,.012371,
.024183,.012857,
.02362,.013251,
.022998,.013542,
.022334,.01372,
.02165,.013779,
.021649,.013779,
-.021649,.013779,
-.022333,.01372,
-.022997,.013542,
-.02362,.013252,
-.024182,.012858,
-.024668,.012372,
-.025062,.011809,
-.025353,.011187,
-.025531,.010523,
-.02559,.009839,
-.02559,.009838,
-.02559,-.009838,
-.025531,-.010522,
-.025353,-.011186,
-.025063,-.011809,
-.024669,-.012371,
-.024183,-.012857,
-.02362,-.013251,
-.022998,-.013542,
-.022334,-.01372,
-.02165,-.013779,
-.021649,-.013779,
0.0*
%
%ADD37MACRO37*%
%ADD15C,.066929*%
%ADD19R,.059059X.059059*%
%AMMACRO43*
4,1,44,-.029523,-.02559,
.029523,-.02559,
.030207,-.025531,
.030871,-.025353,
.031494,-.025063,
.032056,-.024669,
.032542,-.024183,
.032936,-.02362,
.033227,-.022998,
.033405,-.022334,
.033464,-.02165,
.033464,-.021649,
.033464,.021649,
.033405,.022333,
.033227,.022997,
.032937,.02362,
.032543,.024182,
.032057,.024668,
.031494,.025062,
.030872,.025353,
.030208,.025531,
.029524,.02559,
.029523,.02559,
-.029523,.02559,
-.030207,.025531,
-.030871,.025353,
-.031494,.025063,
-.032056,.024669,
-.032542,.024183,
-.032936,.02362,
-.033227,.022998,
-.033405,.022334,
-.033464,.02165,
-.033464,.021649,
-.033464,-.021649,
-.033405,-.022333,
-.033227,-.022997,
-.032937,-.02362,
-.032543,-.024182,
-.032057,-.024668,
-.031494,-.025062,
-.030872,-.025353,
-.030208,-.025531,
-.029524,-.02559,
-.029523,-.02559,
0.0*
%
%ADD43MACRO43*%
%AMMACRO40*
4,1,44,-.037399,-.04134,
.037399,-.04134,
.038083,-.041281,
.038747,-.041103,
.03937,-.040813,
.039932,-.040419,
.040418,-.039933,
.040812,-.03937,
.041103,-.038748,
.041281,-.038084,
.04134,-.0374,
.04134,-.037399,
.04134,.037399,
.041281,.038083,
.041103,.038747,
.040813,.03937,
.040419,.039932,
.039933,.040418,
.03937,.040812,
.038748,.041103,
.038084,.041281,
.0374,.04134,
.037399,.04134,
-.037399,.04134,
-.038083,.041281,
-.038747,.041103,
-.03937,.040813,
-.039932,.040419,
-.040418,.039933,
-.040812,.03937,
-.041103,.038748,
-.041281,.038084,
-.04134,.0374,
-.04134,.037399,
-.04134,-.037399,
-.041281,-.038083,
-.041103,-.038747,
-.040813,-.03937,
-.040419,-.039932,
-.039933,-.040418,
-.03937,-.040812,
-.038748,-.041103,
-.038084,-.041281,
-.0374,-.04134,
-.037399,-.04134,
0.0*
%
%ADD40MACRO40*%
%AMMACRO36*
4,1,44,.04134,-.037399,
.04134,.037399,
.041281,.038083,
.041103,.038747,
.040813,.03937,
.040419,.039932,
.039933,.040418,
.03937,.040812,
.038748,.041103,
.038084,.041281,
.0374,.04134,
.037399,.04134,
-.037399,.04134,
-.038083,.041281,
-.038747,.041103,
-.03937,.040813,
-.039932,.040419,
-.040418,.039933,
-.040812,.03937,
-.041103,.038748,
-.041281,.038084,
-.04134,.0374,
-.04134,.037399,
-.04134,-.037399,
-.041281,-.038083,
-.041103,-.038747,
-.040813,-.03937,
-.040419,-.039932,
-.039933,-.040418,
-.03937,-.040812,
-.038748,-.041103,
-.038084,-.041281,
-.0374,-.04134,
-.037399,-.04134,
.037399,-.04134,
.038083,-.041281,
.038747,-.041103,
.03937,-.040813,
.039932,-.040419,
.040418,-.039933,
.040812,-.03937,
.041103,-.038748,
.041281,-.038084,
.04134,-.0374,
.04134,-.037399,
0.0*
%
%ADD36MACRO36*%
%ADD16R,.066929X.066929*%
%AMMACRO35*
4,1,44,.02559,-.033458,
.02559,.033458,
.025531,.034142,
.025353,.034806,
.025063,.035429,
.024669,.035991,
.024183,.036477,
.02362,.036871,
.022998,.037162,
.022334,.03734,
.02165,.037399,
.021649,.037399,
-.021649,.037399,
-.022333,.03734,
-.022997,.037162,
-.02362,.036872,
-.024182,.036478,
-.024668,.035992,
-.025062,.035429,
-.025353,.034807,
-.025531,.034143,
-.02559,.033459,
-.02559,.033458,
-.02559,-.033458,
-.025531,-.034142,
-.025353,-.034806,
-.025063,-.035429,
-.024669,-.035991,
-.024183,-.036477,
-.02362,-.036871,
-.022998,-.037162,
-.022334,-.03734,
-.02165,-.037399,
-.021649,-.037399,
.021649,-.037399,
.022333,-.03734,
.022997,-.037162,
.02362,-.036872,
.024182,-.036478,
.024668,-.035992,
.025062,-.035429,
.025353,-.034807,
.025531,-.034143,
.02559,-.033459,
.02559,-.033458,
0.0*
%
%ADD35MACRO35*%
%ADD48C,.004*%
G75*
%LPD*%
G75*
G54D10*
X13780Y13780D03*
Y330709D03*
X469291Y13780D03*
Y330709D03*
G54D20*
X58465Y212402D03*
Y218701D03*
X82087Y68701D03*
Y75000D03*
X76181Y68701D03*
Y75000D03*
X87992Y212402D03*
Y218701D03*
X70276Y212402D03*
Y218701D03*
X111614Y68701D03*
Y75000D03*
X105709Y68701D03*
Y75000D03*
X117520Y212402D03*
Y218701D03*
X99803Y212402D03*
Y218701D03*
X141142Y68701D03*
Y75000D03*
X135236Y68701D03*
Y75000D03*
X147047Y212402D03*
Y218701D03*
X129331Y212402D03*
Y218701D03*
X164764Y68701D03*
Y75000D03*
X170669Y68701D03*
Y75000D03*
X162795Y212402D03*
Y218701D03*
X200197Y110039D03*
Y116339D03*
X182480Y115945D03*
Y122244D03*
X188386Y115945D03*
Y122244D03*
X176575Y212402D03*
Y218701D03*
X188386Y212402D03*
Y218701D03*
X223819Y68701D03*
Y75000D03*
X229724Y68701D03*
Y75000D03*
X206102Y110039D03*
Y116339D03*
Y212402D03*
Y218701D03*
X217913Y212402D03*
Y218701D03*
X235630Y212402D03*
Y218701D03*
X247441Y212402D03*
Y218701D03*
X282874Y68701D03*
Y75000D03*
X265158Y212402D03*
Y218701D03*
X276968Y212402D03*
Y218701D03*
X288780Y68701D03*
Y75000D03*
X294685Y212402D03*
Y218701D03*
X306496Y212402D03*
Y218701D03*
X324213Y212402D03*
Y218701D03*
X336024Y212402D03*
Y218701D03*
X371457Y106102D03*
Y112402D03*
Y161220D03*
Y167520D03*
X353740Y212402D03*
Y218701D03*
X365551Y212402D03*
Y218701D03*
X377362Y106102D03*
Y112402D03*
X383268Y161220D03*
Y167520D03*
X377362Y192716D03*
X395079D03*
X383268D03*
X377362Y199016D03*
X395079D03*
X383268D03*
X395079Y212402D03*
Y218701D03*
X442323Y121850D03*
Y128150D03*
X430512Y141535D03*
Y147835D03*
X454134Y165158D03*
Y141535D03*
Y147835D03*
Y171457D03*
X465945Y184842D03*
Y191142D03*
X460039Y184842D03*
Y191142D03*
G54D11*
X13976Y107284D03*
X32087D03*
X61220D03*
X79331D03*
G54D12*
X22126Y123012D03*
X12126D03*
X22126Y150571D03*
X12126D03*
X59370Y123012D03*
Y150571D03*
X69370Y123012D03*
Y150571D03*
G54D30*
X168110Y48228D03*
X215354D03*
X244882D03*
X427953Y65945D03*
G54D21*
X55433Y229350D03*
Y256909D03*
X86929Y229350D03*
X65433D03*
X86929Y256909D03*
X65433D03*
X116535Y229350D03*
X96929D03*
X116535Y256909D03*
X96929D03*
X146535Y229350D03*
X126535D03*
X146535Y256909D03*
X126535D03*
X156535Y229350D03*
Y256909D03*
X176535Y229350D03*
X186535D03*
X176535Y256909D03*
X186535D03*
X206535Y229350D03*
X216535D03*
X206535Y256909D03*
X216535D03*
X256752Y90591D03*
X251752D03*
Y112165D03*
X256752D03*
X236535Y229350D03*
X246535D03*
X236535Y256909D03*
X246535D03*
X266752Y90591D03*
X261752D03*
Y112165D03*
X266752D03*
X266535Y229350D03*
X276535D03*
X266535Y256909D03*
X276535D03*
X296535Y229350D03*
X306535D03*
X296535Y256909D03*
X306535D03*
X326535Y229350D03*
X336535D03*
X326535Y256909D03*
X336535D03*
X356535Y229350D03*
X366535D03*
X356535Y256909D03*
X366535D03*
G54D40*
X427756Y79724D03*
X409646D03*
G54D13*
X31693Y136811D03*
X30512Y130906D03*
X31693Y142716D03*
X37992Y136811D03*
X39173Y130906D03*
X37992Y142716D03*
X78937Y136811D03*
X85236D03*
X86417Y130906D03*
X77756D03*
X78937Y142716D03*
X85236D03*
X132087Y160433D03*
X138386D03*
X161614D03*
X167913D03*
X191142D03*
X197441D03*
X250197Y130906D03*
X256496D03*
X250197Y136811D03*
X256496D03*
X250197Y142716D03*
X256496D03*
X279724Y136811D03*
X286024D03*
X279724Y130906D03*
X286024D03*
X279724Y125000D03*
X286024D03*
X279724Y152559D03*
X286024D03*
X279724Y142716D03*
X286024D03*
X315158Y176181D03*
X321457D03*
G54D31*
X178740Y53346D03*
X182480Y43110D03*
X186220Y53346D03*
X179921Y106496D03*
X183661Y96260D03*
X187402Y106496D03*
X434646Y96260D03*
Y106496D03*
X438386Y96260D03*
Y106496D03*
X442126Y96260D03*
Y106496D03*
G54D22*
X61535Y273228D03*
X91535D03*
X121535D03*
X151535D03*
X181535D03*
X211535D03*
X241535D03*
X271535D03*
X301535D03*
X347835Y92126D03*
Y147244D03*
X331535Y273228D03*
X361535D03*
X426575D03*
X439173D03*
G54D23*
X61535Y291732D03*
X91535D03*
X121535D03*
X151535D03*
X181535D03*
X211535D03*
X241535D03*
X271535D03*
X301535D03*
X347835Y110630D03*
Y165748D03*
X331535Y291732D03*
X361535D03*
X426575D03*
X439173D03*
G54D41*
X413819Y164744D03*
Y169744D03*
Y174744D03*
Y179744D03*
X435394Y164744D03*
Y179744D03*
Y174744D03*
Y169744D03*
G54D32*
X230709Y152559D03*
Y187992D03*
X252362Y152559D03*
X250394D03*
X248425D03*
X246457D03*
X244488D03*
X242520D03*
X240551D03*
X238583D03*
X236614D03*
X234646D03*
X232677D03*
Y187992D03*
X234646D03*
X236614D03*
X238583D03*
X240551D03*
X242520D03*
X244488D03*
X246457D03*
X248425D03*
X250394D03*
X252362D03*
G54D14*
X31693Y148622D03*
X37992D03*
X61220Y184055D03*
Y189961D03*
Y178150D03*
X85236Y148622D03*
X78937D03*
X67520Y184055D03*
Y189961D03*
Y178150D03*
X256496Y125000D03*
X250197D03*
X286024Y176181D03*
X279724D03*
X315158Y168307D03*
Y160433D03*
Y152559D03*
X321457Y168307D03*
Y160433D03*
Y152559D03*
X362795Y121063D03*
X356496D03*
X362795Y128937D03*
X356496D03*
X362795Y176181D03*
X356496D03*
X362795Y184055D03*
X356496D03*
G54D15*
X17126Y194882D03*
Y185039D03*
Y204724D03*
X40748Y194882D03*
Y185039D03*
Y204724D03*
X166732Y107284D03*
X460039Y306299D03*
Y286220D03*
G54D42*
X438386Y77756D03*
G54D24*
X61535Y328740D03*
X95866Y18701D03*
X91535Y328740D03*
X115551Y18701D03*
X121535Y328740D03*
X135236Y18701D03*
X151535Y328740D03*
X174606Y18701D03*
X154921D03*
X194291D03*
X181535Y328740D03*
X233661Y18701D03*
X213976D03*
X211535Y328740D03*
X253346Y18701D03*
X241535Y328740D03*
X292716Y18701D03*
X273032D03*
X271535Y328740D03*
X312402Y18701D03*
X301535Y328740D03*
X332087Y18701D03*
X331535Y328740D03*
X371457Y18701D03*
X351772D03*
X361535Y328740D03*
X391535D03*
G54D33*
X223819Y159449D03*
Y161417D03*
Y163386D03*
Y165354D03*
Y167323D03*
Y169291D03*
Y171260D03*
Y173228D03*
Y175197D03*
Y177165D03*
Y179134D03*
Y181102D03*
X259252Y167323D03*
Y165354D03*
Y163386D03*
Y161417D03*
Y159449D03*
Y181102D03*
Y179134D03*
Y177165D03*
Y175197D03*
Y173228D03*
Y171260D03*
Y169291D03*
G54D16*
X17126Y175197D03*
X40748D03*
X150984Y107284D03*
G54D43*
X438386Y65945D03*
G54D34*
X286024Y160236D03*
Y168504D03*
X279724Y160236D03*
Y168504D03*
G54D25*
X76181Y18701D03*
X421535Y328740D03*
G54D35*
X300591Y147047D03*
Y173819D03*
G54D17*
X52559Y7638D03*
Y37638D03*
X397795Y7638D03*
Y37638D03*
X427795Y7638D03*
X417795D03*
X407795D03*
X427795Y37638D03*
X417795D03*
X407795D03*
X410433Y195276D03*
Y259449D03*
X438780Y195276D03*
Y259449D03*
G54D26*
X78150Y164370D03*
X221850Y152559D03*
X271063Y48228D03*
X358535Y201244D03*
X375394Y67913D03*
X393110Y158465D03*
X422638Y148622D03*
X444291Y10827D03*
Y172244D03*
X471850Y119094D03*
X460039Y199803D03*
G54D44*
X450197Y62795D03*
Y80906D03*
G54D36*
X359646Y110433D03*
Y92323D03*
Y165551D03*
Y147441D03*
X462008Y80906D03*
Y62795D03*
G54D45*
X446063Y139567D03*
X442323D03*
X438583D03*
X446063Y149803D03*
X438583D03*
G54D18*
X64370Y81850D03*
Y61850D03*
X93898Y81850D03*
Y61850D03*
X123425Y81850D03*
Y61850D03*
X135236Y177244D03*
X152953Y76850D03*
X164764Y177244D03*
X182480Y76850D03*
X194291Y177244D03*
X212008Y76850D03*
X241535D03*
X271063D03*
X300591D03*
G54D27*
X64370Y218701D03*
Y212402D03*
X93898Y218701D03*
Y212402D03*
X135236Y110039D03*
X129331D03*
X135236Y116339D03*
X129331D03*
X123425Y218701D03*
Y212402D03*
X154921Y218701D03*
Y212402D03*
X182480Y218701D03*
Y212402D03*
X212008Y218701D03*
Y212402D03*
X241535Y218701D03*
Y212402D03*
X282874Y98622D03*
Y92323D03*
X276968Y98622D03*
Y92323D03*
X271063Y218701D03*
Y212402D03*
X288780Y98622D03*
Y92323D03*
X300591Y218701D03*
Y212402D03*
X336024Y112402D03*
Y106102D03*
Y96654D03*
Y90354D03*
Y167520D03*
Y161220D03*
Y151772D03*
Y145472D03*
X330118Y218701D03*
Y212402D03*
X371457Y89173D03*
Y97835D03*
Y144291D03*
Y152953D03*
X359646Y218701D03*
Y212402D03*
X383268Y112402D03*
Y106102D03*
X377362Y167520D03*
Y161220D03*
X389173Y192716D03*
Y199016D03*
X377362Y218701D03*
Y212402D03*
X383268Y218701D03*
Y212402D03*
X389173Y218701D03*
Y212402D03*
X424606Y104528D03*
Y98228D03*
X418701Y97047D03*
Y105709D03*
X450197Y104528D03*
Y98228D03*
X436417Y128150D03*
Y121850D03*
X430512Y128150D03*
Y121850D03*
X454134Y191142D03*
Y184842D03*
X465945Y165158D03*
X460039Y147835D03*
Y141535D03*
X465945Y147835D03*
Y141535D03*
X460039Y165158D03*
X465945Y171457D03*
X460039D03*
G54D19*
X64370Y71850D03*
X93898D03*
X123425D03*
X135236Y167244D03*
X152953Y66850D03*
X164764Y167244D03*
X182480Y66850D03*
X194291Y167244D03*
X212008Y66850D03*
X241535D03*
X271063D03*
X300591D03*
G54D37*
X372244Y121260D03*
Y128740D03*
Y176378D03*
Y183858D03*
X382480Y125000D03*
Y180118D03*
G54D28*
X118012Y95472D03*
X115453D03*
X112894D03*
X110335D03*
X107776D03*
X105217D03*
X102658D03*
Y119094D03*
X105217D03*
X107776D03*
X110335D03*
X112894D03*
X115453D03*
X118012D03*
X120571Y95472D03*
Y119094D03*
X230216Y95472D03*
X227657D03*
X225098D03*
X222539D03*
X219980D03*
X217421D03*
X214862D03*
Y119094D03*
X217421D03*
X219980D03*
X222539D03*
X225098D03*
X227657D03*
X230216D03*
X232776Y95472D03*
Y119094D03*
G54D46*
X450197Y121457D03*
Y128543D03*
G54D29*
X149606Y48228D03*
X196850D03*
X226378D03*
X409449Y65945D03*
G54D38*
X388386Y97244D03*
X378150Y93504D03*
X388386Y89764D03*
Y152362D03*
X378150Y148622D03*
X388386Y144882D03*
G54D47*
X465945Y109252D03*
Y93504D03*
G54D48*
G01X7874Y0D02*
X475197D01*
G03X483071Y7874I0J7874D01*
G01Y336614D01*
G03X475197Y344488I-7874J0D01*
G01X7874D01*
G03X0Y336614I0J-7874D01*
G01Y7874D01*
G03X7874Y0I7874J0D01*
G54D39*
X403347Y54134D03*
X410433D03*
X421063D03*
X428150D03*
M02*
