G04 ================== begin FILE IDENTIFICATION RECORD ==================*
G04 Layout Name:  E:/cmSystem/allegro/CMS.brd*
G04 Film Name:    SOLDERMASK_TOP*
G04 File Format:  Gerber RS274X*
G04 File Origin:  Cadence Allegro 17.2-S037*
G04 Origin Date:  Thu Aug 23 10:24:26 2018*
G04 *
G04 Layer:  VIA CLASS/SOLDERMASK_TOP*
G04 Layer:  PIN/SOLDERMASK_TOP*
G04 Layer:  PACKAGE GEOMETRY/SOLDERMASK_TOP*
G04 Layer:  BOARD GEOMETRY/SOLDERMASK_TOP*
G04 Layer:  BOARD GEOMETRY/OUTLINE*
G04 *
G04 Offset:    (0.0000 0.0000)*
G04 Mirror:    No*
G04 Mode:      Positive*
G04 Rotation:  0*
G04 FullContactRelief:  No*
G04 UndefLineWidth:     0.1016*
G04 ================== end FILE IDENTIFICATION RECORD ====================*
%FSLAX25Y25*MOIN*%
%IR0*IPPOS*OFA0.00000B0.00000*MIA0B0*SFA1.00000B1.00000*%
%AMMACRO33*
4,1,44,-.027551,-.007874,
.027551,-.007874,
.028236,-.007814,
.028899,-.007637,
.029522,-.007347,
.030085,-.006953,
.030571,-.006468,
.030965,-.005905,
.031256,-.005283,
.031434,-.004619,
.031494,-.003935,
.031492,-.003933,
.031492,.003933,
.031434,.004617,
.031256,.005281,
.030966,.005904,
.030572,.006466,
.030086,.006952,
.029524,.007346,
.028901,.007636,
.028237,.007814,
.027553,.007874,
.027551,.007874,
-.027551,.007874,
-.028236,.007814,
-.028899,.007637,
-.029522,.007347,
-.030085,.006953,
-.030571,.006468,
-.030965,.005905,
-.031256,.005283,
-.031434,.004619,
-.031494,.003935,
-.031492,.003933,
-.031492,-.003933,
-.031434,-.004617,
-.031256,-.005281,
-.030966,-.005904,
-.030572,-.006466,
-.030086,-.006952,
-.029524,-.007346,
-.028901,-.007636,
-.028237,-.007814,
-.027553,-.007874,
-.027551,-.007874,
0.0*
%
%ADD33MACRO33*%
%AMMACRO20*
4,1,44,.017713,-.017713,
.017713,.017713,
.017655,.018397,
.017478,.019061,
.017188,.019683,
.016794,.020246,
.016308,.020732,
.015746,.021127,
.015123,.021417,
.01446,.021595,
.013776,.021656,
.013772,.021654,
-.013772,.021654,
-.014456,.021596,
-.01512,.021419,
-.015742,.021129,
-.016305,.020735,
-.016791,.020249,
-.017186,.019687,
-.017476,.019064,
-.017654,.018401,
-.017715,.017717,
-.017713,.017713,
-.017713,-.017713,
-.017655,-.018397,
-.017478,-.019061,
-.017188,-.019683,
-.016794,-.020246,
-.016308,-.020732,
-.015746,-.021127,
-.015123,-.021417,
-.01446,-.021595,
-.013776,-.021656,
-.013772,-.021654,
.013772,-.021654,
.014456,-.021596,
.01512,-.021419,
.015742,-.021129,
.016305,-.020735,
.016791,-.020249,
.017186,-.019687,
.017476,-.019064,
.017654,-.018401,
.017715,-.017717,
.017713,-.017713,
0.0*
%
%ADD20MACRO20*%
%AMMACRO13*
4,1,44,-.017713,-.017713,
.017713,-.017713,
.018397,-.017655,
.019061,-.017478,
.019683,-.017188,
.020246,-.016794,
.020732,-.016308,
.021127,-.015746,
.021417,-.015123,
.021595,-.01446,
.021656,-.013776,
.021654,-.013772,
.021654,.013772,
.021596,.014456,
.021419,.01512,
.021129,.015742,
.020735,.016305,
.020249,.016791,
.019687,.017186,
.019064,.017476,
.018401,.017654,
.017717,.017715,
.017713,.017713,
-.017713,.017713,
-.018397,.017655,
-.019061,.017478,
-.019683,.017188,
-.020246,.016794,
-.020732,.016308,
-.021127,.015746,
-.021417,.015123,
-.021595,.01446,
-.021656,.013776,
-.021654,.013772,
-.021654,-.013772,
-.021596,-.014456,
-.021419,-.01512,
-.021129,-.015742,
-.020735,-.016305,
-.020249,-.016791,
-.019687,-.017186,
-.019064,-.017476,
-.018401,-.017654,
-.017717,-.017715,
-.017713,-.017713,
0.0*
%
%ADD13MACRO13*%
%AMMACRO29*
4,1,44,-.027559,.047236,
-.027559,-.047236,
-.0275,-.047921,
-.027322,-.048584,
-.027032,-.049207,
-.026638,-.04977,
-.026153,-.050256,
-.02559,-.05065,
-.024968,-.050941,
-.024304,-.051119,
-.02362,-.051179,
-.023618,-.051177,
.023618,-.051177,
.024302,-.051119,
.024966,-.050941,
.025589,-.050651,
.026151,-.050257,
.026637,-.049771,
.027031,-.049209,
.027321,-.048586,
.027499,-.047923,
.027559,-.047238,
.027559,-.047236,
.027559,.047236,
.0275,.047921,
.027322,.048584,
.027032,.049207,
.026638,.04977,
.026153,.050256,
.02559,.05065,
.024968,.050941,
.024304,.051119,
.02362,.051179,
.023618,.051177,
-.023618,.051177,
-.024302,.051119,
-.024966,.050941,
-.025589,.050651,
-.026151,.050257,
-.026637,.049771,
-.027031,.049209,
-.027321,.048586,
-.027499,.047923,
-.027559,.047238,
-.027559,.047236,
0.0*
%
%ADD29MACRO29*%
%AMMACRO23*
4,1,44,.047236,.027559,
-.047236,.027559,
-.047921,.0275,
-.048584,.027322,
-.049207,.027032,
-.04977,.026638,
-.050256,.026153,
-.05065,.02559,
-.050941,.024968,
-.051119,.024304,
-.051179,.02362,
-.051177,.023618,
-.051177,-.023618,
-.051119,-.024302,
-.050941,-.024966,
-.050651,-.025589,
-.050257,-.026151,
-.049771,-.026637,
-.049209,-.027031,
-.048586,-.027321,
-.047923,-.027499,
-.047238,-.027559,
-.047236,-.027559,
.047236,-.027559,
.047921,-.0275,
.048584,-.027322,
.049207,-.027032,
.04977,-.026638,
.050256,-.026153,
.05065,-.02559,
.050941,-.024968,
.051119,-.024304,
.051179,-.02362,
.051177,-.023618,
.051177,.023618,
.051119,.024302,
.050941,.024966,
.050651,.025589,
.050257,.026151,
.049771,.026637,
.049209,.027031,
.048586,.027321,
.047923,.027499,
.047238,.027559,
.047236,.027559,
0.0*
%
%ADD23MACRO23*%
%AMMACRO21*
4,1,44,.01378,-.027551,
.01378,.027551,
.01372,.028236,
.013543,.028899,
.013253,.029522,
.012859,.030085,
.012373,.030571,
.011811,.030965,
.011188,.031256,
.010525,.031434,
.009841,.031494,
.009839,.031492,
-.009839,.031492,
-.010523,.031434,
-.011186,.031256,
-.011809,.030966,
-.012372,.030572,
-.012858,.030086,
-.013252,.029524,
-.013542,.028901,
-.01372,.028237,
-.01378,.027553,
-.01378,.027551,
-.01378,-.027551,
-.01372,-.028236,
-.013543,-.028899,
-.013253,-.029522,
-.012859,-.030085,
-.012373,-.030571,
-.011811,-.030965,
-.011188,-.031256,
-.010525,-.031434,
-.009841,-.031494,
-.009839,-.031492,
.009839,-.031492,
.010523,-.031434,
.011186,-.031256,
.011809,-.030966,
.012372,-.030572,
.012858,-.030086,
.013252,-.029524,
.013542,-.028901,
.01372,-.028237,
.01378,-.027553,
.01378,-.027551,
0.0*
%
%ADD21MACRO21*%
%AMMACRO40*
4,1,44,-.037398,-.041339,
.037398,-.041339,
.038082,-.041281,
.038746,-.041104,
.039368,-.040814,
.039931,-.04042,
.040417,-.039934,
.040812,-.039372,
.041102,-.038749,
.04128,-.038086,
.041341,-.037402,
.041339,-.037398,
.041339,.037398,
.041281,.038082,
.041104,.038746,
.040814,.039368,
.04042,.039931,
.039934,.040417,
.039372,.040812,
.038749,.041102,
.038086,.04128,
.037402,.041341,
.037398,.041339,
-.037398,.041339,
-.038082,.041281,
-.038746,.041104,
-.039368,.040814,
-.039931,.04042,
-.040417,.039934,
-.040812,.039372,
-.041102,.038749,
-.04128,.038086,
-.041341,.037402,
-.041339,.037398,
-.041339,-.037398,
-.041281,-.038082,
-.041104,-.038746,
-.040814,-.039368,
-.04042,-.039931,
-.039934,-.040417,
-.039372,-.040812,
-.038749,-.041102,
-.038086,-.04128,
-.037402,-.041341,
-.037398,-.041339,
0.0*
%
%ADD40MACRO40*%
%AMMACRO36*
4,1,44,.041339,-.037398,
.041339,.037398,
.041281,.038082,
.041104,.038746,
.040814,.039368,
.04042,.039931,
.039934,.040417,
.039372,.040812,
.038749,.041102,
.038086,.04128,
.037402,.041341,
.037398,.041339,
-.037398,.041339,
-.038082,.041281,
-.038746,.041104,
-.039368,.040814,
-.039931,.04042,
-.040417,.039934,
-.040812,.039372,
-.041102,.038749,
-.04128,.038086,
-.041341,.037402,
-.041339,.037398,
-.041339,-.037398,
-.041281,-.038082,
-.041104,-.038746,
-.040814,-.039368,
-.04042,-.039931,
-.039934,-.040417,
-.039372,-.040812,
-.038749,-.041102,
-.038086,-.04128,
-.037402,-.041341,
-.037398,-.041339,
.037398,-.041339,
.038082,-.041281,
.038746,-.041104,
.039368,-.040814,
.039931,-.04042,
.040417,-.039934,
.040812,-.039372,
.041102,-.038749,
.04128,-.038086,
.041341,-.037402,
.041339,-.037398,
0.0*
%
%ADD36MACRO36*%
%AMMACRO47*
4,1,44,-.076768,-.041339,
.076768,-.041339,
.077452,-.041281,
.078116,-.041104,
.078738,-.040814,
.079301,-.04042,
.079787,-.039934,
.080182,-.039372,
.080472,-.038749,
.08065,-.038086,
.080711,-.037402,
.080709,-.037398,
.080709,.037398,
.080651,.038082,
.080474,.038746,
.080184,.039368,
.07979,.039931,
.079304,.040417,
.078742,.040812,
.078119,.041102,
.077456,.04128,
.076772,.041341,
.076768,.041339,
-.076768,.041339,
-.077452,.041281,
-.078116,.041104,
-.078738,.040814,
-.079301,.04042,
-.079787,.039934,
-.080182,.039372,
-.080472,.038749,
-.08065,.038086,
-.080711,.037402,
-.080709,.037398,
-.080709,-.037398,
-.080651,-.038082,
-.080474,-.038746,
-.080184,-.039368,
-.07979,-.039931,
-.079304,-.040417,
-.078742,-.040812,
-.078119,-.041102,
-.077456,-.04128,
-.076772,-.041341,
-.076768,-.041339,
0.0*
%
%ADD47MACRO47*%
%AMMACRO43*
4,1,40,-.029524,-.025591,
.029524,-.025591,
.030208,-.025531,
.030872,-.025353,
.031494,-.025063,
.032057,-.024669,
.032543,-.024183,
.032937,-.02362,
.033227,-.022997,
.033405,-.022334,
.033465,-.02165,
.033465,.02165,
.033405,.022334,
.033227,.022997,
.032937,.02362,
.032543,.024183,
.032057,.024669,
.031494,.025063,
.030872,.025353,
.030208,.025531,
.029524,.025591,
-.029524,.025591,
-.030208,.025531,
-.030872,.025353,
-.031494,.025063,
-.032057,.024669,
-.032543,.024183,
-.032937,.02362,
-.033227,.022997,
-.033405,.022334,
-.033465,.02165,
-.033465,-.02165,
-.033405,-.022334,
-.033227,-.022997,
-.032937,-.02362,
-.032543,-.024183,
-.032057,-.024669,
-.031494,-.025063,
-.030872,-.025353,
-.030208,-.025531,
-.029524,-.025591,
0.0*
%
%ADD43MACRO43*%
%AMMACRO31*
4,1,40,-.01378,.02165,
-.01378,-.02165,
-.01372,-.022334,
-.013542,-.022997,
-.013252,-.02362,
-.012858,-.024183,
-.012372,-.024669,
-.011809,-.025063,
-.011186,-.025353,
-.010523,-.025531,
-.009839,-.025591,
.009839,-.025591,
.010523,-.025531,
.011186,-.025353,
.011809,-.025063,
.012372,-.024669,
.012858,-.024183,
.013252,-.02362,
.013542,-.022997,
.01372,-.022334,
.01378,-.02165,
.01378,.02165,
.01372,.022334,
.013542,.022997,
.013252,.02362,
.012858,.024183,
.012372,.024669,
.011809,.025063,
.011186,.025353,
.010523,.025531,
.009839,.025591,
-.009839,.025591,
-.010523,.025531,
-.011186,.025353,
-.011809,.025063,
-.012372,.024669,
-.012858,.024183,
-.013252,.02362,
-.013542,.022997,
-.01372,.022334,
-.01378,.02165,
0.0*
%
%ADD31MACRO31*%
%AMMACRO38*
4,1,40,.02165,.01378,
-.02165,.01378,
-.022334,.01372,
-.022997,.013542,
-.02362,.013252,
-.024183,.012858,
-.024669,.012372,
-.025063,.011809,
-.025353,.011186,
-.025531,.010523,
-.025591,.009839,
-.025591,-.009839,
-.025531,-.010523,
-.025353,-.011186,
-.025063,-.011809,
-.024669,-.012372,
-.024183,-.012858,
-.02362,-.013252,
-.022997,-.013542,
-.022334,-.01372,
-.02165,-.01378,
.02165,-.01378,
.022334,-.01372,
.022997,-.013542,
.02362,-.013252,
.024183,-.012858,
.024669,-.012372,
.025063,-.011809,
.025353,-.011186,
.025531,-.010523,
.025591,-.009839,
.025591,.009839,
.025531,.010523,
.025353,.011186,
.025063,.011809,
.024669,.012372,
.024183,.012858,
.02362,.013252,
.022997,.013542,
.022334,.01372,
.02165,.01378,
0.0*
%
%ADD38MACRO38*%
%AMMACRO34*
4,1,44,.015748,-.017717,
.015748,.017717,
.01572,.018058,
.015631,.01839,
.015486,.018701,
.015289,.018982,
.015047,.019224,
.014766,.019421,
.014455,.019566,
.014123,.019655,
.013781,.019685,
.01378,.019685,
-.01378,.019685,
-.014121,.019655,
-.014453,.019567,
-.014764,.019422,
-.015045,.019226,
-.015288,.018983,
-.015485,.018702,
-.015631,.018392,
-.01572,.01806,
-.01575,.017719,
-.015748,.017717,
-.015748,-.017717,
-.01572,-.018058,
-.015631,-.01839,
-.015486,-.018701,
-.015289,-.018982,
-.015047,-.019224,
-.014766,-.019421,
-.014455,-.019566,
-.014123,-.019655,
-.013781,-.019685,
-.01378,-.019685,
.01378,-.019685,
.014121,-.019655,
.014453,-.019567,
.014764,-.019422,
.015045,-.019226,
.015288,-.018983,
.015485,-.018702,
.015631,-.018392,
.01572,-.01806,
.01575,-.017719,
.015748,-.017717,
0.0*
%
%ADD34MACRO34*%
%ADD26C,.03937*%
%ADD17C,.082681*%
%ADD24C,.122051*%
%ADD18C,.059059*%
%ADD10C,.240157*%
%ADD15C,.066929*%
%AMMACRO30*
4,1,44,.027559,-.047236,
.027559,.047236,
.0275,.047921,
.027322,.048584,
.027032,.049207,
.026638,.04977,
.026153,.050256,
.02559,.05065,
.024968,.050941,
.024304,.051119,
.02362,.051179,
.023618,.051177,
-.023618,.051177,
-.024302,.051119,
-.024966,.050941,
-.025589,.050651,
-.026151,.050257,
-.026637,.049771,
-.027031,.049209,
-.027321,.048586,
-.027499,.047923,
-.027559,.047238,
-.027559,.047236,
-.027559,-.047236,
-.0275,-.047921,
-.027322,-.048584,
-.027032,-.049207,
-.026638,-.04977,
-.026153,-.050256,
-.02559,-.05065,
-.024968,-.050941,
-.024304,-.051119,
-.02362,-.051179,
-.023618,-.051177,
.023618,-.051177,
.024302,-.051119,
.024966,-.050941,
.025589,-.050651,
.026151,-.050257,
.026637,-.049771,
.027031,-.049209,
.027321,-.048586,
.027499,-.047923,
.027559,-.047238,
.027559,-.047236,
0.0*
%
%ADD30MACRO30*%
%ADD25R,.122051X.122051*%
%AMMACRO22*
4,1,44,-.047236,-.027559,
.047236,-.027559,
.047921,-.0275,
.048584,-.027322,
.049207,-.027032,
.04977,-.026638,
.050256,-.026153,
.05065,-.02559,
.050941,-.024968,
.051119,-.024304,
.051179,-.02362,
.051177,-.023618,
.051177,.023618,
.051119,.024302,
.050941,.024966,
.050651,.025589,
.050257,.026151,
.049771,.026637,
.049209,.027031,
.048586,.027321,
.047923,.027499,
.047238,.027559,
.047236,.027559,
-.047236,.027559,
-.047921,.0275,
-.048584,.027322,
-.049207,.027032,
-.04977,.026638,
-.050256,.026153,
-.05065,.02559,
-.050941,.024968,
-.051119,.024304,
-.051179,.02362,
-.051177,.023618,
-.051177,-.023618,
-.051119,-.024302,
-.050941,-.024966,
-.050651,-.025589,
-.050257,-.026151,
-.049771,-.026637,
-.049209,-.027031,
-.048586,-.027321,
-.047923,-.027499,
-.047238,-.027559,
-.047236,-.027559,
0.0*
%
%ADD22MACRO22*%
%AMMACRO35*
4,1,44,.025591,-.033457,
.025591,.033457,
.025531,.034141,
.025354,.034805,
.025064,.035427,
.02467,.03599,
.024184,.036476,
.023622,.036871,
.022999,.037161,
.022336,.037339,
.021652,.0374,
.02165,.037398,
-.02165,.037398,
-.022334,.03734,
-.022997,.037162,
-.02362,.036872,
-.024183,.036478,
-.024669,.035992,
-.025063,.035429,
-.025353,.034807,
-.025531,.034143,
-.025591,.033459,
-.025591,.033457,
-.025591,-.033457,
-.025531,-.034141,
-.025354,-.034805,
-.025064,-.035427,
-.02467,-.03599,
-.024184,-.036476,
-.023622,-.036871,
-.022999,-.037161,
-.022336,-.037339,
-.021652,-.0374,
-.02165,-.037398,
.02165,-.037398,
.022334,-.03734,
.022997,-.037162,
.02362,-.036872,
.024183,-.036478,
.024669,-.035992,
.025063,-.035429,
.025353,-.034807,
.025531,-.034143,
.025591,-.033459,
.025591,-.033457,
0.0*
%
%ADD35MACRO35*%
%ADD19R,.059059X.059059*%
%AMMACRO32*
4,1,44,-.007874,.027551,
-.007874,-.027551,
-.007814,-.028236,
-.007637,-.028899,
-.007347,-.029522,
-.006953,-.030085,
-.006468,-.030571,
-.005905,-.030965,
-.005283,-.031256,
-.004619,-.031434,
-.003935,-.031494,
-.003933,-.031492,
.003933,-.031492,
.004617,-.031434,
.005281,-.031256,
.005904,-.030966,
.006466,-.030572,
.006952,-.030086,
.007346,-.029524,
.007636,-.028901,
.007814,-.028237,
.007874,-.027553,
.007874,-.027551,
.007874,.027551,
.007814,.028236,
.007637,.028899,
.007347,.029522,
.006953,.030085,
.006468,.030571,
.005905,.030965,
.005283,.031256,
.004619,.031434,
.003935,.031494,
.003933,.031492,
-.003933,.031492,
-.004617,.031434,
-.005281,.031256,
-.005904,.030966,
-.006466,.030572,
-.006952,.030086,
-.007346,.029524,
-.007636,.028901,
-.007814,.028237,
-.007874,.027553,
-.007874,.027551,
0.0*
%
%ADD32MACRO32*%
%ADD16R,.066929X.066929*%
%AMMACRO27*
4,1,44,-.017713,.017713,
-.017713,-.017713,
-.017655,-.018397,
-.017478,-.019061,
-.017188,-.019683,
-.016794,-.020246,
-.016308,-.020732,
-.015746,-.021127,
-.015123,-.021417,
-.01446,-.021595,
-.013776,-.021656,
-.013772,-.021654,
.013772,-.021654,
.014456,-.021596,
.01512,-.021419,
.015742,-.021129,
.016305,-.020735,
.016791,-.020249,
.017186,-.019687,
.017476,-.019064,
.017654,-.018401,
.017715,-.017717,
.017713,-.017713,
.017713,.017713,
.017655,.018397,
.017478,.019061,
.017188,.019683,
.016794,.020246,
.016308,.020732,
.015746,.021127,
.015123,.021417,
.01446,.021595,
.013776,.021656,
.013772,.021654,
-.013772,.021654,
-.014456,.021596,
-.01512,.021419,
-.015742,.021129,
-.016305,.020735,
-.016791,.020249,
-.017186,.019687,
-.017476,.019064,
-.017654,.018401,
-.017715,.017717,
-.017713,.017713,
0.0*
%
%ADD27MACRO27*%
%AMMACRO28*
4,1,44,-.009843,.027551,
-.009843,-.027551,
-.009785,-.028236,
-.009607,-.028899,
-.009317,-.029522,
-.008924,-.030085,
-.008438,-.030571,
-.007876,-.030965,
-.007253,-.031256,
-.00659,-.031434,
-.005906,-.031494,
-.005902,-.031492,
.005902,-.031492,
.006586,-.031435,
.00725,-.031257,
.007872,-.030967,
.008435,-.030573,
.008921,-.030088,
.009316,-.029525,
.009606,-.028903,
.009784,-.028239,
.009844,-.027555,
.009843,-.027551,
.009843,.027551,
.009785,.028236,
.009607,.028899,
.009317,.029522,
.008924,.030085,
.008438,.030571,
.007876,.030965,
.007253,.031256,
.00659,.031434,
.005906,.031494,
.005902,.031492,
-.005902,.031492,
-.006586,.031435,
-.00725,.031257,
-.007872,.030967,
-.008435,.030573,
-.008921,.030088,
-.009316,.029525,
-.009606,.028903,
-.009784,.028239,
-.009844,.027555,
-.009843,.027551,
0.0*
%
%ADD28MACRO28*%
%AMMACRO14*
4,1,44,.017713,.017713,
-.017713,.017713,
-.018397,.017655,
-.019061,.017478,
-.019683,.017188,
-.020246,.016794,
-.020732,.016308,
-.021127,.015746,
-.021417,.015123,
-.021595,.01446,
-.021656,.013776,
-.021654,.013772,
-.021654,-.013772,
-.021596,-.014456,
-.021419,-.01512,
-.021129,-.015742,
-.020735,-.016305,
-.020249,-.016791,
-.019687,-.017186,
-.019064,-.017476,
-.018401,-.017654,
-.017717,-.017715,
-.017713,-.017713,
.017713,-.017713,
.018397,-.017655,
.019061,-.017478,
.019683,-.017188,
.020246,-.016794,
.020732,-.016308,
.021127,-.015746,
.021417,-.015123,
.021595,-.01446,
.021656,-.013776,
.021654,-.013772,
.021654,.013772,
.021596,.014456,
.021419,.01512,
.021129,.015742,
.020735,.016305,
.020249,.016791,
.019687,.017186,
.019064,.017476,
.018401,.017654,
.017717,.017715,
.017713,.017713,
0.0*
%
%ADD14MACRO14*%
%AMMACRO12*
4,1,44,-.01378,.027551,
-.01378,-.027551,
-.01372,-.028236,
-.013543,-.028899,
-.013253,-.029522,
-.012859,-.030085,
-.012373,-.030571,
-.011811,-.030965,
-.011188,-.031256,
-.010525,-.031434,
-.009841,-.031494,
-.009839,-.031492,
.009839,-.031492,
.010523,-.031434,
.011186,-.031256,
.011809,-.030966,
.012372,-.030572,
.012858,-.030086,
.013252,-.029524,
.013542,-.028901,
.01372,-.028237,
.01378,-.027553,
.01378,-.027551,
.01378,.027551,
.01372,.028236,
.013543,.028899,
.013253,.029522,
.012859,.030085,
.012373,.030571,
.011811,.030965,
.011188,.031256,
.010525,.031434,
.009841,.031494,
.009839,.031492,
-.009839,.031492,
-.010523,.031434,
-.011186,.031256,
-.011809,.030966,
-.012372,.030572,
-.012858,.030086,
-.013252,.029524,
-.013542,.028901,
-.01372,.028237,
-.01378,.027553,
-.01378,.027551,
0.0*
%
%ADD12MACRO12*%
%AMMACRO41*
4,1,44,.027551,.01378,
-.027551,.01378,
-.028236,.01372,
-.028899,.013543,
-.029522,.013253,
-.030085,.012859,
-.030571,.012373,
-.030965,.011811,
-.031256,.011188,
-.031434,.010525,
-.031494,.009841,
-.031492,.009839,
-.031492,-.009839,
-.031434,-.010523,
-.031256,-.011186,
-.030966,-.011809,
-.030572,-.012372,
-.030086,-.012858,
-.029524,-.013252,
-.028901,-.013542,
-.028237,-.01372,
-.027553,-.01378,
-.027551,-.01378,
.027551,-.01378,
.028236,-.01372,
.028899,-.013543,
.029522,-.013253,
.030085,-.012859,
.030571,-.012373,
.030965,-.011811,
.031256,-.011188,
.031434,-.010525,
.031494,-.009841,
.031492,-.009839,
.031492,.009839,
.031434,.010523,
.031256,.011186,
.030966,.011809,
.030572,.012372,
.030086,.012858,
.029524,.013252,
.028901,.013542,
.028237,.01372,
.027553,.01378,
.027551,.01378,
0.0*
%
%ADD41MACRO41*%
%AMMACRO44*
4,1,44,-.041339,.037398,
-.041339,-.037398,
-.041281,-.038082,
-.041104,-.038746,
-.040814,-.039368,
-.04042,-.039931,
-.039934,-.040417,
-.039372,-.040812,
-.038749,-.041102,
-.038086,-.04128,
-.037402,-.041341,
-.037398,-.041339,
.037398,-.041339,
.038082,-.041281,
.038746,-.041104,
.039368,-.040814,
.039931,-.04042,
.040417,-.039934,
.040812,-.039372,
.041102,-.038749,
.04128,-.038086,
.041341,-.037402,
.041339,-.037398,
.041339,.037398,
.041281,.038082,
.041104,.038746,
.040814,.039368,
.04042,.039931,
.039934,.040417,
.039372,.040812,
.038749,.041102,
.038086,.04128,
.037402,.041341,
.037398,.041339,
-.037398,.041339,
-.038082,.041281,
-.038746,.041104,
-.039368,.040814,
-.039931,.04042,
-.040417,.039934,
-.040812,.039372,
-.041102,.038749,
-.04128,.038086,
-.041341,.037402,
-.041339,.037398,
0.0*
%
%ADD44MACRO44*%
%AMMACRO11*
4,1,44,.037398,.041339,
-.037398,.041339,
-.038082,.041281,
-.038746,.041104,
-.039368,.040814,
-.039931,.04042,
-.040417,.039934,
-.040812,.039372,
-.041102,.038749,
-.04128,.038086,
-.041341,.037402,
-.041339,.037398,
-.041339,-.037398,
-.041281,-.038082,
-.041104,-.038746,
-.040814,-.039368,
-.04042,-.039931,
-.039934,-.040417,
-.039372,-.040812,
-.038749,-.041102,
-.038086,-.04128,
-.037402,-.041341,
-.037398,-.041339,
.037398,-.041339,
.038082,-.041281,
.038746,-.041104,
.039368,-.040814,
.039931,-.04042,
.040417,-.039934,
.040812,-.039372,
.041102,-.038749,
.04128,-.038086,
.041341,-.037402,
.041339,-.037398,
.041339,.037398,
.041281,.038082,
.041104,.038746,
.040814,.039368,
.04042,.039931,
.039934,.040417,
.039372,.040812,
.038749,.041102,
.038086,.04128,
.037402,.041341,
.037398,.041339,
0.0*
%
%ADD11MACRO11*%
%AMMACRO45*
4,1,40,.01378,-.02165,
.01378,.02165,
.01372,.022334,
.013542,.022997,
.013252,.02362,
.012858,.024183,
.012372,.024669,
.011809,.025063,
.011186,.025353,
.010523,.025531,
.009839,.025591,
-.009839,.025591,
-.010523,.025531,
-.011186,.025353,
-.011809,.025063,
-.012372,.024669,
-.012858,.024183,
-.013252,.02362,
-.013542,.022997,
-.01372,.022334,
-.01378,.02165,
-.01378,-.02165,
-.01372,-.022334,
-.013542,-.022997,
-.013252,-.02362,
-.012858,-.024183,
-.012372,-.024669,
-.011809,-.025063,
-.011186,-.025353,
-.010523,-.025531,
-.009839,-.025591,
.009839,-.025591,
.010523,-.025531,
.011186,-.025353,
.011809,-.025063,
.012372,-.024669,
.012858,-.024183,
.013252,-.02362,
.013542,-.022997,
.01372,-.022334,
.01378,-.02165,
0.0*
%
%ADD45MACRO45*%
%AMMACRO37*
4,1,40,-.02165,-.01378,
.02165,-.01378,
.022334,-.01372,
.022997,-.013542,
.02362,-.013252,
.024183,-.012858,
.024669,-.012372,
.025063,-.011809,
.025353,-.011186,
.025531,-.010523,
.025591,-.009839,
.025591,.009839,
.025531,.010523,
.025353,.011186,
.025063,.011809,
.024669,.012372,
.024183,.012858,
.02362,.013252,
.022997,.013542,
.022334,.01372,
.02165,.01378,
-.02165,.01378,
-.022334,.01372,
-.022997,.013542,
-.02362,.013252,
-.024183,.012858,
-.024669,.012372,
-.025063,.011809,
-.025353,.011186,
-.025531,.010523,
-.025591,.009839,
-.025591,-.009839,
-.025531,-.010523,
-.025353,-.011186,
-.025063,-.011809,
-.024669,-.012372,
-.024183,-.012858,
-.02362,-.013252,
-.022997,-.013542,
-.022334,-.01372,
-.02165,-.01378,
0.0*
%
%ADD37MACRO37*%
%AMMACRO46*
4,1,40,-.025591,.022634,
-.025591,-.022634,
-.025531,-.023318,
-.025353,-.023982,
-.025063,-.024604,
-.024669,-.025167,
-.024183,-.025653,
-.02362,-.026047,
-.022997,-.026337,
-.022334,-.026515,
-.02165,-.026575,
.02165,-.026575,
.022334,-.026515,
.022997,-.026337,
.02362,-.026047,
.024183,-.025653,
.024669,-.025167,
.025063,-.024604,
.025353,-.023982,
.025531,-.023318,
.025591,-.022634,
.025591,.022634,
.025531,.023318,
.025353,.023982,
.025063,.024604,
.024669,.025167,
.024183,.025653,
.02362,.026047,
.022997,.026337,
.022334,.026515,
.02165,.026575,
-.02165,.026575,
-.022334,.026515,
-.022997,.026337,
-.02362,.026047,
-.024183,.025653,
-.024669,.025167,
-.025063,.024604,
-.025353,.023982,
-.025531,.023318,
-.025591,.022634,
0.0*
%
%ADD46MACRO46*%
%AMMACRO42*
4,1,40,.029524,.025591,
-.029524,.025591,
-.030208,.025531,
-.030872,.025353,
-.031494,.025063,
-.032057,.024669,
-.032543,.024183,
-.032937,.02362,
-.033227,.022997,
-.033405,.022334,
-.033465,.02165,
-.033465,-.02165,
-.033405,-.022334,
-.033227,-.022997,
-.032937,-.02362,
-.032543,-.024183,
-.032057,-.024669,
-.031494,-.025063,
-.030872,-.025353,
-.030208,-.025531,
-.029524,-.025591,
.029524,-.025591,
.030208,-.025531,
.030872,-.025353,
.031494,-.025063,
.032057,-.024669,
.032543,-.024183,
.032937,-.02362,
.033227,-.022997,
.033405,-.022334,
.033465,-.02165,
.033465,.02165,
.033405,.022334,
.033227,.022997,
.032937,.02362,
.032543,.024183,
.032057,.024669,
.031494,.025063,
.030872,.025353,
.030208,.025531,
.029524,.025591,
0.0*
%
%ADD42MACRO42*%
%AMMACRO39*
4,1,40,.022634,.025591,
-.022634,.025591,
-.023318,.025531,
-.023982,.025353,
-.024604,.025063,
-.025167,.024669,
-.025653,.024183,
-.026047,.02362,
-.026337,.022997,
-.026515,.022334,
-.026575,.02165,
-.026575,-.02165,
-.026515,-.022334,
-.026337,-.022997,
-.026047,-.02362,
-.025653,-.024183,
-.025167,-.024669,
-.024604,-.025063,
-.023982,-.025353,
-.023318,-.025531,
-.022634,-.025591,
.022634,-.025591,
.023318,-.025531,
.023982,-.025353,
.024604,-.025063,
.025167,-.024669,
.025653,-.024183,
.026047,-.02362,
.026337,-.022997,
.026515,-.022334,
.026575,-.02165,
.026575,.02165,
.026515,.022334,
.026337,.022997,
.026047,.02362,
.025653,.024183,
.025167,.024669,
.024604,.025063,
.023982,.025353,
.023318,.025531,
.022634,.025591,
0.0*
%
%ADD39MACRO39*%
%ADD48C,.004*%
G75*
%LPD*%
G75*
G54D10*
X13780Y13780D03*
Y330709D03*
X469291Y13780D03*
Y330709D03*
G54D11*
X13976Y107283D03*
X32087D03*
X61220D03*
X79331D03*
G54D20*
X58465Y212402D03*
Y218701D03*
X82087Y68701D03*
Y75000D03*
X76181Y68701D03*
Y75000D03*
X87992Y212402D03*
Y218701D03*
X70276Y212402D03*
Y218701D03*
X111614Y68701D03*
Y75000D03*
X105709Y68701D03*
Y75000D03*
X117520Y212402D03*
Y218701D03*
X99803Y212402D03*
Y218701D03*
X141142Y68701D03*
Y75000D03*
X135236Y68701D03*
Y75000D03*
X147047Y212402D03*
Y218701D03*
X129331Y212402D03*
Y218701D03*
X164764Y68701D03*
Y75000D03*
X170669Y68701D03*
Y75000D03*
X162795Y212402D03*
Y218701D03*
X200197Y110039D03*
Y116339D03*
X182480Y115945D03*
Y122244D03*
X188386Y115945D03*
Y122244D03*
X176575Y212402D03*
Y218701D03*
X188386Y212402D03*
Y218701D03*
X223819Y68701D03*
Y75000D03*
X229724Y68701D03*
Y75000D03*
X206102Y110039D03*
Y116339D03*
Y212402D03*
Y218701D03*
X217913Y212402D03*
Y218701D03*
X235630Y212402D03*
Y218701D03*
X247441Y212402D03*
Y218701D03*
X282874Y68701D03*
Y75000D03*
X265157Y212402D03*
Y218701D03*
X276969Y212402D03*
Y218701D03*
X288780Y68701D03*
Y75000D03*
X294685Y212402D03*
Y218701D03*
X306496Y212402D03*
Y218701D03*
X324213Y212402D03*
Y218701D03*
X336024Y212402D03*
Y218701D03*
X371457Y106102D03*
Y112402D03*
Y161220D03*
Y167520D03*
X353740Y212402D03*
Y218701D03*
X365551Y212402D03*
Y218701D03*
X377362Y106102D03*
Y112402D03*
X383268Y161220D03*
Y167520D03*
X377362Y192717D03*
X395079D03*
X383268D03*
X377362Y199016D03*
X395079D03*
X383268D03*
X395079Y212402D03*
Y218701D03*
X442323Y121850D03*
Y128150D03*
X430512Y141535D03*
Y147835D03*
X454134Y165157D03*
Y141535D03*
Y147835D03*
Y171457D03*
X465945Y184843D03*
Y191142D03*
X460039Y184843D03*
Y191142D03*
G54D12*
X22126Y123012D03*
X12126D03*
X22126Y150571D03*
X12126D03*
X59370Y123012D03*
Y150571D03*
X69370Y123012D03*
Y150571D03*
G54D30*
X168110Y48228D03*
X215354D03*
X244882D03*
X427953Y65945D03*
G54D21*
X55433Y229350D03*
Y256909D03*
X86929Y229350D03*
X65433D03*
X86929Y256909D03*
X65433D03*
X116535Y229350D03*
X96929D03*
X116535Y256909D03*
X96929D03*
X146535Y229350D03*
X126535D03*
X146535Y256909D03*
X126535D03*
X156535Y229350D03*
Y256909D03*
X176535Y229350D03*
X186535D03*
X176535Y256909D03*
X186535D03*
X206535Y229350D03*
X216535D03*
X206535Y256909D03*
X216535D03*
X256752Y90591D03*
X251752D03*
Y112165D03*
X256752D03*
X236535Y229350D03*
X246535D03*
X236535Y256909D03*
X246535D03*
X266752Y90591D03*
X261752D03*
Y112165D03*
X266752D03*
X266535Y229350D03*
X276535D03*
X266535Y256909D03*
X276535D03*
X296535Y229350D03*
X306535D03*
X296535Y256909D03*
X306535D03*
X326535Y229350D03*
X336535D03*
X326535Y256909D03*
X336535D03*
X356535Y229350D03*
X366535D03*
X356535Y256909D03*
X366535D03*
G54D22*
X61535Y273228D03*
X91535D03*
X121535D03*
X151535D03*
X181535D03*
X211535D03*
X241535D03*
X271535D03*
X301535D03*
X347835Y92126D03*
Y147244D03*
X331535Y273228D03*
X361535D03*
X426575D03*
X439173D03*
G54D31*
X178740Y53346D03*
X182480Y43110D03*
X186220Y53346D03*
X179921Y106496D03*
X183661Y96260D03*
X187402Y106496D03*
X434646Y96260D03*
Y106496D03*
X438386Y96260D03*
Y106496D03*
X442126Y96260D03*
Y106496D03*
G54D40*
X427756Y79724D03*
X409646D03*
G54D13*
X31693Y136811D03*
X30512Y130906D03*
X31693Y142717D03*
X37992Y136811D03*
X39173Y130906D03*
X37992Y142717D03*
X78937Y136811D03*
X85236D03*
X86417Y130906D03*
X77756D03*
X78937Y142717D03*
X85236D03*
X132087Y160433D03*
X138386D03*
X161614D03*
X167913D03*
X191142D03*
X197441D03*
X250197Y130906D03*
X256496D03*
X250197Y136811D03*
X256496D03*
X250197Y142717D03*
X256496D03*
X279724Y136811D03*
X286024D03*
X279724Y130906D03*
X286024D03*
X279724Y125000D03*
X286024D03*
X279724Y152559D03*
X286024D03*
X279724Y142717D03*
X286024D03*
X315157Y176181D03*
X321457D03*
G54D41*
X413819Y164744D03*
Y169744D03*
Y174744D03*
Y179744D03*
X435394Y164744D03*
Y179744D03*
Y174744D03*
Y169744D03*
G54D14*
X31693Y148622D03*
X37992D03*
X61220Y184055D03*
Y189961D03*
Y178150D03*
X85236Y148622D03*
X78937D03*
X67520Y184055D03*
Y189961D03*
Y178150D03*
X256496Y125000D03*
X250197D03*
X286024Y176181D03*
X279724D03*
X315157Y168307D03*
Y160433D03*
Y152559D03*
X321457Y168307D03*
Y160433D03*
Y152559D03*
X362795Y121063D03*
X356496D03*
X362795Y128937D03*
X356496D03*
X362795Y176181D03*
X356496D03*
X362795Y184055D03*
X356496D03*
G54D32*
X230709Y152559D03*
Y187992D03*
X252362Y152559D03*
X250394D03*
X248425D03*
X246457D03*
X244488D03*
X242520D03*
X240551D03*
X238583D03*
X236614D03*
X234646D03*
X232677D03*
Y187992D03*
X234646D03*
X236614D03*
X238583D03*
X240551D03*
X242520D03*
X244488D03*
X246457D03*
X248425D03*
X250394D03*
X252362D03*
G54D23*
X61535Y291732D03*
X91535D03*
X121535D03*
X151535D03*
X181535D03*
X211535D03*
X241535D03*
X271535D03*
X301535D03*
X347835Y110630D03*
Y165748D03*
X331535Y291732D03*
X361535D03*
X426575D03*
X439173D03*
G54D42*
X438386Y77756D03*
G54D15*
X17126Y194882D03*
Y185039D03*
Y204724D03*
X40748Y194882D03*
Y185039D03*
Y204724D03*
X166732Y107283D03*
X460039Y306299D03*
Y286220D03*
G54D24*
X61535Y328740D03*
X95866Y18701D03*
X91535Y328740D03*
X115551Y18701D03*
X121535Y328740D03*
X135236Y18701D03*
X151535Y328740D03*
X174606Y18701D03*
X154921D03*
X194291D03*
X181535Y328740D03*
X233661Y18701D03*
X213976D03*
X211535Y328740D03*
X253346Y18701D03*
X241535Y328740D03*
X292717Y18701D03*
X273031D03*
X271535Y328740D03*
X312402Y18701D03*
X301535Y328740D03*
X332087Y18701D03*
X331535Y328740D03*
X371457Y18701D03*
X351772D03*
X361535Y328740D03*
X391535D03*
G54D33*
X223819Y159449D03*
Y161417D03*
Y163386D03*
Y165354D03*
Y167323D03*
Y169291D03*
Y171260D03*
Y173228D03*
Y175197D03*
Y177165D03*
Y179134D03*
Y181102D03*
X259252Y167323D03*
Y165354D03*
Y163386D03*
Y161417D03*
Y159449D03*
Y181102D03*
Y179134D03*
Y177165D03*
Y175197D03*
Y173228D03*
Y171260D03*
Y169291D03*
G54D16*
X17126Y175197D03*
X40748D03*
X150984Y107283D03*
G54D25*
X76181Y18701D03*
X421535Y328740D03*
G54D34*
X286024Y160236D03*
Y168504D03*
X279724Y160236D03*
Y168504D03*
G54D43*
X438386Y65945D03*
G54D44*
X450197Y62795D03*
Y80906D03*
G54D35*
X300591Y147047D03*
Y173819D03*
G54D17*
X52559Y7638D03*
Y37638D03*
X397795Y7638D03*
Y37638D03*
X427795Y7638D03*
X417795D03*
X407795D03*
X427795Y37638D03*
X417795D03*
X407795D03*
X410433Y195276D03*
Y259449D03*
X438780Y195276D03*
Y259449D03*
G54D26*
X78150Y164370D03*
X221850Y152559D03*
X271063Y48228D03*
X358535Y201244D03*
X375394Y67913D03*
X393110Y158465D03*
X422638Y148622D03*
X444291Y10827D03*
Y172244D03*
X471850Y119094D03*
X460039Y199803D03*
G54D45*
X446063Y139567D03*
X442323D03*
X438583D03*
X446063Y149803D03*
X438583D03*
G54D27*
X64370Y218701D03*
Y212402D03*
X93898Y218701D03*
Y212402D03*
X135236Y110039D03*
X129331D03*
X135236Y116339D03*
X129331D03*
X123425Y218701D03*
Y212402D03*
X154921Y218701D03*
Y212402D03*
X182480Y218701D03*
Y212402D03*
X212008Y218701D03*
Y212402D03*
X241535Y218701D03*
Y212402D03*
X282874Y98622D03*
Y92323D03*
X276969Y98622D03*
Y92323D03*
X271063Y218701D03*
Y212402D03*
X288780Y98622D03*
Y92323D03*
X300591Y218701D03*
Y212402D03*
X336024Y112402D03*
Y106102D03*
Y96654D03*
Y90354D03*
Y167520D03*
Y161220D03*
Y151772D03*
Y145472D03*
X330118Y218701D03*
Y212402D03*
X371457Y89173D03*
Y97835D03*
Y144291D03*
Y152953D03*
X359646Y218701D03*
Y212402D03*
X383268Y112402D03*
Y106102D03*
X377362Y167520D03*
Y161220D03*
X389173Y192717D03*
Y199016D03*
X377362Y218701D03*
Y212402D03*
X383268Y218701D03*
Y212402D03*
X389173Y218701D03*
Y212402D03*
X424606Y104528D03*
Y98228D03*
X418701Y97047D03*
Y105709D03*
X450197Y104528D03*
Y98228D03*
X436417Y128150D03*
Y121850D03*
X430512Y128150D03*
Y121850D03*
X454134Y191142D03*
Y184843D03*
X465945Y165157D03*
X460039Y147835D03*
Y141535D03*
X465945Y147835D03*
Y141535D03*
X460039Y165157D03*
X465945Y171457D03*
X460039D03*
G54D18*
X64370Y81850D03*
Y61850D03*
X93898Y81850D03*
Y61850D03*
X123425Y81850D03*
Y61850D03*
X135236Y177244D03*
X152953Y76850D03*
X164764Y177244D03*
X182480Y76850D03*
X194291Y177244D03*
X212008Y76850D03*
X241535D03*
X271063D03*
X300591D03*
G54D36*
X359646Y110433D03*
Y92323D03*
Y165551D03*
Y147441D03*
X462008Y80906D03*
Y62795D03*
G54D46*
X450197Y121457D03*
Y128543D03*
G54D37*
X372244Y121260D03*
Y128740D03*
Y176378D03*
Y183858D03*
X382480Y125000D03*
Y180118D03*
G54D28*
X118012Y95472D03*
X115453D03*
X112894D03*
X110335D03*
X107776D03*
X105217D03*
X102657D03*
Y119094D03*
X105217D03*
X107776D03*
X110335D03*
X112894D03*
X115453D03*
X118012D03*
X120571Y95472D03*
Y119094D03*
X230217Y95472D03*
X227657D03*
X225098D03*
X222539D03*
X219980D03*
X217421D03*
X214862D03*
Y119094D03*
X217421D03*
X219980D03*
X222539D03*
X225098D03*
X227657D03*
X230217D03*
X232776Y95472D03*
Y119094D03*
G54D19*
X64370Y71850D03*
X93898D03*
X123425D03*
X135236Y167244D03*
X152953Y66850D03*
X164764Y167244D03*
X182480Y66850D03*
X194291Y167244D03*
X212008Y66850D03*
X241535D03*
X271063D03*
X300591D03*
G54D38*
X388386Y97244D03*
X378150Y93504D03*
X388386Y89764D03*
Y152362D03*
X378150Y148622D03*
X388386Y144882D03*
G54D47*
X465945Y109252D03*
Y93504D03*
G54D29*
X149606Y48228D03*
X196850D03*
X226378D03*
X409449Y65945D03*
G54D48*
G01X7874Y0D02*
X475197D01*
G03X483071Y7874I0J7874D01*
G01Y336614D01*
G03X475197Y344488I-7874J0D01*
G01X7874D01*
G03X0Y336614I0J-7874D01*
G01Y7874D01*
G03X7874Y0I7874J0D01*
G54D39*
X403346Y54134D03*
X410433D03*
X421063D03*
X428150D03*
M02*
