G04 ================== begin FILE IDENTIFICATION RECORD ==================*
G04 Layout Name:  D:/Project/2018/CentralizedMonitoringSystem/hardware/allegro/CMS.brd*
G04 Film Name:    SOLDERMASK_BOTTOM*
G04 File Format:  Gerber RS274X*
G04 File Origin:  Cadence Allegro 17.2-S037*
G04 Origin Date:  Wed Aug 22 23:57:05 2018*
G04 *
G04 Layer:  VIA CLASS/SOLDERMASK_BOTTOM*
G04 Layer:  PIN/SOLDERMASK_BOTTOM*
G04 Layer:  PACKAGE GEOMETRY/SOLDERMASK_BOTTOM*
G04 Layer:  BOARD GEOMETRY/SOLDERMASK_BOTTOM*
G04 Layer:  BOARD GEOMETRY/OUTLINE*
G04 *
G04 Offset:    (0.000 0.000)*
G04 Mirror:    No*
G04 Mode:      Positive*
G04 Rotation:  0*
G04 FullContactRelief:  No*
G04 UndefLineWidth:     4.000*
G04 ================== end FILE IDENTIFICATION RECORD ====================*
%FSLAX25Y25*MOIN*%
%IR0*IPPOS*OFA0.00000B0.00000*MIA0B0*SFA1.00000B1.00000*%
%ADD18C,.122051*%
%ADD19R,.122051X.122051*%
%ADD10C,.240157*%
%AMMACRO17*
4,1,40,.047238,-.027559,
-.047238,-.027559,
-.047922,-.027499,
-.048586,-.027321,
-.049209,-.027031,
-.049771,-.026637,
-.050257,-.026151,
-.050651,-.025589,
-.050941,-.024966,
-.051119,-.024302,
-.051179,-.023618,
-.051179,.023618,
-.051119,.024302,
-.050941,.024966,
-.050651,.025589,
-.050257,.026151,
-.049771,.026637,
-.049209,.027031,
-.048586,.027321,
-.047922,.027499,
-.047238,.027559,
.047238,.027559,
.047922,.027499,
.048586,.027321,
.049209,.027031,
.049771,.026637,
.050257,.026151,
.050651,.025589,
.050941,.024966,
.051119,.024302,
.051179,.023618,
.051179,-.023618,
.051119,-.024302,
.050941,-.024966,
.050651,-.025589,
.050257,-.026151,
.049771,-.026637,
.049209,-.027031,
.048586,-.027321,
.047922,-.027499,
.047238,-.027559,
0.0*
%
%ADD17MACRO17*%
%ADD20C,.03937*%
%ADD13C,.082681*%
%ADD14C,.059059*%
%AMMACRO16*
4,1,40,-.047238,.027559,
.047238,.027559,
.047922,.027499,
.048586,.027321,
.049209,.027031,
.049771,.026637,
.050257,.026151,
.050651,.025589,
.050941,.024966,
.051119,.024302,
.051179,.023618,
.051179,-.023618,
.051119,-.024302,
.050941,-.024966,
.050651,-.025589,
.050257,-.026151,
.049771,-.026637,
.049209,-.027031,
.048586,-.027321,
.047922,-.027499,
.047238,-.027559,
-.047238,-.027559,
-.047922,-.027499,
-.048586,-.027321,
-.049209,-.027031,
-.049771,-.026637,
-.050257,-.026151,
-.050651,-.025589,
-.050941,-.024966,
-.051119,-.024302,
-.051179,-.023618,
-.051179,.023618,
-.051119,.024302,
-.050941,.024966,
-.050651,.025589,
-.050257,.026151,
-.049771,.026637,
-.049209,.027031,
-.048586,.027321,
-.047922,.027499,
-.047238,.027559,
0.0*
%
%ADD16MACRO16*%
%ADD11C,.066929*%
%ADD15R,.059059X.059059*%
%ADD12R,.066929X.066929*%
%ADD21C,.004*%
G75*
%LPD*%
G75*
G54D10*
X13780Y13780D03*
Y330709D03*
X469291Y13780D03*
Y330709D03*
G54D11*
X17126Y194882D03*
Y185039D03*
Y204724D03*
X40748Y194882D03*
Y185039D03*
Y204724D03*
X166732Y107284D03*
X460039Y306299D03*
Y286220D03*
G54D20*
X78150Y164370D03*
X221850Y152559D03*
X271063Y48228D03*
X358535Y201244D03*
X375394Y67913D03*
X393110Y158465D03*
X422638Y148622D03*
X444291Y10827D03*
Y172244D03*
X471850Y119094D03*
X460039Y199803D03*
G54D21*
G01X7874Y0D02*
X475197D01*
G03X483071Y7874I0J7874D01*
G01Y336614D01*
G03X475197Y344488I-7874J0D01*
G01X7874D01*
G03X0Y336614I0J-7874D01*
G01Y7874D01*
G03X7874Y0I7874J0D01*
G54D12*
X17126Y175197D03*
X40748D03*
X150984Y107284D03*
G54D13*
X52559Y7638D03*
Y37638D03*
X397795Y7638D03*
Y37638D03*
X427795Y7638D03*
X417795D03*
X407795D03*
X427795Y37638D03*
X417795D03*
X407795D03*
X410433Y195276D03*
Y259449D03*
X438780Y195276D03*
Y259449D03*
G54D14*
X64370Y81850D03*
Y61850D03*
X93898Y81850D03*
Y61850D03*
X123425Y81850D03*
Y61850D03*
X135236Y177244D03*
X152953Y76850D03*
X164764Y177244D03*
X182480Y76850D03*
X194291Y177244D03*
X212008Y76850D03*
X241535D03*
X271063D03*
X300591D03*
G54D15*
X64370Y71850D03*
X93898D03*
X123425D03*
X135236Y167244D03*
X152953Y66850D03*
X164764Y167244D03*
X182480Y66850D03*
X194291Y167244D03*
X212008Y66850D03*
X241535D03*
X271063D03*
X300591D03*
G54D16*
X61535Y307480D03*
X91535D03*
X121535D03*
X151535D03*
X181535D03*
X211535D03*
X241535D03*
X271535D03*
X301535D03*
X331535D03*
X361535D03*
X403740Y291732D03*
X391142D03*
G54D17*
X61535Y288976D03*
X91535D03*
X121535D03*
X151535D03*
X181535D03*
X211535D03*
X241535D03*
X271535D03*
X301535D03*
X331535D03*
X361535D03*
X403740Y273228D03*
X391142D03*
G54D18*
X61535Y328740D03*
X95866Y18701D03*
X91535Y328740D03*
X115551Y18701D03*
X121535Y328740D03*
X135236Y18701D03*
X151535Y328740D03*
X174606Y18701D03*
X154921D03*
X194291D03*
X181535Y328740D03*
X233661Y18701D03*
X213976D03*
X211535Y328740D03*
X253346Y18701D03*
X241535Y328740D03*
X292716Y18701D03*
X273032D03*
X271535Y328740D03*
X312402Y18701D03*
X301535Y328740D03*
X332087Y18701D03*
X331535Y328740D03*
X371457Y18701D03*
X351772D03*
X361535Y328740D03*
X391535D03*
G54D19*
X76181Y18701D03*
X421535Y328740D03*
M02*
