G04 ================== begin FILE IDENTIFICATION RECORD ==================*
G04 Layout Name:  D:/Project/2018/CentralizedMonitoringSystem/hardware/allegro/CMS.brd*
G04 Film Name:    TOP*
G04 File Format:  Gerber RS274X*
G04 File Origin:  Cadence Allegro 17.2-S045*
G04 Origin Date:  Fri Nov 02 14:48:18 2018*
G04 *
G04 Layer:  BOARD GEOMETRY/OUTLINE*
G04 Layer:  ETCH/TOP*
G04 Layer:  PIN/TOP*
G04 Layer:  VIA CLASS/TOP*
G04 *
G04 Offset:    (0.000 0.000)*
G04 Mirror:    No*
G04 Mode:      Positive*
G04 Rotation:  0*
G04 FullContactRelief:  No*
G04 UndefLineWidth:     4.000*
G04 ================== end FILE IDENTIFICATION RECORD ====================*
%FSLAX25Y25*MOIN*%
%IR0*IPPOS*OFA0.00000B0.00000*MIA0B0*SFA1.00000B1.00000*%
%ADD25C,.11811*%
%ADD10C,.23622*%
%ADD26R,.11811X.11811*%
%AMMACRO28*
4,1,40,-.01575,.015744,
-.01575,-.015744,
-.01569,-.016428,
-.015512,-.017092,
-.015222,-.017714,
-.014828,-.018277,
-.014342,-.018763,
-.01378,-.019157,
-.013157,-.019447,
-.012493,-.019625,
-.011809,-.019685,
.011809,-.019685,
.012493,-.019625,
.013157,-.019447,
.013779,-.019157,
.014342,-.018763,
.014828,-.018277,
.015222,-.017715,
.015512,-.017092,
.01569,-.016428,
.01575,-.015744,
.01575,.015744,
.01569,.016428,
.015512,.017092,
.015222,.017715,
.014828,.018277,
.014342,.018763,
.01378,.019157,
.013157,.019447,
.012493,.019625,
.011809,.019685,
-.011809,.019685,
-.012493,.019625,
-.013157,.019447,
-.01378,.019157,
-.014342,.018763,
-.014828,.018277,
-.015222,.017715,
-.015512,.017092,
-.01569,.016428,
-.01575,.015744,
0.0*
%
%ADD28MACRO28*%
%AMMACRO15*
4,1,40,.015744,.01575,
-.015744,.01575,
-.016428,.01569,
-.017092,.015512,
-.017715,.015222,
-.018277,.014828,
-.018763,.014342,
-.019157,.01378,
-.019447,.013157,
-.019625,.012493,
-.019685,.011809,
-.019685,-.011809,
-.019625,-.012493,
-.019447,-.013157,
-.019157,-.013779,
-.018763,-.014342,
-.018277,-.014828,
-.017715,-.015222,
-.017092,-.015512,
-.016428,-.01569,
-.015744,-.01575,
.015744,-.01575,
.016428,-.01569,
.017092,-.015512,
.017714,-.015222,
.018277,-.014828,
.018763,-.014342,
.019157,-.01378,
.019447,-.013157,
.019625,-.012493,
.019685,-.011809,
.019685,.011809,
.019625,.012493,
.019447,.013157,
.019157,.01378,
.018763,.014342,
.018277,.014828,
.017715,.015222,
.017092,.015512,
.016428,.01569,
.015744,.01575,
0.0*
%
%ADD15MACRO15*%
%AMMACRO32*
4,1,40,-.011809,.019679,
-.011809,-.019679,
-.011749,-.020363,
-.011571,-.021027,
-.011281,-.021649,
-.010887,-.022212,
-.010401,-.022698,
-.009839,-.023092,
-.009216,-.023382,
-.008552,-.02356,
-.007868,-.02362,
.007868,-.02362,
.008552,-.02356,
.009216,-.023382,
.009838,-.023092,
.010401,-.022698,
.010887,-.022212,
.011281,-.02165,
.011571,-.021027,
.011749,-.020363,
.011809,-.019679,
.011809,.019679,
.011749,.020363,
.011571,.021027,
.011281,.021649,
.010887,.022212,
.010401,.022698,
.009839,.023092,
.009216,.023382,
.008552,.02356,
.007868,.02362,
-.007868,.02362,
-.008552,.02356,
-.009216,.023382,
-.009839,.023092,
-.010401,.022698,
-.010887,.022212,
-.011281,.02165,
-.011571,.021027,
-.011749,.020363,
-.011809,.019679,
0.0*
%
%ADD32MACRO32*%
%AMMACRO39*
4,1,40,.019679,.011809,
-.019679,.011809,
-.020363,.011749,
-.021027,.011571,
-.021649,.011281,
-.022212,.010887,
-.022698,.010401,
-.023092,.009839,
-.023382,.009216,
-.02356,.008552,
-.02362,.007868,
-.02362,-.007868,
-.02356,-.008552,
-.023382,-.009216,
-.023092,-.009838,
-.022698,-.010401,
-.022212,-.010887,
-.02165,-.011281,
-.021027,-.011571,
-.020363,-.011749,
-.019679,-.011809,
.019679,-.011809,
.020363,-.011749,
.021027,-.011571,
.021649,-.011281,
.022212,-.010887,
.022698,-.010401,
.023092,-.009839,
.023382,-.009216,
.02356,-.008552,
.02362,-.007868,
.02362,.007868,
.02356,.008552,
.023382,.009216,
.023092,.009839,
.022698,.010401,
.022212,.010887,
.021649,.011281,
.021027,.011571,
.020363,.011749,
.019679,.011809,
0.0*
%
%ADD39MACRO39*%
%AMMACRO33*
4,1,44,-.005905,.025588,
-.005905,-.025588,
-.005846,-.026272,
-.005668,-.026936,
-.005378,-.027559,
-.004984,-.028121,
-.004498,-.028607,
-.003935,-.029001,
-.003313,-.029292,
-.002649,-.02947,
-.001965,-.029529,
-.001964,-.029529,
.001964,-.029529,
.002648,-.02947,
.003312,-.029292,
.003935,-.029002,
.004497,-.028608,
.004983,-.028122,
.005377,-.027559,
.005668,-.026937,
.005846,-.026273,
.005905,-.025589,
.005905,-.025588,
.005905,.025588,
.005846,.026272,
.005668,.026936,
.005378,.027559,
.004984,.028121,
.004498,.028607,
.003935,.029001,
.003313,.029292,
.002649,.02947,
.001965,.029529,
.001964,.029529,
-.001964,.029529,
-.002648,.02947,
-.003312,.029292,
-.003935,.029002,
-.004497,.028608,
-.004983,.028122,
-.005377,.027559,
-.005668,.026937,
-.005846,.026273,
-.005905,.025589,
-.005905,.025588,
0.0*
%
%ADD33MACRO33*%
%AMMACRO46*
4,1,44,-.02362,.020663,
-.02362,-.020663,
-.02356,-.021347,
-.023382,-.022011,
-.023092,-.022634,
-.022698,-.023196,
-.022213,-.023682,
-.02165,-.024076,
-.021027,-.024367,
-.020364,-.024545,
-.019679,-.024604,
-.019679,-.024604,
.019679,-.024604,
.020363,-.024545,
.021027,-.024367,
.021649,-.024077,
.022212,-.023682,
.022698,-.023197,
.023092,-.022634,
.023382,-.022011,
.02356,-.021348,
.02362,-.020664,
.02362,-.020663,
.02362,.020663,
.02356,.021347,
.023382,.022011,
.023092,.022634,
.022698,.023196,
.022213,.023682,
.02165,.024076,
.021027,.024367,
.020364,.024545,
.019679,.024604,
.019679,.024604,
-.019679,.024604,
-.020363,.024545,
-.021027,.024367,
-.021649,.024077,
-.022212,.023682,
-.022698,.023197,
-.023092,.022634,
-.023382,.022011,
-.02356,.021348,
-.02362,.020664,
-.02362,.020663,
0.0*
%
%ADD46MACRO46*%
%AMMACRO40*
4,1,44,.020663,.02362,
-.020663,.02362,
-.021347,.02356,
-.022011,.023382,
-.022634,.023092,
-.023196,.022698,
-.023682,.022213,
-.024076,.02165,
-.024367,.021027,
-.024545,.020364,
-.024604,.019679,
-.024604,.019679,
-.024604,-.019679,
-.024545,-.020363,
-.024367,-.021027,
-.024077,-.021649,
-.023682,-.022212,
-.023197,-.022698,
-.022634,-.023092,
-.022011,-.023382,
-.021348,-.02356,
-.020664,-.02362,
-.020663,-.02362,
.020663,-.02362,
.021347,-.02356,
.022011,-.023382,
.022634,-.023092,
.023196,-.022698,
.023682,-.022213,
.024076,-.02165,
.024367,-.021027,
.024545,-.020364,
.024604,-.019679,
.024604,-.019679,
.024604,.019679,
.024545,.020363,
.024367,.021027,
.024077,.021649,
.023682,.022212,
.023197,.022698,
.022634,.023092,
.022011,.023382,
.021348,.02356,
.020663,.02362,
.020663,.02362,
0.0*
%
%ADD40MACRO40*%
%AMMACRO47*
4,1,40,-.074799,-.03937,
.074799,-.03937,
.075483,-.03931,
.076147,-.039132,
.07677,-.038842,
.077332,-.038448,
.077818,-.037962,
.078212,-.0374,
.078502,-.036777,
.07868,-.036113,
.07874,-.035429,
.07874,.035429,
.07868,.036113,
.078502,.036777,
.078212,.0374,
.077818,.037962,
.077332,.038448,
.07677,.038842,
.076147,.039132,
.075483,.03931,
.074799,.03937,
-.074799,.03937,
-.075483,.03931,
-.076147,.039132,
-.07677,.038842,
-.077332,.038448,
-.077818,.037962,
-.078212,.0374,
-.078502,.036777,
-.07868,.036113,
-.07874,.035429,
-.07874,-.035429,
-.07868,-.036113,
-.078502,-.036777,
-.078212,-.0374,
-.077818,-.037962,
-.077332,-.038448,
-.07677,-.038842,
-.076147,-.039132,
-.075483,-.03931,
-.074799,-.03937,
0.0*
%
%ADD47MACRO47*%
%AMMACRO30*
4,1,44,-.02559,.045273,
-.02559,-.045273,
-.025531,-.045957,
-.025353,-.046621,
-.025063,-.047244,
-.024669,-.047806,
-.024183,-.048292,
-.02362,-.048686,
-.022998,-.048977,
-.022334,-.049155,
-.02165,-.049214,
-.021649,-.049214,
.021649,-.049214,
.022333,-.049155,
.022997,-.048977,
.02362,-.048687,
.024182,-.048293,
.024668,-.047807,
.025062,-.047244,
.025353,-.046622,
.025531,-.045958,
.02559,-.045274,
.02559,-.045273,
.02559,.045273,
.025531,.045957,
.025353,.046621,
.025063,.047244,
.024669,.047806,
.024183,.048292,
.02362,.048686,
.022998,.048977,
.022334,.049155,
.02165,.049214,
.021649,.049214,
-.021649,.049214,
-.022333,.049155,
-.022997,.048977,
-.02362,.048687,
-.024182,.048293,
-.024668,.047807,
-.025062,.047244,
-.025353,.046622,
-.025531,.045958,
-.02559,.045274,
-.02559,.045273,
0.0*
%
%ADD30MACRO30*%
%AMMACRO13*
4,1,44,-.011809,.025588,
-.011809,-.025588,
-.011749,-.026272,
-.011571,-.026936,
-.011281,-.027559,
-.010887,-.028121,
-.010402,-.028607,
-.009839,-.029001,
-.009216,-.029292,
-.008553,-.02947,
-.007868,-.029529,
-.007868,-.029529,
.007868,-.029529,
.008552,-.02947,
.009216,-.029292,
.009838,-.029002,
.010401,-.028607,
.010887,-.028122,
.011281,-.027559,
.011571,-.026936,
.011749,-.026273,
.011809,-.025589,
.011809,-.025588,
.011809,.025588,
.011749,.026272,
.011571,.026936,
.011281,.027559,
.010887,.028121,
.010402,.028607,
.009839,.029001,
.009216,.029292,
.008553,.02947,
.007868,.029529,
.007868,.029529,
-.007868,.029529,
-.008552,.02947,
-.009216,.029292,
-.009839,.029002,
-.010401,.028607,
-.010887,.028122,
-.011281,.027559,
-.011571,.026936,
-.011749,.026273,
-.011809,.025589,
-.011809,.025588,
0.0*
%
%ADD13MACRO13*%
%AMMACRO41*
4,1,44,.025588,.011809,
-.025588,.011809,
-.026272,.011749,
-.026936,.011571,
-.027559,.011281,
-.028121,.010887,
-.028607,.010402,
-.029001,.009839,
-.029292,.009216,
-.02947,.008553,
-.029529,.007868,
-.029529,.007868,
-.029529,-.007868,
-.02947,-.008552,
-.029292,-.009216,
-.029002,-.009838,
-.028607,-.010401,
-.028122,-.010887,
-.027559,-.011281,
-.026936,-.011571,
-.026273,-.011749,
-.025589,-.011809,
-.025588,-.011809,
.025588,-.011809,
.026272,-.011749,
.026936,-.011571,
.027559,-.011281,
.028121,-.010887,
.028607,-.010402,
.029001,-.009839,
.029292,-.009216,
.02947,-.008553,
.029529,-.007868,
.029529,-.007868,
.029529,.007868,
.02947,.008552,
.029292,.009216,
.029002,.009839,
.028607,.010401,
.028122,.010887,
.027559,.011281,
.026936,.011571,
.026273,.011749,
.025589,.011809,
.025588,.011809,
0.0*
%
%ADD41MACRO41*%
%AMMACRO24*
4,1,44,.045273,.02559,
-.045273,.02559,
-.045957,.025531,
-.046621,.025353,
-.047244,.025063,
-.047806,.024669,
-.048292,.024183,
-.048686,.02362,
-.048977,.022998,
-.049155,.022334,
-.049214,.02165,
-.049214,.021649,
-.049214,-.021649,
-.049155,-.022333,
-.048977,-.022997,
-.048687,-.02362,
-.048293,-.024182,
-.047807,-.024668,
-.047244,-.025062,
-.046622,-.025353,
-.045958,-.025531,
-.045274,-.02559,
-.045273,-.02559,
.045273,-.02559,
.045957,-.025531,
.046621,-.025353,
.047244,-.025063,
.047806,-.024669,
.048292,-.024183,
.048686,-.02362,
.048977,-.022998,
.049155,-.022334,
.049214,-.02165,
.049214,-.021649,
.049214,.021649,
.049155,.022333,
.048977,.022997,
.048687,.02362,
.048293,.024182,
.047807,.024668,
.047244,.025062,
.046622,.025353,
.045958,.025531,
.045274,.02559,
.045273,.02559,
0.0*
%
%ADD24MACRO24*%
%AMMACRO42*
4,1,40,.027553,.02362,
-.027553,.02362,
-.028237,.02356,
-.028901,.023382,
-.029524,.023092,
-.030086,.022698,
-.030572,.022212,
-.030966,.02165,
-.031256,.021027,
-.031434,.020363,
-.031494,.019679,
-.031494,-.019679,
-.031434,-.020363,
-.031256,-.021027,
-.030966,-.021649,
-.030572,-.022212,
-.030086,-.022698,
-.029524,-.023092,
-.028901,-.023382,
-.028237,-.02356,
-.027553,-.02362,
.027553,-.02362,
.028237,-.02356,
.028901,-.023382,
.029523,-.023092,
.030086,-.022698,
.030572,-.022212,
.030966,-.02165,
.031256,-.021027,
.031434,-.020363,
.031494,-.019679,
.031494,.019679,
.031434,.020363,
.031256,.021027,
.030966,.021649,
.030572,.022212,
.030086,.022698,
.029524,.023092,
.028901,.023382,
.028237,.02356,
.027553,.02362,
0.0*
%
%ADD42MACRO42*%
%AMMACRO37*
4,1,40,-.03937,.035429,
-.03937,-.035429,
-.03931,-.036113,
-.039132,-.036777,
-.038842,-.0374,
-.038448,-.037962,
-.037962,-.038448,
-.0374,-.038842,
-.036777,-.039132,
-.036113,-.03931,
-.035429,-.03937,
.035429,-.03937,
.036113,-.03931,
.036777,-.039132,
.0374,-.038842,
.037962,-.038448,
.038448,-.037962,
.038842,-.0374,
.039132,-.036777,
.03931,-.036113,
.03937,-.035429,
.03937,.035429,
.03931,.036113,
.039132,.036777,
.038842,.0374,
.038448,.037962,
.037962,.038448,
.0374,.038842,
.036777,.039132,
.036113,.03931,
.035429,.03937,
-.035429,.03937,
-.036113,.03931,
-.036777,.039132,
-.0374,.038842,
-.037962,.038448,
-.038448,.037962,
-.038842,.0374,
-.039132,.036777,
-.03931,.036113,
-.03937,.035429,
0.0*
%
%ADD37MACRO37*%
%AMMACRO29*
4,1,44,-.007874,.025588,
-.007874,-.025588,
-.007814,-.026272,
-.007636,-.026936,
-.007346,-.027559,
-.006952,-.028121,
-.006467,-.028607,
-.005904,-.029001,
-.005281,-.029292,
-.004618,-.02947,
-.003933,-.029529,
-.003933,-.029529,
.003933,-.029529,
.004617,-.02947,
.005281,-.029292,
.005903,-.029002,
.006466,-.028607,
.006952,-.028122,
.007346,-.027559,
.007636,-.026936,
.007814,-.026273,
.007874,-.025589,
.007874,-.025588,
.007874,.025588,
.007814,.026272,
.007636,.026936,
.007346,.027559,
.006952,.028121,
.006467,.028607,
.005904,.029001,
.005281,.029292,
.004618,.02947,
.003933,.029529,
.003933,.029529,
-.003933,.029529,
-.004617,.02947,
-.005281,.029292,
-.005903,.029002,
-.006466,.028607,
-.006952,.028122,
-.007346,.027559,
-.007636,.026936,
-.007814,.026273,
-.007874,.025589,
-.007874,.025588,
0.0*
%
%ADD29MACRO29*%
%ADD27C,.035433*%
%AMMACRO21*
4,1,40,.01575,-.015744,
.01575,.015744,
.01569,.016428,
.015512,.017092,
.015222,.017715,
.014828,.018277,
.014342,.018763,
.01378,.019157,
.013157,.019447,
.012493,.019625,
.011809,.019685,
-.011809,.019685,
-.012493,.019625,
-.013157,.019447,
-.01378,.019157,
-.014342,.018763,
-.014828,.018277,
-.015222,.017715,
-.015512,.017092,
-.01569,.016428,
-.01575,.015744,
-.01575,-.015744,
-.01569,-.016428,
-.015512,-.017092,
-.015222,-.017714,
-.014828,-.018277,
-.014342,-.018763,
-.01378,-.019157,
-.013157,-.019447,
-.012493,-.019625,
-.011809,-.019685,
.011809,-.019685,
.012493,-.019625,
.013157,-.019447,
.013779,-.019157,
.014342,-.018763,
.014828,-.018277,
.015222,-.017715,
.015512,-.017092,
.01569,-.016428,
.01575,-.015744,
0.0*
%
%ADD21MACRO21*%
%AMMACRO14*
4,1,40,-.015744,-.01575,
.015744,-.01575,
.016428,-.01569,
.017092,-.015512,
.017714,-.015222,
.018277,-.014828,
.018763,-.014342,
.019157,-.01378,
.019447,-.013157,
.019625,-.012493,
.019685,-.011809,
.019685,.011809,
.019625,.012493,
.019447,.013157,
.019157,.01378,
.018763,.014342,
.018277,.014828,
.017715,.015222,
.017092,.015512,
.016428,.01569,
.015744,.01575,
-.015744,.01575,
-.016428,.01569,
-.017092,.015512,
-.017715,.015222,
-.018277,.014828,
-.018763,.014342,
-.019157,.01378,
-.019447,.013157,
-.019625,.012493,
-.019685,.011809,
-.019685,-.011809,
-.019625,-.012493,
-.019447,-.013157,
-.019157,-.013779,
-.018763,-.014342,
-.018277,-.014828,
-.017715,-.015222,
-.017092,-.015512,
-.016428,-.01569,
-.015744,-.01575,
0.0*
%
%ADD14MACRO14*%
%ADD19C,.055118*%
%ADD11C,.031496*%
%AMMACRO45*
4,1,40,.011809,-.019679,
.011809,.019679,
.011749,.020363,
.011571,.021027,
.011281,.021649,
.010887,.022212,
.010401,.022698,
.009839,.023092,
.009216,.023382,
.008552,.02356,
.007868,.02362,
-.007868,.02362,
-.008552,.02356,
-.009216,.023382,
-.009839,.023092,
-.010401,.022698,
-.010887,.022212,
-.011281,.02165,
-.011571,.021027,
-.011749,.020363,
-.011809,.019679,
-.011809,-.019679,
-.011749,-.020363,
-.011571,-.021027,
-.011281,-.021649,
-.010887,-.022212,
-.010401,-.022698,
-.009839,-.023092,
-.009216,-.023382,
-.008552,-.02356,
-.007868,-.02362,
.007868,-.02362,
.008552,-.02356,
.009216,-.023382,
.009838,-.023092,
.010401,-.022698,
.010887,-.022212,
.011281,-.02165,
.011571,-.021027,
.011749,-.020363,
.011809,-.019679,
0.0*
%
%ADD45MACRO45*%
%AMMACRO38*
4,1,40,-.019679,-.011809,
.019679,-.011809,
.020363,-.011749,
.021027,-.011571,
.021649,-.011281,
.022212,-.010887,
.022698,-.010401,
.023092,-.009839,
.023382,-.009216,
.02356,-.008552,
.02362,-.007868,
.02362,.007868,
.02356,.008552,
.023382,.009216,
.023092,.009839,
.022698,.010401,
.022212,.010887,
.021649,.011281,
.021027,.011571,
.020363,.011749,
.019679,.011809,
-.019679,.011809,
-.020363,.011749,
-.021027,.011571,
-.021649,.011281,
-.022212,.010887,
-.022698,.010401,
-.023092,.009839,
-.023382,.009216,
-.02356,.008552,
-.02362,.007868,
-.02362,-.007868,
-.02356,-.008552,
-.023382,-.009216,
-.023092,-.009838,
-.022698,-.010401,
-.022212,-.010887,
-.02165,-.011281,
-.021027,-.011571,
-.020363,-.011749,
-.019679,-.011809,
0.0*
%
%ADD38MACRO38*%
%ADD18C,.07874*%
%AMMACRO36*
4,1,40,.02362,-.031494,
.02362,.031494,
.02356,.032178,
.023382,.032842,
.023092,.033465,
.022698,.034027,
.022212,.034513,
.021649,.034907,
.021027,.035197,
.020363,.035375,
.019679,.035435,
-.019679,.035435,
-.020363,.035375,
-.021027,.035197,
-.021649,.034907,
-.022212,.034513,
-.022698,.034027,
-.023092,.033465,
-.023382,.032842,
-.02356,.032178,
-.02362,.031494,
-.02362,-.031494,
-.02356,-.032178,
-.023382,-.032842,
-.023092,-.033465,
-.022698,-.034027,
-.022212,-.034513,
-.02165,-.034907,
-.021027,-.035197,
-.020363,-.035375,
-.019679,-.035435,
.019679,-.035435,
.020363,-.035375,
.021027,-.035197,
.021649,-.034907,
.022212,-.034513,
.022698,-.034027,
.023092,-.033465,
.023382,-.032842,
.02356,-.032178,
.02362,-.031494,
0.0*
%
%ADD36MACRO36*%
%ADD20R,.055118X.055118*%
%AMMACRO34*
4,1,44,-.025588,-.005905,
.025588,-.005905,
.026272,-.005846,
.026936,-.005668,
.027559,-.005378,
.028121,-.004984,
.028607,-.004498,
.029001,-.003935,
.029292,-.003313,
.02947,-.002649,
.029529,-.001965,
.029529,-.001964,
.029529,.001964,
.02947,.002648,
.029292,.003312,
.029002,.003935,
.028608,.004497,
.028122,.004983,
.027559,.005377,
.026937,.005668,
.026273,.005846,
.025589,.005905,
.025588,.005905,
-.025588,.005905,
-.026272,.005846,
-.026936,.005668,
-.027559,.005378,
-.028121,.004984,
-.028607,.004498,
-.029001,.003935,
-.029292,.003313,
-.02947,.002649,
-.029529,.001965,
-.029529,.001964,
-.029529,-.001964,
-.02947,-.002648,
-.029292,-.003312,
-.029002,-.003935,
-.028608,-.004497,
-.028122,-.004983,
-.027559,-.005377,
-.026937,-.005668,
-.026273,-.005846,
-.025589,-.005905,
-.025588,-.005905,
0.0*
%
%ADD34MACRO34*%
%ADD16C,.062988*%
%AMMACRO35*
4,1,40,.023622,-.023622,
.023622,.023622,
.023562,.024306,
.023385,.024969,
.023095,.02559,
.022701,.026153,
.022216,.026638,
.021653,.027032,
.021032,.027322,
.020369,.027499,
.019685,.027559,
-.019685,.027559,
-.020369,.027499,
-.021032,.027322,
-.021653,.027032,
-.022216,.026638,
-.022701,.026153,
-.023095,.025591,
-.023385,.024969,
-.023562,.024306,
-.023622,.023622,
-.023622,-.023622,
-.023562,-.024306,
-.023385,-.024969,
-.023095,-.02559,
-.022701,-.026153,
-.022216,-.026638,
-.021654,-.027032,
-.021032,-.027322,
-.020369,-.027499,
-.019685,-.027559,
.019685,-.027559,
.020369,-.027499,
.021032,-.027322,
.021653,-.027032,
.022216,-.026638,
.022701,-.026153,
.023095,-.025591,
.023385,-.024969,
.023562,-.024306,
.023622,-.023622,
0.0*
%
%ADD35MACRO35*%
%AMMACRO31*
4,1,44,.02559,-.045273,
.02559,.045273,
.025531,.045957,
.025353,.046621,
.025063,.047244,
.024669,.047806,
.024183,.048292,
.02362,.048686,
.022998,.048977,
.022334,.049155,
.02165,.049214,
.021649,.049214,
-.021649,.049214,
-.022333,.049155,
-.022997,.048977,
-.02362,.048687,
-.024182,.048293,
-.024668,.047807,
-.025062,.047244,
-.025353,.046622,
-.025531,.045958,
-.02559,.045274,
-.02559,.045273,
-.02559,-.045273,
-.025531,-.045957,
-.025353,-.046621,
-.025063,-.047244,
-.024669,-.047806,
-.024183,-.048292,
-.02362,-.048686,
-.022998,-.048977,
-.022334,-.049155,
-.02165,-.049214,
-.021649,-.049214,
.021649,-.049214,
.022333,-.049155,
.022997,-.048977,
.02362,-.048687,
.024182,-.048293,
.024668,-.047807,
.025062,-.047244,
.025353,-.046622,
.025531,-.045958,
.02559,-.045274,
.02559,-.045273,
0.0*
%
%ADD31MACRO31*%
%AMMACRO23*
4,1,44,-.045273,-.02559,
.045273,-.02559,
.045957,-.025531,
.046621,-.025353,
.047244,-.025063,
.047806,-.024669,
.048292,-.024183,
.048686,-.02362,
.048977,-.022998,
.049155,-.022334,
.049214,-.02165,
.049214,-.021649,
.049214,.021649,
.049155,.022333,
.048977,.022997,
.048687,.02362,
.048293,.024182,
.047807,.024668,
.047244,.025062,
.046622,.025353,
.045958,.025531,
.045274,.02559,
.045273,.02559,
-.045273,.02559,
-.045957,.025531,
-.046621,.025353,
-.047244,.025063,
-.047806,.024669,
-.048292,.024183,
-.048686,.02362,
-.048977,.022998,
-.049155,.022334,
-.049214,.02165,
-.049214,.021649,
-.049214,-.021649,
-.049155,-.022333,
-.048977,-.022997,
-.048687,-.02362,
-.048293,-.024182,
-.047807,-.024668,
-.047244,-.025062,
-.046622,-.025353,
-.045958,-.025531,
-.045274,-.02559,
-.045273,-.02559,
0.0*
%
%ADD23MACRO23*%
%AMMACRO22*
4,1,44,.011809,-.025588,
.011809,.025588,
.011749,.026272,
.011571,.026936,
.011281,.027559,
.010887,.028121,
.010402,.028607,
.009839,.029001,
.009216,.029292,
.008553,.02947,
.007868,.029529,
.007868,.029529,
-.007868,.029529,
-.008552,.02947,
-.009216,.029292,
-.009839,.029002,
-.010401,.028607,
-.010887,.028122,
-.011281,.027559,
-.011571,.026936,
-.011749,.026273,
-.011809,.025589,
-.011809,.025588,
-.011809,-.025588,
-.011749,-.026272,
-.011571,-.026936,
-.011281,-.027559,
-.010887,-.028121,
-.010402,-.028607,
-.009839,-.029001,
-.009216,-.029292,
-.008553,-.02947,
-.007868,-.029529,
-.007868,-.029529,
.007868,-.029529,
.008552,-.02947,
.009216,-.029292,
.009838,-.029002,
.010401,-.028607,
.010887,-.028122,
.011281,-.027559,
.011571,-.026936,
.011749,-.026273,
.011809,-.025589,
.011809,-.025588,
0.0*
%
%ADD22MACRO22*%
%AMMACRO43*
4,1,40,-.027553,-.02362,
.027553,-.02362,
.028237,-.02356,
.028901,-.023382,
.029523,-.023092,
.030086,-.022698,
.030572,-.022212,
.030966,-.02165,
.031256,-.021027,
.031434,-.020363,
.031494,-.019679,
.031494,.019679,
.031434,.020363,
.031256,.021027,
.030966,.021649,
.030572,.022212,
.030086,.022698,
.029524,.023092,
.028901,.023382,
.028237,.02356,
.027553,.02362,
-.027553,.02362,
-.028237,.02356,
-.028901,.023382,
-.029524,.023092,
-.030086,.022698,
-.030572,.022212,
-.030966,.02165,
-.031256,.021027,
-.031434,.020363,
-.031494,.019679,
-.031494,-.019679,
-.031434,-.020363,
-.031256,-.021027,
-.030966,-.021649,
-.030572,-.022212,
-.030086,-.022698,
-.029524,-.023092,
-.028901,-.023382,
-.028237,-.02356,
-.027553,-.02362,
0.0*
%
%ADD43MACRO43*%
%AMMACRO44*
4,1,40,.03937,-.035429,
.03937,.035429,
.03931,.036113,
.039132,.036777,
.038842,.0374,
.038448,.037962,
.037962,.038448,
.0374,.038842,
.036777,.039132,
.036113,.03931,
.035429,.03937,
-.035429,.03937,
-.036113,.03931,
-.036777,.039132,
-.0374,.038842,
-.037962,.038448,
-.038448,.037962,
-.038842,.0374,
-.039132,.036777,
-.03931,.036113,
-.03937,.035429,
-.03937,-.035429,
-.03931,-.036113,
-.039132,-.036777,
-.038842,-.0374,
-.038448,-.037962,
-.037962,-.038448,
-.0374,-.038842,
-.036777,-.039132,
-.036113,-.03931,
-.035429,-.03937,
.035429,-.03937,
.036113,-.03931,
.036777,-.039132,
.0374,-.038842,
.037962,-.038448,
.038448,-.037962,
.038842,-.0374,
.039132,-.036777,
.03931,-.036113,
.03937,-.035429,
0.0*
%
%ADD44MACRO44*%
%ADD17R,.062988X.062988*%
%AMMACRO12*
4,1,40,-.035429,-.03937,
.035429,-.03937,
.036113,-.03931,
.036777,-.039132,
.0374,-.038842,
.037962,-.038448,
.038448,-.037962,
.038842,-.0374,
.039132,-.036777,
.03931,-.036113,
.03937,-.035429,
.03937,.035429,
.03931,.036113,
.039132,.036777,
.038842,.0374,
.038448,.037962,
.037962,.038448,
.0374,.038842,
.036777,.039132,
.036113,.03931,
.035429,.03937,
-.035429,.03937,
-.036113,.03931,
-.036777,.039132,
-.0374,.038842,
-.037962,.038448,
-.038448,.037962,
-.038842,.0374,
-.039132,.036777,
-.03931,.036113,
-.03937,.035429,
-.03937,-.035429,
-.03931,-.036113,
-.039132,-.036777,
-.038842,-.0374,
-.038448,-.037962,
-.037962,-.038448,
-.0374,-.038842,
-.036777,-.039132,
-.036113,-.03931,
-.035429,-.03937,
0.0*
%
%ADD12MACRO12*%
%ADD48C,.01*%
%ADD49C,.02*%
%ADD50C,.004*%
%ADD51C,.085449*%
G75*
%LPD*%
G75*
G36*
G01X13976Y169046D02*
X20310D01*
G03X22244Y169783I-34J3001D01*
G01X24445Y171696D01*
X33429D01*
X35471Y169920D01*
X37247Y167878D01*
Y158308D01*
X36835Y157896D01*
G03X33788Y154431I1000J-3951D01*
G01X33580Y152698D01*
X30119D01*
G03X29580Y152647I0J-2895D01*
G02X25427Y154564I-733J3868D01*
G03X22913Y156024I-2514J-1435D01*
G01X21339D01*
G03X19554Y155408I1J-2895D01*
G02X14698I-2428J3099D01*
G03X12913Y156024I-1785J-2279D01*
G01X11339D01*
G03X8444Y153130I1J-2895D01*
G01Y148011D01*
G03X8850Y146535I2895J0D01*
G01X9125Y146070D01*
Y143411D01*
X13292Y139244D01*
X9125Y135078D01*
Y127512D01*
X8850Y127048D01*
G03X8444Y125571I2490J-1477D01*
G01Y120452D01*
G03X9111Y118605I2895J1D01*
G02X8589Y113058I-3030J-2513D01*
G03X7539Y110826I1844J-2231D01*
G01Y103741D01*
G03X10434Y100846I2895J0D01*
G01X17519D01*
G03X20414Y103741I0J2895D01*
G01Y110826D01*
G03X17519Y113721I-2895J0D01*
G01X11925D01*
Y117294D01*
X13497Y117618D01*
G03X14698Y118174I-584J2835D01*
G02X19554I2428J-3099D01*
G03X21339Y117558I1785J2279D01*
G01X22913D01*
G03X25808Y120452I-1J2895D01*
G01Y126970D01*
X28015D01*
X28246Y126914D01*
G03X28937Y126830I692J2811D01*
G01X32086D01*
G03X32150Y126831I-5J2895D01*
G02X36172Y122894I86J-3936D01*
G01Y115613D01*
X34281Y113721D01*
X28544D01*
G03X25649Y110826I0J-2895D01*
G01Y103741D01*
G03X27694Y100973I2895J0D01*
G01X29086Y100546D01*
Y50450D01*
X34292Y45243D01*
X42322D01*
G02X46028Y39978I0J-3937D01*
G03X45621Y37638I6531J-2340D01*
G03X59497I6938J0D01*
G03X59090Y39978I-6938J0D01*
G02X62796Y45243I3706J1328D01*
G01X90292D01*
X92865Y42670D01*
Y27172D01*
X91796Y26623D01*
G03X88241Y23303I4070J-7922D01*
G01X87667Y22352D01*
X84587D01*
Y24606D01*
G03X82087Y27107I-2501J0D01*
G01X70276D01*
G03X67775Y24606I0J-2501D01*
G01Y11139D01*
X58869D01*
X57528Y12480D01*
X57520Y12487D01*
G03X52559Y14576I-4961J-4850D01*
G03X45621Y7638I0J-6938D01*
G03X45684Y6708I6938J0D01*
G02X41782Y2244I-3902J-527D01*
G01X30920D01*
G02X27320Y7777I0J3937D01*
G03X28591Y13780I-13541J6003D01*
G03X13780Y28591I-14812J0D01*
G03X7584Y27234I0J-14812D01*
G02X2000Y30809I-1647J3576D01*
G01Y233244D01*
X51752D01*
Y226791D01*
G03X52904Y224480I2895J1D01*
G02X54424Y220724I-2370J-3144D01*
G03X54389Y220275I2860J-449D01*
G01Y217126D01*
G03X54855Y215551I2895J0D01*
G03X54389Y213976I2428J-1575D01*
G01Y210827D01*
G03X54468Y210152I2895J-1D01*
G01X54523Y209926D01*
Y207725D01*
X46445D01*
X45155Y209015D01*
X45146Y209023D01*
G03X40748Y210875I-4399J-4298D01*
G03X36350Y209023I1J-6150D01*
G01X36341Y209015D01*
X35051Y207725D01*
X22823D01*
X21533Y209015D01*
X21524Y209023D01*
G03X17126Y210875I-4399J-4298D01*
G03X10976Y204724I0J-6150D01*
G03X12235Y200996I6150J1D01*
G02Y198610I-1566J-1193D01*
G03X10976Y194882I4891J-3728D01*
G03X12481Y190851I6150J0D01*
G02X12578Y188393I-1487J-1290D01*
G03X11476Y185039I4548J-3353D01*
G03X12056Y182546I5650J0D01*
G02X11750Y180358I-1766J-869D01*
G03X10976Y178346I2227J-2012D01*
G01Y172047D01*
G03X13976Y169046I3001J0D01*
G37*
G36*
G01X21772Y146708D02*
X20672Y145608D01*
X21763Y144371D01*
X23012Y145432D01*
X22593Y146533D01*
G03X21772Y146708I-467J-178D01*
G37*
G36*
G01X22823Y191881D02*
X26655D01*
X31304Y187232D01*
X31321D01*
G02X35192Y184011I0J-3937D01*
G03X35665Y182571I5556J1028D01*
G01X36324Y181215D01*
X33429Y178698D01*
X24445D01*
X21550Y181215D01*
X22209Y182571D01*
G03X22776Y185039I-5083J2468D01*
G03X21683Y188381I-5651J0D01*
G01X20684Y189743D01*
X22823Y191881D01*
G37*
G36*
G01X23250Y175760D02*
X20276Y178346D01*
X16876Y175197D01*
X20276Y172047D01*
X23250Y174634D01*
G03Y175760I-826J563D01*
G37*
G36*
G01X21226Y195235D02*
X19353Y197108D01*
X17001Y194882D01*
X19353Y192656D01*
X21226Y194528D01*
G03Y195235I-354J354D01*
G37*
G36*
G01Y205078D02*
X19353Y206951D01*
X17001Y204724D01*
X19353Y202498D01*
X21226Y204371D01*
G03Y205078I-354J354D01*
G37*
G36*
G01X57420Y8345D02*
X55342Y10421D01*
X52309Y7638D01*
X55342Y4854D01*
X57420Y6931D01*
G03Y8345I-707J707D01*
G37*
G36*
G01X48778Y155243D02*
X55691D01*
Y153245D01*
X55690Y153216D01*
G03X55689Y153130I2893J-83D01*
G01Y148011D01*
G03X56094Y146535I2895J0D01*
G01X56369Y146070D01*
Y142474D01*
X59945Y138898D01*
X56369Y135322D01*
Y127512D01*
X56094Y127048D01*
G03X55689Y125571I2490J-1477D01*
G01Y120452D01*
G03X56355Y118605I2895J1D01*
G02X55833Y113058I-3030J-2513D01*
G03X54783Y110826I1844J-2231D01*
G01Y103741D01*
G03X55204Y102236I2895J0D01*
G01X55491Y101765D01*
Y99245D01*
X53292D01*
X47535Y93487D01*
Y51245D01*
X36778D01*
X35087Y52936D01*
Y100546D01*
X36479Y100973D01*
G03X38524Y103741I-849J2768D01*
G01Y109478D01*
X42174Y113127D01*
Y127072D01*
X42769Y127652D01*
G03X43642Y129725I-2021J2073D01*
G01Y132484D01*
X45120Y132865D01*
G03X48178Y136811I-1017J3946D01*
G03X47165Y139500I-4076J0D01*
G01X45948Y140886D01*
X47536Y142474D01*
Y154001D01*
X48778Y155243D01*
G37*
G36*
G01X73052Y120452D02*
Y126970D01*
X75259D01*
X75490Y126914D01*
G03X76182Y126830I692J2811D01*
G01X79330D01*
G03X79394Y126831I-5J2895D01*
G02X83416Y122894I86J-3936D01*
G01Y115613D01*
X81525Y113721D01*
X75788D01*
G03X72893Y110826I0J-2895D01*
G01Y103741D01*
G03X72903Y103504I2895J3D01*
G02X68979Y99245I-3924J-322D01*
G01X66950D01*
Y101765D01*
X67237Y102236D01*
G03X67658Y103741I-2473J1505D01*
G01Y110826D01*
G03X64763Y113721I-2895J0D01*
G01X59169D01*
Y117294D01*
X60741Y117618D01*
G03X61942Y118174I-584J2835D01*
G02X66798I2428J-3099D01*
G03X68583Y117558I1785J2279D01*
G01X70158D01*
G03X73052Y120452I-1J2895D01*
G37*
G36*
G01X56536Y203487D02*
X54037Y205986D01*
X56085Y208034D01*
X57009Y207945D01*
G03X57284Y207932I274J2882D01*
G01X60044D01*
X60413Y206435D01*
G03X63845Y203368I3957J975D01*
G02X67275Y199464I-507J-3904D01*
G01Y194238D01*
X65565Y194011D01*
G03X64370Y193570I380J-2870D01*
G03X62795Y194036I-1575J-2428D01*
G01X59646D01*
G03X58966Y193956I-1J-2895D01*
G01X58739Y193900D01*
X56536D01*
Y203487D01*
G37*
G36*
G01X41311Y169072D02*
X43898Y172047D01*
X40748Y175447D01*
X37598Y172047D01*
X40185Y169072D01*
G03X41311I563J826D01*
G37*
G36*
G01X34624Y174634D02*
X37598Y172047D01*
X40998Y175197D01*
X37598Y178346D01*
X34624Y175760D01*
G03Y174634I826J-563D01*
G37*
G36*
G01X44848Y195235D02*
X42975Y197108D01*
X40623Y194882D01*
X42975Y192656D01*
X44848Y194528D01*
G03Y195235I-354J354D01*
G37*
G36*
G01Y205078D02*
X42975Y206951D01*
X40623Y204724D01*
X42975Y202498D01*
X44848Y204371D01*
G03Y205078I-354J354D01*
G37*
G36*
G01X36648Y204371D02*
X38521Y202498D01*
X40873Y204724D01*
X38521Y206951D01*
X36648Y205078D01*
G03Y204371I354J-354D01*
G37*
G36*
G01X67914Y62204D02*
X66318Y63798D01*
X64245Y61850D01*
X66318Y59902D01*
X67914Y61497D01*
G03Y62204I-354J353D01*
G37*
G36*
G01Y82204D02*
X66318Y83798D01*
X64245Y81850D01*
X66318Y79902D01*
X67914Y81497D01*
G03Y82204I-354J353D01*
G37*
G36*
G01X78503Y162218D02*
X79402Y163118D01*
X78150Y164495D01*
X76897Y163118D01*
X77796Y162218D01*
G03X78503I353J354D01*
G37*
G36*
G01X69016Y146283D02*
X68257Y145522D01*
X69370Y144284D01*
X70484Y145522D01*
X69724Y146283D01*
G03X69016I-354J-354D01*
G37*
G36*
G01X85590Y152071D02*
X86350Y152832D01*
X85236Y154070D01*
X84123Y152832D01*
X84883Y152071D01*
G03X85590I354J354D01*
G37*
G36*
G01X69115Y233244D02*
X83248D01*
Y226791D01*
G03X84213Y224634I2895J1D01*
G02X84484Y221996I-1312J-1467D01*
G03X83916Y220275I2328J-1721D01*
G01Y217126D01*
G03X84383Y215551I2895J0D01*
G03X83916Y213976I2428J-1575D01*
G01Y210827D01*
G03X86811Y207932I2895J0D01*
G01X89578D01*
X89915Y206381D01*
G03X93898Y203168I3983J863D01*
G03X94529Y203218I0J4076D01*
G01X94680Y203241D01*
X96802D01*
Y198245D01*
X73778D01*
X73276Y198747D01*
Y208472D01*
X73711Y209012D01*
G03X74351Y210827I-2255J1815D01*
G01Y213976D01*
G03X73885Y215551I-2895J0D01*
G03X74351Y217126I-2428J1575D01*
G01Y220275D01*
G03X71456Y223170I-2895J0D01*
G01X68825D01*
Y225484D01*
X68942Y225807D01*
G03X69115Y226791I-2722J984D01*
G01Y233244D01*
G37*
G36*
G01X64016Y209283D02*
X63257Y208522D01*
X64370Y207284D01*
X65484Y208522D01*
X64724Y209283D01*
G03X64016I-354J-354D01*
G37*
G36*
G01X65789Y262870D02*
X66549Y263631D01*
X65435Y264869D01*
X64322Y263631D01*
X65082Y262870D01*
G03X65789I354J354D01*
G37*
G36*
G01X99532Y49243D02*
X128292D01*
X132235Y45300D01*
Y27172D01*
X131166Y26623D01*
G03X128189Y24147I4069J-7922D01*
G02X122037Y24049I-3115J2407D01*
G03X109066I-6485J-5349D01*
G02X102913Y24147I-3037J2505D01*
G03X99936Y26623I-7047J-5446D01*
G01X98867Y27172D01*
Y45156D01*
X98141Y45883D01*
G02X99532Y49243I1392J1392D01*
G37*
G36*
G01X97441Y62204D02*
X95846Y63798D01*
X93772Y61850D01*
X95846Y59902D01*
X97441Y61497D01*
G03Y62204I-354J353D01*
G37*
G36*
G01Y82204D02*
X95846Y83798D01*
X93772Y81850D01*
X95846Y79902D01*
X97441Y81497D01*
G03Y82204I-354J353D01*
G37*
G36*
G01X103208Y106539D02*
X125830D01*
Y99969D01*
X123211D01*
X122689Y100356D01*
G03X120964Y100926I-1724J-2325D01*
G01X120178D01*
G03X119291Y100787I0J-2895D01*
G03X118405Y100926I-886J-2756D01*
G01X117618D01*
G03X116732Y100787I0J-2895D01*
G03X115846Y100926I-886J-2756D01*
G01X115059D01*
G03X114173Y100787I0J-2895D01*
G03X113287Y100926I-886J-2756D01*
G01X112500D01*
G03X111614Y100787I0J-2895D01*
G03X110728Y100926I-886J-2756D01*
G01X109941D01*
G03X109055Y100787I0J-2895D01*
G03X108169Y100926I-886J-2756D01*
G01X107382D01*
G03X106496Y100787I0J-2895D01*
G03X105610Y100926I-886J-2756D01*
G01X103987D01*
X101791Y103204D01*
G02X103208Y106539I1417J1366D01*
G37*
G36*
G01X101532Y192243D02*
X208293D01*
X208535Y192001D01*
Y176229D01*
X205277D01*
X203409Y174361D01*
G02X200048Y175753I-1392J1392D01*
G01Y180000D01*
G03X197047Y183001I-3001J0D01*
G01X191535D01*
G03X188535Y180000I0J-3001D01*
G01Y174488D01*
G03X189231Y172566I3001J0D01*
G02X189394Y170270I-1512J-1261D01*
G03X188535Y167244I4897J-3026D01*
G01Y165731D01*
X188141Y165337D01*
Y164266D01*
X187546Y163687D01*
G03X186672Y161614I2021J-2073D01*
G01Y159245D01*
X172383D01*
Y161614D01*
G03X171166Y163973I-2895J0D01*
G02X170385Y166002I1141J1604D01*
G03X170520Y167244I-5621J1243D01*
G03X169661Y170270I-5757J0D01*
G02X169824Y172566I1675J1035D01*
G03X170520Y174488I-2304J1922D01*
G01Y180000D01*
G03X167520Y183001I-3001J0D01*
G01X162008D01*
G03X159007Y180000I0J-3001D01*
G01Y174488D01*
G03X159704Y172566I3001J0D01*
G02X159866Y170270I-1512J-1261D01*
G03X159007Y167244I4897J-3026D01*
G01Y165731D01*
X158613Y165337D01*
Y164266D01*
X158019Y163687D01*
G03X157145Y161614I2021J-2073D01*
G01Y159252D01*
G03X160040Y156358I2895J0D01*
G01X163189D01*
G03X163750Y156413I-1J2895D01*
G01X164781Y156616D01*
X165791Y155606D01*
G02X164400Y152245I-1392J-1392D01*
G01X104778D01*
X100536Y156487D01*
Y188487D01*
X100141Y188883D01*
G02X101532Y192243I1392J1392D01*
G37*
G36*
G01X100611Y233244D02*
X112854D01*
Y226791D01*
G03X113791Y224659I2895J1D01*
G02X114030Y222021I-1331J-1450D01*
G03X113444Y220275I2309J-1746D01*
G01Y217126D01*
G03X113910Y215551I2895J0D01*
G03X113444Y213976I2428J-1575D01*
G01Y210827D01*
G03X116339Y207932I2895J0D01*
G01X119101D01*
X119459Y206416D01*
G03X119683Y205741I3966J937D01*
G02X116067Y200245I-3615J-1559D01*
G01X102804D01*
Y208472D01*
X103239Y209012D01*
G03X103879Y210827I-2255J1815D01*
G01Y213976D01*
G03X103413Y215551I-2895J0D01*
G03X103879Y217126I-2428J1575D01*
G01Y220275D01*
G03X102480Y222754I-2895J0D01*
G02X100597Y226509I2035J3370D01*
G03X100611Y226791I-2881J281D01*
G01Y233244D01*
G37*
G36*
G01X93544Y209118D02*
X92784Y208357D01*
X93898Y207119D01*
X95011Y208357D01*
X94251Y209118D01*
G03X93544I-354J-354D01*
G37*
G36*
G01X97289Y262570D02*
X98049Y263331D01*
X96935Y264569D01*
X95822Y263331D01*
X96582Y262570D01*
G03X97289I354J354D01*
G37*
G36*
G01X126969Y62204D02*
X125374Y63798D01*
X123300Y61850D01*
X125374Y59902D01*
X126969Y61497D01*
G03Y62204I-354J353D01*
G37*
G36*
G01Y82204D02*
X125374Y83798D01*
X123300Y81850D01*
X125374Y79902D01*
X126969Y81497D01*
G03Y82204I-354J353D01*
G37*
G36*
G01X145446Y106826D02*
X147835Y104369D01*
X151234Y107284D01*
X147835Y110198D01*
X145446Y107741D01*
G03Y106826I889J-458D01*
G37*
G36*
G01X135590Y121071D02*
X136350Y121832D01*
X135236Y123070D01*
X134123Y121832D01*
X134883Y121071D01*
G03X135590I354J354D01*
G37*
G36*
G01X142816Y124243D02*
X178405D01*
Y120670D01*
G03X178871Y119094I2895J0D01*
G03X178405Y117519I2428J-1575D01*
G01Y114370D01*
G03X178582Y113372I2895J0D01*
G02X177706Y110982I-1848J-679D01*
G03X177218Y110633I1428J-2518D01*
G02X171536Y111124I-2607J2950D01*
G03X166732Y113434I-4804J-3841D01*
G03X160953Y109386I0J-6150D01*
G01X160482Y108091D01*
X157135D01*
Y110433D01*
G03X154134Y113434I-3001J0D01*
G01X147835D01*
G03X146860Y113271I1J-3001D01*
G01X145698Y112872D01*
X145029Y113540D01*
X139312D01*
Y117913D01*
G03X139128Y118927I-2895J0D01*
G02X142816Y124243I3688J1379D01*
G37*
G36*
G01X130217Y233244D02*
X142854D01*
Y226791D01*
G03X143635Y224813I2895J1D01*
G02X143683Y222176I-1437J-1345D01*
G03X142972Y220275I2184J-1901D01*
G01Y217126D01*
G03X143438Y215551I2895J0D01*
G03X142972Y213976I2428J-1575D01*
G01Y210827D01*
G03X145866Y207932I2895J0D01*
G01X148228D01*
G03X148688Y207969I-1J2895D01*
G02X150930Y206422I313J-1944D01*
G03X151395Y205200I3992J821D01*
G01X151661Y204742D01*
Y202245D01*
X132778D01*
X132332Y202692D01*
Y208472D01*
X132766Y209012D01*
G03X133406Y210827I-2255J1815D01*
G01Y213976D01*
G03X132940Y215551I-2895J0D01*
G03X133406Y217126I-2428J1575D01*
G01Y220275D01*
G03X132039Y222734I-2895J0D01*
G02X130201Y226489I2078J3344D01*
G03X130217Y226791I-2879J301D01*
G01Y233244D01*
G37*
G36*
G01X123072Y209228D02*
X122312Y208467D01*
X123425Y207229D01*
X124539Y208467D01*
X123779Y209228D01*
G03X123072I-354J-354D01*
G37*
G36*
G01X126889Y262870D02*
X127649Y263631D01*
X126535Y264869D01*
X125422Y263631D01*
X126182Y262870D01*
G03X126889I354J354D01*
G37*
G36*
G01X173170Y47638D02*
Y49410D01*
G02X176531Y50802I1969J0D01*
G01X178705Y48628D01*
X178799D01*
Y45079D01*
G03X181693Y42185I2895J1D01*
G01X183268D01*
G03X186162Y45079I-1J2895D01*
G01Y48628D01*
X191527D01*
X191850Y47056D01*
G03X192148Y46246I2835J584D01*
G02X191554Y43689I-1726J-947D01*
G03X189822Y40354I2345J-3334D01*
G03X190010Y39131I4076J0D01*
G02X186254Y34013I-3755J-1182D01*
G01X176700D01*
X174972Y32285D01*
G02X171611Y33676I-1392J1392D01*
G01Y44930D01*
X172242Y45514D01*
G03X173170Y47638I-1967J2124D01*
G37*
G36*
G01X156496Y67204D02*
X154901Y68798D01*
X152828Y66850D01*
X154901Y64902D01*
X156496Y66497D01*
G03Y67204I-354J353D01*
G37*
G36*
G01X167086Y103183D02*
X168959Y105057D01*
X166732Y107409D01*
X164506Y105057D01*
X166379Y103183D01*
G03X167086I354J354D01*
G37*
G36*
G01X162508Y164488D02*
X164764D01*
X164852Y167333D01*
X162008Y167244D01*
Y164988D01*
G03X162508Y164488I500J0D01*
G37*
G36*
G01X160217Y233244D02*
X172854D01*
Y226791D01*
G03X173500Y224969I2895J1D01*
G02X173356Y222331I-1529J-1239D01*
G03X172499Y220275I2038J-2056D01*
G01Y217126D01*
G03X172965Y215551I2895J0D01*
G03X172499Y213976I2428J-1575D01*
G01Y210827D01*
G03X172725Y209706I2895J0D01*
G02X169095Y204245I-3630J-1524D01*
G01X165796D01*
Y208472D01*
X166231Y209012D01*
G03X166871Y210827I-2255J1815D01*
G01Y213976D01*
G03X166405Y215551I-2895J0D01*
G03X166871Y217126I-2428J1575D01*
G01Y220275D01*
G03X163976Y223170I-2895J0D01*
G01X159928D01*
Y225484D01*
X160044Y225807D01*
G03X160217Y226791I-2722J984D01*
G01Y233244D01*
G37*
G36*
G01X154568Y209118D02*
X153808Y208357D01*
X154921Y207119D01*
X156035Y208357D01*
X155275Y209118D01*
G03X154568I-354J-354D01*
G37*
G36*
G01X156889Y262870D02*
X157649Y263631D01*
X156535Y264869D01*
X155422Y263631D01*
X156182Y262870D01*
G03X156889I354J354D01*
G37*
G36*
G01X476070Y138535D02*
X477710Y140175D01*
G02X481071Y138783I1392J-1392D01*
G01Y30809D01*
G02X475487Y27234I-3937J0D01*
G03X469291Y28591I-6195J-13454D01*
G03X454480Y13780I0J-14812D01*
G03X455750Y7777I14812J0D01*
G02X452151Y2244I-3599J-1596D01*
G01X438067D01*
G02X434169Y6734I0J3937D01*
G03X434233Y7638I-6374J904D01*
G03X427795Y14076I-6438J0D01*
G03X423966Y12813I0J-6438D01*
G02X421624I-1171J1582D01*
G03X413966I-3829J-5175D01*
G02X411624I-1171J1582D01*
G03X403966I-3829J-5175D01*
G02X401624I-1171J1582D01*
G03X397795Y14076I-3829J-5175D01*
G03X391358Y7638I0J-6438D01*
G03X391421Y6734I6438J0D01*
G02X387523Y2244I-3898J-553D01*
G01X196601D01*
G02X195209Y5605I0J1968D01*
G01X197792Y8188D01*
Y10434D01*
X198770Y11003D01*
G03X201116Y12979I-4479J7698D01*
G02X207151I3017J-2529D01*
G03X213976Y9794I6825J5721D01*
G03X221024Y13255I0J8906D01*
G02X227176Y13352I3115J-2407D01*
G03X240147I6485J5348D01*
G02X246299Y13255I3037J-2505D01*
G03X253346Y9794I7047J5446D01*
G03X260172Y12979I0J8906D01*
G02X266206I3017J-2529D01*
G03X273032Y9794I6825J5721D01*
G03X280079Y13255I0J8906D01*
G02X286231Y13352I3115J-2407D01*
G03X299202I6485J5348D01*
G02X305354Y13255I3037J-2505D01*
G03X312402Y9794I7047J5446D01*
G03X319227Y12979I0J8906D01*
G02X325261I3017J-2529D01*
G03X332087Y9794I6825J5721D01*
G03X339134Y13255I0J8906D01*
G02X345286Y13352I3115J-2407D01*
G03X358257I6485J5348D01*
G02X364409Y13255I3037J-2505D01*
G03X371457Y9794I7047J5446D01*
G03X380363Y18701I0J8906D01*
G03X375936Y26399I-8906J0D01*
G01X374958Y26968D01*
Y39715D01*
X378985Y43743D01*
X387139D01*
G02X390997Y39021I0J-3937D01*
G03X390858Y37638I6798J-1384D01*
G03X397795Y30700I6938J0D01*
G03X401690Y31896I0J6938D01*
G02X403900I1105J-1629D01*
G03X411690I3895J5741D01*
G02X413900I1105J-1629D01*
G03X421690I3895J5741D01*
G02X423900I1105J-1629D01*
G03X427795Y30700I3895J5741D01*
G03X434733Y37638I0J6938D01*
G03X431136Y43718I-6938J0D01*
G01X430890Y43854D01*
X429300Y45444D01*
X431650Y47794D01*
Y49519D01*
X432241Y50098D01*
G03X433111Y52165I-2025J2068D01*
G01Y56102D01*
G03X432610Y57728I-2895J-1D01*
G02X432570Y59880I1628J1106D01*
G03X432710Y60130I-2452J1538D01*
G02X434942Y61165I1763J-876D01*
G03X435630Y61082I689J2812D01*
G01X441142D01*
G03X441528Y61108I-1J2895D01*
G02X443759Y59196I263J-1951D01*
G03X446654Y56358I2894J56D01*
G01X453740D01*
G03X455146Y56722I0J2895D01*
G02X457059I956J-1721D01*
G03X458465Y56358I1406J2530D01*
G01X465551D01*
G03X468446Y59252I0J2895D01*
G01Y66338D01*
G03X465551Y69233I-2895J0D01*
G01X458465D01*
G03X457059Y68868I0J-2895D01*
G02X455146I-956J1721D01*
G03X453740Y69233I-1406J-2530D01*
G01X446654D01*
G03X445656Y69055I0J-2895D01*
G02X443424Y69692I-679J1848D01*
G03X442840Y70257I-2284J-1779D01*
G02Y73444I1155J1594D01*
G03X443150Y73704I-1701J2343D01*
G01X443722Y74255D01*
X448497D01*
X448710Y74468D01*
X453740D01*
G03X455146Y74832I0J2895D01*
G02X457059I956J-1721D01*
G03X458465Y74468I1406J2530D01*
G01X465551D01*
G03X468446Y77363I0J2895D01*
G01Y84448D01*
G03X468420Y84835I-2895J-1D01*
G01X468402Y84966D01*
Y87066D01*
X473425D01*
G03X476320Y89961I0J2895D01*
G01Y97047D01*
G03X475664Y98882I-2895J0D01*
G02Y103874I3045J2496D01*
G03X476320Y105709I-2239J1835D01*
G01Y112795D01*
G03X475857Y114365I-2895J0D01*
G02X475857Y116502I1654J1068D01*
G03X476623Y119094I-4007J2592D01*
G03X471850Y123867I-4772J0D01*
G03X471542Y123857I-3J-4773D01*
G02X469446Y125821I-128J1964D01*
G01Y126285D01*
X463686Y132044D01*
X457635D01*
Y137066D01*
X461220D01*
G03X462992Y137672I0J2895D01*
G03X464764Y137066I1772J2289D01*
G01X467126D01*
G03X469198Y137940I0J2895D01*
G01X469778Y138535D01*
X476070D01*
G37*
G36*
G01X178937Y66497D02*
X180532Y64902D01*
X182606Y66850D01*
X180532Y68798D01*
X178937Y67204D01*
G03Y66497I354J-354D01*
G37*
G36*
G01X199843Y106118D02*
X199084Y105357D01*
X200197Y104119D01*
X201310Y105357D01*
X200550Y106118D01*
G03X199843I-354J-354D01*
G37*
G36*
G01X198036Y105570D02*
X202295D01*
X202483Y103811D01*
G03X206058Y100196I4052J433D01*
G02X209535Y96287I-461J-3910D01*
G01Y90487D01*
X209293Y90245D01*
X198827D01*
X198558Y91898D01*
G03X198224Y92979I-4023J-653D01*
G01X198036Y93377D01*
Y105570D01*
G37*
G36*
G01X192662Y121891D02*
X193422Y121131D01*
X194661Y122244D01*
X193422Y123358D01*
X192662Y122598D01*
G03Y121891I354J-354D01*
G37*
G36*
G01X192461Y143669D02*
X193535D01*
X193624Y145333D01*
X191961Y145244D01*
Y144169D01*
G03X192461Y143669I500J0D01*
G37*
G36*
G01Y148669D02*
X193535D01*
X193624Y150333D01*
X191961Y150244D01*
Y149169D01*
G03X192461Y148669I500J0D01*
G37*
G36*
G01X192035Y164488D02*
X194291D01*
X194380Y167333D01*
X191535Y167244D01*
Y164988D01*
G03X192035Y164488I500J0D01*
G37*
G36*
G01X182716Y145425D02*
X184000D01*
X184096Y147080D01*
X182435Y147095D01*
X182226Y146020D01*
G03X182716Y145425I491J-95D01*
G37*
G36*
G01X187662Y152891D02*
X188422Y152131D01*
X189661Y153244D01*
X188422Y154358D01*
X187662Y153598D01*
G03Y152891I354J-354D01*
G37*
G36*
G01X178461Y151669D02*
X179535D01*
X179624Y153333D01*
X177961Y153244D01*
Y152169D01*
G03X178461Y151669I500J0D01*
G37*
G36*
G01X190217Y233244D02*
X202854D01*
Y226791D01*
G03X203385Y225121I2895J1D01*
G02X203050Y222484I-1608J-1136D01*
G03X202027Y220275I1872J-2208D01*
G01Y217126D01*
G03X202493Y215551I2895J0D01*
G03X202027Y213976I2428J-1575D01*
G01Y210827D01*
G03X202040Y210553I2895J0D01*
G02X198120Y206245I-3919J-372D01*
G01X196368D01*
G02X192448Y210553I0J3937D01*
G03X192461Y210827I-2882J274D01*
G01Y213976D01*
G03X191995Y215551I-2895J0D01*
G03X192461Y217126I-2428J1575D01*
G01Y220275D01*
G03X191822Y222090I-2894J0D01*
G01X191387Y222631D01*
Y223837D01*
X189979Y225245D01*
X190168Y226263D01*
G03X190217Y226791I-2846J529D01*
G01Y233244D01*
G37*
G36*
G01X182127Y209173D02*
X181367Y208412D01*
X182480Y207174D01*
X183594Y208412D01*
X182834Y209173D01*
G03X182127I-354J-354D01*
G37*
G36*
G01X186889Y262870D02*
X187649Y263631D01*
X186535Y264869D01*
X185422Y263631D01*
X186182Y262870D01*
G03X186889I354J354D01*
G37*
G36*
G01X289960Y64232D02*
G03X291846Y64929I0J2895D01*
G02X294666Y64665I1282J-1494D01*
G03X294925Y64374I2737J2183D01*
G01X296458Y62843D01*
X296466Y62834D01*
G03X300591Y61094I4124J4017D01*
G03X303374Y61811I0J5757D01*
G02X309214Y58365I1903J-3446D01*
G01Y47822D01*
X309916Y47120D01*
X310026Y46515D01*
G03X310092Y46212I4011J725D01*
G01X310157Y45967D01*
Y43745D01*
X266034D01*
X249846Y27556D01*
Y26968D01*
X248867Y26399D01*
G03X246299Y24147I4479J-7698D01*
G02X240147Y24049I-3115J2407D01*
G03X227176I-6485J-5349D01*
G02X221024Y24147I-3037J2505D01*
G03X219289Y25849I-7047J-5446D01*
G01X219173Y25935D01*
X214976Y30133D01*
G02X217759Y36854I2784J2784D01*
G01X223891D01*
X229879Y42841D01*
Y44930D01*
X230510Y45514D01*
G03X231438Y47638I-1967J2124D01*
G01Y57523D01*
X239822D01*
Y47638D01*
G03X242717Y44743I2895J0D01*
G01X247047D01*
G03X249887Y47078I0J2895D01*
G01X250200Y48665D01*
X259265D01*
X265253Y54652D01*
Y57339D01*
G02X269950Y61202I3937J0D01*
G03X271063Y61094I1113J5648D01*
G03X275187Y62834I0J5757D01*
G01X275196Y62843D01*
X276728Y64374D01*
G03X276988Y64665I-2477J2473D01*
G02X279808Y64929I1538J-1229D01*
G03X281693Y64232I1885J2197D01*
G01X284055D01*
G03X285827Y64837I0J2895D01*
G03X287599Y64232I1772J2289D01*
G01X289960D01*
G37*
G36*
G01X215552Y67204D02*
X213956Y68798D01*
X211883Y66850D01*
X213956Y64902D01*
X215552Y66497D01*
G03Y67204I-354J353D01*
G37*
G36*
G01X206182Y106118D02*
X205422Y105357D01*
X206535Y104119D01*
X207649Y105357D01*
X206889Y106118D01*
G03X206182I-354J-354D01*
G37*
G36*
G01X229863Y106437D02*
X229103Y105676D01*
X230216Y104438D01*
X231330Y105676D01*
X230570Y106437D01*
G03X229863I-354J-354D01*
G37*
G36*
G01X227870Y132032D02*
X228945Y130957D01*
X230362Y130905D01*
X230248Y132532D01*
X227870D01*
Y132032D01*
G37*
G36*
G01X212961Y129669D02*
X214035D01*
X214124Y131333D01*
X212461Y131244D01*
Y130169D01*
G03X212961Y129669I500J0D01*
G37*
G36*
G01X204662Y132891D02*
X205422Y132131D01*
X206661Y133244D01*
X205422Y134358D01*
X204662Y133598D01*
G03Y132891I354J-354D01*
G37*
G36*
G01X224745Y113681D02*
X223422Y112358D01*
X224503Y111123D01*
X225789Y112078D01*
X225593Y113401D01*
G03X224745Y113681I-495J-74D01*
G37*
G36*
G01X223122Y154331D02*
X221850D01*
X221762Y152470D01*
X223622Y152559D01*
Y153831D01*
G03X223122Y154331I-500J0D01*
G37*
G36*
G01X214610Y146819D02*
X213535D01*
X213447Y145156D01*
X215110Y145244D01*
Y146319D01*
G03X214610Y146819I-500J0D01*
G37*
G36*
G01X213182Y152118D02*
X212422Y151357D01*
X213535Y150119D01*
X214649Y151357D01*
X213889Y152118D01*
G03X213182I-354J-354D01*
G37*
G36*
G01X230110Y141319D02*
X229035D01*
X228947Y139656D01*
X230610Y139744D01*
Y140819D01*
G03X230110Y141319I-500J0D01*
G37*
G36*
G01X213874Y164354D02*
X213113Y165113D01*
X211875Y164000D01*
X213113Y162887D01*
X213874Y163646D01*
G03Y164354I-354J354D01*
G37*
G36*
G01X221874Y144354D02*
X221113Y145113D01*
X219875Y144000D01*
X221113Y142887D01*
X221874Y143646D01*
G03Y144354I-354J354D01*
G37*
G36*
G01X203535Y139744D02*
X205535D01*
X204535Y141244D01*
X203535Y140244D01*
Y139744D01*
G37*
G36*
G01X250590Y182539D02*
G03X251378Y182648I0J2895D01*
G03X251972Y182545I789J2785D01*
G02X253805Y180713I-132J-1964D01*
G03X253908Y180118I2888J195D01*
G03X253798Y179330I2785J-789D01*
G01Y178937D01*
G03X253908Y178150I2895J1D01*
G03X253798Y177362I2785J-789D01*
G01Y176969D01*
G03X253908Y176181I2895J1D01*
G03X253798Y175393I2785J-789D01*
G01Y175000D01*
G03X253908Y174213I2895J1D01*
G03X253798Y173425I2785J-789D01*
G01Y173032D01*
G03X253908Y172244I2895J1D01*
G03X253798Y171456I2785J-789D01*
G01Y171063D01*
G03X253908Y170276I2895J1D01*
G03X253798Y169488I2785J-789D01*
G01Y169095D01*
G03X253908Y168307I2895J1D01*
G03X253798Y167519I2785J-789D01*
G01Y167126D01*
G03X253908Y166339I2895J1D01*
G03X253817Y165879I2785J-790D01*
G02X250127Y165171I-1956J223D01*
G03X246535Y167320I-3591J-1927D01*
G03X245069Y167047I0J-4076D01*
G02X242789Y167698I-708J1837D01*
G03X239535Y169320I-3254J-2454D01*
G03X237215Y168595I0J-4076D01*
G01X236710Y168245D01*
X229493D01*
X229240Y169920D01*
G03X229163Y170276I-2862J-435D01*
G03X229272Y171063I-2785J788D01*
G01Y171456D01*
G03X229163Y172244I-2895J0D01*
G03X229272Y173032I-2785J788D01*
G01Y173425D01*
G03X229163Y174213I-2895J0D01*
G03X229272Y175000I-2785J788D01*
G01Y175393D01*
G03X229163Y176181I-2895J0D01*
G03X229272Y176969I-2785J788D01*
G01Y177362D01*
G03X229163Y178150I-2895J0D01*
G03X229272Y178937I-2785J788D01*
G01Y179330D01*
G03X229163Y180118I-2895J0D01*
G03X229266Y180713I-2785J789D01*
G02X231098Y182545I1964J-132D01*
G03X231693Y182648I-195J2888D01*
G03X232481Y182539I788J2785D01*
G01X232874D01*
G03X233661Y182648I0J2895D01*
G03X234449Y182539I788J2785D01*
G01X234842D01*
G03X235630Y182648I0J2895D01*
G03X236418Y182539I788J2785D01*
G01X236811D01*
G03X237598Y182648I0J2895D01*
G03X238386Y182539I788J2785D01*
G01X238779D01*
G03X239567Y182648I0J2895D01*
G03X240355Y182539I788J2785D01*
G01X240748D01*
G03X241535Y182648I0J2895D01*
G03X242323Y182539I788J2785D01*
G01X242716D01*
G03X243504Y182648I0J2895D01*
G03X244292Y182539I788J2785D01*
G01X244685D01*
G03X245472Y182648I0J2895D01*
G03X246260Y182539I788J2785D01*
G01X246653D01*
G03X247441Y182648I0J2895D01*
G03X248229Y182539I788J2785D01*
G01X248622D01*
G03X249409Y182648I-1J2895D01*
G03X250197Y182539I788J2785D01*
G01X250590D01*
G37*
G36*
G01X220217Y233244D02*
X232854D01*
Y226791D01*
G03X233289Y225266I2895J0D01*
G02X232763Y222628I-1673J-1038D01*
G03X231554Y220275I1687J-2353D01*
G01Y217126D01*
G03X232020Y215551I2895J0D01*
G03X231554Y213976I2428J-1575D01*
G01Y210827D01*
G03X231578Y210462I2895J1D01*
G01X231593Y210338D01*
Y208245D01*
X221950D01*
Y210338D01*
X221966Y210462D01*
G03X221989Y210827I-2872J367D01*
G01Y213976D01*
G03X221523Y215551I-2895J0D01*
G03X221989Y217126I-2428J1575D01*
G01Y220275D01*
G03X221349Y222090I-2894J0D01*
G01X220914Y222631D01*
Y222912D01*
X219431Y224395D01*
X219972Y225627D01*
G03X220217Y226791I-2650J1164D01*
G01Y233244D01*
G37*
G36*
G01X211654Y209118D02*
X210895Y208357D01*
X212008Y207119D01*
X213121Y208357D01*
X212361Y209118D01*
G03X211654I-354J-354D01*
G37*
G36*
G01X231062Y195197D02*
X231822Y195958D01*
X230709Y197196D01*
X229595Y195958D01*
X230355Y195197D01*
G03X231062I354J354D01*
G37*
G36*
G01X216889Y262870D02*
X217649Y263631D01*
X216535Y264869D01*
X215422Y263631D01*
X216182Y262870D01*
G03X216889I354J354D01*
G37*
G36*
G01X237992Y66497D02*
X239587Y64902D01*
X241661Y66850D01*
X239587Y68798D01*
X237992Y67204D01*
G03Y66497I354J-354D01*
G37*
G36*
G01X236064Y98031D02*
G03X236030Y98475I-2895J0D01*
G01X235876Y99463D01*
X237975Y101561D01*
X240293Y99243D01*
X244483D01*
G02X248218Y94063I0J-3937D01*
G03X248070Y93150I2747J-914D01*
G01Y88031D01*
G03X250965Y85137I2895J1D01*
G01X253251D01*
Y64911D01*
X252865Y64524D01*
X251095D01*
G02X247212Y67807I0J3937D01*
G03X246433Y69876I-5677J-957D01*
G02X246596Y72172I1675J1035D01*
G03X247292Y74095I-2304J1922D01*
G01Y79606D01*
G03X244291Y82607I-3001J0D01*
G01X238780D01*
G03X237782Y82437I0J-3001D01*
G02X232536Y86150I-1309J3713D01*
G01Y89722D01*
X233964Y90130D01*
G03X236064Y92914I-795J2783D01*
G01Y98031D01*
G37*
G36*
G01X235434Y95119D02*
X236194Y94359D01*
X237432Y95472D01*
X236194Y96586D01*
X235434Y95826D01*
G03Y95119I354J-354D01*
G37*
G36*
G01X257106Y116154D02*
X257865Y116915D01*
X256752Y118153D01*
X255639Y116915D01*
X256398Y116154D01*
G03X257106I354J354D01*
G37*
G36*
G01X250747Y164370D02*
X251507Y165131D01*
X250394Y166369D01*
X249280Y165131D01*
X250040Y164370D01*
G03X250747I353J354D01*
G37*
G36*
G01X237409Y161598D02*
X236648Y162358D01*
X235410Y161244D01*
X236648Y160131D01*
X237409Y160891D01*
G03Y161598I-354J354D01*
G37*
G36*
G01X248110Y162169D02*
Y163244D01*
X246447Y163333D01*
X246535Y161669D01*
X247610D01*
G03X248110Y162169I0J500D01*
G37*
G36*
G01X237662Y164891D02*
X238422Y164131D01*
X239661Y165244D01*
X238422Y166358D01*
X237662Y165598D01*
G03Y164891I354J-354D01*
G37*
G36*
G01X255552Y218409D02*
X254792Y217648D01*
X255906Y216410D01*
X257019Y217648D01*
X256259Y218409D01*
G03X255552I-354J-354D01*
G37*
G36*
G01X257779Y212952D02*
X257018Y213712D01*
X255780Y212598D01*
X257018Y211485D01*
X257779Y212245D01*
G03Y212952I-354J354D01*
G37*
G36*
G01X241182Y209118D02*
X240422Y208357D01*
X241535Y207119D01*
X242649Y208357D01*
X241889Y209118D01*
G03X241182I-354J-354D01*
G37*
G36*
G01X246889Y262870D02*
X247649Y263631D01*
X246535Y264869D01*
X245422Y263631D01*
X246182Y262870D01*
G03X246889I354J354D01*
G37*
G36*
G01X280450Y32743D02*
X307796D01*
G02X309188Y29383I0J-1969D01*
G01X308901Y29096D01*
Y26968D01*
X307922Y26399D01*
G03X305354Y24147I4479J-7698D01*
G02X299202Y24049I-3115J2407D01*
G03X286231I-6485J-5349D01*
G02X280079Y24147I-3037J2505D01*
G03X278952Y25354I-7047J-5447D01*
G02X278786Y31079I2617J2941D01*
G01X280450Y32743D01*
G37*
G36*
G01X274607Y67204D02*
X273011Y68798D01*
X270938Y66850D01*
X273011Y64902D01*
X274607Y66497D01*
G03Y67204I-354J353D01*
G37*
G36*
G01X273370Y99094D02*
X272406Y98754D01*
X272462Y97143D01*
X274035Y97319D01*
X274035Y98622D01*
G03X273370Y99094I-500J0D01*
G37*
G36*
G01X260418Y124646D02*
X261178Y123887D01*
X262416Y125000D01*
X261178Y126113D01*
X260418Y125354D01*
G03Y124646I354J-354D01*
G37*
G36*
G01X266476Y154010D02*
X265476Y155084D01*
X263924Y154802D01*
X264035Y153169D01*
X266110D01*
G03X266476Y154010I0J500D01*
G37*
G36*
G01X280217Y233244D02*
X292854D01*
Y226791D01*
G03X293150Y225517I2895J1D01*
G02X292241Y222880I-1768J-866D01*
G03X290609Y220275I1264J-2605D01*
G01Y217126D01*
G03X291076Y215551I2895J0D01*
G03X290609Y213976I2428J-1575D01*
G01Y210827D01*
G03X290695Y210130I2895J-1D01*
G02X286874Y205245I-3821J-948D01*
G01X279969D01*
Y208472D01*
X280404Y209012D01*
G03X281044Y210827I-2255J1815D01*
G01Y213976D01*
G03X280578Y215551I-2895J0D01*
G03X281044Y217126I-2428J1575D01*
G01Y220275D01*
G03X280404Y222090I-2894J0D01*
G01X279969Y222631D01*
Y222912D01*
X279536Y223345D01*
Y224850D01*
X279812Y225315D01*
G03X280217Y226791I-2490J1477D01*
G01Y233244D01*
G37*
G36*
G01X270709Y209118D02*
X269950Y208357D01*
X271063Y207119D01*
X272176Y208357D01*
X271416Y209118D01*
G03X270709I-354J-354D01*
G37*
G36*
G01X276889Y262870D02*
X277649Y263631D01*
X276535Y264869D01*
X275422Y263631D01*
X276182Y262870D01*
G03X276889I354J354D01*
G37*
G36*
G01X312461Y48319D02*
Y47244D01*
X314124Y47156D01*
X314035Y48819D01*
X312961D01*
G03X312461Y48319I0J-500D01*
G37*
G36*
G01X314961Y52319D02*
Y51244D01*
X316624Y51156D01*
X316535Y52819D01*
X315461D01*
G03X314961Y52319I0J-500D01*
G37*
G36*
G01X297047Y66497D02*
X298642Y64902D01*
X300716Y66850D01*
X298642Y68798D01*
X297047Y67204D01*
G03Y66497I354J-354D01*
G37*
G36*
G01X305453Y149558D02*
X311228D01*
X311768Y149123D01*
G03X313583Y148484I1815J2255D01*
G01X316732D01*
G03X318307Y148950I0J2895D01*
G03X319882Y148484I1575J2428D01*
G01X324535D01*
Y137993D01*
G02X317814Y135209I-3937J0D01*
G01X314778Y138245D01*
X309171D01*
G02X305360Y143171I0J3937D01*
G03X305453Y143897I-2802J727D01*
G01Y149558D01*
G37*
G36*
G01X291084Y179243D02*
X295738D01*
Y177213D01*
X295734Y177151D01*
G03X295728Y176969I2889J-185D01*
G01Y170669D01*
G03X298622Y167775I2895J1D01*
G01X302559D01*
G03X303158Y167838I-1J2895D01*
G01X303360Y167880D01*
X305535D01*
Y152986D01*
X303360D01*
X303158Y153028D01*
G03X302559Y153091I-601J-2832D01*
G01X298622D01*
G03X295728Y150197I1J-2895D01*
G01Y145717D01*
X291027D01*
Y147836D01*
X291050Y147985D01*
G03X291084Y148426I-2861J442D01*
G01Y150787D01*
G03X290647Y152316I-2895J0D01*
G02X290885Y154707I1671J1040D01*
G03X291674Y156693I-2106J1986D01*
G01Y161417D01*
G03X290902Y163386I-2895J0D01*
G03X291674Y165354I-2122J1968D01*
G01Y170079D01*
G03X290885Y172065I-2895J0D01*
G02X290647Y174455I1432J1350D01*
G03X291084Y175985I-2458J1530D01*
G01Y179243D01*
G37*
G36*
G01X310217Y233244D02*
X322854D01*
Y226791D01*
G03X322885Y226365I2895J0D01*
G02X321320Y222609I-3894J-581D01*
G03X320137Y220275I1711J-2334D01*
G01Y217126D01*
G03X320603Y215551I2895J0D01*
G03X320137Y213976I2428J-1575D01*
G01Y210827D01*
G03X323032Y207932I2895J0D01*
G01X325620D01*
Y205282D01*
X325198Y204746D01*
G02X322106Y203245I-3093J2436D01*
G01X309497D01*
Y208472D01*
X309932Y209012D01*
G03X310572Y210827I-2255J1815D01*
G01Y213976D01*
G03X310106Y215551I-2895J0D01*
G03X310572Y217126I-2428J1575D01*
G01Y220275D01*
G03X309956Y222061I-2895J0D01*
G01X309536Y222596D01*
Y224850D01*
X309812Y225315D01*
G03X310217Y226791I-2490J1477D01*
G01Y233244D01*
G37*
G36*
G01X300237Y209118D02*
X299477Y208357D01*
X300591Y207119D01*
X301704Y208357D01*
X300944Y209118D01*
G03X300237I-354J-354D01*
G37*
G36*
G01X306889Y262870D02*
X307649Y263631D01*
X306535Y264869D01*
X305422Y263631D01*
X306182Y262870D01*
G03X306889I354J354D01*
G37*
G36*
G01X320961Y60319D02*
Y59244D01*
X322624Y59155D01*
X322535Y60819D01*
X321461D01*
G03X320961Y60319I0J-500D01*
G37*
G36*
G01X317961Y56319D02*
Y55244D01*
X319624Y55155D01*
X319535Y56819D01*
X318461D01*
G03X317961Y56319I0J-500D01*
G37*
G36*
G01X339024Y102172D02*
X339459Y102713D01*
G03X340065Y104082I-2255J1815D01*
G02X342535Y105675I1945J-303D01*
G03X343308Y105570I773J2790D01*
G01X352362D01*
G03X353432Y105775I0J2895D01*
G03X356103Y103995I2671J1115D01*
G01X363189D01*
G03X364712Y104428I0J2895D01*
G02X367580Y103472I1036J-1674D01*
G03X367815Y103004I2695J1056D01*
G02Y100933I-1674J-1036D01*
G03X367720Y100768I2461J-1525D01*
G02X363635Y98726I-3476J1848D01*
G03X363189Y98761I-446J-2860D01*
G01X356103D01*
G03X353432Y96981I0J-2895D01*
G03X352362Y97186I-1069J-2690D01*
G01X343308D01*
G03X342535Y97081I0J-2895D01*
G02X340065Y98674I-525J1897D01*
G03X339459Y100043I-2860J-447D01*
G01X339024Y100584D01*
Y102172D01*
G37*
G36*
G01X330536Y125936D02*
X352343D01*
Y123607D01*
X352215Y123270D01*
G03X352027Y122244I2707J-1027D01*
G01Y119882D01*
G03X352029Y119774I2895J-3D01*
G02X348094Y115690I-3934J-147D01*
G01X343308D01*
G03X341914Y115332I0J-2895D01*
G02X339444Y115810I-948J1725D01*
G03X337204Y116871I-2239J-1834D01*
G01X334843D01*
G03X334686Y116866I3J-2895D01*
G02X330536Y120798I-213J3931D01*
G01Y125936D01*
G37*
G36*
G01X339024Y157291D02*
X339459Y157831D01*
G03X340065Y159200I-2255J1815D01*
G02X342535Y160793I1945J-303D01*
G03X343308Y160688I773J2790D01*
G01X352362D01*
G03X353432Y160893I0J2895D01*
G03X356103Y159113I2671J1115D01*
G01X363189D01*
G03X364712Y159546I0J2895D01*
G02X367580Y158591I1036J-1674D01*
G03X367815Y158122I2695J1056D01*
G02Y156051I-1674J-1036D01*
G03X367720Y155886I2461J-1525D01*
G02X363635Y153844I-3476J1848D01*
G03X363189Y153879I-446J-2860D01*
G01X356103D01*
G03X353432Y152099I0J-2895D01*
G03X352362Y152304I-1069J-2690D01*
G01X343308D01*
G03X342535Y152199I0J-2895D01*
G02X340065Y153792I-525J1897D01*
G03X339459Y155161I-2860J-447D01*
G01X339024Y155702D01*
Y157291D01*
G37*
G36*
G01X335533Y189243D02*
X348090D01*
G02X352027Y185266I0J-3937D01*
G01Y182874D01*
G03X352537Y181234I2894J0D01*
G02Y179002I-1622J-1116D01*
G03X352027Y177362I2385J-1640D01*
G01Y175000D01*
G03X352029Y174892I2895J-3D01*
G02X348094Y170808I-3934J-147D01*
G01X343308D01*
G03X341914Y170450I0J-2895D01*
G02X339444Y170928I-948J1725D01*
G03X337204Y171989I-2239J-1834D01*
G01X334536D01*
Y185487D01*
X334141Y185883D01*
G02X335533Y189243I1392J1392D01*
G37*
G36*
G01X321810Y180292D02*
X322570Y181052D01*
X321457Y182291D01*
X320343Y181052D01*
X321103Y180292D01*
G03X321810I354J354D01*
G37*
G36*
G01X340217Y233244D02*
X352854D01*
Y226791D01*
G03X352870Y226489I2895J1D01*
G02X351032Y222734I-3915J-411D01*
G03X349665Y220275I1528J-2459D01*
G01Y217126D01*
G03X350131Y215551I2895J0D01*
G03X349665Y213976I2428J-1575D01*
G01Y210827D01*
G03X352559Y207932I2895J0D01*
G01X355691D01*
Y205160D01*
X355128Y204585D01*
G03X353971Y202639I3407J-3342D01*
G01X353546Y201245D01*
X339024D01*
Y208472D01*
X339459Y209012D01*
G03X340099Y210827I-2255J1815D01*
G01Y213976D01*
G03X339633Y215551I-2895J0D01*
G03X340099Y217126I-2428J1575D01*
G01Y220275D01*
G03X339764Y221627I-2895J0D01*
G01X339536Y222059D01*
Y224850D01*
X339812Y225315D01*
G03X340217Y226791I-2490J1477D01*
G01Y233244D01*
G37*
G36*
G01X329765Y209118D02*
X329005Y208357D01*
X330118Y207119D01*
X331232Y208357D01*
X330472Y209118D01*
G03X329765I-354J-354D01*
G37*
G36*
G01X336889Y262870D02*
X337649Y263631D01*
X336535Y264869D01*
X335422Y263631D01*
X336182Y262870D01*
G03X336889I354J354D01*
G37*
G36*
G01X357063Y30820D02*
X361235Y34993D01*
G02X367956Y32209I2784J-2784D01*
G01Y26968D01*
X366978Y26399D01*
G03X364409Y24147I4479J-7698D01*
G02X358257Y24049I-3115J2407D01*
G03X357271Y25059I-6485J-5349D01*
G02X357063Y30820I2575J2978D01*
G37*
G36*
G01X395151Y67365D02*
X402719Y74934D01*
X405001Y72652D01*
X404566Y71470D01*
G03X404389Y70472I2717J-998D01*
G01Y61418D01*
G03X404402Y61148I2895J0D01*
G01X404410Y61057D01*
Y58997D01*
X401280D01*
G03X398385Y56102I1J-2895D01*
G01Y50745D01*
X376085D01*
X373757Y48416D01*
G02X367036Y51200I-2784J2784D01*
G01Y54832D01*
G02X372348Y58521I3937J0D01*
G03X374016Y58220I1668J4472D01*
G03X378788Y62992I0J4772D01*
G03X378782Y63231I-4772J2D01*
G02X382714Y67365I3932J197D01*
G01X395151D01*
G37*
G36*
G01X364804Y83845D02*
X363905Y82945D01*
X365158Y81568D01*
X366410Y82945D01*
X365511Y83845D01*
G03X364804I-354J-354D01*
G37*
G36*
G01X366778Y191243D02*
X369926Y194391D01*
G02X373287Y192999I1392J-1392D01*
G01Y191142D01*
G03X373455Y190170I2895J0D01*
G01X373569Y189849D01*
Y187540D01*
X370276D01*
G03X368799Y187135I1J-2895D01*
G01X368335Y186859D01*
X366388D01*
X365365Y187883D01*
G02X366756Y191243I1392J1392D01*
G01X366778D01*
G37*
G36*
G01X370217Y233244D02*
X481071D01*
Y187734D01*
G02X476840Y183808I-3937J0D01*
G03X476535Y183820I-305J-4064D01*
G03X474801Y183432I0J-4076D01*
G01X474403Y183245D01*
X470021D01*
Y186417D01*
G03X469554Y187992I-2895J0D01*
G03X470021Y189567I-2428J1575D01*
G01Y192716D01*
G03X467126Y195611I-2895J0D01*
G01X463040D01*
Y201046D01*
X458841Y205245D01*
X411222D01*
X409897Y203920D01*
G02X406536Y205312I-1392J1392D01*
G01Y223487D01*
X402778Y227245D01*
X389930D01*
X385727Y223041D01*
X384782Y223151D01*
G03X384448Y223170I-334J-2876D01*
G01X382087D01*
G03X380315Y222564I0J-2895D01*
G03X378543Y223170I-1772J-2289D01*
G01X376182D01*
G03X373398Y221069I0J-2895D01*
G01X372990Y219641D01*
X369536D01*
Y224850D01*
X369812Y225315D01*
G03X370217Y226791I-2490J1477D01*
G01Y233244D01*
G37*
G36*
G01X359292Y209228D02*
X358532Y208467D01*
X359646Y207229D01*
X360759Y208467D01*
X359999Y209228D01*
G03X359292I-354J-354D01*
G37*
G36*
G01X358182Y200012D02*
X356768Y198598D01*
X358035Y198120D01*
X359035D01*
X360303Y198598D01*
X358889Y200012D01*
G03X358182I-354J-354D01*
G37*
G36*
G01X358889Y199092D02*
X359788Y199992D01*
X358535Y201369D01*
X357283Y199992D01*
X358182Y199092D01*
G03X358889I354J354D01*
G37*
G36*
G01X366889Y262870D02*
X367649Y263631D01*
X366535Y264869D01*
X365422Y263631D01*
X366182Y262870D01*
G03X366889I354J354D01*
G37*
G36*
G01X402656Y8345D02*
X400579Y10421D01*
X397545Y7638D01*
X400579Y4854D01*
X402656Y6931D01*
G03Y8345I-707J707D01*
G37*
G36*
G01X374369Y68806D02*
X376076Y70513D01*
X374516Y70991D01*
X373516D01*
X371955Y70513D01*
X373662Y68806D01*
G03X374369I354J354D01*
G37*
G36*
G01X373662Y65144D02*
X372763Y64245D01*
X374016Y62867D01*
X375268Y64245D01*
X374369Y65144D01*
G03X373662I-354J-354D01*
G37*
G36*
G01X388032Y103968D02*
X387272Y103208D01*
X388386Y101969D01*
X389499Y103208D01*
X388739Y103968D01*
G03X388032I-354J-354D01*
G37*
G36*
G01X375646Y120906D02*
X376407Y120146D01*
X377645Y121260D01*
X376407Y122373D01*
X375646Y121613D01*
G03Y120906I354J-354D01*
G37*
G36*
G01X393464Y156313D02*
X394363Y157212D01*
X393110Y158590D01*
X391858Y157212D01*
X392757Y156313D01*
G03X393464I354J354D01*
G37*
G36*
G01X375662Y176024D02*
X376422Y175265D01*
X377661Y176378D01*
X376422Y177491D01*
X375662Y176732D01*
G03Y176024I354J-354D01*
G37*
G36*
G01X389527Y202008D02*
X390287Y202769D01*
X389173Y204007D01*
X388060Y202769D01*
X388820Y202008D01*
G03X389527I354J354D01*
G37*
G36*
G01X398118Y218347D02*
X398879Y217587D01*
X400117Y218701D01*
X398879Y219814D01*
X398118Y219054D01*
G03Y218347I354J-354D01*
G37*
G36*
G01X377716Y223197D02*
X378476Y223958D01*
X377362Y225196D01*
X376249Y223958D01*
X377009Y223197D01*
G03X377716I353J354D01*
G37*
G36*
G01X372536Y203187D02*
Y208230D01*
X374855D01*
X375184Y208110D01*
G03X376182Y207932I998J2717D01*
G01X378543D01*
G03X380315Y208538I0J2895D01*
G03X382087Y207932I1772J2289D01*
G01X384448D01*
G03X386220Y208538I0J2895D01*
G03X387992Y207932I1772J2289D01*
G01X390354D01*
G03X392126Y208538I0J2895D01*
G03X393898Y207932I1772J2289D01*
G01X396259D01*
G03X396442Y207938I-2J2895D01*
G02X398535Y205974I124J-1965D01*
G01Y205444D01*
G02X396442Y203479I-1969J0D01*
G03X396259Y203485I-185J-2889D01*
G01X393898D01*
G03X392126Y202879I0J-2895D01*
G03X390354Y203485I-1772J-2289D01*
G01X387992D01*
G03X386220Y202879I0J-2895D01*
G03X384448Y203485I-1772J-2289D01*
G01X382087D01*
G03X380315Y202879I0J-2895D01*
G03X378543Y203485I-1772J-2289D01*
G01X376182D01*
G03X375184Y203308I0J-2895D01*
G01X374855Y203187D01*
X372536D01*
G37*
G36*
G01X402935Y6931D02*
X405012Y4854D01*
X408045Y7638D01*
X405012Y10421D01*
X402935Y8345D01*
G03Y6931I707J-707D01*
G37*
G36*
G01X412656Y8345D02*
X410579Y10421D01*
X407545Y7638D01*
X410579Y4854D01*
X412656Y6931D01*
G03Y8345I-707J707D01*
G37*
G36*
G01X422656D02*
X420579Y10421D01*
X417545Y7638D01*
X420579Y4854D01*
X422656Y6931D01*
G03Y8345I-707J707D01*
G37*
G36*
G01X412935Y6931D02*
X415012Y4854D01*
X418045Y7638D01*
X415012Y10421D01*
X412935Y8345D01*
G03Y6931I707J-707D01*
G37*
G36*
G01X422935D02*
X425012Y4854D01*
X428045Y7638D01*
X425012Y10421D01*
X422935Y8345D01*
G03Y6931I707J-707D01*
G37*
G36*
G01X408992Y157243D02*
X415295D01*
G02X418615Y151189I0J-3937D01*
G03X417865Y148622I4023J-2567D01*
G03X422638Y143850I4772J0D01*
G03X423934Y144029I1J4773D01*
G01X424195Y144103D01*
X426436D01*
Y139961D01*
G03X429331Y137066I2895J0D01*
G01X431693D01*
G03X431987Y137081I0J2895D01*
G01X432918Y137176D01*
X434971Y135123D01*
X432467Y132619D01*
X429331D01*
G03X426436Y129724I0J-2895D01*
G01Y126575D01*
G03X426902Y125000I2895J0D01*
G03X426436Y123425I2428J-1575D01*
G01Y120276D01*
G03X429239Y117383I2895J0D01*
G02X431145Y115415I-63J-1968D01*
G01Y109507D01*
X431072Y109246D01*
G03X431048Y109157I2788J-778D01*
G02X427781Y108201I-1911J471D01*
G03X425787Y108997I-1994J-2099D01*
G01X423426D01*
G03X422353Y108791I0J-2895D01*
G03X419882Y110178I-2471J-1507D01*
G01X417520D01*
G03X414625Y107283I0J-2895D01*
G01Y104134D01*
G03X415135Y102494I2894J0D01*
G02Y100262I-1622J-1116D01*
G03X414625Y98622I2385J-1640D01*
G01Y93674D01*
X407056D01*
X407036Y93694D01*
Y97885D01*
X408152Y98421D01*
G03Y105768I-1766J3673D01*
G01X407036Y106304D01*
Y149694D01*
X406208Y150522D01*
G02X408992Y157243I2784J2784D01*
G37*
G36*
G01X409909Y165098D02*
X409148Y165858D01*
X407910Y164744D01*
X409148Y163631D01*
X409909Y164391D01*
G03Y165098I-354J354D01*
G37*
G36*
G01X424790Y148976D02*
X423890Y149874D01*
X422513Y148622D01*
X423890Y147370D01*
X424790Y148268D01*
G03Y148976I-354J354D01*
G37*
G36*
G01X421308Y199243D02*
X428405D01*
G02X432342Y195294I0J-3937D01*
G01Y195276D01*
G03X432718Y193107I6437J0D01*
G02X429011Y187843I-3707J-1326D01*
G01X426891D01*
X422535Y183487D01*
Y181034D01*
X419442D01*
X418871Y182002D01*
G03X416378Y183426I-2493J-1471D01*
G01X413207D01*
Y185486D01*
X413216Y185578D01*
G03X413237Y186024I-4752J446D01*
G03X413098Y187165I-4772J-1D01*
G02X413998Y189324I1911J471D01*
G03X417371Y195276I-3565J5952D01*
G01Y195295D01*
G02X421308Y199243I3937J11D01*
G37*
G36*
G01X410080Y200490D02*
X407650Y198059D01*
X410433Y195150D01*
X413216Y198059D01*
X410787Y200490D01*
G03X410080I-354J-354D01*
G37*
G36*
G01X433009Y7991D02*
X430579Y10421D01*
X427670Y7638D01*
X430579Y4854D01*
X433009Y7284D01*
G03Y7991I-354J353D01*
G37*
G36*
G01X455059Y125042D02*
X460786D01*
X462444Y123385D01*
Y115690D01*
X458465D01*
G03X457317Y115452I0J-2895D01*
G02X457154Y115390I-781J1807D01*
G03X455932Y114224I618J-1869D01*
G02X455863Y114063I-1838J704D01*
G03X455570Y112795I2602J-1268D01*
G01Y108459D01*
X453125D01*
X452702Y108676D01*
G03X451378Y108997I-1324J-2575D01*
G01X449016D01*
G03X448501Y108951I-1J-2895D01*
G01X447487Y108767D01*
X446257Y109997D01*
X445494D01*
X444922Y110548D01*
G03X442913Y111359I-2009J-2084D01*
G01X440038D01*
X439031Y113789D01*
X439918Y114676D01*
Y117381D01*
X443504D01*
G03X444446Y117539I0J2895D01*
G02X446359Y117181I641J-1861D01*
G03X448228Y116496I1870J2210D01*
G01X452165D01*
G03X453313Y116733I-1J2895D01*
G02X453476Y116795I777J-1808D01*
G03X454697Y117962I-618J1869D01*
G02X454767Y118122I1838J-704D01*
G03X455059Y119390I-2602J1268D01*
G01Y125042D01*
G37*
G36*
G01X443020Y170472D02*
X444291D01*
X444380Y172333D01*
X442520Y172244D01*
Y170972D01*
G03X443020Y170472I500J0D01*
G37*
G36*
G01X447914Y200830D02*
Y202244D01*
X446000D01*
X447414Y200830D01*
X447914D01*
G37*
G36*
G01X438426Y264663D02*
X435996Y262232D01*
X438780Y259324D01*
X441563Y262232D01*
X439133Y264663D01*
G03X438426I-354J-354D01*
G37*
G36*
G01X469698Y118741D02*
X470598Y117842D01*
X471976Y119094D01*
X470598Y120347D01*
X469698Y119448D01*
G03Y118741I354J-354D01*
G37*
G36*
G01X469449Y171103D02*
X470210Y170343D01*
X471448Y171457D01*
X470210Y172570D01*
X469449Y171810D01*
G03Y171103I354J-354D01*
G37*
G36*
G01X455939Y305946D02*
X457813Y304073D01*
X460165Y306299D01*
X457813Y308526D01*
X455939Y306653D01*
G03Y305946I354J-354D01*
G37*
G36*
G01X456890Y288870D02*
X456890Y286220D01*
X460128Y286132D01*
X460039Y289370D01*
X457390Y289370D01*
G03X456890Y288870I0J-500D01*
G37*
%LPC*%
G75*
G36*
G01X129480Y174488D02*
Y180000D01*
G02X132480Y183001I3001J0D01*
G01X137992D01*
G02X140993Y180000I0J-3001D01*
G01Y174488D01*
G02X140296Y172566I-3001J0D01*
G03X140134Y170270I1512J-1261D01*
G02X140993Y167244I-4897J-3026D01*
G02X140857Y166002I-5757J1D01*
G03X141638Y163973I1922J-425D01*
G02X142855Y161614I-1678J-2359D01*
G01Y159252D01*
G02X139960Y156358I-2895J0D01*
G01X136811D01*
G02X135236Y156824I0J2895D01*
G02X133661Y156358I-1575J2428D01*
G01X130512D01*
G02X127617Y159252I0J2895D01*
G01Y161614D01*
G02X128491Y163687I2895J0D01*
G01X129086Y164266D01*
Y165337D01*
X129480Y165731D01*
Y167244D01*
G02X130339Y170270I5757J0D01*
G03X130176Y172566I-1675J1035D01*
G02X129480Y174488I2304J1922D01*
G37*
G54D51*
X444291Y10827D03*
%LPD*%
G75*
G36*
G01X50339Y214275D02*
X49580Y213515D01*
X50693Y212276D01*
X51806Y213515D01*
X51046Y214275D01*
G03X50339I-354J-354D01*
G37*
G36*
G01X52566Y212755D02*
X51806Y213515D01*
X50568Y212402D01*
X51806Y211288D01*
X52566Y212048D01*
G03Y212755I-354J354D01*
G37*
G36*
G01X80339Y214275D02*
X79580Y213515D01*
X80693Y212276D01*
X81806Y213515D01*
X81047Y214275D01*
G03X80339I-354J-354D01*
G37*
G36*
G01X82566Y212755D02*
X81806Y213515D01*
X80568Y212402D01*
X81806Y211288D01*
X82566Y212048D01*
G03Y212755I-354J354D01*
G37*
G36*
G01X109182Y214118D02*
X108422Y213357D01*
X109535Y212119D01*
X110649Y213357D01*
X109889Y214118D01*
G03X109182I-354J-354D01*
G37*
G36*
G01X111409Y212598D02*
X110648Y213358D01*
X109410Y212244D01*
X110648Y211131D01*
X111409Y211891D01*
G03Y212598I-354J353D01*
G37*
G36*
G01X120924Y103335D02*
X121684Y104096D01*
X120571Y105334D01*
X119458Y104096D01*
X120217Y103335D01*
G03X120924I354J354D01*
G37*
G36*
G01X132980Y164488D02*
X135236D01*
X135325Y167333D01*
X132480Y167244D01*
Y164988D01*
G03X132980Y164488I500J0D01*
G37*
G36*
G01X138182Y214118D02*
X137422Y213357D01*
X138535Y212119D01*
X139649Y213357D01*
X138889Y214118D01*
G03X138182I-354J-354D01*
G37*
G36*
G01X140409Y212598D02*
X139648Y213358D01*
X138410Y212244D01*
X139648Y211131D01*
X140409Y211891D01*
G03Y212598I-354J353D01*
G37*
G36*
G01X169339Y214275D02*
X168580Y213515D01*
X169693Y212276D01*
X170806Y213515D01*
X170046Y214275D01*
G03X169339I-354J-354D01*
G37*
G36*
G01X171566Y212755D02*
X170806Y213515D01*
X169568Y212402D01*
X170806Y211288D01*
X171566Y212048D01*
G03Y212755I-354J354D01*
G37*
G36*
G01X177409Y122598D02*
X176648Y123358D01*
X175410Y122244D01*
X176648Y121131D01*
X177409Y121891D01*
G03Y122598I-354J354D01*
G37*
G36*
G01X175889Y120370D02*
X176649Y121131D01*
X175535Y122369D01*
X174422Y121131D01*
X175182Y120370D01*
G03X175889I354J354D01*
G37*
G36*
G01X198339Y214275D02*
X197580Y213515D01*
X198693Y212276D01*
X199806Y213515D01*
X199046Y214275D01*
G03X198339I-354J-354D01*
G37*
G36*
G01X200566Y212755D02*
X199806Y213515D01*
X198568Y212402D01*
X199806Y211288D01*
X200566Y212048D01*
G03Y212755I-354J354D01*
G37*
G36*
G01X227182Y214118D02*
X226422Y213357D01*
X227535Y212119D01*
X228649Y213357D01*
X227889Y214118D01*
G03X227182I-354J-354D01*
G37*
G36*
G01X229409Y212598D02*
X228648Y213358D01*
X227410Y212244D01*
X228648Y211131D01*
X229409Y211891D01*
G03Y212598I-354J353D01*
G37*
G36*
G01X247755Y90944D02*
X246995Y91704D01*
X245757Y90591D01*
X246995Y89477D01*
X247755Y90237D01*
G03Y90944I-354J354D01*
G37*
G36*
G01X250040Y168118D02*
X249280Y167357D01*
X250394Y166119D01*
X251507Y167357D01*
X250747Y168118D01*
G03X250040I-354J-354D01*
G37*
G36*
G01X287182Y214275D02*
X286422Y213515D01*
X287535Y212276D01*
X288649Y213515D01*
X287889Y214275D01*
G03X287182I-354J-354D01*
G37*
G36*
G01X289409Y212755D02*
X288648Y213515D01*
X287410Y212402D01*
X288648Y211288D01*
X289409Y212048D01*
G03Y212755I-354J354D01*
G37*
G36*
G01X319583Y145969D02*
X320344Y145209D01*
X321582Y146323D01*
X320344Y147436D01*
X319583Y146676D01*
G03Y145969I354J-354D01*
G37*
G36*
G01X321103Y148196D02*
X320343Y147436D01*
X321457Y146198D01*
X322570Y147436D01*
X321810Y148196D01*
G03X321103I-354J-354D01*
G37*
G36*
G01X317182Y214275D02*
X316422Y213515D01*
X317535Y212276D01*
X318649Y213515D01*
X317889Y214275D01*
G03X317182I-354J-354D01*
G37*
G36*
G01X319409Y212755D02*
X318648Y213515D01*
X317410Y212402D01*
X318648Y211288D01*
X319409Y212048D01*
G03Y212755I-354J354D01*
G37*
G36*
G01X348188Y171071D02*
X348948Y171832D01*
X347835Y173070D01*
X346721Y171832D01*
X347481Y171071D01*
G03X348188I354J354D01*
G37*
G36*
G01X347182Y214275D02*
X346422Y213515D01*
X347535Y212276D01*
X348649Y213515D01*
X347889Y214275D01*
G03X347182I-354J-354D01*
G37*
G36*
G01X349409Y212755D02*
X348648Y213515D01*
X347410Y212402D01*
X348648Y211288D01*
X349409Y212048D01*
G03Y212755I-354J354D01*
G37*
G36*
G01X443020Y9055D02*
X444291D01*
X444380Y10915D01*
X442520Y10827D01*
Y9555D01*
G03X443020Y9055I500J0D01*
G37*
G54D10*
X13780Y13780D03*
Y330709D03*
X469291Y13780D03*
Y330709D03*
G54D20*
X64370Y71850D03*
X93898D03*
X123425D03*
X135236Y177244D03*
X152953Y76850D03*
X164764Y177244D03*
X182480Y76850D03*
X194291Y177244D03*
X212008Y76850D03*
X241535D03*
X271063D03*
X300591D03*
G54D11*
X5367Y81875D03*
Y77938D03*
Y74001D03*
Y70064D03*
Y66127D03*
Y93686D03*
Y89749D03*
Y85812D03*
X25052Y81875D03*
X21115D03*
X17178D03*
X13241D03*
X9304D03*
X25052Y77938D03*
X21115D03*
X17178D03*
X13241D03*
X9304D03*
X25052Y74001D03*
X21115D03*
X17178D03*
X13241D03*
X9304D03*
X25052Y70064D03*
X21115D03*
X17178D03*
X13241D03*
X9304D03*
X25052Y66127D03*
X21115D03*
X17178D03*
X13241D03*
X9304D03*
X25052Y93686D03*
X21115D03*
X17178D03*
X13241D03*
X9304D03*
X25052Y89749D03*
X21115D03*
X17178D03*
X13241D03*
X9304D03*
X25052Y85812D03*
X21115D03*
X17178D03*
X13241D03*
X9304D03*
X21785Y144494D03*
X8367Y158749D03*
X12304D03*
X16241D03*
X20178D03*
X24115D03*
X28052D03*
X8367Y162686D03*
X12304D03*
X16241D03*
X20178D03*
X24115D03*
X28052D03*
X30535Y184244D03*
X25115Y222749D03*
X21178D03*
X17241D03*
X13304D03*
X9367D03*
X29052D03*
X25115Y226686D03*
X21178D03*
X17241D03*
X13304D03*
X9367D03*
X29052D03*
X45052Y54812D03*
X41115D03*
X37178D03*
X45052Y58749D03*
X41115D03*
X37178D03*
X45052Y62686D03*
X41115D03*
X37178D03*
X52052Y106749D03*
X44178Y110686D03*
X48115D03*
X52052D03*
X44178Y102812D03*
X48115D03*
X52052D03*
X44178Y106749D03*
X48115D03*
X44102Y136811D03*
X53535Y148244D03*
X37835Y153945D03*
X50693Y212402D03*
X58535Y204244D03*
X64370Y207409D03*
X70535Y30244D03*
X78535D03*
X80052Y117749D03*
X76115D03*
X80052Y121686D03*
X76115D03*
X91535Y137244D03*
X69370Y144409D03*
X85236Y153945D03*
X80693Y212402D03*
X75535Y201244D03*
X81535D03*
X87535D03*
X92535D03*
X77535Y229244D03*
X65435Y264744D03*
X117115Y45938D03*
X113178D03*
X109241D03*
X110535Y30244D03*
X120535D03*
X120571Y105209D03*
X118052Y167812D03*
X114115D03*
X110178D03*
X118052Y171749D03*
X114115D03*
X110178D03*
X118052Y175686D03*
X114115D03*
X110178D03*
X109535Y212244D03*
X93898Y207244D03*
X106535Y229244D03*
X96935Y264444D03*
X141732Y52165D03*
X121052Y45938D03*
X129035Y94744D03*
X135236Y122945D03*
X146535Y160244D03*
X138535Y212244D03*
X123425Y207354D03*
X136535Y229244D03*
X126535Y264744D03*
X176181Y41339D03*
X175535Y122244D03*
X154535Y118244D03*
X162535D03*
X176178Y188686D03*
Y184749D03*
X169693Y212402D03*
X154921Y207244D03*
X165535Y229244D03*
X156535Y264744D03*
X193898Y40354D03*
X190945Y62008D03*
X200197Y104244D03*
X202535Y93244D03*
X194535Y91244D03*
Y122244D03*
X193535Y145244D03*
Y150244D03*
X178115Y166686D03*
Y162749D03*
X182052Y166686D03*
Y162749D03*
X184000Y147000D03*
X189535Y153244D03*
X179535D03*
X180115Y188686D03*
X184052D03*
X180115Y184749D03*
X184052D03*
X198693Y212402D03*
X182480Y207299D03*
X195535Y229244D03*
X186535Y264744D03*
X230216Y104563D03*
X206535Y104244D03*
Y93244D03*
X224535Y111244D03*
X229035Y139744D03*
X214035Y131244D03*
X230248Y130957D03*
X206535Y133244D03*
X213535Y145244D03*
Y150244D03*
X212000Y164000D03*
X220000Y144000D03*
X230709Y197071D03*
X227535Y212244D03*
X212008Y207244D03*
X225535Y229244D03*
X216535Y264744D03*
X237307Y95472D03*
X245882Y90591D03*
X237535Y88244D03*
X256752Y118028D03*
X250394Y166244D03*
X235535Y161244D03*
X246535Y163244D03*
X239535Y165244D03*
X239115Y176686D03*
X243052D03*
X239115Y172749D03*
X243052D03*
X255906Y212598D03*
Y216535D03*
X241535Y207244D03*
X246535Y264744D03*
X266752Y84461D03*
X272535Y97244D03*
X262291Y125000D03*
X264035Y154744D03*
X262063Y142716D03*
X287535Y212402D03*
X271063Y207244D03*
X285535Y229244D03*
X276535Y264744D03*
X314035Y47244D03*
X316535Y51244D03*
X310535Y142244D03*
X315535D03*
X300535Y161244D03*
X317535Y212402D03*
X300591Y207244D03*
X315535Y229244D03*
X306535Y264744D03*
X319535Y55244D03*
X322535Y59244D03*
X342535Y121244D03*
X337535D03*
X321457Y146323D03*
X320535Y142244D03*
X339535Y183244D03*
X345535D03*
Y178244D03*
X339535D03*
X321457Y182165D03*
X330118Y207244D03*
X345535Y229244D03*
X336535Y264744D03*
X362535Y29244D03*
X347535Y121244D03*
Y156244D03*
X359535D03*
X347835Y172945D03*
X369488Y189961D03*
X347535Y212402D03*
X359646Y207354D03*
X366535Y264744D03*
X400535Y63244D03*
X385241Y64938D03*
Y61001D03*
X389178Y64938D03*
Y61001D03*
X388386Y102094D03*
X377520Y121260D03*
X377535Y176378D03*
X377362Y225071D03*
X399992Y218701D03*
X389173Y203882D03*
X377535Y229244D03*
X412732Y97047D03*
X406386Y102094D03*
X415178Y132938D03*
Y129001D03*
Y125064D03*
X411241Y132938D03*
Y129001D03*
Y125064D03*
X419115Y132938D03*
Y129001D03*
Y125064D03*
X408035Y164744D03*
X423535Y196244D03*
X417323Y187008D03*
X441304Y19347D03*
Y23284D03*
Y27221D03*
X445241Y19347D03*
X449178D03*
X453115D03*
X445241Y23284D03*
X449178D03*
X453115D03*
X445241Y27221D03*
X449178D03*
X453115D03*
X441304Y31158D03*
X445241D03*
X449178D03*
X453115D03*
X457323Y121457D03*
X443898Y133858D03*
X453000Y198000D03*
X471126Y147835D03*
X471323Y171457D03*
X472441Y185039D03*
X476535Y179744D03*
X467115Y222001D03*
X463178D03*
X467115Y218064D03*
X463178D03*
X459241Y222001D03*
Y218064D03*
X467115Y225938D03*
X463178D03*
X459241D03*
G54D12*
X32087Y107284D03*
X13976D03*
X61220D03*
X79331D03*
X427756Y79724D03*
X409646D03*
G54D21*
X58465Y212402D03*
Y218701D03*
X82087Y68701D03*
Y75000D03*
X76181Y68701D03*
Y75000D03*
X87992Y212402D03*
Y218701D03*
X70276Y212402D03*
Y218701D03*
X111614Y68701D03*
Y75000D03*
X105709Y68701D03*
Y75000D03*
X117520Y212402D03*
Y218701D03*
X99803Y212402D03*
Y218701D03*
X141142Y68701D03*
Y75000D03*
X135236Y68701D03*
Y75000D03*
X147047Y212402D03*
Y218701D03*
X129331Y212402D03*
Y218701D03*
X164764Y68701D03*
Y75000D03*
X170669Y68701D03*
Y75000D03*
X162795Y212402D03*
Y218701D03*
X200197Y110039D03*
Y116339D03*
X182480Y115945D03*
Y122244D03*
X188386Y115945D03*
Y122244D03*
X176575Y212402D03*
Y218701D03*
X188386Y212402D03*
Y218701D03*
X223819Y68701D03*
Y75000D03*
X229724Y68701D03*
Y75000D03*
X206102Y110039D03*
Y116339D03*
Y212402D03*
Y218701D03*
X217913Y212402D03*
Y218701D03*
X235630Y212402D03*
Y218701D03*
X247441Y212402D03*
Y218701D03*
X282874Y68701D03*
Y75000D03*
X265158Y212402D03*
Y218701D03*
X276968Y212402D03*
Y218701D03*
X288780Y68701D03*
Y75000D03*
X294685Y212402D03*
Y218701D03*
X306496Y212402D03*
Y218701D03*
X324213Y212402D03*
Y218701D03*
X336024Y212402D03*
Y218701D03*
X371457Y106102D03*
Y112402D03*
Y161220D03*
Y167520D03*
X353740Y212402D03*
Y218701D03*
X365551Y212402D03*
Y218701D03*
X377362Y106102D03*
Y112402D03*
X383268Y161220D03*
Y167520D03*
X377362Y192716D03*
X395079D03*
X383268D03*
X377362Y199016D03*
X395079D03*
X383268D03*
X395079Y212402D03*
Y218701D03*
X418701Y105709D03*
Y97047D03*
X442323Y121850D03*
Y128150D03*
X430512Y141535D03*
Y147835D03*
X454134Y165158D03*
Y141535D03*
Y147835D03*
Y171457D03*
X465945Y184842D03*
Y191142D03*
X460039Y184842D03*
Y191142D03*
G54D30*
X149606Y52165D03*
X196850D03*
X226378D03*
X409449Y65945D03*
G54D22*
X55433Y229350D03*
Y256909D03*
X86929Y229350D03*
X65433D03*
X86929Y256909D03*
X65433D03*
X116535Y229350D03*
X96929D03*
X116535Y256909D03*
X96929D03*
X146535Y229350D03*
X126535D03*
X146535Y256909D03*
X126535D03*
X156535Y229350D03*
Y256909D03*
X176535Y229350D03*
X186535D03*
X176535Y256909D03*
X186535D03*
X206535Y229350D03*
X216535D03*
X206535Y256909D03*
X216535D03*
X256752Y90591D03*
X251752D03*
Y112165D03*
X256752D03*
X236535Y229350D03*
X246535D03*
X236535Y256909D03*
X246535D03*
X266752Y90591D03*
X261752D03*
Y112165D03*
X266752D03*
X266535Y229350D03*
X276535D03*
X266535Y256909D03*
X276535D03*
X296535Y229350D03*
X306535D03*
X296535Y256909D03*
X306535D03*
X326535Y229350D03*
X336535D03*
X326535Y256909D03*
X336535D03*
X356535Y229350D03*
X366535D03*
X356535Y256909D03*
X366535D03*
G54D31*
X168110Y52165D03*
X215354D03*
X244882D03*
X427953Y65945D03*
G54D13*
X22126Y123012D03*
X12126D03*
X22126Y150571D03*
X12126D03*
X59370Y123012D03*
Y150571D03*
X69370Y123012D03*
Y150571D03*
G54D40*
X403347Y54134D03*
X410433D03*
X421063D03*
X428150D03*
G54D50*
G01X7874Y0D02*
X475197D01*
G03X483071Y7874I0J7874D01*
G01Y336614D01*
G03X475197Y344488I-7874J0D01*
G01X7874D01*
G03X0Y336614I0J-7874D01*
G01Y7874D01*
G03X7874Y0I7874J0D01*
G54D23*
X61535Y273228D03*
X91535D03*
X121535D03*
X151535D03*
X181535D03*
X211535D03*
X241535D03*
X271535D03*
X301535D03*
X347835Y92126D03*
Y147244D03*
X331535Y273228D03*
X361535D03*
X426575D03*
X439173D03*
G54D14*
X31693Y136811D03*
X30512Y130906D03*
X31693Y142716D03*
X37992Y136811D03*
X39173Y130906D03*
X37992Y142716D03*
X78937Y136811D03*
X85236D03*
X86417Y130906D03*
X77756D03*
X78937Y142716D03*
X85236D03*
X132087Y160433D03*
X138386D03*
X161614D03*
X167913D03*
X191142D03*
X197441D03*
X250197Y130906D03*
X256496D03*
X250197Y136811D03*
X256496D03*
X250197Y142716D03*
X256496D03*
X279724Y136811D03*
X286024D03*
X279724Y130906D03*
X286024D03*
X279724Y125000D03*
X286024D03*
X279724Y142716D03*
X286024D03*
X315158Y176181D03*
X321457D03*
G54D41*
X413819Y164744D03*
Y169744D03*
Y174744D03*
Y179744D03*
X435394Y164744D03*
Y179744D03*
Y174744D03*
Y169744D03*
G54D32*
X182480Y47047D03*
X178740Y57284D03*
X186220D03*
X179921Y106496D03*
X183661Y96260D03*
X187402Y106496D03*
X434646Y96260D03*
Y106496D03*
X438386Y96260D03*
Y106496D03*
X442126Y96260D03*
Y106496D03*
G54D42*
X438386Y77756D03*
G54D24*
X61535Y291732D03*
X91535D03*
X121535D03*
X151535D03*
X181535D03*
X211535D03*
X241535D03*
X271535D03*
X301535D03*
X347835Y110630D03*
Y165748D03*
X331535Y291732D03*
X361535D03*
X426575D03*
X439173D03*
G54D33*
X230709Y152559D03*
Y187992D03*
X252362Y152559D03*
X250394D03*
X248425D03*
X246457D03*
X244488D03*
X242520D03*
X240551D03*
X238583D03*
X236614D03*
X234646D03*
X232677D03*
Y187992D03*
X234646D03*
X236614D03*
X238583D03*
X240551D03*
X242520D03*
X244488D03*
X246457D03*
X248425D03*
X250394D03*
X252362D03*
G54D15*
X31693Y148622D03*
X37992D03*
X61220Y184055D03*
Y189961D03*
Y178150D03*
X85236Y148622D03*
X78937D03*
X67520Y184055D03*
Y189961D03*
Y178150D03*
X256496Y125000D03*
X250197D03*
X286614Y149606D03*
X280315D03*
X286614Y177165D03*
X280315D03*
X315158Y168307D03*
Y160433D03*
Y152559D03*
X321457Y168307D03*
Y160433D03*
Y152559D03*
X362795Y121063D03*
X356496D03*
X362795Y128937D03*
X356496D03*
X362795Y176181D03*
X356496D03*
X362795Y184055D03*
X356496D03*
G54D43*
X438386Y65945D03*
G54D16*
X17126Y194882D03*
Y185039D03*
Y204724D03*
X40748Y194882D03*
Y185039D03*
Y204724D03*
X166732Y107284D03*
X460039Y306299D03*
Y286220D03*
G54D34*
X223819Y159449D03*
Y161417D03*
Y163386D03*
Y165354D03*
Y167323D03*
Y169291D03*
Y171260D03*
Y173228D03*
Y175197D03*
Y177165D03*
Y179134D03*
Y181102D03*
X259252Y167323D03*
Y165354D03*
Y163386D03*
Y161417D03*
Y159449D03*
Y181102D03*
Y179134D03*
Y177165D03*
Y175197D03*
Y173228D03*
Y171260D03*
Y169291D03*
G54D25*
X61535Y324803D03*
X95866Y18701D03*
X91535Y324803D03*
X115551Y18701D03*
X121535Y324803D03*
X135236Y18701D03*
X151535Y324803D03*
X174606Y18701D03*
X154921D03*
X194291D03*
X181535Y324803D03*
X233661Y18701D03*
X213976D03*
X211535Y324803D03*
X253346Y18701D03*
X241535Y324803D03*
X292716Y18701D03*
X273032D03*
X271535Y324803D03*
X312402Y18701D03*
X301535Y324803D03*
X332087Y18701D03*
X331535Y324803D03*
X371457Y18701D03*
X351772D03*
X361535Y324803D03*
X391535D03*
G54D17*
X17126Y175197D03*
X40748D03*
X150984Y107284D03*
G54D44*
X450197Y80906D03*
Y62795D03*
X462008Y80906D03*
Y62795D03*
G54D35*
X286811Y159055D03*
Y167716D03*
X280118Y159055D03*
Y167716D03*
G54D26*
X76181Y18701D03*
X421535Y324803D03*
G54D36*
X300591Y147047D03*
Y173819D03*
G54D18*
X52559Y7638D03*
Y37638D03*
X397795Y7638D03*
Y37638D03*
X427795Y7638D03*
X417795D03*
X407795D03*
X427795Y37638D03*
X417795D03*
X407795D03*
X410433Y195276D03*
Y259449D03*
X438780Y195276D03*
Y259449D03*
G54D45*
X446063Y139567D03*
X442323D03*
X438583D03*
X446063Y149803D03*
X438583D03*
G54D27*
X78150Y164370D03*
X221850Y152559D03*
X365158Y81693D03*
X358535Y201244D03*
X374016Y62992D03*
X393110Y158465D03*
X422638Y148622D03*
X408465Y186024D03*
X444291Y10827D03*
Y172244D03*
X471850Y119094D03*
G54D19*
X64370Y81850D03*
Y61850D03*
X93898Y81850D03*
Y61850D03*
X123425Y81850D03*
Y61850D03*
X135236Y167244D03*
X152953Y66850D03*
X164764Y167244D03*
X182480Y66850D03*
X194291Y167244D03*
X212008Y66850D03*
X241535D03*
X271063D03*
X300591D03*
G54D37*
X359646Y92323D03*
Y110433D03*
Y147441D03*
Y165551D03*
G54D46*
X450197Y121457D03*
Y128543D03*
G54D28*
X64370Y218701D03*
Y212402D03*
X93898Y218701D03*
Y212402D03*
X135236Y110039D03*
X129331D03*
X135236Y116339D03*
X129331D03*
X123425Y218701D03*
Y212402D03*
X154921Y218701D03*
Y212402D03*
X182480Y218701D03*
Y212402D03*
X212008Y218701D03*
Y212402D03*
X241535Y218701D03*
Y212402D03*
X282874Y98622D03*
Y92323D03*
X276968Y98622D03*
Y92323D03*
X271063Y218701D03*
Y212402D03*
X288780Y98622D03*
Y92323D03*
X300591Y218701D03*
Y212402D03*
X336024Y112402D03*
Y106102D03*
Y96654D03*
Y90354D03*
Y167520D03*
Y161220D03*
Y151772D03*
Y145472D03*
X330118Y218701D03*
Y212402D03*
X371457Y89173D03*
Y97835D03*
Y144291D03*
Y152953D03*
X359646Y218701D03*
Y212402D03*
X383268Y112402D03*
Y106102D03*
X377362Y167520D03*
Y161220D03*
X389173Y192716D03*
Y199016D03*
X377362Y218701D03*
Y212402D03*
X383268Y218701D03*
Y212402D03*
X389173Y218701D03*
Y212402D03*
X424606Y104528D03*
Y98228D03*
X450197Y104528D03*
Y98228D03*
X436417Y128150D03*
Y121850D03*
X430512Y128150D03*
Y121850D03*
X454134Y191142D03*
Y184842D03*
X448228Y191142D03*
Y184842D03*
X465945Y165158D03*
X460039Y147835D03*
Y141535D03*
X465945Y147835D03*
Y141535D03*
X460039Y165158D03*
X465945Y171457D03*
X460039D03*
G54D38*
X372244Y121260D03*
Y128740D03*
Y176378D03*
Y183858D03*
X382480Y125000D03*
Y180118D03*
G54D29*
X118012Y95472D03*
X115453D03*
X112894D03*
X110335D03*
X107776D03*
X105217D03*
X102658D03*
Y119094D03*
X105217D03*
X107776D03*
X110335D03*
X112894D03*
X115453D03*
X118012D03*
X120571Y95472D03*
Y119094D03*
X230216Y95472D03*
X227657D03*
X225098D03*
X222539D03*
X219980D03*
X217421D03*
X214862D03*
Y119094D03*
X217421D03*
X219980D03*
X222539D03*
X225098D03*
X227657D03*
X230216D03*
X232776Y95472D03*
Y119094D03*
G54D47*
X465945Y109252D03*
Y93504D03*
G54D48*
G01X95866Y18701D02*
Y43913D01*
X91535Y48244D01*
X35535D01*
X32087Y51693D01*
Y107284D01*
G01X39173Y130906D02*
Y114370D01*
X32087Y107284D01*
G01X13976D02*
Y97803D01*
G01X30512Y130906D02*
X23787D01*
X22126Y129244D01*
Y123012D01*
G01X31693Y136811D02*
X15102D01*
X12126Y133835D01*
Y123012D01*
G01X21785Y144494D02*
X22126Y144835D01*
Y150571D01*
G01X31693Y148622D02*
Y142716D01*
G01X12126Y150571D02*
Y144654D01*
X15535Y141244D01*
X27252D01*
X28724Y142716D01*
X31693D01*
G01X17126Y194882D02*
X27898D01*
X32547Y190232D01*
X45547D01*
X47535Y188244D01*
Y181244D01*
X50630Y178150D01*
X61220D01*
G01X17126Y204724D02*
X40748D01*
G01X135236Y18701D02*
Y46543D01*
X129535Y52244D01*
X52535D01*
X50535Y54244D01*
Y92244D01*
X54535Y96244D01*
X75535D01*
X79535Y100244D01*
Y102142D01*
X79331Y102346D01*
Y107284D01*
G01X61220D02*
X52575D01*
G01X78937Y136811D02*
X62102D01*
X59370Y134079D01*
Y123012D01*
G01X37992Y142716D02*
X43535D01*
X44535Y143716D01*
Y155244D01*
X47535Y158244D01*
X78535D01*
G01X78937Y142716D02*
X75968D01*
X74496Y141244D01*
X61842D01*
X59370Y143716D01*
Y150571D01*
G01X40748Y204724D02*
X51055D01*
X53535Y202244D01*
Y192244D01*
X55819Y189961D01*
X61220D01*
G01Y184055D02*
X52724D01*
X50535Y186244D01*
Y192244D01*
X47898Y194882D01*
X40748D01*
G01X58465Y212402D02*
X50693D01*
G01D02*
Y226791D01*
G01X58465Y218701D02*
X64370D01*
G01X50693Y226791D02*
X53252Y229350D01*
X55433D01*
G01Y256909D02*
Y269489D01*
X59173Y273228D01*
X61535D01*
G01Y291732D02*
X91535D01*
G01X76181Y75000D02*
Y86890D01*
X78535Y89244D01*
X103535D01*
X105216Y90925D01*
Y95472D01*
X105217Y95472D01*
G01X82087Y75000D02*
Y85244D01*
X84087Y87244D01*
X104535D01*
X107776Y90484D01*
Y95472D01*
G01X82087Y68701D02*
Y62850D01*
X81087Y61850D01*
X64370D01*
G01X76181Y68701D02*
X72079D01*
X70535Y70244D01*
Y80244D01*
X68929Y81850D01*
X64370D01*
G01X86417Y130906D02*
Y114370D01*
X79331Y107284D01*
G01X77756Y130906D02*
X71197D01*
X69370Y129079D01*
Y123012D01*
G01X85236Y142716D02*
X88205D01*
X89677Y141244D01*
X189535D01*
X193535Y145244D01*
G01X78150Y164370D02*
Y158630D01*
X78535Y158244D01*
G01D02*
X89535D01*
X91535Y156244D01*
Y149244D01*
X97535Y143244D01*
X186535D01*
X193535Y150244D01*
G01X69370Y150571D02*
Y144409D01*
G01X85236Y148622D02*
Y153945D01*
G01X78937Y148622D02*
Y142716D01*
G01X184000Y147000D02*
X183179Y146179D01*
X182970D01*
X182035Y145244D01*
X99535D01*
X93535Y151244D01*
Y175244D01*
X90630Y178150D01*
X67520D01*
G01X189535Y153244D02*
X184535D01*
X178535Y147244D01*
X101535D01*
X95535Y153244D01*
Y181244D01*
X92724Y184055D01*
X67520D01*
G01X179535Y153244D02*
X175535Y149244D01*
X103535D01*
X97535Y155244D01*
Y187244D01*
X94819Y189961D01*
X67520D01*
G01X70276Y212402D02*
Y197504D01*
X72535Y195244D01*
X209535D01*
X211535Y193244D01*
Y178244D01*
X214535Y175244D01*
X220535D01*
X220583Y175197D01*
X223819D01*
G01X87992Y212402D02*
X80693D01*
G01D02*
Y226402D01*
G01X64370Y212402D02*
Y207409D01*
G01Y218701D02*
X70276D01*
G01X65433Y229350D02*
Y222732D01*
X64370Y221669D01*
Y218701D01*
G01X93898D02*
X87992D01*
G01X80693Y226402D02*
X83642Y229350D01*
X86929D01*
G01X65435Y264744D02*
Y260865D01*
X65433Y260863D01*
Y256909D01*
G01X86929D02*
Y265063D01*
X91535Y269669D01*
Y273228D01*
G01X112894Y95472D02*
Y89602D01*
X111614Y88323D01*
Y75000D01*
G01Y68701D02*
Y63323D01*
X110142Y61850D01*
X93898D01*
G01X105709Y68701D02*
X102079D01*
X100535Y70244D01*
Y80244D01*
X98929Y81850D01*
X93898D01*
G01X105709Y75000D02*
Y85417D01*
X110335Y90043D01*
Y95472D01*
G01X118012Y95472D02*
Y91519D01*
X118035Y91496D01*
Y90220D01*
X119012Y89244D01*
X139535D01*
X141142Y87638D01*
Y75000D01*
G01X167913Y160433D02*
Y157727D01*
X169396Y156244D01*
X195535D01*
X198535Y153244D01*
Y144244D01*
X193535Y139244D01*
X104535D01*
X99535Y134244D01*
Y96807D01*
X100870Y95472D01*
X102658D01*
G01X135236Y75000D02*
Y85543D01*
X133535Y87244D01*
X117535D01*
X115453Y89327D01*
Y95472D01*
G01X105217Y119094D02*
X105216D01*
Y133925D01*
X108535Y137244D01*
X194535D01*
X200535Y143244D01*
Y154763D01*
X197441Y157858D01*
Y160433D01*
G01X118012Y119094D02*
Y115141D01*
X118909Y114244D01*
X127630D01*
X129331Y115945D01*
Y116339D01*
G01X214035Y131244D02*
X212035Y129244D01*
X116453D01*
X115453Y128244D01*
Y119094D01*
G01X206535Y133244D02*
X202535D01*
X200535Y131244D01*
X113894D01*
X112894Y130244D01*
Y119094D01*
G01X204535Y141244D02*
X196535Y133244D01*
X111535D01*
X110335Y132043D01*
Y119094D01*
G01X107776D02*
Y132484D01*
X110535Y135244D01*
X195535D01*
X202535Y142244D01*
Y169244D01*
X206520Y173228D01*
X223819D01*
G01X109535Y212244D02*
X114787D01*
G01X111642Y229350D02*
X109535Y227244D01*
Y212244D01*
G01X93898Y212402D02*
Y207244D01*
G01X117520Y218701D02*
X123425D01*
G01X96929Y229350D02*
Y222126D01*
X93898Y219094D01*
Y218701D01*
G01X99803D02*
X93898D01*
G01X223819Y177165D02*
X215614D01*
X213535Y179244D01*
Y194244D01*
X210535Y197244D01*
X101535D01*
X99803Y198976D01*
Y212402D01*
G01X116535Y229350D02*
X111642D01*
G01X96935Y264444D02*
Y261869D01*
X96929Y261863D01*
Y256909D01*
G01X121535Y273228D02*
X119035Y270728D01*
Y269544D01*
X116535Y267044D01*
Y256909D01*
G01X91535Y291732D02*
X121535D01*
G01X141142Y68701D02*
Y63850D01*
X139142Y61850D01*
X123425D01*
G01Y81850D02*
X127929D01*
X129535Y80244D01*
Y69701D01*
X130535Y68701D01*
X135236D01*
G01X120571Y95472D02*
Y105209D01*
G01Y119094D02*
Y126244D01*
X121571Y127244D01*
X218535D01*
X219980Y125799D01*
Y119094D01*
G01X135236Y116339D02*
Y122945D01*
G01X132087Y160433D02*
Y164094D01*
X135236Y167244D01*
G01X138535Y212244D02*
X144315D01*
X144472Y212402D01*
X147047D01*
G01X140642Y229350D02*
X138535Y227244D01*
Y212244D01*
G01X123425Y212402D02*
Y207354D01*
G01Y218701D02*
X129331D01*
G01X126535Y229350D02*
Y222204D01*
X123425Y219094D01*
Y218701D01*
G01X223819Y179134D02*
X216646D01*
X215535Y180244D01*
Y195244D01*
X211535Y199244D01*
X131535D01*
X129331Y201449D01*
Y212402D01*
G01X146535Y229350D02*
X140642D01*
G01X126535Y264744D02*
Y256909D01*
G01X151535Y273228D02*
Y271144D01*
X146535Y266144D01*
Y256909D01*
G01X121535Y291732D02*
X151535D01*
G01X182480Y66850D02*
X175095D01*
X173244Y68701D01*
X170669D01*
G01X164764Y75000D02*
Y83472D01*
X168535Y87244D01*
X210535D01*
X212535Y89244D01*
Y111244D01*
X213535Y112244D01*
X216421D01*
X217421Y113244D01*
Y119094D01*
G01X152953Y66850D02*
X160338D01*
X162189Y68701D01*
X164764D01*
G01X170669Y75000D02*
Y77968D01*
X170535Y78102D01*
Y82244D01*
X173535Y85244D01*
X212535D01*
X214862Y87571D01*
Y95472D01*
G01X166732Y107284D02*
Y98047D01*
X168520Y96260D01*
X183661D01*
G01X161614Y160433D02*
Y164094D01*
X164764Y167244D01*
G01X176575Y212402D02*
X169693D01*
G01X172642Y229350D02*
X169693Y226402D01*
Y212402D01*
G01X154921D02*
Y207244D01*
G01Y218701D02*
X162795D01*
G01X147047D02*
X154921D01*
G01X156535Y229350D02*
Y223284D01*
X154921Y221669D01*
Y218701D01*
G01X223819Y181102D02*
X218535D01*
X217535Y182102D01*
Y196244D01*
X212535Y201244D01*
X164535D01*
X162795Y202984D01*
Y212402D01*
G01X176535Y229350D02*
X172642D01*
G01X156535Y264744D02*
Y256909D01*
G01X151535Y291732D02*
X181535D01*
G01X188386Y115945D02*
Y110842D01*
X187402Y109858D01*
Y106496D01*
G01X200197Y110039D02*
Y104244D01*
G01X179921Y106496D02*
X177284D01*
X175535Y108244D01*
Y122244D01*
G01X182480Y115945D02*
X188386D01*
G01X182480Y122244D02*
X175535D01*
G01X188386D02*
X194535D01*
G01X191142Y160433D02*
Y164094D01*
X194291Y167244D01*
G01X206102Y212402D02*
X198693D01*
G01X201642Y229350D02*
X198693Y226402D01*
Y212402D01*
G01X182480D02*
Y207299D01*
G01Y218701D02*
X188386D01*
G01X176575D02*
X182480D01*
G01X188386D02*
Y222594D01*
X186535Y224445D01*
Y229350D01*
G01X234646Y187992D02*
X234646Y200134D01*
X231535Y203244D01*
X190535D01*
X188386Y205394D01*
Y212402D01*
G01X206535Y229350D02*
X201642D01*
G01X186535Y264744D02*
Y256909D01*
G01X181535Y273228D02*
Y272344D01*
X176535Y267344D01*
Y256909D01*
G01X181535Y291732D02*
X211535D01*
G01X223819Y75000D02*
Y83961D01*
X222535Y85244D01*
X219535D01*
X217421Y87358D01*
Y95472D01*
G01X229724Y75000D02*
Y77968D01*
X229535Y78158D01*
Y86244D01*
X227535Y88244D01*
X221535D01*
X219980Y89799D01*
Y95472D01*
G01X241535Y66850D02*
X234150D01*
X232300Y68701D01*
X229724D01*
G01X212008Y66850D02*
X219393D01*
X221244Y68701D01*
X223819D01*
G01X230216Y119094D02*
Y104563D01*
G01X206535Y104244D02*
Y109606D01*
X206102Y110039D01*
G01X225098Y119094D02*
Y111807D01*
X224535Y111244D01*
G01X211934Y119094D02*
X211434D01*
X208678Y116339D01*
G01X227657Y119094D02*
Y132244D01*
G01X230248Y130957D02*
X228945D01*
X227657Y132244D01*
G01D02*
Y133122D01*
X221535Y139244D01*
X212535D01*
X208535Y143244D01*
Y166323D01*
X209535Y167323D01*
X223819D01*
G01X225098Y119094D02*
Y132681D01*
X220535Y137244D01*
X211536D01*
X206535Y142244D01*
Y167244D01*
X208583Y169291D01*
X223819D01*
G01X222539Y119094D02*
Y132240D01*
X219535Y135244D01*
X210535D01*
X204535Y141244D01*
G01X223819Y159449D02*
X218535D01*
X216535Y157449D01*
Y148244D01*
X213535Y145244D01*
G01X223819Y159449D02*
Y154528D01*
X221850Y152559D01*
G01X223819Y161417D02*
X215709D01*
X213535Y159244D01*
Y150244D01*
G01X239535Y165244D02*
X229425D01*
X229315Y165354D01*
X223819D01*
G01X232677Y152559D02*
X232677Y143386D01*
X229035Y139744D01*
G01X212000Y164000D02*
X214575D01*
X215189Y163386D01*
X223819D01*
G01X230709Y152559D02*
X230709Y146709D01*
X228000Y144000D01*
X220000D01*
G01X204535Y141244D02*
Y168244D01*
X207552Y171260D01*
X223819D01*
G01X230709Y187992D02*
X230709Y197071D01*
G01X236614Y187992D02*
X236614Y201165D01*
X232535Y205244D01*
X219535D01*
X217913Y206866D01*
Y212402D01*
G01X227535Y212244D02*
X232897D01*
X233055Y212402D01*
X235630D01*
G01X230642Y229350D02*
X227535Y226244D01*
Y212244D01*
G01X212008Y212402D02*
Y207244D01*
G01Y218701D02*
X217913D01*
G01X206102D02*
X212008D01*
G01X216535Y229350D02*
Y223047D01*
X217913Y221669D01*
Y218701D01*
G01X236535Y229350D02*
X230642D01*
G01X216535Y264744D02*
Y256909D01*
G01X211535Y273228D02*
X208235Y269928D01*
Y269644D01*
X206535Y267944D01*
Y256909D01*
G01X211535Y291732D02*
X241535D01*
G01X232776Y95472D02*
X237307Y95472D01*
G01X251752Y90591D02*
X245882D01*
G01X256752D02*
Y97461D01*
X258535Y99244D01*
X266536D01*
X270536Y103244D01*
X287535D01*
X288780Y102000D01*
Y98622D01*
G01X238583Y152559D02*
X238583Y108197D01*
X242535Y104244D01*
X265535D01*
X268535Y107244D01*
X293535D01*
X295535Y105244D01*
Y85244D01*
X292535Y82244D01*
X289535D01*
X288780Y81488D01*
Y75000D01*
G01X236614Y152559D02*
X236614Y107165D01*
X241535Y102244D01*
X266535D01*
X269535Y105244D01*
X292535D01*
X293535Y104244D01*
Y87244D01*
X290535Y84244D01*
X283874D01*
X282874Y83244D01*
Y75000D01*
G01X256752Y112165D02*
Y107244D01*
X257752Y106244D01*
X260752D01*
X261752Y107244D01*
Y112165D01*
G01X256496Y125000D02*
X262291D01*
G01X250197Y136811D02*
Y130906D01*
G01Y142716D02*
Y136811D01*
G01X256496D02*
Y130906D01*
G01Y142716D02*
Y136811D01*
G01X266752Y112165D02*
Y119028D01*
X264535Y121244D01*
X244535D01*
X242520Y123260D01*
Y152559D01*
G01X256752Y112165D02*
Y118028D01*
G01X251752Y112165D02*
Y118028D01*
X250535Y119244D01*
X243535D01*
X240551Y122228D01*
Y152559D01*
G01X250197Y125000D02*
X245780D01*
X244488Y126291D01*
Y152559D01*
G01X250394D02*
Y166244D01*
G01X250197Y142716D02*
Y145292D01*
X250394Y145489D01*
Y152559D01*
G01X251520Y173228D02*
X250394Y172102D01*
Y166244D01*
G01X235535Y161244D02*
X241725D01*
X246457Y156512D01*
Y152559D01*
G01X246535Y163244D02*
X248356Y161423D01*
Y160423D01*
X248425Y160354D01*
Y152559D01*
G01X252362D02*
Y158071D01*
X253740Y159449D01*
X259252D01*
G01X252362Y152559D02*
X255220D01*
X256496Y151284D01*
Y142716D01*
G01X240551Y187992D02*
X240551Y199260D01*
X245535Y204244D01*
X274535D01*
X276968Y206677D01*
Y212402D01*
G01X238583Y187992D02*
X238583Y200291D01*
X247441Y209150D01*
Y212402D01*
G01X242520Y187992D02*
Y198228D01*
X246536Y202244D01*
X303535D01*
X306496Y205205D01*
Y212402D01*
G01X356496Y184055D02*
Y189284D01*
X353535Y192244D01*
X254252D01*
X252362Y190355D01*
Y187992D01*
G01X234535Y178244D02*
X232677Y180102D01*
G01X259252Y173228D02*
X251520Y173228D01*
G01X232677Y180102D02*
Y187992D01*
G01X336024Y212402D02*
Y202732D01*
X333535Y200244D01*
X247535D01*
X244488Y197197D01*
Y187992D01*
G01X248425D02*
Y195134D01*
X249535Y196244D01*
X363535D01*
X369535Y202244D01*
Y210244D01*
X371693Y212402D01*
X377362D01*
G01X259252Y171260D02*
X266551Y171260D01*
X277535Y182244D01*
X298535D01*
X300535Y180244D01*
Y178418D01*
X300591Y178363D01*
Y173819D01*
G01X377362Y199016D02*
X370307D01*
X365535Y194244D01*
X251535D01*
X250394Y193102D01*
Y187992D01*
G01X358535Y198244D02*
X248536D01*
X246457Y196165D01*
Y187992D01*
G01X255906Y212598D02*
X258496D01*
X258693Y212402D01*
X265158D01*
G01X266535Y229350D02*
Y224425D01*
X265535Y223425D01*
X256906D01*
X255906Y222425D01*
Y216535D01*
G01X241535Y212402D02*
Y207244D01*
G01Y218701D02*
X247441D01*
G01X235630D02*
X241535D01*
G01X246535Y229350D02*
Y222844D01*
X247441Y221939D01*
Y218701D01*
G01X246535Y264744D02*
Y256909D01*
G01X241535Y273228D02*
X237551Y269244D01*
X237535D01*
X236535Y268244D01*
Y256909D01*
G01X241535Y291732D02*
X271535D01*
G01X271063Y66850D02*
X274819D01*
X276669Y68701D01*
X282874D01*
G01Y98622D02*
X276968D01*
G01D02*
X273535D01*
X272535Y97622D01*
Y97244D01*
G01X288780Y92323D02*
X282874D01*
G01D02*
Y87583D01*
X281535Y86244D01*
X269326D01*
X266752Y88818D01*
G01X276968Y92323D02*
X274393D01*
X274315Y92244D01*
X271535D01*
X270535Y93244D01*
Y94244D01*
X267535Y97244D01*
X263535D01*
X261752Y95461D01*
Y90591D01*
G01X279724Y136811D02*
X273968D01*
X270535Y140244D01*
Y161244D01*
X268394Y163386D01*
X259252D01*
G01X279724Y125000D02*
X269780D01*
X266535Y128244D01*
Y153244D01*
X265035Y154744D01*
X264035D01*
G01X286024Y136811D02*
X289968D01*
X292535Y134244D01*
Y133244D01*
X293535Y132244D01*
X311535D01*
X316535Y127244D01*
Y58244D01*
X319535Y55244D01*
G01X279724Y130906D02*
X271874D01*
X268535Y134244D01*
Y160244D01*
X267362Y161417D01*
X259252D01*
G01X286024Y125000D02*
X308780D01*
X312215Y121565D01*
Y49065D01*
X314035Y47244D01*
G01X286024Y130906D02*
X288992D01*
X291654Y128244D01*
X310535D01*
X314535Y124244D01*
Y53244D01*
X316535Y51244D01*
G01X280118Y159055D02*
Y159449D01*
X283072Y162403D01*
Y163584D01*
X286811Y167323D01*
Y167716D01*
G01X286614Y149606D02*
X293307D01*
G01X279724Y142716D02*
X275063D01*
X272535Y145244D01*
Y162244D01*
X269425Y165354D01*
X259252D01*
G01X286024Y142716D02*
X292063D01*
X294535Y140244D01*
Y136244D01*
X295535Y135244D01*
X313535D01*
X319535Y129244D01*
Y62244D01*
X322535Y59244D01*
G01X280315Y149606D02*
X279921Y150000D01*
X277000D01*
X275000Y152000D01*
Y165000D01*
X272677Y167323D01*
X259252D01*
G01X286811Y159055D02*
X286000Y158244D01*
Y155000D01*
X285000Y154000D01*
X282000D01*
X280315Y152315D01*
Y149606D01*
G01X259252Y169291D02*
X278543D01*
X280118Y167716D01*
G01X280315Y177165D02*
Y171669D01*
X280118Y171472D01*
Y167716D01*
G01X259252Y175197D02*
X267488D01*
X276535Y184244D01*
X313535D01*
X315158Y182622D01*
Y176181D01*
G01X259252Y179134D02*
X265425D01*
X274535Y188244D01*
X324535D01*
X329535Y183244D01*
Y130244D01*
X330842Y128937D01*
X356496D01*
G01X286614Y177165D02*
Y171669D01*
X286811Y171472D01*
Y167716D01*
G01X286614Y177165D02*
X293307D01*
G01X293701Y167716D02*
X286811D01*
G01X259252Y181102D02*
X264393D01*
X273535Y190244D01*
X325536D01*
X331535Y184244D01*
Y162220D01*
X332535Y161220D01*
X336024D01*
G01X259252Y177165D02*
X266457D01*
X275535Y186244D01*
X323535D01*
X327535Y182244D01*
Y107244D01*
X328677Y106102D01*
X336024D01*
G01X271063Y212402D02*
Y207244D01*
G01Y218701D02*
X276968D01*
G01X265158D02*
X271063D01*
G01X276535Y229350D02*
Y222102D01*
X276968Y221669D01*
Y218701D01*
G01X290642Y229350D02*
X287535Y226244D01*
Y212402D01*
G01X276535Y264744D02*
Y256909D01*
G01X271535Y273228D02*
X271494D01*
X266535Y268269D01*
Y256909D01*
G01X271535Y291732D02*
X301535D01*
G01X300591Y66850D02*
X296835D01*
X294984Y68701D01*
X288780D01*
G01X315158Y168307D02*
Y160433D01*
G01X318158Y147047D02*
X300591D01*
G01X292000Y147000D02*
X293000Y148000D01*
G01X300591Y173819D02*
X306961D01*
X308535Y172244D01*
Y153244D01*
X309220Y152559D01*
X315158D01*
G01Y176181D02*
Y168307D01*
G01X294291D02*
X293701Y167716D01*
G01X294685Y212402D02*
X287535D01*
G01X300591Y218701D02*
X306496D01*
G01X294685D02*
X300591D01*
G01X306535Y229350D02*
Y221709D01*
X306496Y221669D01*
Y218701D01*
G01X300591Y212402D02*
Y207244D01*
G01X296535Y229350D02*
X290642D01*
G01X306535Y264744D02*
Y256909D01*
G01X301535Y273228D02*
X298635Y270328D01*
Y269544D01*
X296535Y267444D01*
Y256909D01*
G01X301535Y291732D02*
X331535D01*
G01X336024Y106102D02*
Y96654D01*
G01Y167520D02*
X340141D01*
X341913Y165748D01*
X347835D01*
G01X321457Y160433D02*
Y152559D01*
G01Y168307D02*
Y160433D01*
G01Y152559D02*
Y146323D01*
G01D02*
X318882D01*
X318158Y147047D01*
G01X336024Y161220D02*
Y151772D01*
G01X321457Y176181D02*
Y182165D01*
G01X330118Y218701D02*
X336024D01*
G01X324213D02*
X330118D01*
G01X336535Y229350D02*
Y222181D01*
X336024Y221669D01*
Y218701D01*
G01X324213Y212402D02*
X317535D01*
G01X320642Y229350D02*
X317535Y226244D01*
Y212402D01*
G01X330118D02*
Y207244D01*
G01X326535Y229350D02*
X320642D01*
G01X336535Y264744D02*
Y256909D01*
G01X331535Y273228D02*
Y272769D01*
X326535Y267769D01*
Y256909D01*
G01X331535Y291732D02*
X361535D01*
G01X365158Y81693D02*
Y86098D01*
X368232Y89173D01*
G01X371457Y106102D02*
X377362D01*
G01X382480Y125000D02*
Y118244D01*
X381480Y117244D01*
X373331D01*
X371457Y115370D01*
Y112402D01*
G01X362795Y128937D02*
Y121063D01*
G01X372244Y128740D02*
X365961D01*
X365764Y128937D01*
X362795D01*
G01X347835Y165748D02*
X354512Y165748D01*
X354709Y165551D01*
X359646D01*
G01X347835Y165748D02*
Y172945D01*
G01X359646Y165551D02*
X356496Y168701D01*
Y176181D01*
G01X377362Y161220D02*
X371457D01*
G01X382480Y180118D02*
Y173244D01*
X381480Y172244D01*
X372535D01*
X371457Y171165D01*
Y167520D01*
G01X362795Y184055D02*
Y176181D01*
G01X372244Y183858D02*
X365961D01*
X365764Y184055D01*
X362795D01*
G01X353740Y212402D02*
X347535D01*
G01X349642Y229350D02*
X347535Y227244D01*
Y212402D01*
G01X359646D02*
Y207354D01*
G01Y218701D02*
X365551D01*
G01X353740D02*
X359646D01*
G01X366535Y229350D02*
Y222653D01*
X365551Y221669D01*
Y218701D01*
G01Y212402D02*
Y202260D01*
X361536Y198244D01*
X358535D01*
G01Y201244D02*
Y198244D01*
G01X356535Y229350D02*
X349642D01*
G01X366535Y264744D02*
Y256909D01*
G01X361535Y273228D02*
Y272669D01*
X356535Y267669D01*
Y256909D01*
G01X361535Y291732D02*
X426575D01*
G01X374016Y62992D02*
Y70866D01*
G01X377362Y106102D02*
X383268D01*
G01X388386Y89764D02*
X385024Y89764D01*
X384543Y90244D01*
X384535D01*
X383268Y91512D01*
Y106102D01*
G01X388386Y102094D02*
Y110394D01*
X386378Y112402D01*
X383268D01*
G01X372244Y121260D02*
X377520D01*
G01X377362Y112402D02*
X383268D01*
G01X395079Y192716D02*
Y164701D01*
X399535Y160244D01*
X427535D01*
X428743Y161451D01*
Y171037D01*
G01X388386Y152362D02*
Y166394D01*
X387260Y167520D01*
X383268D01*
G01X393110Y158465D02*
Y152787D01*
X393535Y152362D01*
G01X383268Y161220D02*
X377362D01*
G01X388386Y144882D02*
X385024Y144882D01*
X384661Y145244D01*
X384535D01*
X383268Y146512D01*
Y161220D01*
G01X413819Y169744D02*
X403035D01*
X399535Y173244D01*
Y198244D01*
X398764Y199016D01*
X395079D01*
G01X389173Y192716D02*
X383268D01*
G01X395079D02*
X389173D01*
G01X372244Y176378D02*
X377535Y176378D01*
G01X377362Y167520D02*
X383268D01*
G01X389173Y212402D02*
X395079D01*
G01D02*
X400378D01*
X401535Y211244D01*
Y177244D01*
X404035Y174744D01*
X413819D01*
G01X383268Y218701D02*
X389173D01*
G01X413819Y179744D02*
X407035D01*
X403535Y183244D01*
Y222244D01*
X401535Y224244D01*
X391173D01*
X389173Y222244D01*
Y218701D01*
G01X377362D02*
Y225071D01*
G01X395079Y218701D02*
X399992D01*
G01X389173Y199016D02*
Y203882D01*
G01X377362Y212402D02*
X383268D01*
G01X377362Y199016D02*
X383268D01*
G01X441102Y7638D02*
X427795D01*
G01X418701Y105709D02*
X423425D01*
X424606Y104528D01*
G01D02*
X428535D01*
X429535Y103528D01*
Y97244D01*
X430520Y96260D01*
X434646D01*
G01X413819Y164744D02*
X408035D01*
G01X422638Y148622D02*
X427149D01*
X427937Y147835D01*
X430512D01*
G01X410433Y195276D02*
Y200213D01*
X412465Y202244D01*
X446000D01*
G01X413819Y169744D02*
X423035D01*
X425535Y172244D01*
Y182244D01*
X428134Y184842D01*
X448228D01*
G01X426575Y273228D02*
X439173D01*
G01X421535Y324803D02*
Y312244D01*
X427535Y306244D01*
X455835D01*
X455890Y306299D01*
X460039D01*
G01X426575Y291732D02*
X439173D01*
G01X444291Y10827D02*
X441102Y7638D01*
G01X454134Y147835D02*
X450968D01*
X446063Y142929D01*
Y139567D01*
G01X460039Y165158D02*
X454134D01*
G01D02*
X439760D01*
X439347Y164744D01*
X435394D01*
G01X465945Y141535D02*
X474827D01*
X476535Y143244D01*
Y151244D01*
X474535Y153244D01*
X448323D01*
X446063Y150984D01*
Y149803D01*
G01X446000Y202244D02*
X448228Y200016D01*
Y191142D01*
G01X435394Y174744D02*
X430035D01*
X428743Y173451D01*
Y171037D01*
G01X435394Y169744D02*
X441791D01*
X444291Y172244D01*
G01X428743Y171037D02*
X430035Y169744D01*
X435394D01*
G01X454134Y191142D02*
Y196866D01*
X453000Y198000D01*
G01X454134Y171457D02*
Y179342D01*
X454535Y179744D01*
G01X454134Y184842D02*
Y180146D01*
X454535Y179744D01*
G01X460039Y191142D02*
Y199803D01*
X457598Y202244D01*
X446000D01*
G01X438780Y259449D02*
Y269276D01*
X439173Y269669D01*
Y273228D01*
G01Y291732D02*
X454528D01*
X460039Y286220D01*
G01X471850Y119094D02*
X466795D01*
X465945Y118244D01*
G01Y165158D02*
X460039D01*
G01X465945Y191142D02*
X460039D01*
G01X465945Y171457D02*
X471323D01*
G01X460039D02*
X465945D01*
G54D39*
X388386Y97244D03*
X378150Y93504D03*
X388386Y89764D03*
Y152362D03*
X378150Y148622D03*
X388386Y144882D03*
G54D49*
G01X5570Y107284D02*
X13976D01*
G01D02*
Y115690D01*
G01Y107284D02*
X22383D01*
G01X33129Y185039D02*
X40748D01*
G01X31411Y180453D02*
X40748Y185039D01*
G01X9770Y177684D02*
X17126Y185039D01*
G01X9770Y192395D02*
X17126Y185039D01*
G01Y175197D02*
X40748Y175197D01*
G01X52559Y7638D02*
X152929D01*
G01X61220Y107284D02*
Y115690D01*
G01Y107284D02*
X69627D01*
G01X37992Y136811D02*
X44102D01*
G01X37835Y153945D02*
Y148780D01*
X37992Y148622D01*
G01X40748Y175197D02*
Y156858D01*
X37835Y153945D01*
G01X76181Y18701D02*
X86556Y29076D01*
G01X65806D02*
X76181Y18701D01*
G01X91535Y137244D02*
X85669D01*
X85236Y136811D01*
G01X115551Y18701D02*
X124856Y28006D01*
G01X106246D02*
X115551Y18701D01*
G01X129331Y110039D02*
X104658D01*
X102658Y112040D01*
Y119094D01*
G01X111475Y212402D02*
X117520D01*
G01Y205964D02*
Y212402D01*
G01X149606Y52165D02*
X141732D01*
G01X135236Y110039D02*
X143579D01*
X146335Y107284D01*
X150984D01*
G01X129331Y110039D02*
X135236D01*
G01X129331D02*
Y98114D01*
X129035Y97819D01*
Y94744D01*
G01X138386Y154389D02*
Y160433D01*
G01D02*
X144824D01*
G01X168110Y52165D02*
X168110Y30709D01*
X168307Y30512D01*
Y25000D01*
X174606Y18701D01*
G01X213976D02*
X214051Y18776D01*
Y26106D01*
X209646Y30512D01*
X178150D01*
X174606Y26968D01*
Y18701D01*
G01X194291D02*
Y9638D01*
X192291Y7638D01*
X152929D01*
G01D02*
X154921Y9630D01*
Y18701D01*
G01X178740Y57284D02*
X173228D01*
X168110Y52165D01*
G01X176830Y47047D02*
X182480D01*
G01Y47047D02*
X188131Y47047D01*
G01X182480Y40216D02*
Y47047D01*
G01X196850Y52165D02*
X192791D01*
X192755Y52129D01*
X180155D01*
X178740Y53543D01*
Y57284D01*
G01X193898Y40354D02*
X222441D01*
X226378Y44291D01*
Y52165D01*
G01X186220Y57284D02*
Y60358D01*
X187870Y62008D01*
X190945D01*
G01X194535Y91244D02*
Y114338D01*
X196536Y116339D01*
X200197D01*
G01D02*
X206102D01*
G01X224357Y9396D02*
X233661Y18701D01*
G01X224357Y28006D02*
X233661Y18701D01*
G01X215354Y52165D02*
X215354Y58587D01*
X217791Y61024D01*
X254315D01*
X256752Y63461D01*
Y90591D01*
G01X214862Y119094D02*
X211934D01*
G01X208678Y116339D02*
X209178D01*
X211934Y119094D01*
G01X208678Y116339D02*
X206102D01*
G01X253346Y18701D02*
Y26106D01*
X267484Y40244D01*
X342835D01*
X351535Y48945D01*
Y82244D01*
X347835Y85945D01*
Y92126D01*
G01X233661Y18701D02*
X242966Y28006D01*
G01X233661Y18701D02*
X242966Y9396D01*
G01X244882Y52165D02*
X257815D01*
X261752Y56102D01*
Y90591D01*
G01X256496Y142716D02*
X262063D01*
G01X359646Y92323D02*
Y86886D01*
X355535Y82776D01*
Y46244D01*
X345535Y36244D01*
X279000D01*
X273032Y30276D01*
Y18701D01*
G01X283412Y9396D02*
X292716Y18701D01*
G01X283412Y28006D02*
X292716Y18701D01*
G01X266752Y90591D02*
Y88818D01*
G01D02*
Y84461D01*
G01X292716Y18701D02*
X302021Y28006D01*
G01X292716Y18701D02*
X302021Y9396D01*
G01X312402Y18701D02*
Y27646D01*
X317000Y32244D01*
X347535D01*
X359252Y43961D01*
Y70866D01*
X363189Y74803D01*
X389095D01*
X394535Y80244D01*
Y135244D01*
X392535Y137244D01*
X349535D01*
X347835Y138945D01*
Y147244D01*
G01X293759Y147047D02*
X300591D01*
G01Y147047D02*
Y155060D01*
G01X342467Y9396D02*
X351772Y18701D01*
G01X332087D02*
Y23331D01*
X337000Y28244D01*
X349535D01*
X363535Y42244D01*
Y68866D01*
X365535Y70866D01*
X374016D01*
G01X336024Y90354D02*
X339641D01*
X341413Y92126D01*
X347835D01*
G01X336024Y112402D02*
X339641D01*
X341413Y110630D01*
X347835D01*
G01Y147244D02*
X340870D01*
X339099Y145472D01*
X336024D01*
G01X351772Y18701D02*
X361076Y28006D01*
G01X351772Y18701D02*
X361076Y9396D01*
G01X371457Y18701D02*
Y41165D01*
X377535Y47244D01*
X426150D01*
X428150Y49244D01*
Y54134D01*
G01X371457Y97835D02*
X376500D01*
X378150Y96185D01*
Y93504D01*
G01X371457Y89173D02*
X368232D01*
G01D02*
X365083Y92323D01*
X359646D01*
G01X347835Y103602D02*
Y110630D01*
G01X359646Y110433D02*
X348032D01*
X347835Y110630D01*
G01Y110630D02*
Y117658D01*
G01X347535Y121244D02*
X350610D01*
X350791Y121063D01*
G01D02*
X356496D01*
G01X371457Y144291D02*
X368232D01*
X365083Y147441D01*
X359646D01*
G01X374016Y70866D02*
X393701D01*
X398535Y75701D01*
Y136244D01*
X394535Y140244D01*
X375111D01*
X371457Y143898D01*
Y144291D01*
G01X378150Y148622D02*
Y151303D01*
X376500Y152953D01*
X371457D01*
G01X369488Y189961D02*
X372244Y192716D01*
G01X397795Y7638D02*
X407795D01*
G01X399883Y15550D02*
X407795Y7638D01*
G01X397795D02*
X405708Y15550D01*
G01X389883D02*
X397795Y7638D01*
G01X403347Y60433D02*
X400535Y63244D01*
G01X388386Y97244D02*
Y102094D01*
G01Y152362D02*
X393535D01*
G01X403535Y102244D02*
Y148244D01*
X399417Y152362D01*
X393535D01*
G01X372244Y192716D02*
X377362D01*
G01X417795Y7638D02*
X427795D01*
G01X407795D02*
X417795D01*
G01X407795D02*
X415708Y15550D01*
G01X417795Y7638D02*
X425708Y15550D01*
G01X409883D02*
X417795Y7638D01*
G01X427795D02*
X435708Y15550D01*
G01X419883D02*
X427795Y7638D01*
G01X403347Y54134D02*
Y60433D01*
G01X427953Y65945D02*
Y58193D01*
X428150Y57996D01*
Y54134D01*
G01X410433D02*
X421063D01*
G01X427756Y79724D02*
X436417D01*
X438386Y77756D01*
G01X427756Y79724D02*
Y85161D01*
X424606Y88311D01*
Y90173D01*
G01X409646Y79724D02*
Y72563D01*
X409449Y72366D01*
Y65945D01*
G01X418701Y97047D02*
X412732Y97047D01*
G01X424606Y98228D02*
Y90173D01*
G01X406386Y102094D02*
X403685D01*
X403535Y102244D01*
G01X424606Y90173D02*
X405606D01*
X403535Y92244D01*
Y102244D01*
G01X422307Y132938D02*
X419115D01*
G01X430512Y135827D02*
X427623Y132938D01*
X422307D01*
G01D02*
X430512Y141142D01*
G01X428711Y190393D02*
X438780Y195276D01*
G01X444291Y10827D02*
X450673Y17208D01*
G01X437910D02*
X444291Y10827D01*
G01D02*
X450673Y4445D01*
G01X450197Y54389D02*
Y62795D01*
G01X462008D02*
X450197D01*
G01D02*
X441535D01*
X438386Y65945D01*
G01X450197Y62795D02*
Y71202D01*
G01X438386Y77756D02*
X447047D01*
X450197Y80906D01*
G01X438386Y96260D02*
Y77756D01*
G01X440535Y113244D02*
X438386Y111094D01*
Y106496D01*
G01X450197Y104528D02*
X446776D01*
X444807Y106496D01*
X442126D01*
G01Y96260D02*
X445153Y96260D01*
X447122Y98228D01*
X450197D01*
G01X465945Y93504D02*
X454528Y93504D01*
X450197Y97835D01*
Y98228D01*
G01X434646Y106496D02*
X434646Y114354D01*
X436417Y116126D01*
Y121850D01*
G01X430512Y141142D02*
Y135827D01*
G01X450197Y121457D02*
X457323D01*
G01X442323Y139567D02*
Y135433D01*
X443898Y133858D01*
G01X430512Y135827D02*
Y128150D01*
G01X450197Y121457D02*
Y115906D01*
G01D02*
X447535Y113244D01*
X440535D01*
G01X436417Y121850D02*
X442323D01*
G01X430512D02*
X436417D01*
G01X442323Y128150D02*
X445941D01*
X446335Y128543D01*
X450197D01*
G01X436417Y128150D02*
X442323D01*
G01X450197Y128543D02*
X462236D01*
X465945Y124835D01*
Y118244D01*
G01X438583Y139567D02*
X438583Y133784D01*
X436417Y131618D01*
Y128150D01*
G01X454134Y141535D02*
Y132579D01*
X450197Y128642D01*
Y128543D01*
G01X430512Y141535D02*
Y141142D01*
G01X454134Y141535D02*
X460039D01*
G01X430512Y147835D02*
X433933D01*
X435902Y149803D01*
X438583D01*
G01X476535Y179744D02*
Y161244D01*
X473535Y158244D01*
X440535D01*
X438583Y156291D01*
Y149803D01*
G01X430373Y195276D02*
X438780D01*
G01X476535Y179744D02*
X454535D01*
G01D02*
X435394D01*
G01X462008Y54389D02*
Y62795D01*
G01D02*
X470414D01*
G01X462008D02*
Y71202D01*
G01Y80906D02*
Y89567D01*
X465945Y93504D01*
G01Y118244D02*
Y109252D01*
G01Y147835D02*
X471126D01*
G01X460039D02*
X465945D01*
G01X460039Y184842D02*
X465945D01*
G01X472441Y185039D02*
X472244Y184842D01*
G01D02*
X465945D01*
M02*
