G04 ================== begin FILE IDENTIFICATION RECORD ==================*
G04 Layout Name:  D:/Project/2018/CentralizedMonitoringSystem/hardware/allegro/CMS.brd*
G04 Film Name:    TOP*
G04 File Format:  Gerber RS274X*
G04 File Origin:  Cadence Allegro 17.2-S037*
G04 Origin Date:  Wed Aug 22 23:57:05 2018*
G04 *
G04 Layer:  BOARD GEOMETRY/OUTLINE*
G04 Layer:  ETCH/TOP*
G04 Layer:  PIN/TOP*
G04 Layer:  VIA CLASS/TOP*
G04 *
G04 Offset:    (0.000 0.000)*
G04 Mirror:    No*
G04 Mode:      Positive*
G04 Rotation:  0*
G04 FullContactRelief:  No*
G04 UndefLineWidth:     4.000*
G04 ================== end FILE IDENTIFICATION RECORD ====================*
%FSLAX25Y25*MOIN*%
%IR0*IPPOS*OFA0.00000B0.00000*MIA0B0*SFA1.00000B1.00000*%
%AMMACRO35*
4,1,44,.013779,-.015745,
.013779,.015745,
.01375,.016087,
.013661,.016418,
.013516,.01673,
.013319,.017011,
.013077,.017254,
.012795,.01745,
.012484,.017596,
.012153,.017684,
.011811,.017714,
.01181,.017714,
-.01181,.017714,
-.012152,.017685,
-.012483,.017596,
-.012795,.017451,
-.013076,.017254,
-.013319,.017012,
-.013515,.01673,
-.013661,.016419,
-.013749,.016088,
-.013779,.015746,
-.013779,.015745,
-.013779,-.015745,
-.01375,-.016087,
-.013661,-.016418,
-.013516,-.01673,
-.013319,-.017011,
-.013077,-.017254,
-.012795,-.01745,
-.012484,-.017596,
-.012153,-.017684,
-.011811,-.017714,
-.01181,-.017714,
.01181,-.017714,
.012152,-.017685,
.012483,-.017596,
.012795,-.017451,
.013076,-.017254,
.013319,-.017012,
.013515,-.01673,
.013661,-.016419,
.013749,-.016088,
.013779,-.015746,
.013779,-.015745,
0.0*
%
%ADD35MACRO35*%
%ADD25C,.11811*%
%ADD10C,.23622*%
%ADD26R,.11811X.11811*%
%AMMACRO28*
4,1,40,-.01575,.015744,
-.01575,-.015744,
-.01569,-.016428,
-.015512,-.017092,
-.015222,-.017714,
-.014828,-.018277,
-.014342,-.018763,
-.01378,-.019157,
-.013157,-.019447,
-.012493,-.019625,
-.011809,-.019685,
.011809,-.019685,
.012493,-.019625,
.013157,-.019447,
.013779,-.019157,
.014342,-.018763,
.014828,-.018277,
.015222,-.017715,
.015512,-.017092,
.01569,-.016428,
.01575,-.015744,
.01575,.015744,
.01569,.016428,
.015512,.017092,
.015222,.017715,
.014828,.018277,
.014342,.018763,
.01378,.019157,
.013157,.019447,
.012493,.019625,
.011809,.019685,
-.011809,.019685,
-.012493,.019625,
-.013157,.019447,
-.01378,.019157,
-.014342,.018763,
-.014828,.018277,
-.015222,.017715,
-.015512,.017092,
-.01569,.016428,
-.01575,.015744,
0.0*
%
%ADD28MACRO28*%
%AMMACRO15*
4,1,40,.015744,.01575,
-.015744,.01575,
-.016428,.01569,
-.017092,.015512,
-.017715,.015222,
-.018277,.014828,
-.018763,.014342,
-.019157,.01378,
-.019447,.013157,
-.019625,.012493,
-.019685,.011809,
-.019685,-.011809,
-.019625,-.012493,
-.019447,-.013157,
-.019157,-.013779,
-.018763,-.014342,
-.018277,-.014828,
-.017715,-.015222,
-.017092,-.015512,
-.016428,-.01569,
-.015744,-.01575,
.015744,-.01575,
.016428,-.01569,
.017092,-.015512,
.017714,-.015222,
.018277,-.014828,
.018763,-.014342,
.019157,-.01378,
.019447,-.013157,
.019625,-.012493,
.019685,-.011809,
.019685,.011809,
.019625,.012493,
.019447,.013157,
.019157,.01378,
.018763,.014342,
.018277,.014828,
.017715,.015222,
.017092,.015512,
.016428,.01569,
.015744,.01575,
0.0*
%
%ADD15MACRO15*%
%AMMACRO32*
4,1,40,-.011809,.019679,
-.011809,-.019679,
-.011749,-.020363,
-.011571,-.021027,
-.011281,-.021649,
-.010887,-.022212,
-.010401,-.022698,
-.009839,-.023092,
-.009216,-.023382,
-.008552,-.02356,
-.007868,-.02362,
.007868,-.02362,
.008552,-.02356,
.009216,-.023382,
.009838,-.023092,
.010401,-.022698,
.010887,-.022212,
.011281,-.02165,
.011571,-.021027,
.011749,-.020363,
.011809,-.019679,
.011809,.019679,
.011749,.020363,
.011571,.021027,
.011281,.021649,
.010887,.022212,
.010401,.022698,
.009839,.023092,
.009216,.023382,
.008552,.02356,
.007868,.02362,
-.007868,.02362,
-.008552,.02356,
-.009216,.023382,
-.009839,.023092,
-.010401,.022698,
-.010887,.022212,
-.011281,.02165,
-.011571,.021027,
-.011749,.020363,
-.011809,.019679,
0.0*
%
%ADD32MACRO32*%
%AMMACRO39*
4,1,40,.019679,.011809,
-.019679,.011809,
-.020363,.011749,
-.021027,.011571,
-.021649,.011281,
-.022212,.010887,
-.022698,.010401,
-.023092,.009839,
-.023382,.009216,
-.02356,.008552,
-.02362,.007868,
-.02362,-.007868,
-.02356,-.008552,
-.023382,-.009216,
-.023092,-.009838,
-.022698,-.010401,
-.022212,-.010887,
-.02165,-.011281,
-.021027,-.011571,
-.020363,-.011749,
-.019679,-.011809,
.019679,-.011809,
.020363,-.011749,
.021027,-.011571,
.021649,-.011281,
.022212,-.010887,
.022698,-.010401,
.023092,-.009839,
.023382,-.009216,
.02356,-.008552,
.02362,-.007868,
.02362,.007868,
.02356,.008552,
.023382,.009216,
.023092,.009839,
.022698,.010401,
.022212,.010887,
.021649,.011281,
.021027,.011571,
.020363,.011749,
.019679,.011809,
0.0*
%
%ADD39MACRO39*%
%AMMACRO33*
4,1,44,-.005905,.025588,
-.005905,-.025588,
-.005846,-.026272,
-.005668,-.026936,
-.005378,-.027559,
-.004984,-.028121,
-.004498,-.028607,
-.003935,-.029001,
-.003313,-.029292,
-.002649,-.02947,
-.001965,-.029529,
-.001964,-.029529,
.001964,-.029529,
.002648,-.02947,
.003312,-.029292,
.003935,-.029002,
.004497,-.028608,
.004983,-.028122,
.005377,-.027559,
.005668,-.026937,
.005846,-.026273,
.005905,-.025589,
.005905,-.025588,
.005905,.025588,
.005846,.026272,
.005668,.026936,
.005378,.027559,
.004984,.028121,
.004498,.028607,
.003935,.029001,
.003313,.029292,
.002649,.02947,
.001965,.029529,
.001964,.029529,
-.001964,.029529,
-.002648,.02947,
-.003312,.029292,
-.003935,.029002,
-.004497,.028608,
-.004983,.028122,
-.005377,.027559,
-.005668,.026937,
-.005846,.026273,
-.005905,.025589,
-.005905,.025588,
0.0*
%
%ADD33MACRO33*%
%AMMACRO47*
4,1,44,-.02362,.020663,
-.02362,-.020663,
-.02356,-.021347,
-.023382,-.022011,
-.023092,-.022634,
-.022698,-.023196,
-.022213,-.023682,
-.02165,-.024076,
-.021027,-.024367,
-.020364,-.024545,
-.019679,-.024604,
-.019679,-.024604,
.019679,-.024604,
.020363,-.024545,
.021027,-.024367,
.021649,-.024077,
.022212,-.023682,
.022698,-.023197,
.023092,-.022634,
.023382,-.022011,
.02356,-.021348,
.02362,-.020664,
.02362,-.020663,
.02362,.020663,
.02356,.021347,
.023382,.022011,
.023092,.022634,
.022698,.023196,
.022213,.023682,
.02165,.024076,
.021027,.024367,
.020364,.024545,
.019679,.024604,
.019679,.024604,
-.019679,.024604,
-.020363,.024545,
-.021027,.024367,
-.021649,.024077,
-.022212,.023682,
-.022698,.023197,
-.023092,.022634,
-.023382,.022011,
-.02356,.021348,
-.02362,.020664,
-.02362,.020663,
0.0*
%
%ADD47MACRO47*%
%AMMACRO40*
4,1,44,.020663,.02362,
-.020663,.02362,
-.021347,.02356,
-.022011,.023382,
-.022634,.023092,
-.023196,.022698,
-.023682,.022213,
-.024076,.02165,
-.024367,.021027,
-.024545,.020364,
-.024604,.019679,
-.024604,.019679,
-.024604,-.019679,
-.024545,-.020363,
-.024367,-.021027,
-.024077,-.021649,
-.023682,-.022212,
-.023197,-.022698,
-.022634,-.023092,
-.022011,-.023382,
-.021348,-.02356,
-.020664,-.02362,
-.020663,-.02362,
.020663,-.02362,
.021347,-.02356,
.022011,-.023382,
.022634,-.023092,
.023196,-.022698,
.023682,-.022213,
.024076,-.02165,
.024367,-.021027,
.024545,-.020364,
.024604,-.019679,
.024604,-.019679,
.024604,.019679,
.024545,.020363,
.024367,.021027,
.024077,.021649,
.023682,.022212,
.023197,.022698,
.022634,.023092,
.022011,.023382,
.021348,.02356,
.020663,.02362,
.020663,.02362,
0.0*
%
%ADD40MACRO40*%
%AMMACRO48*
4,1,40,-.074799,-.03937,
.074799,-.03937,
.075483,-.03931,
.076147,-.039132,
.07677,-.038842,
.077332,-.038448,
.077818,-.037962,
.078212,-.0374,
.078502,-.036777,
.07868,-.036113,
.07874,-.035429,
.07874,.035429,
.07868,.036113,
.078502,.036777,
.078212,.0374,
.077818,.037962,
.077332,.038448,
.07677,.038842,
.076147,.039132,
.075483,.03931,
.074799,.03937,
-.074799,.03937,
-.075483,.03931,
-.076147,.039132,
-.07677,.038842,
-.077332,.038448,
-.077818,.037962,
-.078212,.0374,
-.078502,.036777,
-.07868,.036113,
-.07874,.035429,
-.07874,-.035429,
-.07868,-.036113,
-.078502,-.036777,
-.078212,-.0374,
-.077818,-.037962,
-.077332,-.038448,
-.07677,-.038842,
-.076147,-.039132,
-.075483,-.03931,
-.074799,-.03937,
0.0*
%
%ADD48MACRO48*%
%AMMACRO30*
4,1,44,-.02559,.045273,
-.02559,-.045273,
-.025531,-.045957,
-.025353,-.046621,
-.025063,-.047244,
-.024669,-.047806,
-.024183,-.048292,
-.02362,-.048686,
-.022998,-.048977,
-.022334,-.049155,
-.02165,-.049214,
-.021649,-.049214,
.021649,-.049214,
.022333,-.049155,
.022997,-.048977,
.02362,-.048687,
.024182,-.048293,
.024668,-.047807,
.025062,-.047244,
.025353,-.046622,
.025531,-.045958,
.02559,-.045274,
.02559,-.045273,
.02559,.045273,
.025531,.045957,
.025353,.046621,
.025063,.047244,
.024669,.047806,
.024183,.048292,
.02362,.048686,
.022998,.048977,
.022334,.049155,
.02165,.049214,
.021649,.049214,
-.021649,.049214,
-.022333,.049155,
-.022997,.048977,
-.02362,.048687,
-.024182,.048293,
-.024668,.047807,
-.025062,.047244,
-.025353,.046622,
-.025531,.045958,
-.02559,.045274,
-.02559,.045273,
0.0*
%
%ADD30MACRO30*%
%AMMACRO13*
4,1,44,-.011809,.025588,
-.011809,-.025588,
-.011749,-.026272,
-.011571,-.026936,
-.011281,-.027559,
-.010887,-.028121,
-.010402,-.028607,
-.009839,-.029001,
-.009216,-.029292,
-.008553,-.02947,
-.007868,-.029529,
-.007868,-.029529,
.007868,-.029529,
.008552,-.02947,
.009216,-.029292,
.009838,-.029002,
.010401,-.028607,
.010887,-.028122,
.011281,-.027559,
.011571,-.026936,
.011749,-.026273,
.011809,-.025589,
.011809,-.025588,
.011809,.025588,
.011749,.026272,
.011571,.026936,
.011281,.027559,
.010887,.028121,
.010402,.028607,
.009839,.029001,
.009216,.029292,
.008553,.02947,
.007868,.029529,
.007868,.029529,
-.007868,.029529,
-.008552,.02947,
-.009216,.029292,
-.009839,.029002,
-.010401,.028607,
-.010887,.028122,
-.011281,.027559,
-.011571,.026936,
-.011749,.026273,
-.011809,.025589,
-.011809,.025588,
0.0*
%
%ADD13MACRO13*%
%AMMACRO42*
4,1,44,.025588,.011809,
-.025588,.011809,
-.026272,.011749,
-.026936,.011571,
-.027559,.011281,
-.028121,.010887,
-.028607,.010402,
-.029001,.009839,
-.029292,.009216,
-.02947,.008553,
-.029529,.007868,
-.029529,.007868,
-.029529,-.007868,
-.02947,-.008552,
-.029292,-.009216,
-.029002,-.009838,
-.028607,-.010401,
-.028122,-.010887,
-.027559,-.011281,
-.026936,-.011571,
-.026273,-.011749,
-.025589,-.011809,
-.025588,-.011809,
.025588,-.011809,
.026272,-.011749,
.026936,-.011571,
.027559,-.011281,
.028121,-.010887,
.028607,-.010402,
.029001,-.009839,
.029292,-.009216,
.02947,-.008553,
.029529,-.007868,
.029529,-.007868,
.029529,.007868,
.02947,.008552,
.029292,.009216,
.029002,.009839,
.028607,.010401,
.028122,.010887,
.027559,.011281,
.026936,.011571,
.026273,.011749,
.025589,.011809,
.025588,.011809,
0.0*
%
%ADD42MACRO42*%
%AMMACRO24*
4,1,44,.045273,.02559,
-.045273,.02559,
-.045957,.025531,
-.046621,.025353,
-.047244,.025063,
-.047806,.024669,
-.048292,.024183,
-.048686,.02362,
-.048977,.022998,
-.049155,.022334,
-.049214,.02165,
-.049214,.021649,
-.049214,-.021649,
-.049155,-.022333,
-.048977,-.022997,
-.048687,-.02362,
-.048293,-.024182,
-.047807,-.024668,
-.047244,-.025062,
-.046622,-.025353,
-.045958,-.025531,
-.045274,-.02559,
-.045273,-.02559,
.045273,-.02559,
.045957,-.025531,
.046621,-.025353,
.047244,-.025063,
.047806,-.024669,
.048292,-.024183,
.048686,-.02362,
.048977,-.022998,
.049155,-.022334,
.049214,-.02165,
.049214,-.021649,
.049214,.021649,
.049155,.022333,
.048977,.022997,
.048687,.02362,
.048293,.024182,
.047807,.024668,
.047244,.025062,
.046622,.025353,
.045958,.025531,
.045274,.02559,
.045273,.02559,
0.0*
%
%ADD24MACRO24*%
%AMMACRO43*
4,1,40,.027553,.02362,
-.027553,.02362,
-.028237,.02356,
-.028901,.023382,
-.029524,.023092,
-.030086,.022698,
-.030572,.022212,
-.030966,.02165,
-.031256,.021027,
-.031434,.020363,
-.031494,.019679,
-.031494,-.019679,
-.031434,-.020363,
-.031256,-.021027,
-.030966,-.021649,
-.030572,-.022212,
-.030086,-.022698,
-.029524,-.023092,
-.028901,-.023382,
-.028237,-.02356,
-.027553,-.02362,
.027553,-.02362,
.028237,-.02356,
.028901,-.023382,
.029523,-.023092,
.030086,-.022698,
.030572,-.022212,
.030966,-.02165,
.031256,-.021027,
.031434,-.020363,
.031494,-.019679,
.031494,.019679,
.031434,.020363,
.031256,.021027,
.030966,.021649,
.030572,.022212,
.030086,.022698,
.029524,.023092,
.028901,.023382,
.028237,.02356,
.027553,.02362,
0.0*
%
%ADD43MACRO43*%
%AMMACRO45*
4,1,40,-.03937,.035429,
-.03937,-.035429,
-.03931,-.036113,
-.039132,-.036777,
-.038842,-.0374,
-.038448,-.037962,
-.037962,-.038448,
-.0374,-.038842,
-.036777,-.039132,
-.036113,-.03931,
-.035429,-.03937,
.035429,-.03937,
.036113,-.03931,
.036777,-.039132,
.0374,-.038842,
.037962,-.038448,
.038448,-.037962,
.038842,-.0374,
.039132,-.036777,
.03931,-.036113,
.03937,-.035429,
.03937,.035429,
.03931,.036113,
.039132,.036777,
.038842,.0374,
.038448,.037962,
.037962,.038448,
.0374,.038842,
.036777,.039132,
.036113,.03931,
.035429,.03937,
-.035429,.03937,
-.036113,.03931,
-.036777,.039132,
-.0374,.038842,
-.037962,.038448,
-.038448,.037962,
-.038842,.0374,
-.039132,.036777,
-.03931,.036113,
-.03937,.035429,
0.0*
%
%ADD45MACRO45*%
%AMMACRO29*
4,1,44,-.007874,.025588,
-.007874,-.025588,
-.007814,-.026272,
-.007636,-.026936,
-.007346,-.027559,
-.006952,-.028121,
-.006467,-.028607,
-.005904,-.029001,
-.005281,-.029292,
-.004618,-.02947,
-.003933,-.029529,
-.003933,-.029529,
.003933,-.029529,
.004617,-.02947,
.005281,-.029292,
.005903,-.029002,
.006466,-.028607,
.006952,-.028122,
.007346,-.027559,
.007636,-.026936,
.007814,-.026273,
.007874,-.025589,
.007874,-.025588,
.007874,.025588,
.007814,.026272,
.007636,.026936,
.007346,.027559,
.006952,.028121,
.006467,.028607,
.005904,.029001,
.005281,.029292,
.004618,.02947,
.003933,.029529,
.003933,.029529,
-.003933,.029529,
-.004617,.02947,
-.005281,.029292,
-.005903,.029002,
-.006466,.028607,
-.006952,.028122,
-.007346,.027559,
-.007636,.026936,
-.007814,.026273,
-.007874,.025589,
-.007874,.025588,
0.0*
%
%ADD29MACRO29*%
%AMMACRO12*
4,1,40,.035429,.03937,
-.035429,.03937,
-.036113,.03931,
-.036777,.039132,
-.0374,.038842,
-.037962,.038448,
-.038448,.037962,
-.038842,.0374,
-.039132,.036777,
-.03931,.036113,
-.03937,.035429,
-.03937,-.035429,
-.03931,-.036113,
-.039132,-.036777,
-.038842,-.0374,
-.038448,-.037962,
-.037962,-.038448,
-.0374,-.038842,
-.036777,-.039132,
-.036113,-.03931,
-.035429,-.03937,
.035429,-.03937,
.036113,-.03931,
.036777,-.039132,
.0374,-.038842,
.037962,-.038448,
.038448,-.037962,
.038842,-.0374,
.039132,-.036777,
.03931,-.036113,
.03937,-.035429,
.03937,.035429,
.03931,.036113,
.039132,.036777,
.038842,.0374,
.038448,.037962,
.037962,.038448,
.0374,.038842,
.036777,.039132,
.036113,.03931,
.035429,.03937,
0.0*
%
%ADD12MACRO12*%
%ADD27C,.035433*%
%AMMACRO21*
4,1,40,.01575,-.015744,
.01575,.015744,
.01569,.016428,
.015512,.017092,
.015222,.017715,
.014828,.018277,
.014342,.018763,
.01378,.019157,
.013157,.019447,
.012493,.019625,
.011809,.019685,
-.011809,.019685,
-.012493,.019625,
-.013157,.019447,
-.01378,.019157,
-.014342,.018763,
-.014828,.018277,
-.015222,.017715,
-.015512,.017092,
-.01569,.016428,
-.01575,.015744,
-.01575,-.015744,
-.01569,-.016428,
-.015512,-.017092,
-.015222,-.017714,
-.014828,-.018277,
-.014342,-.018763,
-.01378,-.019157,
-.013157,-.019447,
-.012493,-.019625,
-.011809,-.019685,
.011809,-.019685,
.012493,-.019625,
.013157,-.019447,
.013779,-.019157,
.014342,-.018763,
.014828,-.018277,
.015222,-.017715,
.015512,-.017092,
.01569,-.016428,
.01575,-.015744,
0.0*
%
%ADD21MACRO21*%
%AMMACRO14*
4,1,40,-.015744,-.01575,
.015744,-.01575,
.016428,-.01569,
.017092,-.015512,
.017714,-.015222,
.018277,-.014828,
.018763,-.014342,
.019157,-.01378,
.019447,-.013157,
.019625,-.012493,
.019685,-.011809,
.019685,.011809,
.019625,.012493,
.019447,.013157,
.019157,.01378,
.018763,.014342,
.018277,.014828,
.017715,.015222,
.017092,.015512,
.016428,.01569,
.015744,.01575,
-.015744,.01575,
-.016428,.01569,
-.017092,.015512,
-.017715,.015222,
-.018277,.014828,
-.018763,.014342,
-.019157,.01378,
-.019447,.013157,
-.019625,.012493,
-.019685,.011809,
-.019685,-.011809,
-.019625,-.012493,
-.019447,-.013157,
-.019157,-.013779,
-.018763,-.014342,
-.018277,-.014828,
-.017715,-.015222,
-.017092,-.015512,
-.016428,-.01569,
-.015744,-.01575,
0.0*
%
%ADD14MACRO14*%
%ADD19C,.055118*%
%ADD11C,.031496*%
%AMMACRO46*
4,1,40,.011809,-.019679,
.011809,.019679,
.011749,.020363,
.011571,.021027,
.011281,.021649,
.010887,.022212,
.010401,.022698,
.009839,.023092,
.009216,.023382,
.008552,.02356,
.007868,.02362,
-.007868,.02362,
-.008552,.02356,
-.009216,.023382,
-.009839,.023092,
-.010401,.022698,
-.010887,.022212,
-.011281,.02165,
-.011571,.021027,
-.011749,.020363,
-.011809,.019679,
-.011809,-.019679,
-.011749,-.020363,
-.011571,-.021027,
-.011281,-.021649,
-.010887,-.022212,
-.010401,-.022698,
-.009839,-.023092,
-.009216,-.023382,
-.008552,-.02356,
-.007868,-.02362,
.007868,-.02362,
.008552,-.02356,
.009216,-.023382,
.009838,-.023092,
.010401,-.022698,
.010887,-.022212,
.011281,-.02165,
.011571,-.021027,
.011749,-.020363,
.011809,-.019679,
0.0*
%
%ADD46MACRO46*%
%AMMACRO38*
4,1,40,-.019679,-.011809,
.019679,-.011809,
.020363,-.011749,
.021027,-.011571,
.021649,-.011281,
.022212,-.010887,
.022698,-.010401,
.023092,-.009839,
.023382,-.009216,
.02356,-.008552,
.02362,-.007868,
.02362,.007868,
.02356,.008552,
.023382,.009216,
.023092,.009839,
.022698,.010401,
.022212,.010887,
.021649,.011281,
.021027,.011571,
.020363,.011749,
.019679,.011809,
-.019679,.011809,
-.020363,.011749,
-.021027,.011571,
-.021649,.011281,
-.022212,.010887,
-.022698,.010401,
-.023092,.009839,
-.023382,.009216,
-.02356,.008552,
-.02362,.007868,
-.02362,-.007868,
-.02356,-.008552,
-.023382,-.009216,
-.023092,-.009838,
-.022698,-.010401,
-.022212,-.010887,
-.02165,-.011281,
-.021027,-.011571,
-.020363,-.011749,
-.019679,-.011809,
0.0*
%
%ADD38MACRO38*%
%ADD18C,.07874*%
%AMMACRO36*
4,1,40,.02362,-.031494,
.02362,.031494,
.02356,.032178,
.023382,.032842,
.023092,.033465,
.022698,.034027,
.022212,.034513,
.021649,.034907,
.021027,.035197,
.020363,.035375,
.019679,.035435,
-.019679,.035435,
-.020363,.035375,
-.021027,.035197,
-.021649,.034907,
-.022212,.034513,
-.022698,.034027,
-.023092,.033465,
-.023382,.032842,
-.02356,.032178,
-.02362,.031494,
-.02362,-.031494,
-.02356,-.032178,
-.023382,-.032842,
-.023092,-.033465,
-.022698,-.034027,
-.022212,-.034513,
-.02165,-.034907,
-.021027,-.035197,
-.020363,-.035375,
-.019679,-.035435,
.019679,-.035435,
.020363,-.035375,
.021027,-.035197,
.021649,-.034907,
.022212,-.034513,
.022698,-.034027,
.023092,-.033465,
.023382,-.032842,
.02356,-.032178,
.02362,-.031494,
0.0*
%
%ADD36MACRO36*%
%ADD20R,.055118X.055118*%
%AMMACRO34*
4,1,44,-.025588,-.005905,
.025588,-.005905,
.026272,-.005846,
.026936,-.005668,
.027559,-.005378,
.028121,-.004984,
.028607,-.004498,
.029001,-.003935,
.029292,-.003313,
.02947,-.002649,
.029529,-.001965,
.029529,-.001964,
.029529,.001964,
.02947,.002648,
.029292,.003312,
.029002,.003935,
.028608,.004497,
.028122,.004983,
.027559,.005377,
.026937,.005668,
.026273,.005846,
.025589,.005905,
.025588,.005905,
-.025588,.005905,
-.026272,.005846,
-.026936,.005668,
-.027559,.005378,
-.028121,.004984,
-.028607,.004498,
-.029001,.003935,
-.029292,.003313,
-.02947,.002649,
-.029529,.001965,
-.029529,.001964,
-.029529,-.001964,
-.02947,-.002648,
-.029292,-.003312,
-.029002,-.003935,
-.028608,-.004497,
-.028122,-.004983,
-.027559,-.005377,
-.026937,-.005668,
-.026273,-.005846,
-.025589,-.005905,
-.025588,-.005905,
0.0*
%
%ADD34MACRO34*%
%ADD16C,.062988*%
%AMMACRO31*
4,1,44,.02559,-.045273,
.02559,.045273,
.025531,.045957,
.025353,.046621,
.025063,.047244,
.024669,.047806,
.024183,.048292,
.02362,.048686,
.022998,.048977,
.022334,.049155,
.02165,.049214,
.021649,.049214,
-.021649,.049214,
-.022333,.049155,
-.022997,.048977,
-.02362,.048687,
-.024182,.048293,
-.024668,.047807,
-.025062,.047244,
-.025353,.046622,
-.025531,.045958,
-.02559,.045274,
-.02559,.045273,
-.02559,-.045273,
-.025531,-.045957,
-.025353,-.046621,
-.025063,-.047244,
-.024669,-.047806,
-.024183,-.048292,
-.02362,-.048686,
-.022998,-.048977,
-.022334,-.049155,
-.02165,-.049214,
-.021649,-.049214,
.021649,-.049214,
.022333,-.049155,
.022997,-.048977,
.02362,-.048687,
.024182,-.048293,
.024668,-.047807,
.025062,-.047244,
.025353,-.046622,
.025531,-.045958,
.02559,-.045274,
.02559,-.045273,
0.0*
%
%ADD31MACRO31*%
%AMMACRO23*
4,1,44,-.045273,-.02559,
.045273,-.02559,
.045957,-.025531,
.046621,-.025353,
.047244,-.025063,
.047806,-.024669,
.048292,-.024183,
.048686,-.02362,
.048977,-.022998,
.049155,-.022334,
.049214,-.02165,
.049214,-.021649,
.049214,.021649,
.049155,.022333,
.048977,.022997,
.048687,.02362,
.048293,.024182,
.047807,.024668,
.047244,.025062,
.046622,.025353,
.045958,.025531,
.045274,.02559,
.045273,.02559,
-.045273,.02559,
-.045957,.025531,
-.046621,.025353,
-.047244,.025063,
-.047806,.024669,
-.048292,.024183,
-.048686,.02362,
-.048977,.022998,
-.049155,.022334,
-.049214,.02165,
-.049214,.021649,
-.049214,-.021649,
-.049155,-.022333,
-.048977,-.022997,
-.048687,-.02362,
-.048293,-.024182,
-.047807,-.024668,
-.047244,-.025062,
-.046622,-.025353,
-.045958,-.025531,
-.045274,-.02559,
-.045273,-.02559,
0.0*
%
%ADD23MACRO23*%
%AMMACRO22*
4,1,44,.011809,-.025588,
.011809,.025588,
.011749,.026272,
.011571,.026936,
.011281,.027559,
.010887,.028121,
.010402,.028607,
.009839,.029001,
.009216,.029292,
.008553,.02947,
.007868,.029529,
.007868,.029529,
-.007868,.029529,
-.008552,.02947,
-.009216,.029292,
-.009839,.029002,
-.010401,.028607,
-.010887,.028122,
-.011281,.027559,
-.011571,.026936,
-.011749,.026273,
-.011809,.025589,
-.011809,.025588,
-.011809,-.025588,
-.011749,-.026272,
-.011571,-.026936,
-.011281,-.027559,
-.010887,-.028121,
-.010402,-.028607,
-.009839,-.029001,
-.009216,-.029292,
-.008553,-.02947,
-.007868,-.029529,
-.007868,-.029529,
.007868,-.029529,
.008552,-.02947,
.009216,-.029292,
.009838,-.029002,
.010401,-.028607,
.010887,-.028122,
.011281,-.027559,
.011571,-.026936,
.011749,-.026273,
.011809,-.025589,
.011809,-.025588,
0.0*
%
%ADD22MACRO22*%
%AMMACRO44*
4,1,40,-.027553,-.02362,
.027553,-.02362,
.028237,-.02356,
.028901,-.023382,
.029523,-.023092,
.030086,-.022698,
.030572,-.022212,
.030966,-.02165,
.031256,-.021027,
.031434,-.020363,
.031494,-.019679,
.031494,.019679,
.031434,.020363,
.031256,.021027,
.030966,.021649,
.030572,.022212,
.030086,.022698,
.029524,.023092,
.028901,.023382,
.028237,.02356,
.027553,.02362,
-.027553,.02362,
-.028237,.02356,
-.028901,.023382,
-.029524,.023092,
-.030086,.022698,
-.030572,.022212,
-.030966,.02165,
-.031256,.021027,
-.031434,.020363,
-.031494,.019679,
-.031494,-.019679,
-.031434,-.020363,
-.031256,-.021027,
-.030966,-.021649,
-.030572,-.022212,
-.030086,-.022698,
-.029524,-.023092,
-.028901,-.023382,
-.028237,-.02356,
-.027553,-.02362,
0.0*
%
%ADD44MACRO44*%
%AMMACRO41*
4,1,40,-.035429,-.03937,
.035429,-.03937,
.036113,-.03931,
.036777,-.039132,
.0374,-.038842,
.037962,-.038448,
.038448,-.037962,
.038842,-.0374,
.039132,-.036777,
.03931,-.036113,
.03937,-.035429,
.03937,.035429,
.03931,.036113,
.039132,.036777,
.038842,.0374,
.038448,.037962,
.037962,.038448,
.0374,.038842,
.036777,.039132,
.036113,.03931,
.035429,.03937,
-.035429,.03937,
-.036113,.03931,
-.036777,.039132,
-.0374,.038842,
-.037962,.038448,
-.038448,.037962,
-.038842,.0374,
-.039132,.036777,
-.03931,.036113,
-.03937,.035429,
-.03937,-.035429,
-.03931,-.036113,
-.039132,-.036777,
-.038842,-.0374,
-.038448,-.037962,
-.037962,-.038448,
-.0374,-.038842,
-.036777,-.039132,
-.036113,-.03931,
-.035429,-.03937,
0.0*
%
%ADD41MACRO41*%
%AMMACRO37*
4,1,40,.03937,-.035429,
.03937,.035429,
.03931,.036113,
.039132,.036777,
.038842,.0374,
.038448,.037962,
.037962,.038448,
.0374,.038842,
.036777,.039132,
.036113,.03931,
.035429,.03937,
-.035429,.03937,
-.036113,.03931,
-.036777,.039132,
-.0374,.038842,
-.037962,.038448,
-.038448,.037962,
-.038842,.0374,
-.039132,.036777,
-.03931,.036113,
-.03937,.035429,
-.03937,-.035429,
-.03931,-.036113,
-.039132,-.036777,
-.038842,-.0374,
-.038448,-.037962,
-.037962,-.038448,
-.0374,-.038842,
-.036777,-.039132,
-.036113,-.03931,
-.035429,-.03937,
.035429,-.03937,
.036113,-.03931,
.036777,-.039132,
.0374,-.038842,
.037962,-.038448,
.038448,-.037962,
.038842,-.0374,
.039132,-.036777,
.03931,-.036113,
.03937,-.035429,
0.0*
%
%ADD37MACRO37*%
%ADD17R,.062988X.062988*%
%ADD49C,.01*%
%ADD50C,.02*%
%ADD51C,.004*%
%ADD52C,.085438*%
G75*
%LPD*%
G75*
G36*
G01X13977Y169047D02*
X20310D01*
G03X22244Y169783I-35J3000D01*
G01X24445Y171697D01*
X33429D01*
X35472Y169921D01*
X37248Y167878D01*
Y158308D01*
X36835Y157895D01*
G03X33789Y154431I1000J-3951D01*
G01X33580Y152697D01*
X30119D01*
G03X29580Y152647I0J-2894D01*
G02X25427Y154564I-733J3868D01*
G03X22913Y156024I-2514J-1434D01*
G01X21339D01*
G03X19554Y155408I0J-2894D01*
G02X14698I-2428J3099D01*
G03X12913Y156024I-1785J-2278D01*
G01X11339D01*
G03X8445Y153130I0J-2894D01*
G01Y148012D01*
G03X8850Y146535I2894J0D01*
G01X9126Y146070D01*
Y143411D01*
X13293Y139244D01*
X9126Y135077D01*
Y127512D01*
X8850Y127048D01*
G03X8445Y125571I2489J-1477D01*
G01Y120453D01*
G03X9112Y118605I2894J0D01*
G02X8590Y113057I-3030J-2513D01*
G03X7539Y110826I1844J-2231D01*
G01Y103741D01*
G03X10434Y100846I2894J0D01*
G01X17519D01*
G03X20414Y103741I0J2894D01*
G01Y110826D01*
G03X17519Y113721I-2894J0D01*
G01X11920D01*
Y117295D01*
X13494Y117618D01*
G03X14698Y118175I-581J2835D01*
G02X19554I2428J-3099D01*
G03X21339Y117559I1785J2278D01*
G01X22913D01*
G03X25807Y120453I0J2894D01*
G01Y126971D01*
X28014D01*
X28246Y126914D01*
G03X28937Y126830I691J2811D01*
G01X32086D01*
G03X32150Y126831I0J2894D01*
G02X36173Y122895I86J-3936D01*
G01Y115613D01*
X34281Y113721D01*
X28544D01*
G03X25649Y110826I0J-2894D01*
G01Y103741D01*
G03X27695Y100974I2894J0D01*
G01X29086Y100547D01*
Y50450D01*
X34293Y45244D01*
X42323D01*
G02X46029Y39979I0J-3937D01*
G03X59089I6530J-2341D01*
G02X62796Y45244I3706J1328D01*
G01X90293D01*
X92866Y42671D01*
Y27172D01*
X91797Y26623D01*
G03X88241Y23302I4069J-7922D01*
G01X87667Y22350D01*
X84587D01*
Y24606D01*
G03X82087Y27106I-2500J0D01*
G01X70276D01*
G03X67775Y24606I0J-2500D01*
G01Y11138D01*
X58869D01*
X57528Y12478D01*
X57521Y12486D01*
G03X45684Y6708I-4961J-4849D01*
G02X41783Y2244I-3902J-527D01*
G01X30919D01*
G02X27320Y7777I0J3937D01*
G03X7584Y27233I-13540J6003D01*
G02X2000Y30809I-1647J3576D01*
G01Y233244D01*
X51752D01*
Y226792D01*
G03X52904Y224480I2894J0D01*
G02X54424Y220725I-2369J-3144D01*
G03X54389Y220275I2859J-449D01*
G01Y217126D01*
G03X54856Y215551I2894J0D01*
G03X54389Y213976I2428J-1575D01*
G01Y210827D01*
G03X54469Y210152I2894J0D01*
G01X54524Y209926D01*
Y207725D01*
X46444D01*
X45152Y209017D01*
X45144Y209025D01*
G03X36349Y209022I-4396J-4300D01*
G01X36341Y209013D01*
X35052Y207725D01*
X22822D01*
X21530Y209017D01*
X21522Y209025D01*
G03X12235Y200996I-4396J-4300D01*
G02Y198610I-1566J-1193D01*
G03X12482Y190851I4891J-3728D01*
G02X12579Y188392I-1487J-1290D01*
G03X12056Y182546I4547J-3353D01*
G02X11750Y180358I-1766J-869D01*
G03X10976Y178346I2226J-2011D01*
G01Y172047D01*
G03X13977Y169047I3000J0D01*
G37*
G36*
G01X21772Y146708D02*
X20672Y145608D01*
X21763Y144371D01*
X23012Y145432D01*
X22593Y146533D01*
G03X21772Y146708I-467J-178D01*
G37*
G36*
G01X20683Y189743D02*
X22822Y191882D01*
X26655D01*
X31304Y187232D01*
X31321D01*
G02X35193Y184011I0J-3937D01*
G03X35666Y182571I5555J1028D01*
G01X36325Y181215D01*
X33429Y178697D01*
X24445D01*
X21549Y181215D01*
X22208Y182571D01*
G03X21682Y188381I-5082J2468D01*
G01X20683Y189743D01*
G37*
G36*
G01X23250Y175760D02*
X20276Y178346D01*
X16876Y175197D01*
X20276Y172047D01*
X23250Y174634D01*
G03Y175760I-826J563D01*
G37*
G36*
G01X21226Y195235D02*
X19353Y197108D01*
X17001Y194882D01*
X19353Y192656D01*
X21226Y194528D01*
G03Y195235I-354J354D01*
G37*
G36*
G01Y205078D02*
X19353Y206951D01*
X17001Y204724D01*
X19353Y202498D01*
X21226Y204371D01*
G03Y205078I-354J354D01*
G37*
G36*
G01X57420Y8345D02*
X55342Y10421D01*
X52309Y7638D01*
X55342Y4854D01*
X57420Y6931D01*
G03Y8345I-707J707D01*
G37*
G36*
G01X36778Y51244D02*
X35087Y52936D01*
Y100547D01*
X36478Y100974D01*
G03X38524Y103741I-849J2767D01*
G01Y109478D01*
X42173Y113127D01*
Y127073D01*
X42768Y127652D01*
G03X43642Y129725I-2020J2073D01*
G01Y132484D01*
X45119Y132865D01*
G03X47165Y139500I-1017J3946D01*
G01X45948Y140886D01*
X47536Y142474D01*
Y154001D01*
X48778Y155244D01*
X55691D01*
Y153246D01*
X55690Y153216D01*
G03X55689Y153130I2893J-87D01*
G01Y148012D01*
G03X56094Y146535I2894J0D01*
G01X56370Y146070D01*
Y142474D01*
X59946Y138898D01*
X56370Y135321D01*
Y127512D01*
X56094Y127048D01*
G03X55689Y125571I2489J-1477D01*
G01Y120453D01*
G03X56356Y118605I2894J0D01*
G02X55834Y113057I-3030J-2513D01*
G03X54783Y110826I1844J-2231D01*
G01Y103741D01*
G03X55205Y102236I2894J0D01*
G01X55492Y101765D01*
Y99244D01*
X53293D01*
X47535Y93487D01*
Y51244D01*
X36778D01*
G37*
G36*
G01X66949Y99244D02*
Y101765D01*
X67236Y102236D01*
G03X67658Y103741I-2472J1505D01*
G01Y110826D01*
G03X64763Y113721I-2894J0D01*
G01X59165D01*
Y117295D01*
X60738Y117618D01*
G03X61942Y118175I-581J2835D01*
G02X66798I2428J-3099D01*
G03X68583Y117559I1785J2278D01*
G01X70157D01*
G03X73051Y120453I0J2894D01*
G01Y126971D01*
X75258D01*
X75490Y126914D01*
G03X76182Y126830I691J2811D01*
G01X79330D01*
G03X79394Y126831I0J2894D01*
G02X83417Y122895I86J-3936D01*
G01Y115613D01*
X81525Y113721D01*
X75788D01*
G03X72894Y110826I0J-2894D01*
G01Y103741D01*
G03X72903Y103504I2894J0D01*
G02X68979Y99244I-3924J-322D01*
G01X66949D01*
G37*
G36*
G01X64370Y193570D02*
G03X62795Y194036I-1575J-2428D01*
G01X59646D01*
G03X58966Y193955I0J-2894D01*
G01X58739Y193900D01*
X56536D01*
Y203487D01*
X54036Y205987D01*
X56084Y208035D01*
X57008Y207946D01*
G03X57284Y207933I276J2881D01*
G01X60045D01*
X60413Y206435D01*
G03X63845Y203368I3957J974D01*
G02X67275Y199464I-507J-3904D01*
G01Y194237D01*
X65565Y194011D01*
G03X64370Y193570I380J-2869D01*
G37*
G36*
G01X41311Y169072D02*
X43898Y172047D01*
X40748Y175447D01*
X37598Y172047D01*
X40185Y169072D01*
G03X41311I563J826D01*
G37*
G36*
G01X34624Y174634D02*
X37598Y172047D01*
X40998Y175197D01*
X37598Y178346D01*
X34624Y175760D01*
G03Y174634I826J-563D01*
G37*
G36*
G01X44848Y195235D02*
X42975Y197108D01*
X40623Y194882D01*
X42975Y192656D01*
X44848Y194528D01*
G03Y195235I-354J354D01*
G37*
G36*
G01Y205078D02*
X42975Y206951D01*
X40623Y204724D01*
X42975Y202498D01*
X44848Y204371D01*
G03Y205078I-354J354D01*
G37*
G36*
G01X36648Y204371D02*
X38521Y202498D01*
X40873Y204724D01*
X38521Y206951D01*
X36648Y205078D01*
G03Y204371I354J-354D01*
G37*
G36*
G01X67914Y62204D02*
X66318Y63798D01*
X64245Y61850D01*
X66318Y59902D01*
X67914Y61497D01*
G03Y62204I-354J353D01*
G37*
G36*
G01Y82204D02*
X66318Y83798D01*
X64245Y81850D01*
X66318Y79902D01*
X67914Y81497D01*
G03Y82204I-354J353D01*
G37*
G36*
G01X78503Y162218D02*
X79402Y163118D01*
X78150Y164495D01*
X76897Y163118D01*
X77796Y162218D01*
G03X78503I353J354D01*
G37*
G36*
G01X69016Y146283D02*
X68257Y145522D01*
X69370Y144284D01*
X70484Y145522D01*
X69724Y146283D01*
G03X69016I-354J-354D01*
G37*
G36*
G01X85590Y152071D02*
X86350Y152832D01*
X85236Y154070D01*
X84123Y152832D01*
X84883Y152071D01*
G03X85590I354J354D01*
G37*
G36*
G01X73778Y198244D02*
X73276Y198747D01*
Y208472D01*
X73711Y209012D01*
G03X74351Y210827I-2255J1815D01*
G01Y213976D01*
G03X73885Y215551I-2894J0D01*
G03X74351Y217126I-2428J1575D01*
G01Y220275D01*
G03X71457Y223170I-2894J0D01*
G01X68824D01*
Y225483D01*
X68942Y225807D01*
G03X69114Y226792I-2722J984D01*
G01Y233244D01*
X83248D01*
Y226792D01*
G03X84213Y224634I2894J0D01*
G02X84484Y221996I-1312J-1468D01*
G03X83917Y220275I2327J-1721D01*
G01Y217126D01*
G03X84383Y215551I2894J0D01*
G03X83917Y213976I2428J-1575D01*
G01Y210827D01*
G03X86811Y207933I2894J0D01*
G01X89579D01*
X89915Y206381D01*
G03X94529Y203218I3983J863D01*
G01X94681Y203242D01*
X96803D01*
Y198244D01*
X73778D01*
G37*
G36*
G01X64016Y209283D02*
X63257Y208522D01*
X64370Y207284D01*
X65484Y208522D01*
X64724Y209283D01*
G03X64016I-354J-354D01*
G37*
G36*
G01X65789Y262870D02*
X66549Y263631D01*
X65435Y264869D01*
X64322Y263631D01*
X65082Y262870D01*
G03X65789I354J354D01*
G37*
G36*
G01X102913Y24146D02*
G03X99935Y26623I-7047J-5445D01*
G01X98866Y27172D01*
Y45156D01*
X98139Y45884D01*
G02X99531Y49244I1392J1392D01*
G01X128293D01*
X132236Y45301D01*
Y27172D01*
X131167Y26623D01*
G03X128189Y24146I4069J-7922D01*
G02X122036Y24049I-3115J2407D01*
G03X109066I-6485J-5348D01*
G02X102913Y24146I-3037J2505D01*
G37*
G36*
G01X97441Y62204D02*
X95846Y63798D01*
X93772Y61850D01*
X95846Y59902D01*
X97441Y61497D01*
G03Y62204I-354J353D01*
G37*
G36*
G01Y82204D02*
X95846Y83798D01*
X93772Y81850D01*
X95846Y79902D01*
X97441Y81497D01*
G03Y82204I-354J353D01*
G37*
G36*
G01X125830Y99968D02*
X123211D01*
X122689Y100356D01*
G03X120964Y100926I-1725J-2324D01*
G01X120178D01*
G03X119291Y100787I0J-2894D01*
G03X118405Y100926I-886J-2755D01*
G01X117618D01*
G03X116732Y100787I0J-2894D01*
G03X115846Y100926I-886J-2755D01*
G01X115060D01*
G03X114173Y100787I0J-2894D01*
G03X113287Y100926I-886J-2755D01*
G01X112500D01*
G03X111614Y100787I0J-2894D01*
G03X110728Y100926I-886J-2755D01*
G01X109941D01*
G03X109055Y100787I0J-2894D01*
G03X108169Y100926I-886J-2755D01*
G01X107382D01*
G03X106496Y100787I0J-2894D01*
G03X105610Y100926I-886J-2755D01*
G01X104823D01*
G03X104633Y100919I-1J-2894D01*
G02X102536Y102884I-129J1964D01*
G01Y106539D01*
X125830D01*
Y99968D01*
G37*
G36*
G01X208535Y176228D02*
X205277D01*
X201832Y172783D01*
X199676Y174939D01*
X199910Y175994D01*
G03X189395Y174218I-5619J1250D01*
G02X189232Y171922I-1675J-1035D01*
G03X188535Y170000I2304J-1922D01*
G01Y165731D01*
X188142Y165337D01*
Y164266D01*
X187547Y163687D01*
G03X186673Y161614I2020J-2073D01*
G01Y159244D01*
X172382D01*
Y161614D01*
G03X171274Y163892I-2894J0D01*
G01X170520Y164483D01*
Y170000D01*
G03X169823Y171922I-3000J0D01*
G02X169660Y174218I1511J1261D01*
G03X159867I-4897J3026D01*
G02X159704Y171922I-1675J-1035D01*
G03X159008Y170000I2304J-1922D01*
G01Y165731D01*
X158614Y165337D01*
Y164266D01*
X158020Y163687D01*
G03X157146Y161614I2020J-2073D01*
G01Y159252D01*
G03X160040Y156358I2894J0D01*
G01X163189D01*
G03X163750Y156413I0J2894D01*
G01X164781Y156617D01*
X165793Y155605D01*
G02X164401Y152244I-1392J-1392D01*
G01X104778D01*
X100536Y156487D01*
Y188487D01*
X100139Y188884D01*
G02X101531Y192244I1392J1392D01*
G01X208293D01*
X208535Y192001D01*
Y176228D01*
G37*
G36*
G01X102803Y200244D02*
Y208472D01*
X103239Y209012D01*
G03X103878Y210827I-2255J1815D01*
G01Y213976D01*
G03X103412Y215551I-2894J0D01*
G03X103878Y217126I-2428J1575D01*
G01Y220275D01*
G03X102480Y222753I-2894J0D01*
G02X100596Y226508I2035J3371D01*
G03X100610Y226792I-2880J283D01*
G01Y233244D01*
X112854D01*
Y226792D01*
G03X113792Y224659I2894J0D01*
G02X114031Y222021I-1331J-1450D01*
G03X113444Y220275I2308J-1746D01*
G01Y217126D01*
G03X113911Y215551I2894J0D01*
G03X113444Y213976I2428J-1575D01*
G01Y210827D01*
G03X116339Y207933I2894J0D01*
G01X119101D01*
X119459Y206417D01*
G03X119683Y205741I3966J938D01*
G02X116068Y200244I-3615J-1559D01*
G01X102803D01*
G37*
G36*
G01X93544Y209118D02*
X92784Y208357D01*
X93898Y207119D01*
X95011Y208357D01*
X94251Y209118D01*
G03X93544I-354J-354D01*
G37*
G36*
G01X97289Y262570D02*
X98049Y263331D01*
X96935Y264569D01*
X95822Y263331D01*
X96582Y262570D01*
G03X97289I354J354D01*
G37*
G36*
G01X126969Y62204D02*
X125374Y63798D01*
X123300Y61850D01*
X125374Y59902D01*
X126969Y61497D01*
G03Y62204I-354J353D01*
G37*
G36*
G01Y82204D02*
X125374Y83798D01*
X123300Y81850D01*
X125374Y79902D01*
X126969Y81497D01*
G03Y82204I-354J353D01*
G37*
G36*
G01X145446Y106826D02*
X147835Y104369D01*
X151234Y107284D01*
X147835Y110198D01*
X145446Y107741D01*
G03Y106826I889J-458D01*
G37*
G36*
G01X135590Y121071D02*
X136350Y121832D01*
X135236Y123070D01*
X134123Y121832D01*
X134883Y121071D01*
G03X135590I354J354D01*
G37*
G36*
G01X171535Y111124D02*
G03X160952Y109384I-4803J-3840D01*
G01X160482Y108088D01*
X157134D01*
Y110433D01*
G03X154134Y113433I-3000J0D01*
G01X147835D01*
G03X146860Y113270I0J-3000D01*
G01X145697Y112871D01*
X145028Y113540D01*
X139311D01*
Y117913D01*
G03X139128Y118927I-2894J0D01*
G02X142815Y124244I3687J1380D01*
G01X178405D01*
Y120670D01*
G03X178871Y119094I2894J0D01*
G03X178405Y117519I2428J-1575D01*
G01Y114370D01*
G03X178583Y113372I2894J0D01*
G02X177706Y110981I-1848J-679D01*
G03X177218Y110633I1428J-2517D01*
G02X171535Y111124I-2607J2950D01*
G37*
G36*
G01X132778Y202244D02*
X132331Y202691D01*
Y208472D01*
X132766Y209012D01*
G03X133406Y210827I-2255J1815D01*
G01Y213976D01*
G03X132940Y215551I-2894J0D01*
G03X133406Y217126I-2428J1575D01*
G01Y220275D01*
G03X132039Y222734I-2894J0D01*
G02X130201Y226489I2077J3344D01*
G03X130216Y226792I-2879J302D01*
G01Y233244D01*
X142854D01*
Y226792D01*
G03X143636Y224814I2894J0D01*
G02X143683Y222176I-1437J-1345D01*
G03X142972Y220275I2183J-1901D01*
G01Y217126D01*
G03X143438Y215551I2894J0D01*
G03X142972Y213976I2428J-1575D01*
G01Y210827D01*
G03X145866Y207933I2894J0D01*
G01X148228D01*
G03X148689Y207970I0J2894D01*
G02X150930Y206423I313J-1943D01*
G03X151396Y205200I3991J821D01*
G01X151662Y204742D01*
Y202244D01*
X132778D01*
G37*
G36*
G01X123072Y209228D02*
X122312Y208467D01*
X123425Y207229D01*
X124539Y208467D01*
X123779Y209228D01*
G03X123072I-354J-354D01*
G37*
G36*
G01X126889Y262870D02*
X127649Y263631D01*
X126535Y264869D01*
X125422Y263631D01*
X126182Y262870D01*
G03X126889I354J354D01*
G37*
G36*
G01X158351Y67167D02*
X155709Y69606D01*
X152828Y66850D01*
X155709Y64095D01*
X158351Y66534D01*
G03Y67167I-387J316D01*
G37*
G36*
G01X167086Y103183D02*
X168959Y105057D01*
X166732Y107409D01*
X164506Y105057D01*
X166379Y103183D01*
G03X167086I354J354D01*
G37*
G36*
G01X170765Y102620D02*
X171024Y102880D01*
X171032Y102887D01*
G03X171089Y102943I-4301J4396D01*
G02X176907Y102680I2789J-2779D01*
G03X177008Y102564I2227J1849D01*
G01X177531Y101999D01*
Y99260D01*
X172157D01*
G02X170765Y102620I0J1969D01*
G37*
G36*
G01X165796Y204244D02*
Y208472D01*
X166231Y209012D01*
G03X166870Y210827I-2255J1815D01*
G01Y213976D01*
G03X166404Y215551I-2894J0D01*
G03X166870Y217126I-2428J1575D01*
G01Y220275D01*
G03X163976Y223170I-2894J0D01*
G01X159927D01*
Y225483D01*
X160044Y225807D01*
G03X160216Y226792I-2722J984D01*
G01Y233244D01*
X172854D01*
Y226792D01*
G03X173500Y224969I2894J0D01*
G02X173357Y222331I-1529J-1240D01*
G03X172500Y220275I2037J-2056D01*
G01Y217126D01*
G03X172966Y215551I2894J0D01*
G03X172500Y213976I2428J-1575D01*
G01Y210827D01*
G03X172726Y209706I2894J0D01*
G02X169096Y204244I-3630J-1525D01*
G01X165796D01*
G37*
G36*
G01X154568Y209118D02*
X153808Y208357D01*
X154921Y207119D01*
X156035Y208357D01*
X155275Y209118D01*
G03X154568I-354J-354D01*
G37*
G36*
G01X156889Y262870D02*
X157649Y263631D01*
X156535Y264869D01*
X155422Y263631D01*
X156182Y262870D01*
G03X156889I354J354D01*
G37*
G36*
G01X195208Y5604D02*
X197792Y8188D01*
Y10434D01*
X198770Y11003D01*
G03X201117Y12980I-4479J7698D01*
G02X207151I3017J-2529D01*
G03X220802I6825J5721D01*
G02X226836I3017J-2529D01*
G03X240487I6825J5721D01*
G02X246521I3017J-2529D01*
G03X260172I6825J5721D01*
G02X266206I3017J-2529D01*
G03X279857I6825J5721D01*
G02X285891I3017J-2529D01*
G03X299764Y13256I6825J5721D01*
G02X305916Y13353I3115J-2407D01*
G03X318887I6485J5348D01*
G02X325040Y13256I3037J-2505D01*
G03X327608Y11003I7047J5445D01*
G01X328586Y10434D01*
Y8243D01*
X331225Y5604D01*
G02X329833Y2244I-1392J-1392D01*
G01X196600D01*
G02X195208Y5604I0J1968D01*
G37*
G36*
G01X182127Y38173D02*
X181367Y37412D01*
X182480Y36174D01*
X183594Y37412D01*
X182834Y38173D01*
G03X182127I-354J-354D01*
G37*
G36*
G01X193035Y37244D02*
X190535D01*
X192492Y35287D01*
X193742Y36537D01*
X193035Y37244D01*
G37*
G36*
G01X177082Y66534D02*
X179724Y64095D01*
X182606Y66850D01*
X179724Y69606D01*
X177082Y67167D01*
G03Y66534I387J-316D01*
G37*
G36*
G01X199843Y106118D02*
X199084Y105357D01*
X200197Y104119D01*
X201310Y105357D01*
X200550Y106118D01*
G03X199843I-354J-354D01*
G37*
G36*
G01X198826Y90244D02*
X198558Y91897D01*
G03X198223Y92979I-4022J-653D01*
G01X198036Y93377D01*
Y105571D01*
X202296D01*
X202484Y103811D01*
G03X206059Y100197I4052J433D01*
G02X209535Y96287I-461J-3910D01*
G01Y90487D01*
X209293Y90244D01*
X198826D01*
G37*
G36*
G01X192662Y121891D02*
X193422Y121131D01*
X194661Y122244D01*
X193422Y123358D01*
X192662Y122598D01*
G03Y121891I354J-354D01*
G37*
G36*
G01X192461Y143669D02*
X193535D01*
X193624Y145333D01*
X191961Y145244D01*
Y144169D01*
G03X192461Y143669I500J0D01*
G37*
G36*
G01Y148669D02*
X193535D01*
X193624Y150333D01*
X191961Y150244D01*
Y149169D01*
G03X192461Y148669I500J0D01*
G37*
G36*
G01X185461Y148169D02*
X186535D01*
X186624Y149833D01*
X184961Y149744D01*
Y148669D01*
G03X185461Y148169I500J0D01*
G37*
G36*
G01X187662Y152891D02*
X188422Y152131D01*
X189661Y153244D01*
X188422Y154358D01*
X187662Y153598D01*
G03Y152891I354J-354D01*
G37*
G36*
G01X178461Y151669D02*
X179535D01*
X179624Y153333D01*
X177961Y153244D01*
Y152169D01*
G03X178461Y151669I500J0D01*
G37*
G36*
G01X196367Y206244D02*
G02X192448Y210553I0J3937D01*
G03X192461Y210827I-2881J274D01*
G01Y213976D01*
G03X191995Y215551I-2894J0D01*
G03X192461Y217126I-2428J1575D01*
G01Y220275D01*
G03X191821Y222090I-2894J0D01*
G01X191386Y222631D01*
Y223837D01*
X189979Y225244D01*
X190168Y226263D01*
G03X190216Y226792I-2846J529D01*
G01Y233244D01*
X202854D01*
Y226792D01*
G03X203385Y225121I2894J0D01*
G02X203050Y222483I-1607J-1136D01*
G03X202027Y220275I1871J-2208D01*
G01Y217126D01*
G03X202493Y215551I2894J0D01*
G03X202027Y213976I2428J-1575D01*
G01Y210827D01*
G03X202040Y210553I2894J0D01*
G02X198121Y206244I-3919J-372D01*
G01X196367D01*
G37*
G36*
G01X182127Y209173D02*
X181367Y208412D01*
X182480Y207174D01*
X183594Y208412D01*
X182834Y209173D01*
G03X182127I-354J-354D01*
G37*
G36*
G01X186889Y262870D02*
X187649Y263631D01*
X186535Y264869D01*
X185422Y263631D01*
X186182Y262870D01*
G03X186889I354J354D01*
G37*
G36*
G01X217406Y67167D02*
X214764Y69606D01*
X211883Y66850D01*
X214764Y64095D01*
X217406Y66534D01*
G03Y67167I-387J316D01*
G37*
G36*
G01X206182Y106118D02*
X205422Y105357D01*
X206535Y104119D01*
X207649Y105357D01*
X206889Y106118D01*
G03X206182I-354J-354D01*
G37*
G36*
G01X229863Y106437D02*
X229103Y105676D01*
X230216Y104438D01*
X231330Y105676D01*
X230570Y106437D01*
G03X229863I-354J-354D01*
G37*
G36*
G01X227870Y132032D02*
X228945Y130957D01*
X230362Y130905D01*
X230248Y132532D01*
X227870D01*
Y132032D01*
G37*
G36*
G01X212961Y129669D02*
X214035D01*
X214124Y131333D01*
X212461Y131244D01*
Y130169D01*
G03X212961Y129669I500J0D01*
G37*
G36*
G01X204662Y132891D02*
X205422Y132131D01*
X206661Y133244D01*
X205422Y134358D01*
X204662Y133598D01*
G03Y132891I354J-354D01*
G37*
G36*
G01X224745Y113681D02*
X223422Y112358D01*
X224503Y111123D01*
X225789Y112078D01*
X225593Y113401D01*
G03X224745Y113681I-495J-74D01*
G37*
G36*
G01X223122Y154331D02*
X221850D01*
X221762Y152470D01*
X223622Y152559D01*
Y153831D01*
G03X223122Y154331I-500J0D01*
G37*
G36*
G01X214610Y146819D02*
X213535D01*
X213447Y145156D01*
X215110Y145244D01*
Y146319D01*
G03X214610Y146819I-500J0D01*
G37*
G36*
G01X213182Y152118D02*
X212422Y151357D01*
X213535Y150119D01*
X214649Y151357D01*
X213889Y152118D01*
G03X213182I-354J-354D01*
G37*
G36*
G01X230110Y141319D02*
X229035D01*
X228947Y139656D01*
X230610Y139744D01*
Y140819D01*
G03X230110Y141319I-500J0D01*
G37*
G36*
G01X223409Y144598D02*
X222648Y145358D01*
X221410Y144244D01*
X222648Y143131D01*
X223409Y143891D01*
G03Y144598I-354J354D01*
G37*
G36*
G01X214551Y163739D02*
X213790Y164499D01*
X212552Y163386D01*
X213790Y162272D01*
X214551Y163032D01*
G03Y163739I-354J354D01*
G37*
G36*
G01X203535Y139744D02*
X205535D01*
X204535Y141244D01*
X203535Y140244D01*
Y139744D01*
G37*
G36*
G01X250127Y165170D02*
G03X245069Y167046I-3591J-1926D01*
G02X242789Y167698I-708J1837D01*
G03X237216Y168594I-3254J-2454D01*
G01X236710Y168244D01*
X229492D01*
X229240Y169919D01*
G03X229163Y170276I-2862J-431D01*
G03X229272Y171063I-2785J788D01*
G01Y171456D01*
G03X229163Y172244I-2894J0D01*
G03X229272Y173032I-2785J788D01*
G01Y173425D01*
G03X229163Y174213I-2894J0D01*
G03X229272Y175000I-2785J788D01*
G01Y175394D01*
G03X229163Y176181I-2894J0D01*
G03X229272Y176969I-2785J788D01*
G01Y177362D01*
G03X229163Y178150I-2894J0D01*
G03X229272Y178937I-2785J788D01*
G01Y179331D01*
G03X229163Y180118I-2894J0D01*
G03X229266Y180713I-2785J788D01*
G02X231098Y182546I1964J-131D01*
G03X231693Y182648I-193J2888D01*
G03X232480Y182539I788J2785D01*
G01X232874D01*
G03X233661Y182648I0J2894D01*
G03X234449Y182539I788J2785D01*
G01X234842D01*
G03X235630Y182648I0J2894D01*
G03X236418Y182539I788J2785D01*
G01X236811D01*
G03X237598Y182648I0J2894D01*
G03X238386Y182539I788J2785D01*
G01X238779D01*
G03X239567Y182648I0J2894D01*
G03X240355Y182539I788J2785D01*
G01X240748D01*
G03X241535Y182648I0J2894D01*
G03X242323Y182539I788J2785D01*
G01X242716D01*
G03X243504Y182648I0J2894D01*
G03X244292Y182539I788J2785D01*
G01X244685D01*
G03X245472Y182648I0J2894D01*
G03X246260Y182539I788J2785D01*
G01X246653D01*
G03X247441Y182648I0J2894D01*
G03X248229Y182539I788J2785D01*
G01X248622D01*
G03X249409Y182648I0J2894D01*
G03X250197Y182539I788J2785D01*
G01X250590D01*
G03X251378Y182648I0J2894D01*
G03X251973Y182546I788J2785D01*
G02X253805Y180713I-131J-1964D01*
G03X253908Y180118I2888J193D01*
G03X253799Y179331I2785J-788D01*
G01Y178937D01*
G03X253908Y178150I2894J0D01*
G03X253799Y177362I2785J-788D01*
G01Y176969D01*
G03X253908Y176181I2894J0D01*
G03X253799Y175394I2785J-788D01*
G01Y175000D01*
G03X253908Y174213I2894J0D01*
G03X253799Y173425I2785J-788D01*
G01Y173032D01*
G03X253908Y172244I2894J0D01*
G03X253799Y171456I2785J-788D01*
G01Y171063D01*
G03X253908Y170276I2894J0D01*
G03X253799Y169488I2785J-788D01*
G01Y169095D01*
G03X253908Y168307I2894J0D01*
G03X253799Y167519I2785J-788D01*
G01Y167126D01*
G03X253908Y166339I2894J0D01*
G03X253817Y165878I2785J-788D01*
G02X250127Y165170I-1956J222D01*
G37*
G36*
G01X221950Y208244D02*
Y210338D01*
X221965Y210462D01*
G03X221989Y210827I-2871J366D01*
G01Y213976D01*
G03X221522Y215551I-2894J0D01*
G03X221989Y217126I-2428J1575D01*
G01Y220275D01*
G03X221349Y222090I-2894J0D01*
G01X220914Y222631D01*
Y222912D01*
X219536Y224290D01*
Y224927D01*
G03X220216Y226792I-2213J1865D01*
G01Y233244D01*
X232854D01*
Y226792D01*
G03X233289Y225266I2894J0D01*
G02X232763Y222628I-1673J-1038D01*
G03X231555Y220275I1686J-2353D01*
G01Y217126D01*
G03X232021Y215551I2894J0D01*
G03X231555Y213976I2428J-1575D01*
G01Y210827D01*
G03X231578Y210462I2894J0D01*
G01X231594Y210338D01*
Y208244D01*
X221950D01*
G37*
G36*
G01X211654Y209118D02*
X210895Y208357D01*
X212008Y207119D01*
X213121Y208357D01*
X212361Y209118D01*
G03X211654I-354J-354D01*
G37*
G36*
G01X231062Y195197D02*
X231822Y195958D01*
X230709Y197196D01*
X229595Y195958D01*
X230355Y195197D01*
G03X231062I354J354D01*
G37*
G36*
G01X216889Y262870D02*
X217649Y263631D01*
X216535Y264869D01*
X215422Y263631D01*
X216182Y262870D01*
G03X216889I354J354D01*
G37*
G36*
G01X236137Y66534D02*
X238780Y64095D01*
X241661Y66850D01*
X238780Y69606D01*
X236137Y67167D01*
G03Y66534I387J-316D01*
G37*
G36*
G01X247292Y62744D02*
Y69606D01*
G03X246595Y71528I-3000J0D01*
G02X246432Y73824I1511J1261D01*
G03X236335Y79319I-4897J3026D01*
G01X236190Y79011D01*
X234557Y77379D01*
X232536Y79400D01*
Y89723D01*
X233964Y90131D01*
G03X236063Y92914I-795J2783D01*
G01Y98031D01*
G03X236029Y98476I-2894J0D01*
G01X235875Y99464D01*
X237974Y101563D01*
X240293Y99244D01*
X244484D01*
G02X248219Y94064I0J-3937D01*
G03X248071Y93149I2746J-914D01*
G01Y88032D01*
G03X250965Y85138I2894J0D01*
G01X253252D01*
Y64911D01*
X251086Y62744D01*
X247292D01*
G37*
G36*
G01X235434Y95119D02*
X236194Y94359D01*
X237432Y95472D01*
X236194Y96586D01*
X235434Y95826D01*
G03Y95119I354J-354D01*
G37*
G36*
G01X257106Y116154D02*
X257865Y116915D01*
X256752Y118153D01*
X255639Y116915D01*
X256398Y116154D01*
G03X257106I354J354D01*
G37*
G36*
G01X250747Y164370D02*
X251507Y165131D01*
X250394Y166369D01*
X249280Y165131D01*
X250040Y164370D01*
G03X250747I353J354D01*
G37*
G36*
G01X237409Y161598D02*
X236648Y162358D01*
X235410Y161244D01*
X236648Y160131D01*
X237409Y160891D01*
G03Y161598I-354J354D01*
G37*
G36*
G01X248110Y162169D02*
Y163244D01*
X246447Y163333D01*
X246535Y161669D01*
X247610D01*
G03X248110Y162169I0J500D01*
G37*
G36*
G01X237662Y164891D02*
X238422Y164131D01*
X239661Y165244D01*
X238422Y166358D01*
X237662Y165598D01*
G03Y164891I354J-354D01*
G37*
G36*
G01X251240Y207244D02*
Y209549D01*
X251352Y209866D01*
G03X251516Y210827I-2730J961D01*
G01Y213976D01*
G03X251050Y215551I-2894J0D01*
G03X251516Y217126I-2428J1575D01*
G01Y220275D01*
G03X250876Y222090I-2894J0D01*
G01X250441Y222631D01*
Y223181D01*
X249536Y224087D01*
Y224927D01*
G03X250217Y226792I-2213J1865D01*
G01Y233244D01*
X262854D01*
Y226792D01*
G03X263211Y225399I2894J0D01*
G02X262494Y222761I-1726J-947D01*
G03X261082Y220275I1483J-2486D01*
G01Y217126D01*
G03X261548Y215551I2894J0D01*
G03X261082Y213976I2428J-1575D01*
G01Y210827D01*
G03X261247Y209866I2894J0D01*
G01X261358Y209549D01*
Y207244D01*
X251240D01*
G37*
G36*
G01X241182Y209118D02*
X240422Y208357D01*
X241535Y207119D01*
X242649Y208357D01*
X241889Y209118D01*
G03X241182I-354J-354D01*
G37*
G36*
G01X246889Y262870D02*
X247649Y263631D01*
X246535Y264869D01*
X245422Y263631D01*
X246182Y262870D01*
G03X246889I354J354D01*
G37*
G36*
G01X275250Y67103D02*
X273818Y68558D01*
X270938Y66850D01*
X273818Y65143D01*
X275250Y66598D01*
G03Y67103I-432J253D01*
G37*
G36*
G01X273370Y99094D02*
X272406Y98754D01*
X272462Y97143D01*
X274035Y97319D01*
X274035Y98622D01*
G03X273370Y99094I-500J0D01*
G37*
G36*
G01X260418Y124646D02*
X261178Y123887D01*
X262416Y125000D01*
X261178Y126113D01*
X260418Y125354D01*
G03Y124646I354J-354D01*
G37*
G36*
G01X277417Y160590D02*
X276656Y161350D01*
X275418Y160236D01*
X276656Y159123D01*
X277417Y159883D01*
G03Y160590I-354J354D01*
G37*
G36*
G01X266476Y154010D02*
X265476Y155084D01*
X263924Y154802D01*
X264035Y153169D01*
X266110D01*
G03X266476Y154010I0J500D01*
G37*
G36*
G01X279969Y205244D02*
Y208472D01*
X280404Y209012D01*
G03X281044Y210827I-2255J1815D01*
G01Y213976D01*
G03X280578Y215551I-2894J0D01*
G03X281044Y217126I-2428J1575D01*
G01Y220275D01*
G03X280404Y222090I-2894J0D01*
G01X279969Y222631D01*
Y222912D01*
X279536Y223345D01*
Y224850D01*
X279811Y225314D01*
G03X280216Y226792I-2489J1477D01*
G01Y233244D01*
X292854D01*
Y226792D01*
G03X293150Y225517I2894J0D01*
G02X292241Y222880I-1767J-867D01*
G03X290610Y220275I1263J-2604D01*
G01Y217126D01*
G03X291076Y215551I2894J0D01*
G03X290610Y213976I2428J-1575D01*
G01Y210827D01*
G03X290695Y210130I2894J0D01*
G02X286874Y205244I-3821J-949D01*
G01X279969D01*
G37*
G36*
G01X270709Y209118D02*
X269950Y208357D01*
X271063Y207119D01*
X272176Y208357D01*
X271416Y209118D01*
G03X270709I-354J-354D01*
G37*
G36*
G01X276889Y262870D02*
X277649Y263631D01*
X276535Y264869D01*
X275422Y263631D01*
X276182Y262870D01*
G03X276889I354J354D01*
G37*
G36*
G01X312461Y48319D02*
Y47244D01*
X314124Y47156D01*
X314035Y48819D01*
X312961D01*
G03X312461Y48319I0J-500D01*
G37*
G36*
G01X314961Y52319D02*
Y51244D01*
X316624Y51156D01*
X316535Y52819D01*
X315461D01*
G03X314961Y52319I0J-500D01*
G37*
G36*
G01X296403Y66598D02*
X297835Y65143D01*
X300716Y66850D01*
X297835Y68558D01*
X296403Y67103D01*
G03Y66598I432J-253D01*
G37*
G36*
G01X317814Y135208D02*
X314778Y138244D01*
X309171D01*
G02X305360Y143171I0J3937D01*
G03X305453Y143898I-2801J727D01*
G01Y149559D01*
X311228D01*
X311768Y149124D01*
G03X313583Y148484I1815J2255D01*
G01X316732D01*
G03X318307Y148950I0J2894D01*
G03X319882Y148484I1575J2428D01*
G01X324535D01*
Y137992D01*
G02X317814Y135208I-3937J0D01*
G37*
G36*
G01X288793Y145717D02*
Y148591D01*
X289481Y149180D01*
G03X290492Y151378I-1883J2198D01*
G01Y153740D01*
G03X289888Y155511I-2894J0D01*
G02X289656Y157536I1557J1204D01*
G03X289902Y158662I-2451J1125D01*
G01Y161811D01*
G03X289460Y163290I-2697J0D01*
G02Y165450I1646J1080D01*
G03X289902Y166929I-2255J1479D01*
G01Y170079D01*
G03X289656Y171204I-2697J0D01*
G02X289888Y173230I1789J821D01*
G03X290492Y175000I-2289J1771D01*
G01Y179244D01*
X295738D01*
Y177213D01*
X295734Y177151D01*
G03X295728Y176968I2888J-183D01*
G01Y170670D01*
G03X298623Y167775I2894J0D01*
G01X302558D01*
G03X303159Y167838I0J2894D01*
G01X303360Y167881D01*
X305535D01*
Y152985D01*
X303360D01*
X303159Y153028D01*
G03X302558Y153091I-600J-2831D01*
G01X298623D01*
G03X295728Y150197I0J-2894D01*
G01Y145717D01*
X288793D01*
G37*
G36*
G01X309496Y203244D02*
Y208472D01*
X309932Y209012D01*
G03X310571Y210827I-2255J1815D01*
G01Y213976D01*
G03X310105Y215551I-2894J0D01*
G03X310571Y217126I-2428J1575D01*
G01Y220275D01*
G03X309955Y222061I-2894J0D01*
G01X309536Y222596D01*
Y224850D01*
X309811Y225314D01*
G03X310216Y226792I-2489J1477D01*
G01Y233244D01*
X322854D01*
Y226792D01*
G03X322886Y226365I2894J0D01*
G02X321320Y222609I-3894J-581D01*
G03X320137Y220275I1711J-2334D01*
G01Y217126D01*
G03X320604Y215551I2894J0D01*
G03X320137Y213976I2428J-1575D01*
G01Y210827D01*
G03X323032Y207933I2894J0D01*
G01X325799D01*
X326136Y206381D01*
G03X326280Y205874I3983J863D01*
G01X326395Y205554D01*
Y203244D01*
X309496D01*
G37*
G36*
G01X300237Y209118D02*
X299477Y208357D01*
X300591Y207119D01*
X301704Y208357D01*
X300944Y209118D01*
G03X300237I-354J-354D01*
G37*
G36*
G01X306889Y262870D02*
X307649Y263631D01*
X306535Y264869D01*
X305422Y263631D01*
X306182Y262870D01*
G03X306889I354J354D01*
G37*
G36*
G01X320961Y60319D02*
Y59244D01*
X322624Y59155D01*
X322535Y60819D01*
X321461D01*
G03X320961Y60319I0J-500D01*
G37*
G36*
G01X317961Y56319D02*
Y55244D01*
X319624Y55155D01*
X319535Y56819D01*
X318461D01*
G03X317961Y56319I0J-500D01*
G37*
G36*
G01X340064Y98674D02*
G03X339459Y100043I-2860J-446D01*
G01X339024Y100584D01*
Y102172D01*
X339459Y102713D01*
G03X340064Y104082I-2255J1815D01*
G02X342535Y105676I1945J-303D01*
G03X343307Y105571I773J2789D01*
G01X352362D01*
G03X353432Y105776I0J2894D01*
G03X356103Y103996I2671J1114D01*
G01X363189D01*
G03X364712Y104429I0J2894D01*
G02X367581Y103473I1036J-1674D01*
G03X367815Y103005I2695J1055D01*
G02Y100932I-1674J-1036D01*
G03X367720Y100767I2461J-1524D01*
G02X363636Y98725I-3476J1848D01*
G03X363189Y98760I-447J-2860D01*
G01X356103D01*
G03X353432Y96980I0J-2894D01*
G03X352362Y97185I-1070J-2689D01*
G01X343307D01*
G03X342535Y97080I0J-2894D01*
G02X340064Y98674I-526J1897D01*
G37*
G36*
G01X339444Y115810D02*
G03X337204Y116870I-2239J-1834D01*
G01X334843D01*
G03X334686Y116866I1J-2894D01*
G02X330536Y120797I-213J3931D01*
G01Y125937D01*
X352343D01*
Y123608D01*
X352216Y123270D01*
G03X352027Y122244I2706J-1026D01*
G01Y119882D01*
G03X352029Y119774I2894J-1D01*
G02X348095Y115689I-3934J-148D01*
G01X343307D01*
G03X341914Y115332I0J-2894D01*
G02X339444Y115810I-948J1725D01*
G37*
G36*
G01X340064Y153792D02*
G03X339459Y155161I-2860J-446D01*
G01X339024Y155702D01*
Y157290D01*
X339459Y157831D01*
G03X340064Y159200I-2255J1815D01*
G02X342535Y160794I1945J-303D01*
G03X343307Y160689I773J2789D01*
G01X352362D01*
G03X353432Y160894I0J2894D01*
G03X356103Y159114I2671J1114D01*
G01X363189D01*
G03X364712Y159547I0J2894D01*
G02X367581Y158591I1036J-1674D01*
G03X367815Y158123I2695J1055D01*
G02Y156050I-1674J-1036D01*
G03X367720Y155886I2461J-1524D01*
G02X363636Y153844I-3476J1848D01*
G03X363189Y153878I-447J-2860D01*
G01X356103D01*
G03X353432Y152098I0J-2894D01*
G03X352362Y152303I-1070J-2689D01*
G01X343307D01*
G03X342535Y152198I0J-2894D01*
G02X340064Y153792I-526J1897D01*
G37*
G36*
G01X339444Y170928D02*
G03X337204Y171988I-2239J-1834D01*
G01X334536D01*
Y185487D01*
X334139Y185884D01*
G02X335531Y189244I1392J1392D01*
G01X348091D01*
G02X352028Y185266I0J-3937D01*
G03X352027Y185236I2894J-34D01*
G01Y182874D01*
G03X352537Y181234I2894J0D01*
G02Y179002I-1622J-1116D01*
G03X352027Y177362I2384J-1640D01*
G01Y175000D01*
G03X352029Y174892I2894J-1D01*
G02X348095Y170807I-3934J-148D01*
G01X343307D01*
G03X341914Y170450I0J-2894D01*
G02X339444Y170928I-948J1725D01*
G37*
G36*
G01X321810Y180292D02*
X322570Y181052D01*
X321457Y182291D01*
X320343Y181052D01*
X321103Y180292D01*
G03X321810I354J354D01*
G37*
G36*
G01X339024Y201245D02*
Y208472D01*
X339459Y209012D01*
G03X340099Y210827I-2255J1815D01*
G01Y213976D01*
G03X339633Y215551I-2894J0D01*
G03X340099Y217126I-2428J1575D01*
G01Y220275D01*
G03X339764Y221627I-2894J0D01*
G01X339536Y222059D01*
Y224850D01*
X339811Y225314D01*
G03X340216Y226792I-2489J1477D01*
G01Y233244D01*
X352854D01*
Y226792D01*
G03X352870Y226489I2894J0D01*
G02X351032Y222734I-3915J-411D01*
G03X349665Y220275I1527J-2459D01*
G01Y217126D01*
G03X350131Y215551I2894J0D01*
G03X349665Y213976I2428J-1575D01*
G01Y210827D01*
G03X352559Y207933I2894J0D01*
G01X355692D01*
Y205160D01*
X355129Y204586D01*
G03X353972Y202638I3406J-3342D01*
G01X353546Y201245D01*
X339024D01*
G37*
G36*
G01X329765Y209118D02*
X329005Y208357D01*
X330118Y207119D01*
X331232Y208357D01*
X330472Y209118D01*
G03X329765I-354J-354D01*
G37*
G36*
G01X336889Y262870D02*
X337649Y263631D01*
X336535Y264869D01*
X335422Y263631D01*
X336182Y262870D01*
G03X336889I354J354D01*
G37*
G36*
G01X358257Y24049D02*
G03X357270Y25059I-6485J-5348D01*
G02X357062Y30820I2575J2978D01*
G01X361236Y34994D01*
G02X367956Y32210I2784J-2784D01*
G01Y26968D01*
X366978Y26398D01*
G03X364410Y24146I4479J-7698D01*
G02X358257Y24049I-3115J2407D01*
G37*
G36*
G01X367036Y51199D02*
Y60410D01*
G02X372971Y63802I3937J0D01*
G03X380127Y67307I2423J4111D01*
G02X384032Y70744I3905J-500D01*
G01X393985D01*
X397964Y74723D01*
G02X403834Y74384I2784J-2784D01*
G03X404186Y74013I2269J1797D01*
G02X404664Y71702I-1304J-1475D01*
G03X404390Y70472I2620J-1230D01*
G01Y61417D01*
G03X404402Y61148I2894J0D01*
G01X404411Y61056D01*
Y58996D01*
X401280D01*
G03X398386Y56102I0J-2894D01*
G01Y50744D01*
X376086D01*
X373756Y48415D01*
G02X367036Y51199I-2784J2784D01*
G37*
G36*
G01X366388Y186859D02*
X365363Y187884D01*
G02X366755Y191244I1392J1392D01*
G01X366778D01*
X369927Y194392D01*
G02X373287Y193000I1392J-1392D01*
G01Y191142D01*
G03X373455Y190169I2894J0D01*
G01X373570Y189849D01*
Y187539D01*
X370276D01*
G03X368799Y187134I0J-2894D01*
G01X368335Y186859D01*
X366388D01*
G37*
G36*
G01X470020Y183244D02*
Y186417D01*
G03X469554Y187992I-2894J0D01*
G03X470020Y189567I-2428J1575D01*
G01Y192716D01*
G03X467126Y195610I-2894J0D01*
G01X464434D01*
Y197913D01*
X464544Y198228D01*
G03X457433Y203800I-4505J1575D01*
G01X456095Y202928D01*
X453778Y205244D01*
X411222D01*
X409896Y203918D01*
G02X406536Y205310I-1392J1392D01*
G01Y223487D01*
X402778Y227244D01*
X389930D01*
X385727Y223041D01*
X384782Y223150D01*
G03X384449Y223170I-333J-2875D01*
G01X382087D01*
G03X380315Y222564I0J-2894D01*
G03X378543Y223170I-1772J-2289D01*
G01X376181D01*
G03X373398Y221067I0J-2894D01*
G01X372991Y219637D01*
X369536D01*
Y224850D01*
X369811Y225314D01*
G03X370216Y226792I-2489J1477D01*
G01Y233244D01*
X481071D01*
Y187734D01*
G02X476840Y183808I-3937J0D01*
G03X474801Y183432I-304J-4064D01*
G01X474403Y183244D01*
X470020D01*
G37*
G36*
G01X359292Y209228D02*
X358532Y208467D01*
X359646Y207229D01*
X360759Y208467D01*
X359999Y209228D01*
G03X359292I-354J-354D01*
G37*
G36*
G01X358182Y200012D02*
X356768Y198598D01*
X358035Y198120D01*
X359035D01*
X360303Y198598D01*
X358889Y200012D01*
G03X358182I-354J-354D01*
G37*
G36*
G01X358889Y199092D02*
X359788Y199992D01*
X358535Y201369D01*
X357283Y199992D01*
X358182Y199092D01*
G03X358889I354J354D01*
G37*
G36*
G01X366889Y262870D02*
X367649Y263631D01*
X366535Y264869D01*
X365422Y263631D01*
X366182Y262870D01*
G03X366889I354J354D01*
G37*
G36*
G01X402656Y8345D02*
X400579Y10421D01*
X397545Y7638D01*
X400579Y4854D01*
X402656Y6931D01*
G03Y8345I-707J707D01*
G37*
G36*
G01X372846Y5604D02*
X375036Y7794D01*
Y10469D01*
X376000Y11041D01*
G03X375935Y26398I-4543J7660D01*
G01X374957Y26968D01*
Y39716D01*
X378985Y43744D01*
X387140D01*
G02X390998Y39022I0J-3937D01*
G03X401690Y31897I6798J-1384D01*
G02X403901I1105J-1629D01*
G03X411690I3895J5741D01*
G02X413900I1105J-1629D01*
G03X421690I3895J5741D01*
G02X423901I1105J-1629D01*
G03X431135Y43718I3895J5741D01*
G01X430889Y43853D01*
X429299Y45444D01*
X431650Y47794D01*
Y49519D01*
X432241Y50098D01*
G03X433110Y52166I-2025J2068D01*
G01Y56102D01*
G03X432610Y57728I-2894J0D01*
G02X432570Y59880I1628J1106D01*
G03X432710Y60130I-2452J1537D01*
G02X434941Y61166I1763J-876D01*
G03X435631Y61083I689J2811D01*
G01X441141D01*
G03X441529Y61109I0J2894D01*
G02X443760Y59196I263J-1951D01*
G03X446654Y56358I2894J56D01*
G01X453740D01*
G03X455146Y56723I0J2894D01*
G02X457059I956J-1721D01*
G03X458465Y56358I1406J2530D01*
G01X465551D01*
G03X468445Y59252I0J2894D01*
G01Y66338D01*
G03X465551Y69233I-2894J0D01*
G01X458465D01*
G03X457059Y68868I0J-2894D01*
G02X455146I-956J1721D01*
G03X453740Y69233I-1406J-2530D01*
G01X446654D01*
G03X445656Y69055I0J-2894D01*
G02X443424Y69692I-679J1848D01*
G03X442839Y70256I-2283J-1780D01*
G02Y73444I1155J1594D01*
G03X443150Y73704I-1698J2344D01*
G01X443722Y74256D01*
X448497D01*
X448710Y74468D01*
X453740D01*
G03X455146Y74833I0J2894D01*
G02X457059I956J-1721D01*
G03X458465Y74468I1406J2530D01*
G01X465551D01*
G03X468445Y77363I0J2894D01*
G01Y84448D01*
G03X468419Y84835I-2894J0D01*
G01X468402Y84966D01*
Y87067D01*
X473425D01*
G03X476319Y89961I0J2894D01*
G01Y97047D01*
G03X475663Y98882I-2894J0D01*
G02Y103874I3045J2496D01*
G03X476319Y105709I-2238J1835D01*
G01Y112795D01*
G03X475856Y114365I-2894J0D01*
G02X475857Y116503I1654J1068D01*
G03X471541Y123856I-4007J2592D01*
G02X469445Y125821I-128J1964D01*
G01Y126284D01*
X463686Y132044D01*
X457634D01*
Y137067D01*
X461220D01*
G03X462992Y137672I0J2894D01*
G03X464764Y137067I1772J2289D01*
G01X467126D01*
G03X469198Y137941I0J2894D01*
G01X469778Y138535D01*
X476070D01*
X477710Y140176D01*
G02X481071Y138784I1392J-1392D01*
G01Y30809D01*
G02X475487Y27233I-3937J0D01*
G03X455751Y7777I-6195J-13453D01*
G02X452152Y2244I-3599J-1596D01*
G01X438067D01*
G02X434169Y6734I0J3937D01*
G03X423966Y12812I-6373J904D01*
G02X421624I-1171J1582D01*
G03X413966I-3829J-5174D01*
G02X411624I-1171J1582D01*
G03X403966I-3829J-5174D01*
G02X401624I-1171J1582D01*
G03X391422Y6734I-3829J-5175D01*
G02X387524Y2244I-3898J-553D01*
G01X374238D01*
G02X372846Y5604I0J1968D01*
G37*
G36*
G01X375040Y70065D02*
X374141Y69166D01*
X375394Y67788D01*
X376646Y69166D01*
X375747Y70065D01*
G03X375040I-354J-354D01*
G37*
G36*
G01X388032Y103968D02*
X387272Y103208D01*
X388386Y101969D01*
X389499Y103208D01*
X388739Y103968D01*
G03X388032I-354J-354D01*
G37*
G36*
G01X375646Y120906D02*
X376407Y120146D01*
X377645Y121260D01*
X376407Y122373D01*
X375646Y121613D01*
G03Y120906I354J-354D01*
G37*
G36*
G01X393464Y156313D02*
X394363Y157212D01*
X393110Y158590D01*
X391858Y157212D01*
X392757Y156313D01*
G03X393464I354J354D01*
G37*
G36*
G01X375662Y176024D02*
X376422Y175265D01*
X377661Y176378D01*
X376422Y177491D01*
X375662Y176732D01*
G03Y176024I354J-354D01*
G37*
G36*
G01X388718Y170304D02*
X388502Y170520D01*
X387101D01*
X386521Y171114D01*
G03X386234Y171372I-2072J-2021D01*
G01X385480Y171963D01*
Y176463D01*
X386234Y177054D01*
G03X387342Y179331I-1786J2278D01*
G01Y180905D01*
G03X384448Y183799I-2894J0D01*
G01X380512D01*
G03X379609Y183655I0J-2894D01*
G02X377059Y185169I-614J1870D01*
G03X376937Y185622I-2846J-524D01*
G02X378690Y188252I1853J664D01*
G03X380315Y188854I-147J2891D01*
G03X382087Y188248I1772J2289D01*
G01X384449D01*
G03X386220Y188854I0J2894D01*
G03X387992Y188248I1772J2289D01*
G01X392078D01*
Y171696D01*
G02X388718Y170304I-1968J0D01*
G37*
G36*
G01X389527Y202008D02*
X390287Y202769D01*
X389173Y204007D01*
X388060Y202769D01*
X388820Y202008D01*
G03X389527I354J354D01*
G37*
G36*
G01X398118Y218347D02*
X398879Y217587D01*
X400117Y218701D01*
X398879Y219814D01*
X398118Y219054D01*
G03Y218347I354J-354D01*
G37*
G36*
G01X377716Y223197D02*
X378476Y223958D01*
X377362Y225196D01*
X376249Y223958D01*
X377009Y223197D01*
G03X377716I353J354D01*
G37*
G36*
G01X372536Y203186D02*
Y208231D01*
X374854D01*
X375183Y208110D01*
G03X376181Y207933I998J2717D01*
G01X378543D01*
G03X380315Y208539I0J2894D01*
G03X382087Y207933I1772J2289D01*
G01X384449D01*
G03X386220Y208539I0J2894D01*
G03X387992Y207933I1772J2289D01*
G01X390354D01*
G03X392126Y208539I0J2894D01*
G03X393898Y207933I1772J2289D01*
G01X396260D01*
G03X396442Y207939I0J2894D01*
G02X398535Y205974I124J-1965D01*
G01Y205443D01*
G02X396442Y203479I-1969J0D01*
G03X396260Y203484I-183J-2888D01*
G01X393898D01*
G03X392126Y202879I0J-2894D01*
G03X390354Y203484I-1772J-2289D01*
G01X387992D01*
G03X386220Y202879I0J-2894D01*
G03X384449Y203484I-1772J-2289D01*
G01X382087D01*
G03X380315Y202879I0J-2894D01*
G03X378543Y203484I-1772J-2289D01*
G01X376181D01*
G03X375183Y203307I0J-2894D01*
G01X374854Y203186D01*
X372536D01*
G37*
G36*
G01X402935Y6931D02*
X405012Y4854D01*
X408045Y7638D01*
X405012Y10421D01*
X402935Y8345D01*
G03Y6931I707J-707D01*
G37*
G36*
G01X412656Y8345D02*
X410579Y10421D01*
X407545Y7638D01*
X410579Y4854D01*
X412656Y6931D01*
G03Y8345I-707J707D01*
G37*
G36*
G01X422656D02*
X420579Y10421D01*
X417545Y7638D01*
X420579Y4854D01*
X422656Y6931D01*
G03Y8345I-707J707D01*
G37*
G36*
G01X412935Y6931D02*
X415012Y4854D01*
X418045Y7638D01*
X415012Y10421D01*
X412935Y8345D01*
G03Y6931I707J-707D01*
G37*
G36*
G01X422935D02*
X425012Y4854D01*
X428045Y7638D01*
X425012Y10421D01*
X422935Y8345D01*
G03Y6931I707J-707D01*
G37*
G36*
G01X407056Y93673D02*
X407036Y93694D01*
Y97886D01*
X408151Y98422D01*
G03Y105767I-1765J3673D01*
G01X407036Y106304D01*
Y149694D01*
X406207Y150523D01*
G02X408990Y157244I2784J2784D01*
G01X415296D01*
G02X418615Y151189I0J-3937D01*
G03X423934Y144029I4023J-2567D01*
G01X424196Y144103D01*
X426437D01*
Y139961D01*
G03X429331Y137067I2894J0D01*
G01X431693D01*
G03X431988Y137082I0J2894D01*
G01X432919Y137177D01*
X434973Y135124D01*
X432468Y132618D01*
X429331D01*
G03X426437Y129724I0J-2894D01*
G01Y126575D01*
G03X426903Y125000I2894J0D01*
G03X426437Y123425I2428J-1575D01*
G01Y120276D01*
G03X429239Y117383I2894J0D01*
G02X431145Y115416I-62J-1967D01*
G01Y109507D01*
X431072Y109246D01*
G03X431048Y109156I2787J-781D01*
G02X427781Y108200I-1911J471D01*
G03X425787Y108996I-1994J-2098D01*
G01X423425D01*
G03X422353Y108790I0J-2894D01*
G03X419882Y110177I-2471J-1507D01*
G01X417520D01*
G03X414626Y107283I0J-2894D01*
G01Y104134D01*
G03X415135Y102494I2894J0D01*
G02Y100262I-1622J-1116D01*
G03X414626Y98622I2385J-1640D01*
G01Y93673D01*
X407056D01*
G37*
G36*
G01X409909Y165098D02*
X409148Y165858D01*
X407910Y164744D01*
X409148Y163631D01*
X409909Y164391D01*
G03Y165098I-354J354D01*
G37*
G36*
G01X424790Y148976D02*
X423890Y149874D01*
X422513Y148622D01*
X423890Y147370D01*
X424790Y148268D01*
G03Y148976I-354J354D01*
G37*
G36*
G01X422535Y181032D02*
X419442D01*
X418871Y182001D01*
G03X416378Y183425I-2493J-1470D01*
G01X411260D01*
G03X409395Y182744I0J-2894D01*
G01X408278D01*
X406536Y184487D01*
Y188550D01*
X408720D01*
X408930Y188503D01*
G03X417370Y195296I1503J6773D01*
G02X421307Y199244I3937J11D01*
G01X428405D01*
G02X432342Y195295I0J-3937D01*
G03X432719Y193106I6437J-19D01*
G02X429012Y187843I-3707J-1327D01*
G01X426891D01*
X422535Y183487D01*
Y181032D01*
G37*
G36*
G01X410080Y200490D02*
X407650Y198059D01*
X410433Y195150D01*
X413216Y198059D01*
X410787Y200490D01*
G03X410080I-354J-354D01*
G37*
G36*
G01X433009Y7991D02*
X430579Y10421D01*
X427670Y7638D01*
X430579Y4854D01*
X433009Y7284D01*
G03Y7991I-354J353D01*
G37*
G36*
G01X453126Y108458D02*
X452702Y108676D01*
G03X451378Y108996I-1324J-2574D01*
G01X449016D01*
G03X448501Y108950I0J-2894D01*
G01X447487Y108766D01*
X446257Y109996D01*
X445494D01*
X444922Y110548D01*
G03X442913Y111358I-2009J-2084D01*
G01X440037D01*
X439030Y113789D01*
X439918Y114676D01*
Y117382D01*
X443504D01*
G03X444446Y117540I0J2894D01*
G02X446359Y117181I641J-1861D01*
G03X448229Y116496I1870J2209D01*
G01X452165D01*
G03X453313Y116734I0J2894D01*
G02X453476Y116796I782J-1807D01*
G03X454697Y117962I-618J1869D01*
G02X454766Y118121I1839J-703D01*
G03X455059Y119390I-2601J1269D01*
G01Y125043D01*
X460786D01*
X462445Y123385D01*
Y115689D01*
X458465D01*
G03X457317Y115452I0J-2894D01*
G02X457154Y115390I-782J1807D01*
G03X455933Y114224I618J-1869D01*
G02X455864Y114064I-1839J703D01*
G03X455571Y112795I2601J-1269D01*
G01Y108458D01*
X453126D01*
G37*
G36*
G01X443020Y170472D02*
X444291D01*
X444380Y172333D01*
X442520Y172244D01*
Y170972D01*
G03X443020Y170472I500J0D01*
G37*
G36*
G01X443671Y191091D02*
G03X445217Y195295I-4891J4185D01*
G02X449154Y199244I3937J12D01*
G01X451134D01*
Y195072D01*
X450698Y194531D01*
G03X450059Y192716I2255J-1815D01*
G01Y187843D01*
X445167D01*
X443671Y191091D01*
G37*
G36*
G01X438426Y264663D02*
X435996Y262232D01*
X438780Y259324D01*
X441563Y262232D01*
X439133Y264663D01*
G03X438426I-354J-354D01*
G37*
G36*
G01X469698Y118741D02*
X470598Y117842D01*
X471976Y119094D01*
X470598Y120347D01*
X469698Y119448D01*
G03Y118741I354J-354D01*
G37*
G36*
G01X469252Y147481D02*
X470013Y146721D01*
X471251Y147835D01*
X470013Y148948D01*
X469252Y148188D01*
G03Y147481I354J-354D01*
G37*
G36*
G01X469449Y171103D02*
X470210Y170343D01*
X471448Y171457D01*
X470210Y172570D01*
X469449Y171810D01*
G03Y171103I354J-354D01*
G37*
G36*
G01X469260Y184489D02*
X470021Y183729D01*
X471259Y184842D01*
X470021Y185956D01*
X469260Y185196D01*
G03Y184489I354J-354D01*
G37*
G36*
G01X460393Y197651D02*
X461292Y198551D01*
X460039Y199928D01*
X458787Y198551D01*
X459686Y197651D01*
G03X460393I354J354D01*
G37*
G36*
G01X455939Y305946D02*
X457813Y304073D01*
X460165Y306299D01*
X457813Y308526D01*
X455939Y306653D01*
G03Y305946I354J-354D01*
G37*
G36*
G01X456890Y288870D02*
X456890Y286220D01*
X460128Y286132D01*
X460039Y289370D01*
X457390Y289370D01*
G03X456890Y288870I0J-500D01*
G37*
%LPC*%
G75*
G36*
G01X130177Y171922D02*
G03X130340Y174218I-1511J1261D01*
G02X140133I4897J3026D01*
G03X140296Y171922I1675J-1035D01*
G02X140992Y170000I-2304J-1922D01*
G01Y164483D01*
X141746Y163892D01*
G02X142855Y161614I-1786J-2278D01*
G01Y159252D01*
G02X139960Y156358I-2894J0D01*
G01X136811D01*
G02X135236Y156824I0J2894D01*
G02X133661Y156358I-1575J2428D01*
G01X130512D01*
G02X127618Y159252I0J2894D01*
G01Y161614D01*
G02X128492Y163687I2894J0D01*
G01X129086Y164266D01*
Y165337D01*
X129480Y165731D01*
Y170000D01*
G02X130177Y171922I3000J0D01*
G37*
G54D52*
X444291Y10827D03*
%LPD*%
G75*
G36*
G01X50339Y214275D02*
X49580Y213515D01*
X50693Y212276D01*
X51806Y213515D01*
X51046Y214275D01*
G03X50339I-354J-354D01*
G37*
G36*
G01X52566Y212755D02*
X51806Y213515D01*
X50568Y212402D01*
X51806Y211288D01*
X52566Y212048D01*
G03Y212755I-354J354D01*
G37*
G36*
G01X80339Y214275D02*
X79580Y213515D01*
X80693Y212276D01*
X81806Y213515D01*
X81047Y214275D01*
G03X80339I-354J-354D01*
G37*
G36*
G01X82566Y212755D02*
X81806Y213515D01*
X80568Y212402D01*
X81806Y211288D01*
X82566Y212048D01*
G03Y212755I-354J354D01*
G37*
G36*
G01X109182Y214118D02*
X108422Y213357D01*
X109535Y212119D01*
X110649Y213357D01*
X109889Y214118D01*
G03X109182I-354J-354D01*
G37*
G36*
G01X111409Y212598D02*
X110648Y213358D01*
X109410Y212244D01*
X110648Y211131D01*
X111409Y211891D01*
G03Y212598I-354J353D01*
G37*
G36*
G01X120924Y103335D02*
X121684Y104096D01*
X120571Y105334D01*
X119458Y104096D01*
X120217Y103335D01*
G03X120924I354J354D01*
G37*
G36*
G01X138182Y214118D02*
X137422Y213357D01*
X138535Y212119D01*
X139649Y213357D01*
X138889Y214118D01*
G03X138182I-354J-354D01*
G37*
G36*
G01X140409Y212598D02*
X139648Y213358D01*
X138410Y212244D01*
X139648Y211131D01*
X140409Y211891D01*
G03Y212598I-354J353D01*
G37*
G36*
G01X169339Y214275D02*
X168580Y213515D01*
X169693Y212276D01*
X170806Y213515D01*
X170046Y214275D01*
G03X169339I-354J-354D01*
G37*
G36*
G01X171566Y212755D02*
X170806Y213515D01*
X169568Y212402D01*
X170806Y211288D01*
X171566Y212048D01*
G03Y212755I-354J354D01*
G37*
G36*
G01X177409Y122598D02*
X176648Y123358D01*
X175410Y122244D01*
X176648Y121131D01*
X177409Y121891D01*
G03Y122598I-354J354D01*
G37*
G36*
G01X175889Y120370D02*
X176649Y121131D01*
X175535Y122369D01*
X174422Y121131D01*
X175182Y120370D01*
G03X175889I354J354D01*
G37*
G36*
G01X198339Y214275D02*
X197580Y213515D01*
X198693Y212276D01*
X199806Y213515D01*
X199046Y214275D01*
G03X198339I-354J-354D01*
G37*
G36*
G01X200566Y212755D02*
X199806Y213515D01*
X198568Y212402D01*
X199806Y211288D01*
X200566Y212048D01*
G03Y212755I-354J354D01*
G37*
G36*
G01X227182Y214118D02*
X226422Y213357D01*
X227535Y212119D01*
X228649Y213357D01*
X227889Y214118D01*
G03X227182I-354J-354D01*
G37*
G36*
G01X229409Y212598D02*
X228648Y213358D01*
X227410Y212244D01*
X228648Y211131D01*
X229409Y211891D01*
G03Y212598I-354J353D01*
G37*
G36*
G01X247755Y90944D02*
X246995Y91704D01*
X245757Y90591D01*
X246995Y89477D01*
X247755Y90237D01*
G03Y90944I-354J354D01*
G37*
G36*
G01X250040Y168118D02*
X249280Y167357D01*
X250394Y166119D01*
X251507Y167357D01*
X250747Y168118D01*
G03X250040I-354J-354D01*
G37*
G36*
G01X258339Y214275D02*
X257580Y213515D01*
X258693Y212276D01*
X259806Y213515D01*
X259046Y214275D01*
G03X258339I-354J-354D01*
G37*
G36*
G01X260566Y212755D02*
X259806Y213515D01*
X258568Y212402D01*
X259806Y211288D01*
X260566Y212048D01*
G03Y212755I-354J354D01*
G37*
G36*
G01X287182Y214275D02*
X286422Y213515D01*
X287535Y212276D01*
X288649Y213515D01*
X287889Y214275D01*
G03X287182I-354J-354D01*
G37*
G36*
G01X289409Y212755D02*
X288648Y213515D01*
X287410Y212402D01*
X288648Y211288D01*
X289409Y212048D01*
G03Y212755I-354J354D01*
G37*
G36*
G01X319583Y145969D02*
X320344Y145209D01*
X321582Y146323D01*
X320344Y147436D01*
X319583Y146676D01*
G03Y145969I354J-354D01*
G37*
G36*
G01X321103Y148196D02*
X320343Y147436D01*
X321457Y146198D01*
X322570Y147436D01*
X321810Y148196D01*
G03X321103I-354J-354D01*
G37*
G36*
G01X317182Y214275D02*
X316422Y213515D01*
X317535Y212276D01*
X318649Y213515D01*
X317889Y214275D01*
G03X317182I-354J-354D01*
G37*
G36*
G01X319409Y212755D02*
X318648Y213515D01*
X317410Y212402D01*
X318648Y211288D01*
X319409Y212048D01*
G03Y212755I-354J354D01*
G37*
G36*
G01X348188Y171071D02*
X348948Y171832D01*
X347835Y173070D01*
X346721Y171832D01*
X347481Y171071D01*
G03X348188I354J354D01*
G37*
G36*
G01X347182Y214275D02*
X346422Y213515D01*
X347535Y212276D01*
X348649Y213515D01*
X347889Y214275D01*
G03X347182I-354J-354D01*
G37*
G36*
G01X349409Y212755D02*
X348648Y213515D01*
X347410Y212402D01*
X348648Y211288D01*
X349409Y212048D01*
G03Y212755I-354J354D01*
G37*
G36*
G01X443020Y9055D02*
X444291D01*
X444380Y10915D01*
X442520Y10827D01*
Y9555D01*
G03X443020Y9055I500J0D01*
G37*
G54D10*
X13780Y13780D03*
Y330709D03*
X469291Y13780D03*
Y330709D03*
G54D20*
X64370Y71850D03*
X93898D03*
X123425D03*
X135236Y167244D03*
X152953Y66850D03*
X164764Y167244D03*
X182480Y66850D03*
X194291Y167244D03*
X212008Y66850D03*
X241535D03*
X271063D03*
X300591D03*
G54D11*
X5367Y81875D03*
Y77938D03*
Y74001D03*
Y70064D03*
Y66127D03*
Y93686D03*
Y89749D03*
Y85812D03*
X25052Y81875D03*
X21115D03*
X17178D03*
X13241D03*
X9304D03*
X25052Y77938D03*
X21115D03*
X17178D03*
X13241D03*
X9304D03*
X25052Y74001D03*
X21115D03*
X17178D03*
X13241D03*
X9304D03*
X25052Y70064D03*
X21115D03*
X17178D03*
X13241D03*
X9304D03*
X25052Y66127D03*
X21115D03*
X17178D03*
X13241D03*
X9304D03*
X25052Y93686D03*
X21115D03*
X17178D03*
X13241D03*
X9304D03*
X25052Y89749D03*
X21115D03*
X17178D03*
X13241D03*
X9304D03*
X25052Y85812D03*
X21115D03*
X17178D03*
X13241D03*
X9304D03*
X21785Y144494D03*
X8367Y158749D03*
X12304D03*
X16241D03*
X20178D03*
X24115D03*
X28052D03*
X8367Y162686D03*
X12304D03*
X16241D03*
X20178D03*
X24115D03*
X28052D03*
X30535Y184244D03*
X25115Y222749D03*
X21178D03*
X17241D03*
X13304D03*
X9367D03*
X29052D03*
X25115Y226686D03*
X21178D03*
X17241D03*
X13304D03*
X9367D03*
X29052D03*
X45052Y54812D03*
X41115D03*
X37178D03*
X45052Y58749D03*
X41115D03*
X37178D03*
X45052Y62686D03*
X41115D03*
X37178D03*
X52052Y106749D03*
X44178Y110686D03*
X48115D03*
X52052D03*
X44178Y102812D03*
X48115D03*
X52052D03*
X44178Y106749D03*
X48115D03*
X44102Y136811D03*
X53535Y148244D03*
X37835Y153945D03*
X50693Y212402D03*
X58535Y204244D03*
X64370Y207409D03*
X70535Y30244D03*
X78535D03*
X80052Y117749D03*
X76115D03*
X80052Y121686D03*
X76115D03*
X91535Y137244D03*
X69370Y144409D03*
X85236Y153945D03*
X80693Y212402D03*
X75535Y201244D03*
X81535D03*
X87535D03*
X92535D03*
X77535Y229244D03*
X65435Y264744D03*
X117115Y45938D03*
X113178D03*
X117115Y42001D03*
X113178D03*
X109241Y45938D03*
Y42001D03*
X110535Y30244D03*
X120535D03*
X120571Y105209D03*
X118052Y167812D03*
X114115D03*
X110178D03*
X118052Y171749D03*
X114115D03*
X110178D03*
X118052Y175686D03*
X114115D03*
X110178D03*
X109535Y212244D03*
X93898Y207244D03*
X106535Y229244D03*
X96935Y264444D03*
X141535Y47244D03*
X121052Y45938D03*
Y42001D03*
X129035Y94744D03*
X135236Y122945D03*
X146535Y160244D03*
X138535Y212244D03*
X123425Y207354D03*
X136535Y229244D03*
X126535Y264744D03*
X175535Y122244D03*
X154535Y118244D03*
X162535D03*
X176178Y188686D03*
Y184749D03*
X169693Y212402D03*
X154921Y207244D03*
X165535Y229244D03*
X156535Y264744D03*
X182480Y36299D03*
X200197Y104244D03*
X202535Y93244D03*
X194535Y91244D03*
Y122244D03*
X193535Y145244D03*
Y150244D03*
X178115Y166686D03*
Y162749D03*
X182052Y166686D03*
Y162749D03*
X186535Y149744D03*
X189535Y153244D03*
X179535D03*
X180115Y188686D03*
X184052D03*
X180115Y184749D03*
X184052D03*
X198693Y212402D03*
X182480Y207299D03*
X195535Y229244D03*
X186535Y264744D03*
X230216Y104563D03*
X206535Y104244D03*
Y93244D03*
X224535Y111244D03*
X229035Y139744D03*
X214035Y131244D03*
X230248Y130957D03*
X206535Y133244D03*
X213535Y145244D03*
Y150244D03*
X221535Y144244D03*
X212677Y163386D03*
X230709Y197071D03*
X227535Y212244D03*
X212008Y207244D03*
X225535Y229244D03*
X216535Y264744D03*
X237307Y95472D03*
X245882Y90591D03*
X237535Y88244D03*
X256752Y118028D03*
X250394Y166244D03*
X235535Y161244D03*
X246535Y163244D03*
X239535Y165244D03*
X239115Y176686D03*
X243052D03*
X239115Y172749D03*
X243052D03*
X258693Y212402D03*
X241535Y207244D03*
X255535Y229244D03*
X246535Y264744D03*
X266752Y84461D03*
X272535Y97244D03*
X262291Y125000D03*
X275543Y160236D03*
X264035Y154744D03*
X262063Y142716D03*
X287535Y212402D03*
X271063Y207244D03*
X285535Y229244D03*
X276535Y264744D03*
X314035Y47244D03*
X316535Y51244D03*
X310535Y142244D03*
X315535D03*
X300535Y161244D03*
X317535Y212402D03*
X300591Y207244D03*
X315535Y229244D03*
X306535Y264744D03*
X319535Y55244D03*
X322535Y59244D03*
X342535Y121244D03*
X337535D03*
X321457Y146323D03*
X320535Y142244D03*
X339535Y183244D03*
X345535D03*
Y178244D03*
X339535D03*
X321457Y182165D03*
X330118Y207244D03*
X345535Y229244D03*
X336535Y264744D03*
X362535Y29244D03*
X347535Y121244D03*
Y156244D03*
X359535D03*
X347835Y172945D03*
X369488Y189961D03*
X347535Y212402D03*
X359646Y207354D03*
X366535Y264744D03*
X400535Y63244D03*
X385241Y64938D03*
Y61001D03*
X389178Y64938D03*
Y61001D03*
X388386Y102094D03*
X377520Y121260D03*
X377535Y176378D03*
X389535Y175244D03*
Y185244D03*
X377362Y225071D03*
X399992Y218701D03*
X389173Y203882D03*
X377535Y229244D03*
X412732Y97047D03*
X406386Y102094D03*
X415178Y132938D03*
Y129001D03*
Y125064D03*
X411241Y132938D03*
Y129001D03*
Y125064D03*
X419115Y132938D03*
Y129001D03*
Y125064D03*
X408035Y164744D03*
X423535Y196244D03*
X413535Y186244D03*
X441304Y19347D03*
Y23284D03*
Y27221D03*
X445241Y19347D03*
X449178D03*
X453115D03*
X445241Y23284D03*
X449178D03*
X453115D03*
X445241Y27221D03*
X449178D03*
X453115D03*
X441304Y31158D03*
X445241D03*
X449178D03*
X453115D03*
X457323Y121457D03*
X443535Y134244D03*
X471126Y147835D03*
X471134Y184842D03*
X471323Y171457D03*
X476535Y179744D03*
X467115Y222001D03*
X463178D03*
X467115Y218064D03*
X463178D03*
X459241Y222001D03*
Y218064D03*
X467115Y225938D03*
X463178D03*
X459241D03*
G54D21*
X58465Y212402D03*
Y218701D03*
X82087Y68701D03*
Y75000D03*
X76181Y68701D03*
Y75000D03*
X87992Y212402D03*
Y218701D03*
X70276Y212402D03*
Y218701D03*
X111614Y68701D03*
Y75000D03*
X105709Y68701D03*
Y75000D03*
X117520Y212402D03*
Y218701D03*
X99803Y212402D03*
Y218701D03*
X141142Y68701D03*
Y75000D03*
X135236Y68701D03*
Y75000D03*
X147047Y212402D03*
Y218701D03*
X129331Y212402D03*
Y218701D03*
X164764Y68701D03*
Y75000D03*
X170669Y68701D03*
Y75000D03*
X162795Y212402D03*
Y218701D03*
X200197Y110039D03*
Y116339D03*
X182480Y115945D03*
Y122244D03*
X188386Y115945D03*
Y122244D03*
X176575Y212402D03*
Y218701D03*
X188386Y212402D03*
Y218701D03*
X223819Y68701D03*
Y75000D03*
X229724Y68701D03*
Y75000D03*
X206102Y110039D03*
Y116339D03*
Y212402D03*
Y218701D03*
X217913Y212402D03*
Y218701D03*
X235630Y212402D03*
Y218701D03*
X247441Y212402D03*
Y218701D03*
X282874Y68701D03*
Y75000D03*
X265158Y212402D03*
Y218701D03*
X276968Y212402D03*
Y218701D03*
X288780Y68701D03*
Y75000D03*
X294685Y212402D03*
Y218701D03*
X306496Y212402D03*
Y218701D03*
X324213Y212402D03*
Y218701D03*
X336024Y212402D03*
Y218701D03*
X371457Y106102D03*
Y112402D03*
Y161220D03*
Y167520D03*
X353740Y212402D03*
Y218701D03*
X365551Y212402D03*
Y218701D03*
X377362Y106102D03*
Y112402D03*
X383268Y161220D03*
Y167520D03*
X377362Y192716D03*
X395079D03*
X383268D03*
X377362Y199016D03*
X395079D03*
X383268D03*
X395079Y212402D03*
Y218701D03*
X442323Y121850D03*
Y128150D03*
X430512Y141535D03*
Y147835D03*
X454134Y165158D03*
Y141535D03*
Y147835D03*
Y171457D03*
X465945Y184842D03*
Y191142D03*
X460039Y184842D03*
Y191142D03*
G54D12*
X13976Y107284D03*
X32087D03*
X61220D03*
X79331D03*
G54D30*
X149606Y48228D03*
X196850D03*
X226378D03*
X409449Y65945D03*
G54D22*
X55433Y229350D03*
Y256909D03*
X86929Y229350D03*
X65433D03*
X86929Y256909D03*
X65433D03*
X116535Y229350D03*
X96929D03*
X116535Y256909D03*
X96929D03*
X146535Y229350D03*
X126535D03*
X146535Y256909D03*
X126535D03*
X156535Y229350D03*
Y256909D03*
X176535Y229350D03*
X186535D03*
X176535Y256909D03*
X186535D03*
X206535Y229350D03*
X216535D03*
X206535Y256909D03*
X216535D03*
X256752Y90591D03*
X251752D03*
Y112165D03*
X256752D03*
X236535Y229350D03*
X246535D03*
X236535Y256909D03*
X246535D03*
X266752Y90591D03*
X261752D03*
Y112165D03*
X266752D03*
X266535Y229350D03*
X276535D03*
X266535Y256909D03*
X276535D03*
X296535Y229350D03*
X306535D03*
X296535Y256909D03*
X306535D03*
X326535Y229350D03*
X336535D03*
X326535Y256909D03*
X336535D03*
X356535Y229350D03*
X366535D03*
X356535Y256909D03*
X366535D03*
G54D31*
X168110Y48228D03*
X215354D03*
X244882D03*
X427953Y65945D03*
G54D13*
X22126Y123012D03*
X12126D03*
X22126Y150571D03*
X12126D03*
X59370Y123012D03*
Y150571D03*
X69370Y123012D03*
Y150571D03*
G54D40*
X403347Y54134D03*
X410433D03*
X421063D03*
X428150D03*
G54D50*
G01X5571Y107284D02*
X13976D01*
G01D02*
Y115689D01*
G01Y107284D02*
X22382D01*
G01X22126Y150571D02*
Y157992D01*
G01X16476D02*
X22126Y150571D01*
G01X33130Y185039D02*
X40748D01*
G01X31412Y180453D02*
X40748Y185039D01*
G01X9771Y177684D02*
X17126Y185039D01*
G01X9771Y192395D02*
X17126Y185039D01*
G01Y175197D02*
X40748Y175197D01*
G01X152929Y7638D02*
X52559D01*
G01X61220Y107284D02*
Y115689D01*
G01Y107284D02*
X69626D01*
G01X37992Y136811D02*
X44102D01*
G01X37835Y153945D02*
Y148780D01*
X37992Y148622D01*
G01X40748Y175197D02*
Y156858D01*
X37835Y153945D01*
G01X49784Y221929D02*
X55433Y229350D01*
G01X58465Y205964D02*
Y212402D01*
G01X52421Y218839D02*
X58465Y212402D01*
G01X49784Y233061D02*
X55433Y229350D01*
G01X76181Y18701D02*
X86555Y29075D01*
G01X65807D02*
X76181Y18701D01*
G01X91535Y137244D02*
X85669D01*
X85236Y136811D01*
G01X81280Y221929D02*
X86929Y229350D01*
G01X87992Y205964D02*
Y212402D01*
G01X81948Y218839D02*
X87992Y212402D01*
G01X81280Y233061D02*
X86929Y229350D01*
G01X115551Y18701D02*
X124855Y28005D01*
G01X106247D02*
X115551Y18701D01*
G01X129331Y110039D02*
X104658D01*
X102658Y112040D01*
Y119094D01*
G01X110886Y221929D02*
X116535Y229350D01*
G01X111476Y212402D02*
X117520D01*
G01Y205964D02*
Y212402D01*
G01X110886Y233061D02*
X116535Y229350D01*
G01X141535Y47244D02*
X148622D01*
X149606Y48228D01*
G01X120571Y95472D02*
X125827Y102894D01*
G01X120571Y95472D02*
X123199Y102894D01*
G01X135236Y110039D02*
X143579D01*
X146335Y107284D01*
X150984D01*
G01X129331Y110039D02*
X135236D01*
G01X129331D02*
Y98114D01*
X129035Y97819D01*
Y94744D01*
G01X135236Y116339D02*
X141280D01*
G01X135236D02*
X141280Y122776D01*
G01X138386Y154389D02*
Y160433D01*
G01D02*
X144823D01*
G01X140886Y221929D02*
X146535Y229350D01*
G01X147047Y205964D02*
Y212402D01*
G01X141004Y218839D02*
X147047Y212402D01*
G01X140886Y233061D02*
X146535Y229350D01*
G01X174606Y18701D02*
Y39370D01*
X168110Y45866D01*
Y48228D01*
G01X154921Y18701D02*
Y9630D01*
X152929Y7638D01*
G01D02*
X192291D01*
X194291Y9638D01*
Y18701D01*
G01X178740Y53346D02*
X178740Y53347D01*
X173228D01*
X168110Y48228D01*
G01X174272Y99665D02*
X179921Y106496D01*
G01X174272Y113327D02*
X179921Y106496D01*
G01X170886Y221929D02*
X176535Y229350D01*
G01X170531Y218839D02*
X176575Y212402D01*
G01X170531Y205964D02*
X176575Y212402D01*
G01X170886Y233061D02*
X176535Y229350D01*
G01X190535Y37244D02*
X194291Y33488D01*
Y18701D01*
G01X178740Y53346D02*
X178740Y53347D01*
Y57344D01*
X180740Y59344D01*
X195436D01*
X196850Y57929D01*
Y48228D01*
G01X186220Y53346D02*
Y53347D01*
X188535Y51031D01*
Y39244D01*
X190535Y37244D01*
G01D02*
X223535D01*
X226378Y40087D01*
Y48228D01*
G01X194535Y91244D02*
Y114338D01*
X196536Y116339D01*
X200197D01*
G01X176437Y115807D02*
X182480Y122244D01*
G01X176437Y119026D02*
X182480Y122244D01*
G01X200197Y116339D02*
X206102D01*
G01X200886Y221929D02*
X206535Y229350D01*
G01X200059Y218839D02*
X206102Y212402D01*
G01X200059Y215620D02*
X206102Y212402D01*
G01X200886Y233061D02*
X206535Y229350D01*
G01X215354Y48228D02*
X215354Y54650D01*
X215535Y54831D01*
Y55244D01*
X219535Y59244D01*
X252535D01*
X256752Y63461D01*
Y90591D01*
G01X208678Y116339D02*
X209178D01*
X211934Y119094D01*
G01X214862D02*
X211934D01*
G01X208678Y116339D02*
X206102D01*
G01X230886Y221929D02*
X236535Y229350D01*
G01X229586Y218839D02*
X235630Y212402D01*
G01X229586Y215620D02*
X235630Y212402D01*
G01X230886Y233061D02*
X236535Y229350D01*
G01X359646Y92323D02*
Y86886D01*
X355535Y82776D01*
Y46244D01*
X345535Y36244D01*
X270890D01*
X253346Y18701D01*
G01X347835Y92126D02*
Y85945D01*
X351535Y82244D01*
Y48945D01*
X342835Y40244D01*
X255205D01*
X233661Y18701D01*
G01X244882Y48228D02*
X248941D01*
X248957Y48244D01*
X256535D01*
X261752Y53461D01*
Y90591D01*
G01X251752Y83169D02*
Y90591D01*
G01X232776Y95472D02*
X238032D01*
G01X232776D02*
X238032Y88051D01*
G01X246102Y98012D02*
X251752Y90591D01*
G01X256496Y142716D02*
X262063D01*
G01X259114Y218839D02*
X265158Y212402D01*
G01X259114Y215620D02*
X265158Y212402D01*
G01X273032Y18701D02*
X286575Y32244D01*
X347535D01*
X359535Y44244D01*
Y75244D01*
X362535Y78244D01*
X389535D01*
X394535Y83244D01*
Y135244D01*
X392535Y137244D01*
X349535D01*
X347835Y138945D01*
Y147244D01*
G01X266752Y90591D02*
Y88818D01*
G01D02*
Y84461D01*
G01X286024Y168504D02*
X291870Y162264D01*
G01X286024Y176181D02*
X292461D01*
G01X286024D02*
X292461Y170137D01*
G01X286024Y168504D02*
X291870D01*
G01X260886Y221929D02*
X266535Y229350D01*
G01X260886Y233061D02*
X266535Y229350D01*
G01X303097Y9397D02*
X312402Y18701D01*
G01D02*
X321706Y9397D01*
G01X374535Y74244D02*
X366535D01*
X363535Y71244D01*
Y42244D01*
X349535Y28244D01*
X302260D01*
X292716Y18701D01*
G01X315020Y146515D02*
X321457Y152559D01*
G01X293760Y147047D02*
X300591D01*
G01D02*
X307421D01*
G01X300591D02*
Y155060D01*
G01X290886Y221929D02*
X296535Y229350D01*
G01X288641Y218839D02*
X294685Y212402D01*
G01X288641Y205964D02*
X294685Y212402D01*
G01X290886Y233061D02*
X296535Y229350D01*
G01X371457Y18701D02*
X371535Y18622D01*
Y9244D01*
X368535Y6244D01*
X335535D01*
X332087Y9693D01*
Y18701D01*
G01X336024Y90354D02*
X339641D01*
X341413Y92126D01*
X347835D01*
G01X336024Y112402D02*
Y118839D01*
G01Y112402D02*
X342067Y118839D01*
G01X336024Y167520D02*
Y173957D01*
G01Y167520D02*
X342067Y173957D01*
G01X318238Y146515D02*
X321457Y152559D01*
G01X347835Y147244D02*
X340870D01*
X339099Y145472D01*
X336024D01*
G01X338444Y172776D02*
X347835Y165748D01*
G01X324213Y205964D02*
Y212402D01*
G01X318169Y218839D02*
X324213Y212402D01*
G01X320886Y233061D02*
X326535Y229350D01*
G01X320886Y225640D02*
X326535Y229350D01*
G01X351772Y18701D02*
X361076Y28005D01*
G01X351772Y18701D02*
X357396Y30596D01*
G01X371457Y18701D02*
Y41165D01*
X377535Y47244D01*
X426150D01*
X428150Y49244D01*
Y54134D01*
G01X371457Y97835D02*
X376500D01*
X378150Y96185D01*
Y93504D01*
G01X371457Y89173D02*
X368232D01*
X365083Y92323D01*
X359646D01*
G01Y102027D02*
Y110433D01*
G01X351240Y118839D02*
X359646Y110433D01*
G01X347835Y103602D02*
Y110630D01*
G01D02*
Y117658D01*
G01X350059Y121063D02*
X356496D01*
G01X350059Y118041D02*
X356496Y121063D01*
G01X359646Y157146D02*
Y165551D01*
G01D02*
X368051Y157146D01*
G01X347835Y165748D02*
X357225Y158720D01*
G01X371457Y144291D02*
X368232D01*
X365083Y147441D01*
X359646D01*
G01X371457Y144291D02*
Y143898D01*
X375111Y140244D01*
X394535D01*
X398535Y136244D01*
Y80244D01*
X392535Y74244D01*
X374535D01*
G01X378150Y148622D02*
Y151303D01*
X376500Y152953D01*
X371457D01*
G01X371318Y192716D02*
X377362D01*
G01X350059Y176181D02*
X356496D01*
G01X350059Y182225D02*
X356496Y176181D01*
G01X353740Y205964D02*
Y212402D01*
G01X347697Y218839D02*
X353740Y212402D01*
G01X371318Y225138D02*
X377362Y218701D01*
G01X350886Y233061D02*
X356535Y229350D01*
G01X350886Y225640D02*
X356535Y229350D01*
G01X397795Y7638D02*
X407795D01*
G01X399883Y15550D02*
X407795Y7638D01*
G01X397795D02*
X405708Y15550D01*
G01X389883D02*
X397795Y7638D01*
G01X396417Y54134D02*
X403347D01*
G01Y60433D02*
X400535Y63244D01*
G01X396417Y60965D02*
X403347Y54134D01*
G01X388386Y97244D02*
Y102094D01*
G01Y152362D02*
X393535D01*
G01D02*
X399417D01*
X403535Y148244D01*
Y102244D01*
G01X377362Y186279D02*
Y192716D01*
G01Y218701D02*
X383406Y225138D01*
G01X383130Y205453D02*
X389173Y199016D01*
G01D02*
X395217Y205453D01*
G01X417795Y7638D02*
X427795D01*
G01X407795D02*
X417795D01*
G01X407795D02*
X415708Y15550D01*
G01X417795Y7638D02*
X425707Y15550D01*
G01X409883D02*
X417795Y7638D01*
G01X427795D02*
X435708Y15550D01*
G01X419883D02*
X427795Y7638D01*
G01X403347Y54134D02*
Y60433D01*
G01X427953Y65945D02*
Y58193D01*
X428150Y57996D01*
Y54134D01*
G01X410433D02*
X421063D01*
G01X427756Y79724D02*
X436417D01*
X438386Y77756D01*
G01X427756Y79724D02*
Y85161D01*
X424606Y88311D01*
Y90173D01*
G01X409646Y79724D02*
Y72563D01*
X409449Y72366D01*
Y65945D01*
G01X418701Y97047D02*
X412732Y97047D01*
G01X412657Y97047D02*
X418701D01*
G01X412657Y103484D02*
X418701Y97047D01*
G01X424606Y98228D02*
Y90173D01*
G01X406386Y102094D02*
X403685D01*
X403535Y102244D01*
G01X424606Y90173D02*
X405606D01*
X403535Y92244D01*
Y102244D01*
G01X424468Y135098D02*
X430512Y141535D01*
G01X424468Y128150D02*
X430512D01*
G01X424468Y134587D02*
X430512Y128150D01*
G01X424468Y141535D02*
X430512D01*
G01X437910Y4446D02*
X444291Y10827D01*
G01D02*
X450672Y17208D01*
G01X437910D02*
X444291Y10827D01*
G01D02*
X450672Y4446D01*
G01X450197Y54390D02*
Y62795D01*
G01X462008D02*
X450197D01*
G01D02*
X441535D01*
X438386Y65945D01*
G01X450197Y62795D02*
Y71201D01*
G01X438386Y59114D02*
Y65945D01*
G01D02*
X446004Y72776D01*
G01X438386Y77756D02*
X447047D01*
X450197Y80906D01*
G01X438386Y96260D02*
Y77756D01*
G01X440535Y113244D02*
X438386Y111094D01*
Y106496D01*
G01X450197Y104528D02*
X446776D01*
X444807Y106496D01*
X442126D01*
G01Y96260D02*
X445153Y96260D01*
X447122Y98228D01*
X450197D01*
G01X465945Y93504D02*
X454528Y93504D01*
X450197Y97835D01*
Y98228D01*
G01X434646Y106496D02*
X434646Y114354D01*
X436417Y116126D01*
Y121850D01*
G01X450197Y121457D02*
X457323D01*
G01X430512Y141535D02*
Y128150D01*
G01X442323Y139567D02*
Y135457D01*
X443535Y134244D01*
G01X450197Y121457D02*
Y115906D01*
G01D02*
X447535Y113244D01*
X440535D01*
G01X443366Y114528D02*
X450197Y121457D01*
G01D02*
X457028Y117992D01*
G01X436417Y121850D02*
X442323D01*
G01X430512D02*
X436417D01*
G01X442323Y128150D02*
X445941D01*
X446335Y128543D01*
X450197D01*
G01X436417Y128150D02*
X442323D01*
G01X450197Y128543D02*
X462236D01*
X465945Y124835D01*
Y118244D01*
G01X438583Y139567D02*
X438583Y133784D01*
X436417Y131618D01*
Y128150D01*
G01X454134Y141535D02*
Y132579D01*
X450197Y128642D01*
Y128543D01*
G01X454134Y141535D02*
X460039D01*
G01X430512Y147835D02*
X433933D01*
X435902Y149803D01*
X438583D01*
G01X476535Y179744D02*
Y161244D01*
X473535Y158244D01*
X440535D01*
X438583Y156291D01*
Y149803D01*
G01X430374Y195276D02*
X438780D01*
G01D02*
X447185D01*
G01X476535Y179744D02*
X454535D01*
G01D02*
X435394D01*
G01X462008Y54390D02*
Y62795D01*
G01D02*
X470414D01*
G01X462008D02*
Y71201D01*
G01Y80906D02*
Y89567D01*
X465945Y93504D01*
G01Y118244D02*
Y109252D01*
G01Y184842D02*
X471989Y191280D01*
G01X465945Y184842D02*
X471989Y188061D01*
G54D41*
X427756Y79724D03*
X409646D03*
G54D23*
X61535Y273228D03*
X91535D03*
X121535D03*
X151535D03*
X181535D03*
X211535D03*
X241535D03*
X271535D03*
X301535D03*
X347835Y92126D03*
Y147244D03*
X331535Y273228D03*
X361535D03*
X426575D03*
X439173D03*
G54D14*
X31693Y136811D03*
X30512Y130906D03*
X31693Y142716D03*
X37992Y136811D03*
X39173Y130906D03*
X37992Y142716D03*
X78937Y136811D03*
X85236D03*
X86417Y130906D03*
X77756D03*
X78937Y142716D03*
X85236D03*
X132087Y160433D03*
X138386D03*
X161614D03*
X167913D03*
X191142D03*
X197441D03*
X250197Y130906D03*
X256496D03*
X250197Y136811D03*
X256496D03*
X250197Y142716D03*
X256496D03*
X279724Y136811D03*
X286024D03*
X279724Y130906D03*
X286024D03*
X279724Y125000D03*
X286024D03*
X279724Y152559D03*
X286024D03*
X279724Y142716D03*
X286024D03*
X315158Y176181D03*
X321457D03*
G54D32*
X178740Y53346D03*
X182480Y43110D03*
X186220Y53346D03*
X179921Y106496D03*
X183661Y96260D03*
X187402Y106496D03*
X434646Y96260D03*
Y106496D03*
X438386Y96260D03*
Y106496D03*
X442126Y96260D03*
Y106496D03*
G54D51*
G01X7874Y0D02*
X475197D01*
G03X483071Y7874I0J7874D01*
G01Y336614D01*
G03X475197Y344488I-7874J0D01*
G01X7874D01*
G03X0Y336614I0J-7874D01*
G01Y7874D01*
G03X7874Y0I7874J0D01*
G54D24*
X61535Y291732D03*
X91535D03*
X121535D03*
X151535D03*
X181535D03*
X211535D03*
X241535D03*
X271535D03*
X301535D03*
X347835Y110630D03*
Y165748D03*
X331535Y291732D03*
X361535D03*
X426575D03*
X439173D03*
G54D42*
X413819Y164744D03*
Y169744D03*
Y174744D03*
Y179744D03*
X435394Y164744D03*
Y179744D03*
Y174744D03*
Y169744D03*
G54D33*
X230709Y152559D03*
Y187992D03*
X252362Y152559D03*
X250394D03*
X248425D03*
X246457D03*
X244488D03*
X242520D03*
X240551D03*
X238583D03*
X236614D03*
X234646D03*
X232677D03*
Y187992D03*
X234646D03*
X236614D03*
X238583D03*
X240551D03*
X242520D03*
X244488D03*
X246457D03*
X248425D03*
X250394D03*
X252362D03*
G54D15*
X31693Y148622D03*
X37992D03*
X61220Y184055D03*
Y189961D03*
Y178150D03*
X85236Y148622D03*
X78937D03*
X67520Y184055D03*
Y189961D03*
Y178150D03*
X256496Y125000D03*
X250197D03*
X286024Y176181D03*
X279724D03*
X315158Y168307D03*
Y160433D03*
Y152559D03*
X321457Y168307D03*
Y160433D03*
Y152559D03*
X362795Y121063D03*
X356496D03*
X362795Y128937D03*
X356496D03*
X362795Y176181D03*
X356496D03*
X362795Y184055D03*
X356496D03*
G54D16*
X17126Y194882D03*
Y185039D03*
Y204724D03*
X40748Y194882D03*
Y185039D03*
Y204724D03*
X166732Y107284D03*
X460039Y306299D03*
Y286220D03*
G54D34*
X223819Y159449D03*
Y161417D03*
Y163386D03*
Y165354D03*
Y167323D03*
Y169291D03*
Y171260D03*
Y173228D03*
Y175197D03*
Y177165D03*
Y179134D03*
Y181102D03*
X259252Y167323D03*
Y165354D03*
Y163386D03*
Y161417D03*
Y159449D03*
Y181102D03*
Y179134D03*
Y177165D03*
Y175197D03*
Y173228D03*
Y171260D03*
Y169291D03*
G54D43*
X438386Y77756D03*
G54D25*
X61535Y328740D03*
X95866Y18701D03*
X91535Y328740D03*
X115551Y18701D03*
X121535Y328740D03*
X135236Y18701D03*
X151535Y328740D03*
X174606Y18701D03*
X154921D03*
X194291D03*
X181535Y328740D03*
X233661Y18701D03*
X213976D03*
X211535Y328740D03*
X253346Y18701D03*
X241535Y328740D03*
X292716Y18701D03*
X273032D03*
X271535Y328740D03*
X312402Y18701D03*
X301535Y328740D03*
X332087Y18701D03*
X331535Y328740D03*
X371457Y18701D03*
X351772D03*
X361535Y328740D03*
X391535D03*
G54D17*
X17126Y175197D03*
X40748D03*
X150984Y107284D03*
G54D44*
X438386Y65945D03*
G54D26*
X76181Y18701D03*
X421535Y328740D03*
G54D35*
X286024Y160236D03*
Y168504D03*
X279724Y160236D03*
Y168504D03*
G54D36*
X300591Y147047D03*
Y173819D03*
G54D18*
X52559Y7638D03*
Y37638D03*
X397795Y7638D03*
Y37638D03*
X427795Y7638D03*
X417795D03*
X407795D03*
X427795Y37638D03*
X417795D03*
X407795D03*
X410433Y195276D03*
Y259449D03*
X438780Y195276D03*
Y259449D03*
G54D27*
X78150Y164370D03*
X221850Y152559D03*
X271063Y48228D03*
X358535Y201244D03*
X375394Y67913D03*
X393110Y158465D03*
X422638Y148622D03*
X444291Y10827D03*
Y172244D03*
X471850Y119094D03*
X460039Y199803D03*
G54D45*
X450197Y62795D03*
Y80906D03*
G54D37*
X359646Y110433D03*
Y92323D03*
Y165551D03*
Y147441D03*
X462008Y80906D03*
Y62795D03*
G54D46*
X446063Y139567D03*
X442323D03*
X438583D03*
X446063Y149803D03*
X438583D03*
G54D19*
X64370Y81850D03*
Y61850D03*
X93898Y81850D03*
Y61850D03*
X123425Y81850D03*
Y61850D03*
X135236Y177244D03*
X152953Y76850D03*
X164764Y177244D03*
X182480Y76850D03*
X194291Y177244D03*
X212008Y76850D03*
X241535D03*
X271063D03*
X300591D03*
G54D28*
X64370Y218701D03*
Y212402D03*
X93898Y218701D03*
Y212402D03*
X135236Y110039D03*
X129331D03*
X135236Y116339D03*
X129331D03*
X123425Y218701D03*
Y212402D03*
X154921Y218701D03*
Y212402D03*
X182480Y218701D03*
Y212402D03*
X212008Y218701D03*
Y212402D03*
X241535Y218701D03*
Y212402D03*
X282874Y98622D03*
Y92323D03*
X276968Y98622D03*
Y92323D03*
X271063Y218701D03*
Y212402D03*
X288780Y98622D03*
Y92323D03*
X300591Y218701D03*
Y212402D03*
X336024Y112402D03*
Y106102D03*
Y96654D03*
Y90354D03*
Y167520D03*
Y161220D03*
Y151772D03*
Y145472D03*
X330118Y218701D03*
Y212402D03*
X371457Y89173D03*
Y97835D03*
Y144291D03*
Y152953D03*
X359646Y218701D03*
Y212402D03*
X383268Y112402D03*
Y106102D03*
X377362Y167520D03*
Y161220D03*
X389173Y192716D03*
Y199016D03*
X377362Y218701D03*
Y212402D03*
X383268Y218701D03*
Y212402D03*
X389173Y218701D03*
Y212402D03*
X424606Y104528D03*
Y98228D03*
X418701Y97047D03*
Y105709D03*
X450197Y104528D03*
Y98228D03*
X436417Y128150D03*
Y121850D03*
X430512Y128150D03*
Y121850D03*
X454134Y191142D03*
Y184842D03*
X465945Y165158D03*
X460039Y147835D03*
Y141535D03*
X465945Y147835D03*
Y141535D03*
X460039Y165158D03*
X465945Y171457D03*
X460039D03*
G54D38*
X372244Y121260D03*
Y128740D03*
Y176378D03*
Y183858D03*
X382480Y125000D03*
Y180118D03*
G54D29*
X118012Y95472D03*
X115453D03*
X112894D03*
X110335D03*
X107776D03*
X105217D03*
X102658D03*
Y119094D03*
X105217D03*
X107776D03*
X110335D03*
X112894D03*
X115453D03*
X118012D03*
X120571Y95472D03*
Y119094D03*
X230216Y95472D03*
X227657D03*
X225098D03*
X222539D03*
X219980D03*
X217421D03*
X214862D03*
Y119094D03*
X217421D03*
X219980D03*
X222539D03*
X225098D03*
X227657D03*
X230216D03*
X232776Y95472D03*
Y119094D03*
G54D47*
X450197Y121457D03*
Y128543D03*
G54D48*
X465945Y109252D03*
Y93504D03*
G54D39*
X388386Y97244D03*
X378150Y93504D03*
X388386Y89764D03*
Y152362D03*
X378150Y148622D03*
X388386Y144882D03*
G54D49*
G01X95866Y18701D02*
Y43913D01*
X91535Y48244D01*
X35535D01*
X32087Y51693D01*
Y107284D01*
G01X39173Y130906D02*
Y114370D01*
X32087Y107284D01*
G01X13976D02*
Y97803D01*
G01X30512Y130906D02*
X23787D01*
X22126Y129244D01*
Y123012D01*
G01X31693Y136811D02*
X15102D01*
X12126Y133835D01*
Y123012D01*
G01X21785Y144494D02*
X22126Y144835D01*
Y150571D01*
G01X31693Y148622D02*
Y142716D01*
G01X12126Y150571D02*
Y144654D01*
X15535Y141244D01*
X27252D01*
X28724Y142716D01*
X31693D01*
G01X17126Y194882D02*
X27898D01*
X32547Y190232D01*
X45547D01*
X47535Y188244D01*
Y181244D01*
X50630Y178150D01*
X61220D01*
G01X17126Y204724D02*
X40748D01*
G01X135236Y18701D02*
Y46543D01*
X129535Y52244D01*
X52535D01*
X50535Y54244D01*
Y92244D01*
X54535Y96244D01*
X75535D01*
X79535Y100244D01*
Y102142D01*
X79331Y102346D01*
Y107284D01*
G01X61220D02*
X52575D01*
G01X78937Y136811D02*
X62102D01*
X59370Y134079D01*
Y123012D01*
G01X78535Y158244D02*
X47535D01*
X44535Y155244D01*
Y143716D01*
X43535Y142716D01*
X37992D01*
G01X78937D02*
X75968D01*
X74496Y141244D01*
X61842D01*
X59370Y143716D01*
Y150571D01*
G01X40748Y204724D02*
X51055D01*
X53535Y202244D01*
Y192244D01*
X55819Y189961D01*
X61220D01*
G01Y184055D02*
X52724D01*
X50535Y186244D01*
Y192244D01*
X47898Y194882D01*
X40748D01*
G01X58465Y212402D02*
X50693D01*
G01D02*
Y226791D01*
G01X58465Y218701D02*
X64370D01*
G01X50693Y226791D02*
X53252Y229350D01*
X55433D01*
G01Y256909D02*
Y269489D01*
X59173Y273228D01*
X61535D01*
G01Y291732D02*
X91535D01*
G01X76181Y75000D02*
Y86890D01*
X78535Y89244D01*
X103535D01*
X105216Y90925D01*
Y95472D01*
X105217Y95472D01*
G01X82087Y75000D02*
Y85244D01*
X84087Y87244D01*
X104535D01*
X107776Y90484D01*
Y95472D01*
G01X82087Y68701D02*
Y62850D01*
X81087Y61850D01*
X64370D01*
G01X76181Y68701D02*
X72079D01*
X70535Y70244D01*
Y80244D01*
X68929Y81850D01*
X64370D01*
G01X86417Y130906D02*
Y114370D01*
X79331Y107284D01*
G01X77756Y130906D02*
X71197D01*
X69370Y129079D01*
Y123012D01*
G01X85236Y142716D02*
X88205D01*
X89677Y141244D01*
X189535D01*
X193535Y145244D01*
G01Y150244D02*
X186535Y143244D01*
X97535D01*
X91535Y149244D01*
Y156244D01*
X89535Y158244D01*
X78535D01*
G01X78150Y164370D02*
Y158630D01*
X78535Y158244D01*
G01X69370Y150571D02*
Y144409D01*
G01X85236Y148622D02*
Y153945D01*
G01X78937Y148622D02*
Y142716D01*
G01X186535Y149744D02*
X182035Y145244D01*
X99535D01*
X93535Y151244D01*
Y175244D01*
X90630Y178150D01*
X67520D01*
G01X189535Y153244D02*
X184535D01*
X178535Y147244D01*
X101535D01*
X95535Y153244D01*
Y181244D01*
X92724Y184055D01*
X67520D01*
G01X179535Y153244D02*
X175535Y149244D01*
X103535D01*
X97535Y155244D01*
Y187244D01*
X94819Y189961D01*
X67520D01*
G01X70276Y212402D02*
Y197504D01*
X72535Y195244D01*
X209535D01*
X211535Y193244D01*
Y178244D01*
X214535Y175244D01*
X220535D01*
X220583Y175197D01*
X223819D01*
G01X87992Y212402D02*
X80693D01*
G01D02*
Y226402D01*
G01X64370Y212402D02*
Y207409D01*
G01Y218701D02*
X70276D01*
G01X65433Y229350D02*
Y222732D01*
X64370Y221669D01*
Y218701D01*
G01X93898D02*
X87992D01*
G01X80693Y226402D02*
X83642Y229350D01*
X86929D01*
G01X65435Y264744D02*
Y260865D01*
X65433Y260863D01*
Y256909D01*
G01X86929D02*
Y265063D01*
X91535Y269669D01*
Y273228D01*
G01X112894Y95472D02*
Y89602D01*
X111614Y88323D01*
Y75000D01*
G01Y68701D02*
Y63323D01*
X110142Y61850D01*
X93898D01*
G01X105709Y68701D02*
X102079D01*
X100535Y70244D01*
Y80244D01*
X98929Y81850D01*
X93898D01*
G01X105709Y75000D02*
Y85417D01*
X110335Y90043D01*
Y95472D01*
G01X118012Y95472D02*
Y91519D01*
X118035Y91496D01*
Y90220D01*
X119012Y89244D01*
X139535D01*
X141142Y87638D01*
Y75000D01*
G01X167913Y160433D02*
Y157727D01*
X169396Y156244D01*
X195535D01*
X198535Y153244D01*
Y144244D01*
X193535Y139244D01*
X104535D01*
X99535Y134244D01*
Y96807D01*
X100870Y95472D01*
X102658D01*
G01X135236Y75000D02*
Y85543D01*
X133535Y87244D01*
X117535D01*
X115453Y89327D01*
Y95472D01*
G01X105217Y119094D02*
X105216D01*
Y133925D01*
X108535Y137244D01*
X194535D01*
X200535Y143244D01*
Y154763D01*
X197441Y157858D01*
Y160433D01*
G01X118012Y119094D02*
Y115141D01*
X118909Y114244D01*
X127630D01*
X129331Y115945D01*
Y116339D01*
G01X214035Y131244D02*
X212035Y129244D01*
X116453D01*
X115453Y128244D01*
Y119094D01*
G01X206535Y133244D02*
X202535D01*
X200535Y131244D01*
X113894D01*
X112894Y130244D01*
Y119094D01*
G01X204535Y141244D02*
X196535Y133244D01*
X111535D01*
X110335Y132043D01*
Y119094D01*
G01X107776D02*
Y132484D01*
X110535Y135244D01*
X195535D01*
X202535Y142244D01*
Y169244D01*
X206520Y173228D01*
X223819D01*
G01X109535Y212244D02*
X114787D01*
G01X111642Y229350D02*
X109535Y227244D01*
Y212244D01*
G01X93898Y212402D02*
Y207244D01*
G01X117520Y218701D02*
X123425D01*
G01X96929Y229350D02*
Y222126D01*
X93898Y219094D01*
Y218701D01*
G01X99803D02*
X93898D01*
G01X223819Y177165D02*
X215614D01*
X213535Y179244D01*
Y194244D01*
X210535Y197244D01*
X101535D01*
X99803Y198976D01*
Y212402D01*
G01X116535Y229350D02*
X111642D01*
G01X96935Y264444D02*
Y261869D01*
X96929Y261863D01*
Y256909D01*
G01X121535Y273228D02*
X119035Y270728D01*
Y269544D01*
X116535Y267044D01*
Y256909D01*
G01X91535Y291732D02*
X121535D01*
G01X141142Y68701D02*
Y63850D01*
X139142Y61850D01*
X123425D01*
G01Y81850D02*
X127929D01*
X129535Y80244D01*
Y69701D01*
X130535Y68701D01*
X135236D01*
G01X120571Y95472D02*
Y105209D01*
G01Y119094D02*
Y126244D01*
X121571Y127244D01*
X218535D01*
X219980Y125799D01*
Y119094D01*
G01X135236Y116339D02*
Y122945D01*
G01X132087Y160433D02*
Y164094D01*
X135236Y167244D01*
G01X138535Y212244D02*
X144315D01*
X144472Y212402D01*
X147047D01*
G01X140642Y229350D02*
X138535Y227244D01*
Y212244D01*
G01X123425Y212402D02*
Y207354D01*
G01Y218701D02*
X129331D01*
G01X126535Y229350D02*
Y222204D01*
X123425Y219094D01*
Y218701D01*
G01X223819Y179134D02*
X216646D01*
X215535Y180244D01*
Y195244D01*
X211535Y199244D01*
X131535D01*
X129331Y201449D01*
Y212402D01*
G01X146535Y229350D02*
X140642D01*
G01X126535Y264744D02*
Y256909D01*
G01X151535Y273228D02*
Y271144D01*
X146535Y266144D01*
Y256909D01*
G01X121535Y291732D02*
X151535D01*
G01X182480Y66850D02*
X175095D01*
X173244Y68701D01*
X170669D01*
G01X164764Y75000D02*
Y83472D01*
X168535Y87244D01*
X210535D01*
X212535Y89244D01*
Y111244D01*
X213535Y112244D01*
X216421D01*
X217421Y113244D01*
Y119094D01*
G01X152953Y66850D02*
X160338D01*
X162189Y68701D01*
X164764D01*
G01X170669Y75000D02*
Y77968D01*
X170535Y78102D01*
Y82244D01*
X173535Y85244D01*
X212535D01*
X214862Y87571D01*
Y95472D01*
G01X166732Y107284D02*
Y98047D01*
X168520Y96260D01*
X183661D01*
G01X161614Y160433D02*
Y164094D01*
X164764Y167244D01*
G01X176575Y212402D02*
X169693D01*
G01X172642Y229350D02*
X169693Y226402D01*
Y212402D01*
G01X154921D02*
Y207244D01*
G01Y218701D02*
X162795D01*
G01X147047D02*
X154921D01*
G01X156535Y229350D02*
Y223284D01*
X154921Y221669D01*
Y218701D01*
G01X223819Y181102D02*
X218535D01*
X217535Y182102D01*
Y196244D01*
X212535Y201244D01*
X164535D01*
X162795Y202984D01*
Y212402D01*
G01X176535Y229350D02*
X172642D01*
G01X156535Y264744D02*
Y256909D01*
G01X151535Y291732D02*
X181535D01*
G01X182480Y43110D02*
Y36299D01*
G01X188386Y115945D02*
Y110842D01*
X187402Y109858D01*
Y106496D01*
G01X200197Y110039D02*
Y104244D01*
G01X179921Y106496D02*
X177284D01*
X175535Y108244D01*
Y122244D01*
G01X182480Y115945D02*
X188386D01*
G01X182480Y122244D02*
X175535D01*
G01X188386D02*
X194535D01*
G01X191142Y160433D02*
Y164094D01*
X194291Y167244D01*
G01X206102Y212402D02*
X198693D01*
G01X201642Y229350D02*
X198693Y226402D01*
Y212402D01*
G01X182480D02*
Y207299D01*
G01Y218701D02*
X188386D01*
G01X176575D02*
X182480D01*
G01X188386D02*
Y222594D01*
X186535Y224445D01*
Y229350D01*
G01X234646Y187992D02*
X234646Y200134D01*
X231535Y203244D01*
X190535D01*
X188386Y205394D01*
Y212402D01*
G01X206535Y229350D02*
X201642D01*
G01X186535Y264744D02*
Y256909D01*
G01X181535Y273228D02*
Y272344D01*
X176535Y267344D01*
Y256909D01*
G01X181535Y291732D02*
X211535D01*
G01X223819Y75000D02*
Y83961D01*
X222535Y85244D01*
X219535D01*
X217421Y87358D01*
Y95472D01*
G01X229724Y75000D02*
Y77968D01*
X229535Y78158D01*
Y86244D01*
X227535Y88244D01*
X221535D01*
X219980Y89799D01*
Y95472D01*
G01X241535Y66850D02*
X234150D01*
X232300Y68701D01*
X229724D01*
G01X212008Y66850D02*
X219393D01*
X221244Y68701D01*
X223819D01*
G01X230216Y119094D02*
Y104563D01*
G01X206535Y104244D02*
Y109606D01*
X206102Y110039D01*
G01X225098Y119094D02*
Y111807D01*
X224535Y111244D01*
G01X211934Y119094D02*
X211434D01*
X208678Y116339D01*
G01X227657Y119094D02*
Y132244D01*
G01X230248Y130957D02*
X228945D01*
X227657Y132244D01*
G01D02*
Y133122D01*
X221535Y139244D01*
X212535D01*
X208535Y143244D01*
Y166323D01*
X209535Y167323D01*
X223819D01*
G01X225098Y119094D02*
Y132681D01*
X220535Y137244D01*
X211536D01*
X206535Y142244D01*
Y167244D01*
X208583Y169291D01*
X223819D01*
G01X222539Y119094D02*
Y132240D01*
X219535Y135244D01*
X210535D01*
X204535Y141244D01*
G01X223819Y159449D02*
X218535D01*
X216535Y157449D01*
Y148244D01*
X213535Y145244D01*
G01X223819Y159449D02*
Y154528D01*
X221850Y152559D01*
G01X223819Y161417D02*
X215709D01*
X213535Y159244D01*
Y150244D01*
G01X239535Y165244D02*
X229425D01*
X229315Y165354D01*
X223819D01*
G01X232677Y152559D02*
X232677Y143386D01*
X229035Y139744D01*
G01X221535Y144244D02*
X227535D01*
X230709Y147417D01*
Y152559D01*
G01X223819Y163386D02*
X212677D01*
G01X204535Y141244D02*
Y168244D01*
X207552Y171260D01*
X223819D01*
G01X230709Y187992D02*
X230709Y197071D01*
G01X236614Y187992D02*
X236614Y201165D01*
X232535Y205244D01*
X219535D01*
X217913Y206866D01*
Y212402D01*
G01X227535Y212244D02*
X232897D01*
X233055Y212402D01*
X235630D01*
G01X230642Y229350D02*
X227535Y226244D01*
Y212244D01*
G01X212008Y212402D02*
Y207244D01*
G01Y218701D02*
X217913D01*
G01X206102D02*
X212008D01*
G01X216535Y229350D02*
Y223047D01*
X217913Y221669D01*
Y218701D01*
G01X236535Y229350D02*
X230642D01*
G01X216535Y264744D02*
Y256909D01*
G01X211535Y273228D02*
X208235Y269928D01*
Y269644D01*
X206535Y267944D01*
Y256909D01*
G01X211535Y291732D02*
X241535D01*
G01X232776Y95472D02*
X237307Y95472D01*
G01X251752Y90591D02*
X245882D01*
G01X256752D02*
Y97461D01*
X258535Y99244D01*
X266536D01*
X270536Y103244D01*
X287535D01*
X288780Y102000D01*
Y98622D01*
G01X238583Y152559D02*
X238583Y108197D01*
X242535Y104244D01*
X265535D01*
X268535Y107244D01*
X293535D01*
X295535Y105244D01*
Y85244D01*
X292535Y82244D01*
X289535D01*
X288780Y81488D01*
Y75000D01*
G01X236614Y152559D02*
X236614Y107165D01*
X241535Y102244D01*
X266535D01*
X269535Y105244D01*
X292535D01*
X293535Y104244D01*
Y87244D01*
X290535Y84244D01*
X283874D01*
X282874Y83244D01*
Y75000D01*
G01X256752Y112165D02*
Y107244D01*
X257752Y106244D01*
X260752D01*
X261752Y107244D01*
Y112165D01*
G01X256496Y125000D02*
X262291D01*
G01X250197Y136811D02*
Y130906D01*
G01Y142716D02*
Y136811D01*
G01X256496D02*
Y130906D01*
G01Y142716D02*
Y136811D01*
G01X266752Y112165D02*
Y119028D01*
X264535Y121244D01*
X244535D01*
X242520Y123260D01*
Y152559D01*
G01X256752Y112165D02*
Y118028D01*
G01X251752Y112165D02*
Y118028D01*
X250535Y119244D01*
X243535D01*
X240551Y122228D01*
Y152559D01*
G01X250197Y125000D02*
X245780D01*
X244488Y126291D01*
Y152559D01*
G01X250394D02*
Y166244D01*
G01X250197Y142716D02*
Y145292D01*
X250394Y145489D01*
Y152559D01*
G01X251520Y173228D02*
X250394Y172102D01*
Y166244D01*
G01X235535Y161244D02*
X241725D01*
X246457Y156512D01*
Y152559D01*
G01X246535Y163244D02*
X248356Y161423D01*
Y160423D01*
X248425Y160354D01*
Y152559D01*
G01X252362D02*
Y158071D01*
X253740Y159449D01*
X259252D01*
G01X252362Y152559D02*
X255220D01*
X256496Y151284D01*
Y142716D01*
G01X240551Y187992D02*
X240551Y199260D01*
X245535Y204244D01*
X274535D01*
X276968Y206677D01*
Y212402D01*
G01X238583Y187992D02*
X238583Y200291D01*
X247441Y209150D01*
Y212402D01*
G01X242520Y187992D02*
Y198228D01*
X246536Y202244D01*
X303535D01*
X306496Y205205D01*
Y212402D01*
G01X356496Y184055D02*
Y189284D01*
X353535Y192244D01*
X254252D01*
X252362Y190355D01*
Y187992D01*
G01X234535Y178244D02*
X232677Y180102D01*
G01X259252Y173228D02*
X251520Y173228D01*
G01X232677Y180102D02*
Y187992D01*
G01X336024Y212402D02*
Y202732D01*
X333535Y200244D01*
X247535D01*
X244488Y197197D01*
Y187992D01*
G01X248425D02*
Y195134D01*
X249535Y196244D01*
X363535D01*
X369535Y202244D01*
Y210244D01*
X371693Y212402D01*
X377362D01*
G01X259252Y171260D02*
X266551Y171260D01*
X277535Y182244D01*
X298535D01*
X300535Y180244D01*
Y178418D01*
X300591Y178363D01*
Y173819D01*
G01X377362Y199016D02*
X370307D01*
X365535Y194244D01*
X251535D01*
X250394Y193102D01*
Y187992D01*
G01X358535Y198244D02*
X248536D01*
X246457Y196165D01*
Y187992D01*
G01X265158Y212402D02*
X258693D01*
G01X261642Y229350D02*
X258693Y226402D01*
Y212402D01*
G01X241535D02*
Y207244D01*
G01Y218701D02*
X247441D01*
G01X235630D02*
X241535D01*
G01X246535Y229350D02*
Y222844D01*
X247441Y221939D01*
Y218701D01*
G01X246535Y264744D02*
Y256909D01*
G01X241535Y273228D02*
X237551Y269244D01*
X237535D01*
X236535Y268244D01*
Y256909D01*
G01X241535Y291732D02*
X271535D01*
G01X282874Y68701D02*
X276669D01*
X274819Y66850D01*
X271063D01*
G01X282874Y98622D02*
X276968D01*
G01D02*
X273535D01*
X272535Y97622D01*
Y97244D01*
G01X288780Y92323D02*
X282874D01*
G01D02*
Y87583D01*
X281535Y86244D01*
X269326D01*
X266752Y88818D01*
G01X276968Y92323D02*
X274393D01*
X274315Y92244D01*
X271535D01*
X270535Y93244D01*
Y94244D01*
X267535Y97244D01*
X263535D01*
X261752Y95461D01*
Y90591D01*
G01X279724Y136811D02*
X273968D01*
X270535Y140244D01*
Y161244D01*
X268394Y163386D01*
X259252D01*
G01X279724Y125000D02*
X269780D01*
X266535Y128244D01*
Y153244D01*
X265035Y154744D01*
X264035D01*
G01X286024Y136811D02*
X289968D01*
X292535Y134244D01*
Y133244D01*
X293535Y132244D01*
X311535D01*
X316535Y127244D01*
Y58244D01*
X319535Y55244D01*
G01X279724Y130906D02*
X271874D01*
X268535Y134244D01*
Y160244D01*
X267362Y161417D01*
X259252D01*
G01X286024Y125000D02*
X308780D01*
X312215Y121565D01*
Y49065D01*
X314035Y47244D01*
G01X286024Y130906D02*
X288992D01*
X291654Y128244D01*
X310535D01*
X314535Y124244D01*
Y53244D01*
X316535Y51244D01*
G01X279724Y160236D02*
Y152559D01*
G01Y160236D02*
X275543D01*
G01X279724Y142716D02*
X275063D01*
X272535Y145244D01*
Y162244D01*
X269425Y165354D01*
X259252D01*
G01X286024Y142716D02*
X292063D01*
X294535Y140244D01*
Y136244D01*
X295535Y135244D01*
X313535D01*
X319535Y129244D01*
Y62244D01*
X322535Y59244D01*
G01X286024Y160236D02*
Y152559D01*
G01X259252Y167323D02*
X273457D01*
X276535Y164244D01*
X284787D01*
X286024Y163008D01*
Y160236D01*
G01X279724Y176181D02*
Y168504D01*
G01X259252Y169291D02*
X276559D01*
X277347Y168504D01*
X279724D01*
G01X259252Y175197D02*
X267488D01*
X276535Y184244D01*
X313535D01*
X315158Y182622D01*
Y176181D01*
G01X259252Y179134D02*
X265425D01*
X274535Y188244D01*
X324535D01*
X329535Y183244D01*
Y130244D01*
X330842Y128937D01*
X356496D01*
G01X286024Y176181D02*
Y168504D01*
G01X259252Y181102D02*
X264393D01*
X273535Y190244D01*
X325536D01*
X331535Y184244D01*
Y162220D01*
X332535Y161220D01*
X336024D01*
G01X259252Y177165D02*
X266457D01*
X275535Y186244D01*
X323535D01*
X327535Y182244D01*
Y107244D01*
X328677Y106102D01*
X336024D01*
G01X271063Y212402D02*
Y207244D01*
G01Y218701D02*
X276968D01*
G01X265158D02*
X271063D01*
G01X276535Y229350D02*
Y222102D01*
X276968Y221669D01*
Y218701D01*
G01X266535Y229350D02*
X261642D01*
G01X290642D02*
X287535Y226244D01*
Y212402D01*
G01X276535Y264744D02*
Y256909D01*
G01X271535Y273228D02*
X271494D01*
X266535Y268269D01*
Y256909D01*
G01X271535Y291732D02*
X301535D01*
G01X288780Y68701D02*
X294984D01*
X296835Y66850D01*
X300591D01*
G01X315158Y168307D02*
Y160433D01*
G01X300591Y147047D02*
X318158Y147047D01*
G01X300591Y173819D02*
X306961D01*
X308535Y172244D01*
Y153244D01*
X309220Y152559D01*
X315158D01*
G01Y176181D02*
Y168307D01*
G01X294685Y212402D02*
X287535D01*
G01X300591Y218701D02*
X306496D01*
G01X294685D02*
X300591D01*
G01X306535Y229350D02*
Y221709D01*
X306496Y221669D01*
Y218701D01*
G01X300591Y212402D02*
Y207244D01*
G01X296535Y229350D02*
X290642D01*
G01X306535Y264744D02*
Y256909D01*
G01X301535Y273228D02*
X298635Y270328D01*
Y269544D01*
X296535Y267444D01*
Y256909D01*
G01X301535Y291732D02*
X331535D01*
G01X336024Y106102D02*
Y96654D01*
G01Y167520D02*
X340141D01*
X341913Y165748D01*
X347835D01*
G01X321457Y160433D02*
Y152559D01*
G01Y168307D02*
Y160433D01*
G01Y152559D02*
Y146323D01*
G01X318158Y147047D02*
X318882Y146323D01*
X321457D01*
G01X336024Y161220D02*
Y151772D01*
G01X321457Y176181D02*
Y182165D01*
G01X330118Y218701D02*
X336024D01*
G01X324213D02*
X330118D01*
G01X336535Y229350D02*
Y222181D01*
X336024Y221669D01*
Y218701D01*
G01X324213Y212402D02*
X317535D01*
G01X320642Y229350D02*
X317535Y226244D01*
Y212402D01*
G01X330118D02*
Y207244D01*
G01X326535Y229350D02*
X320642D01*
G01X336535Y264744D02*
Y256909D01*
G01X331535Y273228D02*
Y272769D01*
X326535Y267769D01*
Y256909D01*
G01X331535Y291732D02*
X361535D01*
G01X371457Y106102D02*
X377362D01*
G01X382480Y125000D02*
Y118244D01*
X381480Y117244D01*
X373331D01*
X371457Y115370D01*
Y112402D01*
G01X362795Y128937D02*
Y121063D01*
G01X372244Y128740D02*
X365961D01*
X365764Y128937D01*
X362795D01*
G01X347835Y165748D02*
X354512Y165748D01*
X354709Y165551D01*
X359646D01*
G01X356496Y176181D02*
Y168701D01*
X359646Y165551D01*
G01X347835Y165748D02*
Y172945D01*
G01X377362Y161220D02*
X371457D01*
G01X382480Y180118D02*
Y173244D01*
X381480Y172244D01*
X372535D01*
X371457Y171165D01*
Y167520D01*
G01X362795Y184055D02*
Y176181D01*
G01X372244Y183858D02*
X365961D01*
X365764Y184055D01*
X362795D01*
G01X353740Y212402D02*
X347535D01*
G01X349642Y229350D02*
X347535Y227244D01*
Y212402D01*
G01X359646D02*
Y207354D01*
G01Y218701D02*
X365551D01*
G01X353740D02*
X359646D01*
G01X366535Y229350D02*
Y222653D01*
X365551Y221669D01*
Y218701D01*
G01Y212402D02*
Y202260D01*
X361536Y198244D01*
X358535D01*
G01Y201244D02*
Y198244D01*
G01X356535Y229350D02*
X349642D01*
G01X366535Y264744D02*
Y256909D01*
G01X361535Y273228D02*
Y272669D01*
X356535Y267669D01*
Y256909D01*
G01X361535Y291732D02*
X426575D01*
G01X375394Y67913D02*
Y73386D01*
X374535Y74244D01*
G01X377362Y106102D02*
X383268D01*
G01X388386Y89764D02*
X385024Y89764D01*
X384543Y90244D01*
X384535D01*
X383268Y91512D01*
Y106102D01*
G01X388386Y102094D02*
Y110394D01*
X386378Y112402D01*
X383268D01*
G01X372244Y121260D02*
X377520D01*
G01X377362Y112402D02*
X383268D01*
G01X428743Y171037D02*
Y161451D01*
X427535Y160244D01*
X399535D01*
X395079Y164701D01*
Y192716D01*
G01X388386Y152362D02*
Y166394D01*
X387260Y167520D01*
X383268D01*
G01X393110Y158465D02*
Y152787D01*
X393535Y152362D01*
G01X383268Y161220D02*
X377362D01*
G01X388386Y144882D02*
X385024Y144882D01*
X384661Y145244D01*
X384535D01*
X383268Y146512D01*
Y161220D01*
G01X413819Y169744D02*
X403035D01*
X399535Y173244D01*
Y198244D01*
X398764Y199016D01*
X395079D01*
G01X389173Y192716D02*
X383268D01*
G01X395079D02*
X389173D01*
G01X372244Y176378D02*
X377535Y176378D01*
G01X377362Y167520D02*
X383268D01*
G01X389173Y212402D02*
X395079D01*
G01D02*
X400378D01*
X401535Y211244D01*
Y177244D01*
X404035Y174744D01*
X413819D01*
G01X383268Y218701D02*
X389173D01*
G01X413819Y179744D02*
X407035D01*
X403535Y183244D01*
Y222244D01*
X401535Y224244D01*
X391173D01*
X389173Y222244D01*
Y218701D01*
G01X377362D02*
Y225071D01*
G01X395079Y218701D02*
X399992D01*
G01X389173Y199016D02*
Y203882D01*
G01X377362Y212402D02*
X383268D01*
G01X377362Y199016D02*
X383268D01*
G01X427795Y7638D02*
X441102D01*
G01X418701Y105709D02*
X423425D01*
X424606Y104528D01*
G01D02*
X428535D01*
X429535Y103528D01*
Y97244D01*
X430520Y96260D01*
X434646D01*
G01X413819Y164744D02*
X408035D01*
G01X422638Y148622D02*
X427149D01*
X427937Y147835D01*
X430512D01*
G01X454134Y191142D02*
Y200646D01*
X452535Y202244D01*
X412465D01*
X410433Y200213D01*
Y195276D01*
G01X413819Y169744D02*
X423035D01*
X425535Y172244D01*
Y182244D01*
X428134Y184842D01*
X454134D01*
G01X426575Y273228D02*
X439173D01*
G01X460039Y306299D02*
X455890D01*
X455835Y306244D01*
X427535D01*
X421535Y312244D01*
Y328740D01*
G01X426575Y291732D02*
X439173D01*
G01X441102Y7638D02*
X444291Y10827D01*
G01X454134Y147835D02*
X450968D01*
X446063Y142929D01*
Y139567D01*
G01X460039Y165158D02*
X454134D01*
G01D02*
X439760D01*
X439347Y164744D01*
X435394D01*
G01X465945Y141535D02*
X474827D01*
X476535Y143244D01*
Y151244D01*
X474535Y153244D01*
X448323D01*
X446063Y150984D01*
Y149803D01*
G01X460039Y191142D02*
X454134D01*
G01X435394Y169744D02*
X430035D01*
X428743Y171037D01*
G01D02*
Y173451D01*
X430035Y174744D01*
X435394D01*
G01Y169744D02*
X441791D01*
X444291Y172244D01*
G01X454134Y171457D02*
Y179342D01*
X454535Y179744D01*
G01X438780Y259449D02*
Y269276D01*
X439173Y269669D01*
Y273228D01*
G01Y291732D02*
X454528D01*
X460039Y286220D01*
G01X471850Y119094D02*
X466795D01*
X465945Y118244D01*
G01Y165158D02*
X460039D01*
G01Y147835D02*
X465945D01*
G01D02*
X471126D01*
G01X465945Y191142D02*
X460039D01*
G01Y199803D02*
Y191142D01*
G01X465945Y184842D02*
X460039D01*
G01X465945D02*
X471134D01*
G01X465945Y171457D02*
X471323D01*
G01X460039D02*
X465945D01*
M02*
